<svg version="1.1" id="Layer_1" xmlns="http://www.w3.org/2000/svg" x="0" y="0" viewBox="0 0 64 64" xml:space="preserve">
  <style>
    .st0{fill:#82af1d}.st5{fill:#2f3f1a}.st210{fill:#b3706b}.st325{fill:#bfd787}.st326{fill:#a1c259}.st327{fill:#92b741}.st328{fill:#b1cc71}.st329{fill:#d6c9bb}.st330{fill:#cbcfa3}.st331{fill:#c5d297}.st332{fill:#d0cdaf}.st333{fill:#5b7d12}
  </style>
  <path class="st325" d="M40.3 61.7l.3-15.3V33c0-1.4-.1-2.7-.5-4.1-.4-1.6-.7-3.5-.7-5.6 0-5.4 1.6-10.8 3.6-10.8s3.6 5.4 3.6 10.8c0 2.1-.2 4-.7 5.6-.3 1.3-.5 2.7-.5 4.1v13.4l.2 15.3s-2.4 1.8-5.3 0z"/>
  <path class="st0" d="M40.5 33v10.5h4.9V33c0-1.4.1-2.7.5-4.1.4-1.6.7-3.5.7-5.6 0-5.4-1.6-10.8-3.6-10.8s-3.6 5.4-3.6 10.8c0 2.1.2 4 .7 5.6.3 1.4.4 2.8.4 4.1z"/>
  <path class="st325" d="M18.3 61.7l.3-15.3V28c0-1.4-.1-2.7-.5-4.1-.4-1.6-.7-3.5-.7-5.6 0-5.4 1.6-10.8 3.6-10.8s3.6 5.4 3.6 10.8c0 2.1-.2 4-.7 5.6-.3 1.3-.5 2.7-.5 4.1v18.4l.2 15.3s-2.4 1.8-5.3 0zM29.2 61.7l.3-15.3V22c0-1.4-.1-2.7-.5-4.1-.4-1.6-.7-3.5-.7-5.6C28.4 6.9 30 1.5 32 1.5s3.6 5.4 3.6 10.8c0 2.1-.2 4-.7 5.6-.3 1.3-.5 2.7-.5 4.1v24.4l.2 15.3s-2.4 1.8-5.4 0z"/>
  <path class="st326" d="M40.6 43.6h4.7v1h-4.7z"/>
  <path class="st327" d="M40.6 42.6h4.7v1h-4.7z"/>
  <path class="st328" d="M40.6 44.6h4.7v1h-4.7z"/>
  <path class="st329" d="M40.4 55l-.1 6.7c3 1.8 5.4 0 5.4 0l-.1-6.7h-5.2zM18.4 55l-.1 6.7c3 1.8 5.4 0 5.4 0l-.1-6.7h-5.2z"/>
  <path class="st330" d="M40.6 54.6h4.7v1h-4.7z"/>
  <path class="st331" d="M40.6 53.6h4.7v1h-4.7z"/>
  <path class="st332" d="M40.6 55.6h4.7v1h-4.7z"/>
  <path class="st333" d="M43 64c-1 0-2.2-.2-3.5-1-.5-.3-.7-.8-.7-1.3l.2-15.3V33a14 14 0 00-.4-3.7 23 23 0 01-.7-6c0-5 1.4-12.3 5.1-12.3s5.1 7.4 5.1 12.3c0 2.2-.2 4.2-.7 6A14 14 0 0047 33v13.4l.2 15.3c0 .5-.2.9-.6 1.2C46.4 63 45 64 43 64zm-1.2-3.2c1 .4 1.8.2 2.4 0L44 46.4V33c0-1.6.2-3.1.5-4.4.4-1.5.6-3.4.6-5.3 0-4.8-1.3-8.5-2.1-9.2-.8.7-2.1 4.4-2.1 9.2 0 1.9.2 3.7.6 5.3.3 1.3.5 2.8.5 4.4v13.4l-.2 14.4z"/>
  <path class="st0" d="M18.5 28v15.5h4.9V28c0-1.4.1-2.7.5-4.1.4-1.6.7-3.5.7-5.6 0-5.4-1.6-10.8-3.6-10.8s-3.6 5.4-3.6 10.8c0 2.1.2 4 .7 5.6.3 1.4.4 2.8.4 4.1zM29.5 22v21.5h4.9V22c0-1.4.1-2.7.5-4.1.4-1.6.7-3.5.7-5.6C35.6 6.9 34 1.5 32 1.5s-3.6 5.4-3.6 10.8c0 2.1.2 4 .7 5.6.3 1.4.4 2.8.4 4.1z"/>
  <path class="st329" d="M29.4 55l-.1 6.7c3 1.8 5.4 0 5.4 0l-.1-6.7h-5.2z"/>
  <path class="st330" d="M18.8 54.6h4.7v1h-4.7z"/>
  <path class="st331" d="M18.8 53.6h4.7v1h-4.7z"/>
  <path class="st332" d="M18.8 55.6h4.7v1h-4.7z"/>
  <path class="st326" d="M18.8 43.6h4.7v1h-4.7z"/>
  <path class="st327" d="M18.8 42.6h4.7v1h-4.7z"/>
  <path class="st328" d="M18.8 44.6h4.7v1h-4.7z"/>
  <g>
    <path class="st330" d="M29.6 54.6h4.7v1h-4.7z"/>
    <path class="st331" d="M29.6 53.6h4.7v1h-4.7z"/>
    <path class="st332" d="M29.6 55.6h4.7v1h-4.7z"/>
  </g>
  <g>
    <path class="st326" d="M29.6 43.6h4.7v1h-4.7z"/>
    <path class="st327" d="M29.6 42.6h4.7v1h-4.7z"/>
    <path class="st328" d="M29.6 44.6h4.7v1h-4.7z"/>
  </g>
  <path class="st333" d="M21 64c-1 0-2.2-.2-3.5-1-.5-.3-.7-.8-.7-1.3l.2-15.3V28a14 14 0 00-.4-3.7 23 23 0 01-.7-6c0-5 1.4-12.3 5.1-12.3s5.1 7.4 5.1 12.3c0 2.2-.2 4.2-.7 6A14 14 0 0025 28v18.4l.2 15.3c0 .5-.2.9-.6 1.2C24.4 63 23 64 21 64zm-1.2-3.2c1 .4 1.8.2 2.4 0L22 46.4V28c0-1.6.2-3.1.5-4.4.4-1.5.6-3.4.6-5.3 0-4.8-1.3-8.5-2.1-9.2-.8.7-2.1 4.4-2.1 9.2 0 1.9.2 3.7.6 5.3.3 1.3.5 2.8.5 4.4v18.4l-.2 14.4zM31.9 64c-1 0-2.2-.2-3.5-1-.5-.3-.7-.8-.7-1.3l.3-15.3V22a14 14 0 00-.4-3.7 23 23 0 01-.7-6C26.9 7.4 28.3 0 32 0s5.1 7.4 5.1 12.3c0 2.2-.2 4.2-.7 6A14 14 0 0036 22v24.4l.2 15.3c0 .5-.2.9-.6 1.2-.2.1-1.6 1.1-3.7 1.1zm-1.1-3.2c1 .4 1.8.2 2.4 0L33 46.4V22c0-1.6.2-3.1.5-4.4.4-1.5.6-3.4.6-5.3 0-4.8-1.3-8.5-2.1-9.2-.8.7-2.1 4.4-2.1 9.2 0 1.9.2 3.7.6 5.3.3 1.3.5 2.8.5 4.4v24.4l-.2 14.4z"/>
  <g>
    <path class="st210" d="M43 21.8l-1.6-3-1.6 3zM43.6 27.7L42 24.6l-1.6 3.1zM45.6 25.2L44 22.1l-1.6 3.1zM46.5 19.9l-1.6-3.1-1.6 3.1z"/>
    <path class="st210" d="M44.6 17.4L43 14.3l-1.6 3.1z"/>
    <path class="st5" d="M47.6 20.5l-2.2-4.2c-.1-.2-.3-.3-.4-.3l-.3.2-1.3-2.2c-.1-.2-.3-.3-.4-.3-.2 0-.4.1-.4.3L41 17c-.1.2 0 .5.2.7l.2.1c.2 0 .4-.1.4-.3l1.1-2.1 1 1.9-1.5 2.6-.7-1.3c-.1-.2-.3-.3-.4-.3-.2 0-.4.1-.4.3l-2.2 4.2c-.1.2 0 .5.2.7l.2.1c.2 0 .4-.1.4-.3l1.7-3.3 1.6 3-.7 1.2c.1-.1 0-.2-.1-.2-.2 0-.4.1-.4.3l-2.2 4.2c-.1.2 0 .5.2.7l.2.1c.2 0 .4-.1.4-.3l1.7-3.3 1.7 3.3c.1.2.4.3.7.2s.3-.4.2-.7l-1.7-3.3 1.1-2 1.8 3.4c.1.2.3.3.4.3l.2-.1c.2-.1.3-.4.2-.7l-2.2-4.2c-.1-.2-.3-.3-.4-.3-.2 0-.4.1-.4.3L43 21l1.8-3.3 1.8 3.4c.1.2.4.3.7.2.3-.2.4-.5.3-.8z"/>
  </g>
  <g>
    <path class="st210" d="M32 10.3l-1.6-3.1-1.6 3.1zM32.6 16.1l-1.6-3-1.6 3zM34.6 13.6L33 10.5l-1.6 3.1zM35.5 8.3l-1.6-3-1.6 3zM33.6 5.8L32 2.7l-1.6 3.1z"/>
    <path class="st5" d="M36.5 9l-2.2-4.2c-.1-.2-.3-.3-.4-.3l-.3.2-1.2-2.2c-.1-.2-.3-.3-.4-.3-.2 0-.4.1-.4.3L30 5.4c-.1.2 0 .5.2.7l.2.1c.2 0 .4-.1.4-.3L32 3.8l1 1.9-1.5 2.6-.7-1.3c-.1-.2-.3-.3-.4-.3-.2 0-.4.1-.4.3l-2.2 4.2c-.1.2 0 .5.2.7l.2.1c.2 0 .4-.1.4-.3l1.7-3.3 1.6 3-.7 1.2-.3-.1c-.2 0-.4.1-.4.3L28.3 17c-.1.2 0 .5.2.7l.2.1c.2 0 .4-.1.4-.3L31 14l1.7 3.3c.1.2.4.3.7.2s.3-.4.2-.7l-1.7-3.3 1.1-2 1.8 3.4c.1.2.3.3.4.3l.2-.1c.2-.1.3-.4.2-.7l-2.2-4.2-.4-.2c-.2 0-.4.1-.4.3l-.5-.9 1.8-3.3 1.8 3.4c.1.2.4.3.7.2.2-.2.3-.5.1-.7z"/>
  </g>
  <g>
    <path class="st210" d="M21 16.5l-1.6-3.1-1.6 3.1zM21.6 22.3l-1.6-3-1.6 3zM23.6 19.8L22 16.7l-1.6 3.1zM24.5 14.5l-1.6-3.1-1.6 3.1z"/>
    <path class="st210" d="M22.6 12L21 8.9 19.4 12z"/>
    <path class="st5" d="M25.5 15.1L23.3 11c-.1-.2-.3-.3-.4-.3l-.3.2-1.2-2.2c-.1-.2-.3-.3-.4-.3-.2 0-.4.1-.4.3L19 11.6c-.1.2 0 .5.2.7l.2.1c.2 0 .4-.1.4-.3l1.1-2.1 1 1.9-1.5 2.6-.7-1.3c-.1-.2-.3-.3-.4-.3-.2 0-.4.1-.4.3l-2.2 4.2c-.1.2 0 .5.2.7l.2.1c.2 0 .4-.1.4-.3l1.7-3.3 1.6 3-.7 1.2-.3-.1c-.2 0-.4.1-.4.3l-2.2 4.2c-.1.2 0 .5.2.7l.2.1c.2 0 .4-.1.4-.3l1.7-3.3 1.7 3.3c.1.2.4.3.7.2s.3-.4.2-.7l-1.7-3.3 1.1-2 1.8 3.4c.1.2.3.3.4.3l.2-.1c.2-.1.3-.4.2-.7l-2.2-4.2c-.1-.2-.3-.3-.4-.3-.2 0-.4.1-.4.3l-.3-1.1 1.8-3.3 1.8 3.4c.1.2.4.3.7.2.2-.1.3-.4.2-.7z"/>
  </g>
</svg>