<svg version="1.1" id="Layer_1" xmlns="http://www.w3.org/2000/svg" x="0" y="0" viewBox="0 0 64 64" xml:space="preserve">
  <style>
    .st14{fill:#68664c}.st21{fill:#fff}
  </style>
  <path d="M32 17.7C10.9 15.1 2.1 23.5 2.1 36.9 2.1 53 13.8 57.1 32 56.1l4.3-.3c4.9 1 8.7.3 11.5-1.7C56.3 51.9 62 47.4 62 36.9c0-6.8-3.3-11.6-11.5-15L43 18.4l-11-.7z" fill="#b63e34"/>
  <path class="st14" d="M47 20.3c2.1-1.8 3.8-4.1 5-6.7 0 0-6.1 2.3-13.9 2.7L35 7.8l-4.3 8.1c-8-1.4-13.4-4.6-13.4-4.6.5 2.3 1.6 4.5 3.3 6.5-3.3.7-6.4 1.8-9.4 3.5-2.1 1.2-.6 4.3 1.6 3.8l3.1-.5c.1.8.7 1.5 1.5 1.8l.2 8.4c0 1.9 3 3 3.9 1 1.5-3.4 3.6-5.9 6.4-7.4.6.3 1.2.3 1.8-.1 1.2-.7 2.5-1.3 3.7-1.7.1 1 .8 1.9 2 1.8 1.4-.1 2.8-.3 4.2-.7 1.5-.1 2.9-.2 4.4-.1 3.2 1.2 5.5 3.6 6.5 8.2.4 1.9 3.6 2 4 0 .3-1.8.2-3.6.4-5.4l2-.7 1.1.6 2.5.3-6-7.2-7.5-3.1z"/>
  <circle class="st21" cx="19.2" cy="22.9" r=".5"/>
  <path class="st21" d="M31.9 23.1c-.1-.3-.4-.4-.7-.3-3 1-5 2.4-6.4 4.7l-.1.3c0 .3.2.5.5.5l.4-.2a9.6 9.6 0 015.8-4.3c.4-.1.5-.4.5-.7zM7.6 33.2h-.1c-.3-.1-.5-.3-.4-.6 1-4.8 3.8-7.8 8.6-9.4.3-.1.6.1.7.3.1.3-.1.6-.3.7-4.5 1.5-7 4.2-7.9 8.6-.1.2-.3.4-.6.4z"/>
  <path class="st14" d="M30.5 29.9c-1 0-1 2.1 0 2.1 4 0 4-2.1 0-2.1zM45.5 34.7c-2 0-2 2.1 0 2.1 1 0 1-2.1 0-2.1zM53.5 42c-1 0-1 2.1 0 2.1s1-2.1 0-2.1zM12.5 29.7c-2 0-2 2.1 0 2.1 1 0 1-2.1 0-2.1zM17.5 41.8c-1 0-1 2.1 0 2.1s1-2.1 0-2.1z"/>
  <path d="M51.3 20.5l-.5-.6c-.3-.3-.3-.9 0-1.3 1-1.3 1.9-2.7 2.6-4.3.3-.6.1-1.2-.3-1.7s-1.1-.6-1.7-.4c-.1 0-4.6 1.7-10.7 2.4-.9.1-1.8-.4-2.2-1.3l-2.2-5.9c-.2-.6-.7-1-1.4-1-.6 0-1.2.3-1.5.8l-3 5.7a2 2 0 01-2.3 1c-6-1.6-10-3.9-10.1-3.9-.5-.3-1.2-.3-1.7.1s-.7 1-.6 1.6c.2 1.1.6 2.2 1.1 3.3.3.7 0 1.5-.8 1.7-3.7.9-6.9 2.4-9.3 4.6A20 20 0 00.5 36.9c0 6.4 1.8 11.4 5.5 14.8 4.3 4.1 11.1 6 21 6l5.1-.2 2.3-.1c1-.1 2.1-.1 3.1.1 4 .6 7.4.1 10.1-1.5l2.1-.9c9.4-2.9 13.8-8.7 13.8-18.3 0-7.6-3.8-12.7-11.9-16.2-.1.1-.2 0-.3-.1zm-4.2 31.4c-2.6 2.2-6.3 2.8-10.8 1.8-11.5-2.3-16.1-7.3-16.1-17.1 0-14.4 7-16.3 16.1-17.1l2.7-.1c3.9 0 6.8.9 8.9 2.8 3 2.7 4.4 7.4 4.4 14.4-.1 7.2-1.9 12.5-5.2 15.3zm.2-34.5l-.9-.4v-.3l1.9-.4c.1 0 .2.1.1.2l-.6.8c-.1.1-.3.2-.5.1zm-14.7-2l1.5-2.9c.2-.3.7-.3.8.1l1 2.7c.1.3-.1.6-.4.6l-2.5.2c-.3 0-.5-.3-.4-.7zm-12-.8l2.1.8c.2.1.2.4-.1.4l-1.4.1-.4-.2-.5-.7c-.1-.3.1-.5.3-.4zM8.1 49.5c-3-2.9-4.5-7-4.5-12.6 0-5.8 1.7-10.3 5.2-13.3 3.6-3.2 9-4.8 16-4.8l2.6.1c.7 0 .9 1 .2 1.3-5.1 2-8.5 6.2-8.5 16.5 0 8.4 3.4 13.5 11.1 16.5.8.3.6 1.6-.3 1.6-15 .3-21.8-5.3-21.8-5.3zm43 1.9c-.8.3-1.5-.6-1.1-1.3 2.1-3.1 3.2-7.7 3.2-13.5 0-4.5-.6-8-1.8-10.8-.3-.8.5-1.5 1.2-1.1 5.3 2.9 7.7 6.7 7.7 12.2.1 7.4-2.7 11.9-9.2 14.5z" fill="#522b25"/>
</svg>