<svg xmlns="http://www.w3.org/2000/svg" viewBox="0 0 250 250">
  <style>
    .st0{fill:#7c9800}.st27{fill:#fff}.st140{fill:#ebde00}
  </style>
  <g id="Layer_1">
    <path d="M195.1 60.6c-5.3-2.5-10.6-4-15.8-4.8a134 134 0 0016.4-32s-22.6 21.4-58.6 25.8L125 6.9l-12.3 43c-37.3-4-58.4-26.1-58.4-26.1A95.4 95.4 0 0071 57a83 83 0 00-12 3.3 72 72 0 00-49.7 71.1c0 70.3 62.3 111.7 115.7 111.7 53.4 0 115.7-46.4 115.7-111.7 0-37-19-58.3-45.6-70.8z" fill="#a7c92b"/>
    <path class="st140" d="M235.4 100.8a75.5 75.5 0 00-40.2-40.3 67.7 67.7 0 00-44.7-3.6 102.7 102.7 0 01-47.1.7A77.2 77.2 0 0059 60.3a72 72 0 00-49.7 71.1c0 7.2.7 14.1 1.9 20.8l224.2-51.4z"/>
    <path d="M27.7 192.1c34.4-13.9 118.5-44.2 212.6-51.8.3-2.9.4-5.9.4-8.8l-.1-3c-97.6 7.7-184.9 39.6-219 53.5 1.9 3.5 3.9 6.9 6.1 10.1z" fill="#aec939"/>
    <path d="M21.6 182c32.4-13.3 120.5-46 219-53.4-.1-4.1-.5-8-1-11.7-100.4 7.6-190.1 41-222.9 54.5 1.5 3.6 3.1 7.2 4.9 10.6z" fill="#b8cc35"/>
    <path d="M16.7 171.4c30.7-12.8 121.4-47.1 222.9-54.4-.6-4.1-1.5-7.9-2.7-11.6C135.6 113.1 45.1 147 13 160.2c1.1 3.9 2.3 7.6 3.7 11.2z" fill="#c2cf33"/>
    <path d="M13.1 160.4C42.9 148 134.5 113 237 105.6a73.4 73.4 0 00-4.7-11.4C132 102 42.8 135.4 10.6 148.7a90 90 0 002.5 11.7z" fill="#ccd331"/>
    <path d="M10.6 148.8c30-12.5 120.3-46.9 221.7-54.5-2.1-4-4.5-7.8-7.3-11.2-96.8 8.4-182.7 40.1-215.6 53.5.2 4.1.6 8.2 1.2 12.2z" fill="#d7d631"/>
    <path d="M214.2 72.3A782.7 782.7 0 009.6 123.9a94 94 0 00-.3 7.5l.1 5.2c31.1-12.8 117.8-45.3 215.7-53.5a79.5 79.5 0 00-10.9-10.8z" fill="#e0d930"/>
    <path class="st140" d="M9.6 124a776.7 776.7 0 01204.7-51.6c-4.8-3.9-10-7.2-15.7-10.1a794.7 794.7 0 00-186.8 48.1A85.7 85.7 0 009.6 124z"/>
    <g>
      <path class="st0" d="M93.1 128.8l.1-1.1c.7-4.6 7.5-3.1 7.7 1l.6 12.1s0 .6.5.7c.6 0 .7-.5.7-.5 1.5-3.5 6.1-1.7 7.2.9l1.1 2.9c.2.6.7 1 1.3 1h.4c2 .2 3.9-.9 4.5-2.8 1-3.2 1.7-6.6 2.3-10.4.6-3.8 7-3.7 7.6 0 4.9 30.3 2.6 59.6-7.5 88.7-1.6 4.7-9.2 2.7-7.6-2.1a169 169 0 009.5-63.9s0-.4-.4-.4c-.4-.1-.5.3-.5.3a20 20 0 01-1 2.1c-1 2.1-4.7 2.7-6.2.8l-.4-.5-.2.4c-1.6 4.1-7.5 3.5-7.7-1 0 0 0-.5-.4-.5-.5-.1-.5.4-.5.4l-2.4 5.7c-.6 1.3-1.6 1.9-2.6 1.9l.4 5.3c.3 3.3-4.6 5.3-6.7 2.8l-2.6-3s-.4-.4-.6-.3c-.1.1 0 .3.1.6 1.9 2.9 4 5.6 6.5 7.7 3.8 3.3-1.8 8.9-5.5 5.5A47.1 47.1 0 0180.2 169c-.8-1.5-1.7-3-2.7-4.3-.3-.4-.6-.9-.7-1.5l-1-5.6a75 75 0 013.1-51.9c2.1-4 8.3-1.2 7.2 3a74 74 0 00-1.5 6.4 1.4 1.4 0 002.2 1.4c2.4-1.7 6 .6 5.9 3.4l-.6 8.8s0 .5.4.5c.6.1.6-.4.6-.4zM152.7 166.1l.2-2.8c.3-4.3 6.6-5.5 7.7-1l2.4 10.1c.4 1.5 2.6 1.4 2.8-.1l1.1-7.9a4.4 4.4 0 012.9-3.7 5.8 5.8 0 004.1-4.6l1.1-7.8c.6-3.9 6.7-3.5 7.6 0 6.6 26 7 51.8 1.2 77.6-3 1.8-6.2 3.5-9.3 5.1 4.5-16.6 6.2-33 5.3-49.6-.1-1.8-1.6-3.3-3.4-3.1h-.4c-1.7-.1-3.3 1-3.6 2.7-1 5.7-2.2 11.3-3.7 16.9-1 3.7-6.7 3.8-7.6 0l-1.1-4.8c-.3-1.1-1.9-1.1-2.1.1a134.6 134.6 0 01-8.4 30.7c-.5 1.2-1.4 2-2.3 2.4-.7 5-1.6 9.9-2.5 14.9l-.1.1-6.5 1.1c-.8-.8-1.2-2-.9-3.4a362 362 0 006.4-72.7c0-5.1 7.5-5 7.8 0 0 0 .1.7.7.7.5-.3.6-.9.6-.9zM136.9 62.7c-2.5-4.4-9.3-.4-6.8 4a148 148 0 0120.4 69.1c.2 5 8.1 5.1 7.8 0-1.1-26-8.3-50.5-21.4-73.1zM216.5 126.1c-8.2-28.3-33-68.4-66.1-70.2-5-.3-5 7.6 0 7.8 29.1 1.6 51.4 39.9 58.5 64.4 1.4 4.9 9 2.9 7.6-2zM195.4 117.8c-1-3-2.2-5.1-4.7-7.1a5 5 0 00-3.1-1c-1.6.1-3.1-.7-4.2-1.9l-1.5-1.5c-.9-.9-2-1.2-3-1.1-2.1.2-4-.9-4.7-2.9a38.9 38.9 0 00-6.7-12.7c-3.2-3.9-8.7 1.7-5.5 5.5 8 9.7 7.4 23.8 12 35.1 1.6 4 7.4 3.6 7.7-1l.7-9.7 1.1 2.1c.8 1.7 2.8 2.2 4.5 1.7 1.3-.4 2.7-.8 4.1-.9 2.1 0 4.2-1.8 3.3-4.6zM211.4 182.7c2-8.8 3.1-17.7 3.8-26.6.4-5-7.5-5-7.8 0-1.6 20.3-10.1 38.9-11.9 58.9-.1 1 .2 1.7.6 2.3a122 122 0 007.8-6.5c1.6-9.5 5.4-18.6 7.5-28.1zM237.2 106.1c-2.3-1.4-5.9.6-6 3.5l-.1 1.5c-.1 1.7-2.5 2.1-3 .4-1.8-5.9-4-11.7-6.6-17.4-2.1-4.6-8.9-.6-6.8 4 7.8 17 11.5 35 11.1 53.8-.1 4.4 6.8 5.4 7.7 1 2-9 3.4-18 4.3-27.1h.2c.5 1.8 1.5 2.7 2.6 2.9a85.2 85.2 0 00-3.4-22.6z"/>
      <path class="st0" d="M129.3 64.2a126.6 126.6 0 00-17 49.9c-.6 5-8.4 5-7.8 0a140 140 0 016.6-28.8c-1.6-.4-3.1-1.7-3.1-3.7l-.1-2.5a3 3 0 00-5.4-1.9L98 82.5c-1.4 1.7-3.5 1.5-5 .3a2.6 2.6 0 00-3.7.6l-3.4 4.5c-1.8 2.5-6.4 2.7-7.2-.9-.8-3.6 0-6.6.9-9.7.5-1.6-1.3-3-2.8-2.2a39.2 39.2 0 00-17.7 20.8c-1.8 4.7-9.4 2.6-7.6-2.1a47.9 47.9 0 0132.9-30.3c2.5-.7 4.9 1.3 5 3.8.1 1.1-.1 2.2-.3 3.3l8-10.7 32.2 4.3zM131 242.9a3.4 3.4 0 00-3.2-1.9c-3 0-5.8-1-8.2-2.7a91 91 0 01-19.1-45c-.6-4.3-8.3-3.3-7.7 1l.1 1 .1.3c.9 6.6 2.7 15.1 5.5 23.3.6 1.6-1.5 2.8-2.6 1.5a84.7 84.7 0 01-10.4-14.5c-2.1-3.7-8.9-1.2-7.2 3l1 3c.5 1.5-1.4 2.7-2.5 1.6l-2.2-2.2c-3.8-3.9-10.2 2.7-4.2 6.8l4.9 9.2c.4 6.2 5.2 5.8 7.2 3.3 2.1 1.4 4.4 2.3 6.6 2.2 1.3 0 2.8-.7 3.4-1.9.3-.7.5-1.3.6-2a88 88 0 0015.8 12.7 110 110 0 0016.1 1.2c2 .3 4 .2 6 .1zM73.9 187.3a78 78 0 01-18.1-46.6c-.3-5-8.1-5.1-7.8 0a88 88 0 0020.4 52.2c3.1 3.9 8.7-1.7 5.5-5.6zM23.9 105.1c2-5 4.5-9.9 7.8-14.5.6-.8 1.4-1.4 2.2-1.6a7 7 0 004.5-4.1c1.7-4.5 3.9-8.7 6.7-12.6 2.9-4 9.8-.1 6.8 4-8.7 11.9-10.6 28-14.1 42-1.2 4.7-7.2 3-7.7-1L30 116s.1-.5-.5-.6c-.6-.1-.6.5-.6.5-2.4 9.2-3.1 19-3.4 28.9-.1 4.3-6.9 5.5-7.7 1-1-5.8-1.7-11.5-2.2-17.3l-.5 3.5c-.5 5-8.4 5-7.8 0a83.6 83.6 0 018.4-28.9c1.7-3.5 7.5-1.8 7.3 2 0 0-.1.6.4.7.3-.1.5-.7.5-.7zM53.2 209l-1.4-1.1c2.5-.5 4.7-2.8 2.6-5.5-3.3-4.3-6-8.7-8.1-13.3a3.2 3.2 0 011.2-4.1c1.9-1.2 3.1-4.1 1.3-6.4a40.2 40.2 0 01-9.1-21.6c-.6-4.9-7.7-5.2-7.8 0-.1 5.7.3 11.2 1.3 16.6.3 1.4-1.6 2.2-2.5 1l-1.3-1.9c-2.4-3.7-8.2-1.4-7.2 3a67.6 67.6 0 008.8 20.8c5.7 7.4 12.3 14.1 19.5 19.8 3.5 1.1 6.3-4.6 2.7-7.3zM53.5 110.9c-5 0-5.1 7.8 0 7.8 5 .1 5-7.8 0-7.8zM129.4 102.8c-5 0-5.1 7.8 0 7.8 5 .1 5.1-7.8 0-7.8zM164.9 214.3c-5.1 0-5.1 7.8 0 7.8s5.1-7.8 0-7.8zM198.9 141.6c-5.1 0-5.1 7.8 0 7.8 5 .1 5-7.8 0-7.8zM111.6 175.5c-5.1 0-5.1 7.8 0 7.8 5.1.1 5.1-7.8 0-7.8zM140.7 142.4c-5.1 0-5.1 7.8 0 7.8 5.1.1 5.1-7.8 0-7.8z"/>
    </g>
    <path d="M197.6 55.2a8.7 8.7 0 01-4.1-11.8c2.8-5.4 5.3-11.3 7.7-17.6.9-2.6 0-5.4-2.3-6.9a6 6 0 00-7.3.6c-.2.2-16 14.9-41.8 21.7a9 9 0 01-10.8-6.3l-8.4-29.6a6 6 0 00-5.7-4.3 6 6 0 00-5.7 4.3l-8.7 30.1a9 9 0 01-10.7 6.3c-26.4-6.5-41.3-21.8-41.5-22a6 6 0 00-7.2-1.1 6 6 0 00-2.8 6.7s2.8 9.5 7.8 19.5c2.2 4.4.4 9.9-4.2 11.8a77 77 0 00-48.8 74.8c0 33.8 14.2 64.6 39.9 86.7a129 129 0 0082 30.9c57.4 0 121.6-50.3 121.6-117.6 0-35.1-16.5-60.8-49-76.2zm-18.2-10.4l-1.8 2.9a3 3 0 01-2.9 1.4l-4.4-.2c-1.3 0-1.6-1.7-.4-2.2 2.8-1.2 5.4-2.4 7.8-3.7 1.1-.6 2.4.7 1.7 1.8zM122.8 36c.6-2.2 3.8-2.2 4.4 0l4.3 15.2.2.6c.4 1-.2 2.2-1.3 2.3-3.7.2-7.3.2-10.8 0-1.1-.1-1.8-1.1-1.4-2.1l.2-.5 4.4-15.5zm-51.1 7.4c2.7 1.4 5.6 2.9 8.8 4.2 1.1.5.9 2.2-.4 2.2l-4.7.5c-1.2.1-2.3-.4-3-1.3l-2.5-3.7c-.6-1.2.6-2.5 1.8-1.9zM125 237.2A108 108 0 0115.2 131.4a65 65 0 0138.5-62.5l3.3-1.5.6-.2 3.5-1.4 2.8-.9c2.7-.9 5.5-1.6 8.4-2.1l.2-.1a66.6 66.6 0 0129.6.7c15.3 3.7 32.1 3.5 49.9-.7 9.3-2.2 18-2.6 26.2-1.3l.7.2c3.8.6 7.2 1.6 10.5 2.8l.4.1 3.1 1.3 3 1.5a66.7 66.7 0 0139.2 64.1c-.3 60.6-58.2 105.8-110.1 105.8z" fill="#264008"/>
    <g>
      <path class="st27" d="M45.9 90.3c-.6 0-1.1-.2-1.5-.7a2 2 0 01.2-2.8 64.6 64.6 0 0154.3-13.3c1.1.3 1.7 1.3 1.5 2.4s-1.3 1.7-2.4 1.5a60 60 0 00-50.8 12.5c-.4.2-.9.4-1.3.4z"/>
      <circle class="st27" cx="37" cy="97.6" r="2"/>
    </g>
  </g>
</svg>