<svg xmlns="http://www.w3.org/2000/svg" viewBox="0 0 200 200">
  <style>
    .st12{fill:#4d831c}.st30{fill:#fff}
  </style>
  <g id="Layer_1">
    <path class="st12" d="M147 46c6-6.6 10.7-14.6 13.6-23.4 0 0-17.9 7.6-39.7 11.8 9.3 2.4 18 6.4 26.1 11.6zM64.8 39.3c3.9-2 7.9-3.7 11.9-4.9-21.3-4.2-37.3-11.8-37.3-11.8 1.9 8 6.4 15.7 12.5 22.4 4.1-2.4 8.4-4.3 12.9-5.7zM110.7 32.4L100 5.3 89.5 31.9z"/>
    <path d="M48.6 48.2c2.7-1.8 5.6-3.4 8.6-4.8a56.5 56.5 0 01-6.7-8.1c-.9-1.3.4-3.1 2-2.5 5 1.7 11.1 3.5 17.8 5.1a66 66 0 0124.1-5.2l4.1-10.4a1.7 1.7 0 013.2 0l4.2 10.7c7.8.6 15.3 2.3 22.4 4.8 7.2-1.6 13.8-3.6 19.3-5.3 1.5-.5 2.8 1.2 2 2.5a58.4 58.4 0 01-7.2 9.2c2.8 1.6 5.5 3.3 8.2 5.1A71 71 0 00165.3 24a4.8 4.8 0 00-6.4-5.9c-.2.1-16.9 7.2-37.3 11.3a7.6 7.6 0 01-8.5-4.6l-8.4-21.3c-.7-1.8-2.5-3-4.4-3-2 0-3.7 1.2-4.4 3L87 25.2a7.4 7.4 0 01-8.4 4.6c-20.9-4-36.9-11.5-37.1-11.6a4.8 4.8 0 00-5.1.6 4.7 4.7 0 00-1.6 4.8 57.2 57.2 0 0013.8 24.6z" fill="#184c28"/>
    <path d="M183.2 94.6c9.8 43-25 100.1-83.4 100.1S8.3 138 16.4 94.6C24.1 53.5 53.7 35 99.8 35s73.7 17.3 83.4 59.6z" fill="#ffbc42"/>
    <path class="st30" d="M41.3 84.8h-.4a1.6 1.6 0 01-1.2-1.9l1.3-4.6c.3-.8 1.2-1.3 2-1 .8.3 1.3 1.2 1 2l-1.2 4.3c-.1.7-.7 1.2-1.5 1.2zM45.1 73.8c-.2 0-.5 0-.7-.2-.8-.4-1.1-1.3-.8-2.1A46.8 46.8 0 0155 56.2c.7-.6 1.7-.5 2.2.1.6.7.5 1.7-.1 2.2-4.5 4-8.1 8.8-10.7 14.3-.1.7-.7 1-1.3 1z"/>
    <path d="M187.8 93.6c-9.9-43.2-37.9-63.3-88-63.3-24.4 0-44.2 5.1-58.8 15.2a72 72 0 00-29.3 48.2 92.8 92.8 0 0020.8 74.1 86.3 86.3 0 0067.3 31.7c27.4 0 52.1-12 69.4-33.7a87.7 87.7 0 0018.6-72.2zM78.4 186.3c-.2.4-.6.6-1.1.4a76.8 76.8 0 01-37.5-25 83.2 83.2 0 01-18.7-66.2c3.5-18.8 12-33 25.3-42.2a69.5 69.5 0 0123.1-10.1c2.6-.7 4.7 2.3 3.1 4.5-3.9 5.4-7 12.3-9.3 20.8-.2.7 0 1.5.6 1.8l.9.3c.7 0 1.3-.5 1.5-1.2 6-21.8 17.3-32.9 33.5-32.9 13.9 0 23.4 7.2 29.9 22.7.3.7 1.1 1.2 1.9 1 1-.2 1.5-1.3 1.1-2.2-1.7-4-3.6-7.6-5.7-10.6-1.5-2.2.5-5.2 3.1-4.5 26.4 6.7 41.7 23.6 48.3 52.6a78.4 78.4 0 01-16.8 64.2 79.5 79.5 0 01-35 25.5c-1.4.5-2.5-1.3-1.4-2.3 2-1.8 3.7-4 5.1-6.4.4-.6.3-1.5-.2-2-.8-.7-2-.5-2.5.3-6.4 11.1-18.5 13.4-27.5 13.4a33 33 0 01-19.4-5.5c-.7-.5-1.6-.4-2.1.1-.6.6-.6 1.4-.2 2 .2.3.3.7.1 1l-.1.5z" fill="#e6681e"/>
    <path class="st30" d="M78.1 80h-.2c-.9-.1-1.5-.9-1.4-1.8l.9-5.7c.2-.9 1-1.4 1.9-1.3.9.2 1.4 1 1.3 1.9l-.9 5.5c-.1.8-.8 1.4-1.6 1.4zM81.7 64.3l-.5-.1c-.8-.3-1.3-1.2-1-2a30.7 30.7 0 019.5-14.6c.7-.5 1.7-.4 2.2.3.5.7.4 1.7-.3 2.2a28 28 0 00-8.5 13.2c-.2.6-.8 1-1.4 1z"/>
    <circle transform="rotate(-3.5 39.9 91.8) scale(1.00002)" class="st30" cx="39.9" cy="91.8" r="1.6"/>
    <circle transform="rotate(-3.6 77.4 86)" class="st30" cx="77.4" cy="85.9" r="1.6"/>
  </g>
</svg>