# This file uses meters as units for non-parametric coordinates.

v -1.156233 0.000000 1.695061
v 1.156233 0.000000 1.695061
v -1.156233 0.356919 1.695061
v 1.156233 0.356919 1.695061
v -1.156233 0.356919 -1.769020
v 1.156233 0.356919 -1.769020
v -1.156233 0.000000 -1.769020
v 1.156233 0.000000 -1.769020
v -1.065531 0.336693 1.490669
v 1.065531 0.336693 1.490669
v -1.065531 3.962461 1.490669
v 1.065531 3.962461 1.490669
v -1.065531 4.899200 -0.640388
v 1.065531 4.899200 -0.640388
v -1.065531 0.336693 -0.640388
v 1.065531 0.336693 -0.640388
v -1.065531 4.355273 -0.640388
v 1.065531 4.355273 -0.640388
v -1.298754 3.868610 1.704178
v 1.298754 3.868610 1.704178
v 1.298754 4.149313 1.827568
v -1.298754 4.149313 1.827568
v 1.298754 4.993051 -0.853897
v 1.298754 5.273754 -0.730507
v -1.298754 4.993051 -0.853897
v -1.298754 5.273754 -0.730507
v -0.794966 0.336693 -0.640388
v -0.794966 4.355273 -0.640388
v 0.794966 0.336693 -0.640388
v 0.794966 4.355273 -0.640388
v -0.058819 4.704453 -0.640388
v 0.629620 2.267854 -0.640388
v 0.150166 2.267854 -0.640388
v 0.629620 2.089509 -0.640388
v 0.150166 2.089509 -0.640388
v -0.181150 2.891355 -0.640388
v 0.199013 3.155040 -0.640388
v 0.193596 3.746259 -0.640388
v -0.181877 3.956953 -0.640388
v -0.051012 3.659962 -0.640388
v -0.050295 3.212385 -0.640388
v 0.297163 3.425053 -0.640388
v -0.012096 3.425053 -0.640388
v 0.839699 0.000000 1.738960
v 1.188957 0.000000 1.738960
v 0.839699 0.449841 1.738960
v 1.188957 0.449841 1.738960
v 0.839699 0.449841 -1.827568
v 1.188957 0.449841 -1.827568
v 0.839699 0.000000 -1.827568
v 1.188957 0.000000 -1.827568
v -0.839699 0.000000 1.738960
v -1.188957 0.000000 1.738960
v -0.839699 0.449841 1.738960
v -1.188957 0.449841 1.738960
v -0.839699 0.449841 -1.827568
v -1.188957 0.449841 -1.827568
v -0.839699 0.000000 -1.827568
v -1.188957 0.000000 -1.827568
v 0.932297 0.390741 -0.507156
v 1.198763 0.390741 -0.507156
v 0.932297 4.983457 -0.507156
v 1.198763 4.983457 -0.507156
v 0.932297 4.983457 -0.773621
v 1.198763 4.983457 -0.773621
v 0.932297 0.390741 -0.773621
v 1.198763 0.390741 -0.773621
v -0.932297 0.390741 -0.507156
v -1.198763 0.390741 -0.507156
v -0.932297 4.983457 -0.507156
v -1.198763 4.983457 -0.507156
v -0.932297 4.983457 -0.773621
v -1.198763 4.983457 -0.773621
v -0.932297 0.390741 -0.773621
v -1.198763 0.390741 -0.773621
v 0.932297 0.390741 1.597832
v 1.198763 0.390741 1.597832
v 0.932297 4.147479 1.597832
v 1.198763 4.147479 1.597832
v 0.932297 4.147479 1.331367
v 1.198763 4.147479 1.331367
v 0.932297 0.390741 1.331367
v 1.198763 0.390741 1.331367
v -0.932297 0.390741 1.597832
v -1.198763 0.390741 1.597832
v -0.932297 4.196836 1.597832
v -1.198763 4.196836 1.597832
v -0.932297 4.196836 1.331367
v -1.198763 4.196836 1.331367
v -0.932297 0.390741 1.331367
v -1.198763 0.390741 1.331367
v -0.850813 3.091817 -0.607269
v -0.333267 3.091817 -0.607269
v -0.850813 3.207691 -0.607269
v -0.333267 3.207691 -0.607269
v -0.850813 3.207691 -0.731781
v -0.333267 3.207691 -0.731781
v -0.850813 3.091817 -0.731781
v -0.333267 3.091817 -0.731781
v -0.850813 1.485739 -0.607269
v -0.333267 1.485739 -0.607269
v -0.850813 1.601612 -0.607269
v -0.333267 1.601612 -0.607269
v -0.850813 1.601612 -0.731781
v -0.333267 1.601612 -0.731781
v -0.850813 1.485739 -0.731781
v -0.333267 1.485739 -0.731781
vt 0.301904 0.398254
vt 0.301904 0.398254
vt 0.301904 0.398254
vt 0.301904 0.398254
vt 0.341679 0.396538
vt 0.341679 0.396538
vt 0.341679 0.396538
vt 0.341679 0.396538
vt 0.301904 0.398254
vt 0.301904 0.398254
vt 0.301904 0.398254
vt 0.301904 0.398254
vt 0.271716 0.399792
vt 0.271716 0.399792
vt 0.271716 0.399792
vt 0.271716 0.399792
vt 0.301904 0.398254
vt 0.301904 0.398254
vt 0.301904 0.398254
vt 0.301904 0.398254
vt 0.301904 0.398254
vt 0.301904 0.398254
vt 0.301904 0.398254
vt 0.301904 0.398254
vt 0.301904 0.398254
vt 0.301904 0.398254
vt 0.208261 0.398584
vt 0.208261 0.398584
vt 0.208261 0.398584
vt 0.208261 0.398584
vt 0.167585 0.406300
vt 0.167585 0.406300
vt 0.167585 0.406300
vt 0.167585 0.406300
vt 0.208261 0.398584
vt 0.208261 0.398584
vt 0.208261 0.398584
vt 0.208261 0.398584
vt 0.167585 0.406300
vt 0.167585 0.406300
vt 0.167585 0.406300
vt 0.167585 0.406300
vt 0.128536 0.401419
vt 0.128536 0.401419
vt 0.128536 0.401419
vt 0.128536 0.401419
vt 0.128536 0.401419
vt 0.128536 0.401419
vt 0.271716 0.403046
vt 0.271716 0.403046
vt 0.271716 0.403046
vt 0.271716 0.403046
vt 0.128536 0.401419
vt 0.128536 0.401419
vt 0.301904 0.398254
vt 0.301904 0.398254
vt 0.301904 0.398254
vt 0.170839 0.398468
vt 0.170839 0.398468
vt 0.170839 0.398468
vt 0.170839 0.398468
vt 0.301904 0.398254
vt 0.301904 0.398254
vt 0.398625 0.398352
vt 0.398625 0.398352
vt 0.398625 0.398352
vt 0.398625 0.398352
vt 0.398625 0.398352
vt 0.398625 0.398352
vt 0.398625 0.398352
vt 0.398625 0.398352
vt 0.398625 0.398352
vt 0.398625 0.398352
vt 0.398625 0.398352
vt 0.398625 0.398352
vt 0.398625 0.398352
vt 0.398625 0.398352
vt 0.108582 0.478438
vt 0.108582 0.478438
vt 0.108582 0.478438
vt 0.108582 0.478438
vt 0.108582 0.478438
vt 0.398625 0.398352
vt 0.398625 0.398352
vt 0.108582 0.478438
vt 0.108582 0.478438
vt 0.108582 0.478438
vt 0.198232 0.398254
vt 0.198232 0.398254
vt 0.198232 0.398254
vt 0.198232 0.398254
vt 0.238007 0.396538
vt 0.238007 0.396538
vt 0.238007 0.396538
vt 0.238007 0.396538
vt 0.198232 0.398254
vt 0.198232 0.398254
vt 0.198232 0.398254
vt 0.198232 0.398254
vt 0.168044 0.399792
vt 0.168044 0.399792
vt 0.168044 0.399792
vt 0.168044 0.399792
vt 0.168044 0.399792
vt 0.168044 0.399792
vt 0.168044 0.399792
vt 0.168044 0.399792
vt 0.198232 0.398254
vt 0.198232 0.398254
vt 0.198232 0.398254
vt 0.198232 0.398254
vt 0.238007 0.396538
vt 0.238007 0.396538
vt 0.238007 0.396538
vt 0.238007 0.396538
vt 0.198232 0.398254
vt 0.198232 0.398254
vt 0.198232 0.398254
vt 0.198232 0.398254
vt 0.168044 0.399792
vt 0.168044 0.399792
vt 0.168044 0.399792
vt 0.168044 0.399792
vt 0.168044 0.399792
vt 0.168044 0.399792
vt 0.168044 0.399792
vt 0.168044 0.399792
vt 0.205007 0.398584
vt 0.205007 0.398584
vt 0.205007 0.398584
vt 0.205007 0.398584
vt 0.205007 0.398584
vt 0.205007 0.398584
vt 0.205007 0.398584
vt 0.205007 0.398584
vt 0.167585 0.406300
vt 0.167585 0.406300
vt 0.167585 0.406300
vt 0.167585 0.406300
vt 0.175721 0.399792
vt 0.175721 0.399792
vt 0.175721 0.399792
vt 0.175721 0.399792
vt 0.205007 0.398584
vt 0.205007 0.398584
vt 0.205007 0.398584
vt 0.205007 0.398584
vt 0.205007 0.398584
vt 0.205007 0.398584
vt 0.205007 0.398584
vt 0.205007 0.398584
vt 0.167585 0.406300
vt 0.167585 0.406300
vt 0.167585 0.406300
vt 0.167585 0.406300
vt 0.175721 0.399792
vt 0.175721 0.399792
vt 0.175721 0.399792
vt 0.175721 0.399792
vt 0.205007 0.398584
vt 0.205007 0.398584
vt 0.205007 0.398584
vt 0.205007 0.398584
vt 0.205007 0.398584
vt 0.205007 0.398584
vt 0.205007 0.398584
vt 0.205007 0.398584
vt 0.167585 0.406300
vt 0.167585 0.406300
vt 0.167585 0.406300
vt 0.167585 0.406300
vt 0.167585 0.406300
vt 0.167585 0.406300
vt 0.167585 0.406300
vt 0.167585 0.406300
vt 0.205007 0.398584
vt 0.205007 0.398584
vt 0.205007 0.398584
vt 0.205007 0.398584
vt 0.205007 0.398584
vt 0.205007 0.398584
vt 0.205007 0.398584
vt 0.205007 0.398584
vt 0.167585 0.406300
vt 0.167585 0.406300
vt 0.167585 0.406300
vt 0.167585 0.406300
vt 0.167585 0.406300
vt 0.167585 0.406300
vt 0.167585 0.406300
vt 0.167585 0.406300
vt 0.331917 0.056947
vt 0.331917 0.056947
vt 0.331917 0.056947
vt 0.331917 0.056947
vt 0.305884 0.066709
vt 0.305884 0.066709
vt 0.305884 0.066709
vt 0.305884 0.066709
vt 0.237548 0.053692
vt 0.237548 0.053692
vt 0.237548 0.053692
vt 0.237548 0.053692
vt 0.271716 0.063455
vt 0.271716 0.063455
vt 0.271716 0.063455
vt 0.271716 0.063455
vt 0.271716 0.063455
vt 0.271716 0.063455
vt 0.271716 0.063455
vt 0.271716 0.063455
vt 0.331917 0.056947
vt 0.331917 0.056947
vt 0.331917 0.056947
vt 0.331917 0.056947
vt 0.305884 0.066709
vt 0.305884 0.066709
vt 0.305884 0.066709
vt 0.305884 0.066709
vt 0.237548 0.053692
vt 0.237548 0.053692
vt 0.237548 0.053692
vt 0.237548 0.053692
vt 0.271716 0.063455
vt 0.271716 0.063455
vt 0.271716 0.063455
vt 0.271716 0.063455
vt 0.271716 0.063455
vt 0.271716 0.063455
vt 0.271716 0.063455
vt 0.271716 0.063455
vn 0.000000 0.000000 1.000000
vn 0.000000 0.000000 1.000000
vn 0.000000 0.000000 1.000000
vn 0.000000 0.000000 1.000000
vn -0.000000 1.000000 0.000000
vn -0.000000 1.000000 0.000000
vn -0.000000 1.000000 0.000000
vn -0.000000 1.000000 0.000000
vn -0.000000 0.000000 -1.000000
vn -0.000000 0.000000 -1.000000
vn -0.000000 0.000000 -1.000000
vn -0.000000 0.000000 -1.000000
vn 1.000000 0.000000 -0.000000
vn 1.000000 0.000000 -0.000000
vn 1.000000 0.000000 -0.000000
vn 1.000000 0.000000 -0.000000
vn -1.000000 0.000000 0.000000
vn -1.000000 0.000000 0.000000
vn -1.000000 0.000000 0.000000
vn -1.000000 0.000000 0.000000
vn 0.000000 0.000000 1.000000
vn 0.000000 0.000000 1.000000
vn 0.000000 0.000000 1.000000
vn 0.000000 0.000000 1.000000
vn 1.000000 0.000000 -0.000000
vn 1.000000 0.000000 -0.000000
vn 1.000000 0.000000 -0.000000
vn 1.000000 0.000000 -0.000000
vn -1.000000 0.000000 0.000000
vn -1.000000 0.000000 0.000000
vn -1.000000 0.000000 0.000000
vn -0.000000 0.000000 -1.000000
vn -0.000000 0.000000 -1.000000
vn -0.000000 0.000000 -1.000000
vn -0.000000 0.000000 -1.000000
vn 0.000000 -0.402412 0.915459
vn 0.000000 -0.402412 0.915459
vn 0.000000 -0.402412 0.915459
vn 0.000000 -0.402412 0.915459
vn 1.000000 0.000002 -0.000000
vn 1.000000 0.000002 -0.000000
vn 1.000000 0.000002 -0.000000
vn 1.000000 0.000002 -0.000000
vn -0.000000 0.402412 -0.915459
vn -0.000000 0.402412 -0.915459
vn -0.000000 0.402412 -0.915459
vn -0.000000 0.402412 -0.915459
vn -1.000000 -0.000002 0.000000
vn -1.000000 -0.000002 0.000000
vn -1.000000 -0.000002 0.000000
vn -1.000000 -0.000002 0.000000
vn 0.000002 -0.915461 -0.402407
vn 0.000002 -0.915461 -0.402407
vn 0.000001 -0.915462 -0.402405
vn 0.000001 -0.915462 -0.402405
vn 0.000002 -0.915461 -0.402407
vn 0.000002 -0.915461 -0.402406
vn 0.000002 -0.915461 -0.402406
vn 0.000002 -0.915461 -0.402407
vn 0.000000 0.915462 0.402405
vn 0.000000 0.915462 0.402405
vn 0.000000 0.915462 0.402405
vn 0.000000 0.915462 0.402405
vn 0.000002 -0.915461 -0.402406
vn 0.000002 -0.915461 -0.402406
vn 0.000001 -0.915462 -0.402404
vn 0.000001 -0.915462 -0.402404
vn 0.000001 -0.915462 -0.402404
vn 0.000001 -0.915462 -0.402405
vn 0.000001 -0.915462 -0.402405
vn 0.000001 -0.915462 -0.402404
vn -0.000000 0.000000 -1.000000
vn -0.000000 0.000000 -1.000000
vn -0.000000 0.000000 -1.000000
vn -0.000000 0.000000 -1.000000
vn -0.000000 0.000000 -1.000000
vn -0.000000 0.000000 -1.000000
vn -0.000000 0.000000 -1.000000
vn -0.000000 0.000000 -1.000000
vn 1.000000 0.000000 -0.000000
vn 1.000000 0.000000 -0.000000
vn 1.000000 0.000000 -0.000000
vn -1.000000 0.000000 0.000000
vn -1.000000 0.000000 0.000000
vn -1.000000 0.000000 0.000000
vn -1.000000 0.000000 0.000000
vn -0.000000 0.000000 -1.000000
vn -0.000000 0.000000 -1.000000
vn -0.000000 0.000000 -1.000000
vn 0.000006 0.000000 -1.000000
vn 0.000006 0.000000 -1.000000
vn 0.000006 0.000000 -1.000000
vn -0.000000 0.000000 -1.000000
vn -0.000000 0.000000 -1.000000
vn -0.000000 0.000000 -1.000000
vn -0.000014 0.000000 -1.000000
vn -0.000014 0.000000 -1.000000
vn -0.000014 0.000000 -1.000000
vn -0.000000 0.000000 -1.000000
vn -0.000000 0.000000 -1.000000
vn -0.000000 0.000000 -1.000000
vn -0.000000 0.000000 -1.000000
vn -0.000000 0.000000 -1.000000
vn -0.000000 0.000000 -1.000000
vn 0.000010 0.000000 -1.000000
vn 0.000003 0.000000 -1.000000
vn 0.000002 0.000000 -1.000000
vn 0.000003 0.000000 -1.000000
vn -0.000044 0.000000 -1.000000
vn -0.000044 0.000000 -1.000000
vn -0.000044 0.000000 -1.000000
vn -0.000044 0.000000 -1.000000
vn -0.000000 0.000000 -1.000000
vn -0.000000 0.000000 -1.000000
vn -0.000000 0.000000 -1.000000
vn -0.000000 0.000000 -1.000000
vn 0.000002 0.000000 -1.000000
vn 0.000003 0.000000 -1.000000
vn 0.000003 0.000000 -1.000000
vn 0.000002 0.000000 -1.000000
vn 0.000004 0.000000 -1.000000
vn 0.000004 0.000000 -1.000000
vn 0.000003 0.000000 -1.000000
vn 0.000002 0.000000 -1.000000
vn -0.000006 0.000000 -1.000000
vn -0.000000 0.000000 -1.000000
vn 0.000004 0.000000 -1.000000
vn 0.000014 0.000000 -1.000000
vn 0.000004 0.000000 -1.000000
vn -0.000000 0.000000 -1.000000
vn -0.000006 0.000000 -1.000000
vn 0.000001 0.000000 -1.000000
vn 0.000002 0.000000 -1.000000
vn 0.000002 0.000000 -1.000000
vn 0.000001 0.000000 -1.000000
vn -0.000006 0.000000 -1.000000
vn 0.000001 0.000000 -1.000000
vn 0.000002 0.000000 -1.000000
vn 0.000014 0.000000 -1.000000
vn 0.000014 0.000000 -1.000000
vn 0.000002 0.000000 -1.000000
vn 0.000003 0.000000 -1.000000
vn 0.000010 0.000000 -1.000000
vn 0.000003 0.000000 -1.000000
vn 0.000004 0.000000 -1.000000
vn 0.000004 0.000000 -1.000000
vn 0.000014 0.000000 -1.000000
vn 0.000010 0.000000 -1.000000
vn 0.000000 0.000000 1.000000
vn 0.000000 0.000000 1.000000
vn 0.000000 0.000000 1.000000
vn 0.000000 0.000000 1.000000
vn -0.000000 1.000000 0.000000
vn -0.000000 1.000000 0.000000
vn -0.000000 1.000000 0.000000
vn -0.000000 1.000000 0.000000
vn -0.000000 0.000000 -1.000000
vn -0.000000 0.000000 -1.000000
vn -0.000000 0.000000 -1.000000
vn -0.000000 0.000000 -1.000000
vn 1.000000 0.000000 -0.000000
vn 1.000000 0.000000 -0.000000
vn 1.000000 0.000000 -0.000000
vn 1.000000 0.000000 -0.000000
vn -1.000000 0.000000 0.000000
vn -1.000000 0.000000 0.000000
vn -1.000000 0.000000 0.000000
vn -1.000000 0.000000 0.000000
vn 0.000000 0.000000 1.000000
vn 0.000000 0.000000 1.000000
vn 0.000000 0.000000 1.000000
vn 0.000000 0.000000 1.000000
vn -0.000000 1.000000 0.000000
vn -0.000000 1.000000 0.000000
vn -0.000000 1.000000 0.000000
vn -0.000000 1.000000 0.000000
vn -0.000000 0.000000 -1.000000
vn -0.000000 0.000000 -1.000000
vn -0.000000 0.000000 -1.000000
vn -0.000000 0.000000 -1.000000
vn -1.000000 0.000000 0.000000
vn -1.000000 0.000000 0.000000
vn -1.000000 0.000000 0.000000
vn -1.000000 0.000000 0.000000
vn 1.000000 0.000000 -0.000000
vn 1.000000 0.000000 -0.000000
vn 1.000000 0.000000 -0.000000
vn 1.000000 0.000000 -0.000000
vn 0.000000 0.000000 1.000000
vn 0.000000 0.000000 1.000000
vn 0.000000 0.000000 1.000000
vn 0.000000 0.000000 1.000000
vn -0.000000 0.000000 -1.000000
vn -0.000000 0.000000 -1.000000
vn -0.000000 0.000000 -1.000000
vn -0.000000 0.000000 -1.000000
vn 1.000000 0.000000 -0.000000
vn 1.000000 0.000000 -0.000000
vn 1.000000 0.000000 -0.000000
vn 1.000000 0.000000 -0.000000
vn -1.000000 0.000000 0.000000
vn -1.000000 0.000000 0.000000
vn -1.000000 0.000000 0.000000
vn -1.000000 0.000000 0.000000
vn 0.000000 0.000000 1.000000
vn 0.000000 0.000000 1.000000
vn 0.000000 0.000000 1.000000
vn 0.000000 0.000000 1.000000
vn -0.000000 0.000000 -1.000000
vn -0.000000 0.000000 -1.000000
vn -0.000000 0.000000 -1.000000
vn -0.000000 0.000000 -1.000000
vn -1.000000 0.000000 0.000000
vn -1.000000 0.000000 0.000000
vn -1.000000 0.000000 0.000000
vn -1.000000 0.000000 0.000000
vn 1.000000 0.000000 -0.000000
vn 1.000000 0.000000 -0.000000
vn 1.000000 0.000000 -0.000000
vn 1.000000 0.000000 -0.000000
vn 0.000000 0.000000 1.000000
vn 0.000000 0.000000 1.000000
vn 0.000000 0.000000 1.000000
vn 0.000000 0.000000 1.000000
vn -0.000000 0.000000 -1.000000
vn -0.000000 0.000000 -1.000000
vn -0.000000 0.000000 -1.000000
vn -0.000000 0.000000 -1.000000
vn 1.000000 0.000000 -0.000000
vn 1.000000 0.000000 -0.000000
vn 1.000000 0.000000 -0.000000
vn 1.000000 0.000000 -0.000000
vn -1.000000 0.000000 0.000000
vn -1.000000 0.000000 0.000000
vn -1.000000 0.000000 0.000000
vn -1.000000 0.000000 0.000000
vn 0.000000 0.000000 1.000000
vn 0.000000 0.000000 1.000000
vn 0.000000 0.000000 1.000000
vn 0.000000 0.000000 1.000000
vn -0.000000 0.000000 -1.000000
vn -0.000000 0.000000 -1.000000
vn -0.000000 0.000000 -1.000000
vn -0.000000 0.000000 -1.000000
vn -1.000000 0.000000 0.000000
vn -1.000000 0.000000 0.000000
vn -1.000000 0.000000 0.000000
vn -1.000000 0.000000 0.000000
vn 1.000000 0.000000 -0.000000
vn 1.000000 0.000000 -0.000000
vn 1.000000 0.000000 -0.000000
vn 1.000000 0.000000 -0.000000
vn -0.000000 1.000000 0.000000
vn -0.000000 1.000000 0.000000
vn -0.000000 1.000000 0.000000
vn -0.000000 1.000000 0.000000
vn -0.000000 0.000000 -1.000000
vn -0.000000 0.000000 -1.000000
vn -0.000000 0.000000 -1.000000
vn -0.000000 0.000000 -1.000000
vn 0.000000 -1.000000 0.000000
vn 0.000000 -1.000000 0.000000
vn 0.000000 -1.000000 0.000000
vn 0.000000 -1.000000 0.000000
vn 1.000000 0.000000 -0.000000
vn 1.000000 0.000000 -0.000000
vn 1.000000 0.000000 -0.000000
vn 1.000000 0.000000 -0.000000
vn -1.000000 0.000000 0.000000
vn -1.000000 0.000000 0.000000
vn -1.000000 0.000000 0.000000
vn -1.000000 0.000000 0.000000
vn -0.000000 1.000000 0.000000
vn -0.000000 1.000000 0.000000
vn -0.000000 1.000000 0.000000
vn -0.000000 1.000000 0.000000
vn -0.000000 0.000000 -1.000000
vn -0.000000 0.000000 -1.000000
vn -0.000000 0.000000 -1.000000
vn -0.000000 0.000000 -1.000000
vn 0.000000 -1.000000 0.000000
vn 0.000000 -1.000000 0.000000
vn 0.000000 -1.000000 0.000000
vn 0.000000 -1.000000 0.000000
vn 1.000000 0.000000 -0.000000
vn 1.000000 0.000000 -0.000000
vn 1.000000 0.000000 -0.000000
vn 1.000000 0.000000 -0.000000
vn -1.000000 0.000000 0.000000
vn -1.000000 0.000000 0.000000
vn -1.000000 0.000000 0.000000
vn -1.000000 0.000000 0.000000
s off
f 1/1/1 2/2/2 4/3/3 3/4/4
f 3/5/5 4/6/6 6/7/7 5/8/8
f 5/9/9 6/10/10 8/11/11 7/12/12
f 2/13/13 8/14/14 6/15/15 4/16/16
f 7/12/17 1/1/18 3/4/19 5/9/20
f 9/17/21 10/18/22 12/19/23 11/20/24
f 18/21/25 12/19/26 10/18/27 16/22/28
f 17/23/29 11/20/30 13/24/31
f 30/25/32 18/21/33 16/22/34 29/26/35
f 20/27/36 21/28/37 22/29/38 19/30/39
f 20/31/40 23/32/41 24/33/42 21/34/43
f 24/35/44 23/36/45 25/37/46 26/38/47
f 25/39/48 19/40/49 22/41/50 26/42/51
f 12/43/52 20/44/53 19/45/54 11/46/55
f 12/43/56 14/47/57 23/48/58 20/44/59
f 21/49/60 24/50/61 26/51/62 22/52/63
f 23/48/64 14/47/65 13/53/66 25/54/67
f 13/53/68 11/46/69 19/45/70 25/54/71
f 17/23/72 28/55/73 27/56/74 15/57/75
f 33/58/76 32/59/77 34/60/78 35/61/79
f 12/19/80 18/21/81 14/62/82
f 11/20/83 17/23/84 15/57/85 9/17/86
f 13/24/87 14/62/88 31/63/89
f 14/62/90 18/21/91 31/63/92
f 31/63/93 18/21/94 30/25/95
f 17/23/96 13/24/97 31/63/98
f 31/63/99 28/55/100 17/23/101
f 31/63/102 30/25/103 28/55/104
f 37/64/105 32/65/106 33/66/107 36/67/108
f 30/68/109 29/69/110 34/70/111 32/65/112
f 29/69/113 27/71/114 35/72/115 34/70/116
f 33/66/117 35/72/118 27/71/119 28/73/120 43/74/121 41/75/122 36/67/123
f 28/73/124 39/76/125 40/77/126 43/74/127
f 42/78/128 43/79/129 40/80/130 39/81/131 38/82/132
f 28/73/133 30/68/134 38/83/135 39/76/136
f 38/83/137 30/68/138 42/84/139
f 42/84/140 30/68/141 32/65/142 37/64/143
f 36/85/144 41/86/145 43/79/146 42/78/147 37/87/148
f 44/88/149 45/89/150 47/90/151 46/91/152
f 46/92/153 47/93/154 49/94/155 48/95/156
f 48/96/157 49/97/158 51/98/159 50/99/160
f 45/100/161 51/101/162 49/102/163 47/103/164
f 50/104/165 44/105/166 46/106/167 48/107/168
f 52/108/169 54/109/170 55/110/171 53/111/172
f 54/112/173 56/113/174 57/114/175 55/115/176
f 56/116/177 58/117/178 59/118/179 57/119/180
f 53/120/181 55/121/182 57/122/183 59/123/184
f 58/124/185 56/125/186 54/126/187 52/127/188
f 60/128/189 61/129/190 63/130/191 62/131/192
f 64/132/193 65/133/194 67/134/195 66/135/196
f 61/136/197 67/137/198 65/138/199 63/139/200
f 66/140/201 60/141/202 62/142/203 64/143/204
f 68/144/205 70/145/206 71/146/207 69/147/208
f 72/148/209 74/149/210 75/150/211 73/151/212
f 69/152/213 71/153/214 73/154/215 75/155/216
f 74/156/217 72/157/218 70/158/219 68/159/220
f 76/160/221 77/161/222 79/162/223 78/163/224
f 80/164/225 81/165/226 83/166/227 82/167/228
f 77/168/229 83/169/230 81/170/231 79/171/232
f 82/172/233 76/173/234 78/174/235 80/175/236
f 84/176/237 86/177/238 87/178/239 85/179/240
f 88/180/241 90/181/242 91/182/243 89/183/244
f 85/184/245 87/185/246 89/186/247 91/187/248
f 90/188/249 88/189/250 86/190/251 84/191/252
f 94/192/253 95/193/254 97/194/255 96/195/256
f 96/196/257 97/197/258 99/198/259 98/199/260
f 98/200/261 99/201/262 93/202/263 92/203/264
f 93/204/265 99/205/266 97/206/267 95/207/268
f 98/208/269 92/209/270 94/210/271 96/211/272
f 102/212/273 103/213/274 105/214/275 104/215/276
f 104/216/277 105/217/278 107/218/279 106/219/280
f 106/220/281 107/221/282 101/222/283 100/223/284
f 101/224/285 107/225/286 105/226/287 103/227/288
f 106/228/289 100/229/290 102/230/291 104/231/292
