# This file uses meters as units for non-parametric coordinates.

v 10.000002 0.000000 -9.989466
v 10.000002 0.000000 -7.994733
v 0.000000 0.000000 -7.994733
v 0.000000 0.000000 -9.989466
v 10.000002 0.142454 -8.994733
v 0.000000 0.142454 -8.994733
v 10.000002 0.294203 -9.492100
v 0.000000 0.294203 -9.492100
v 10.000002 0.294203 -8.497367
v 0.000000 0.294203 -8.497367
v 0.050431 0.178070 -9.328529
v 9.949569 0.178070 -9.328529
v 0.050431 0.432645 -9.328529
v 9.949569 0.432645 -9.328529
v 0.050431 0.432645 -9.655670
v 9.949569 0.432645 -9.655670
v 0.050431 0.178070 -9.655670
v 9.949569 0.178070 -9.655670
v 0.050431 0.178070 -8.333797
v 9.949569 0.178070 -8.333797
v 0.050431 0.432645 -8.333797
v 9.949569 0.432645 -8.333797
v 0.050431 0.432645 -8.660937
v 9.949569 0.432645 -8.660937
v 0.050431 0.178070 -8.660937
v 9.949569 0.178070 -8.660937
v 10.000002 0.000000 -7.994733
v 10.000002 0.000000 -5.994733
v 0.000000 0.000000 -5.994733
v 0.000000 0.000000 -7.994733
v 10.000002 0.142454 -6.994733
v 0.000000 0.142454 -6.994733
v 10.000002 0.294203 -7.492099
v 0.000000 0.294203 -7.492099
v 10.000002 0.294203 -6.497366
v 0.000000 0.294203 -6.497366
v 0.050431 0.178070 -7.328529
v 9.949569 0.178070 -7.328529
v 0.050431 0.432645 -7.328529
v 9.949569 0.432645 -7.328529
v 0.050431 0.432645 -7.655670
v 9.949569 0.432645 -7.655670
v 0.050431 0.178070 -7.655670
v 9.949569 0.178070 -7.655670
v 0.050431 0.178070 -6.333796
v 9.949569 0.178070 -6.333796
v 0.050431 0.432645 -6.333796
v 9.949569 0.432645 -6.333796
v 0.050431 0.432645 -6.660937
v 9.949569 0.432645 -6.660937
v 0.050431 0.178070 -6.660937
v 9.949569 0.178070 -6.660937
v 10.000002 0.000000 -5.994733
v 10.000002 0.000000 -3.994733
v 0.000000 0.000000 -3.994733
v 0.000000 0.000000 -5.994733
v 10.000002 0.142454 -4.994733
v 0.000000 0.142454 -4.994733
v 10.000002 0.294203 -5.492099
v 0.000000 0.294203 -5.492099
v 10.000002 0.294203 -4.497366
v 0.000000 0.294203 -4.497366
v 0.050431 0.178070 -5.328529
v 9.949569 0.178070 -5.328529
v 0.050431 0.432645 -5.328529
v 9.949569 0.432645 -5.328529
v 0.050431 0.432645 -5.655670
v 9.949569 0.432645 -5.655670
v 0.050431 0.178070 -5.655670
v 9.949569 0.178070 -5.655670
v 0.050431 0.178070 -4.333796
v 9.949569 0.178070 -4.333796
v 0.050431 0.432645 -4.333796
v 9.949569 0.432645 -4.333796
v 0.050431 0.432645 -4.660937
v 9.949569 0.432645 -4.660937
v 0.050431 0.178070 -4.660937
v 9.949569 0.178070 -4.660937
v 10.000002 0.000000 -3.994733
v 10.000002 0.000000 -1.994733
v 0.000000 0.000000 -1.994733
v 0.000000 0.000000 -3.994733
v 10.000002 0.142454 -2.994733
v 0.000000 0.142454 -2.994733
v 10.000002 0.294203 -3.492099
v 0.000000 0.294203 -3.492099
v 10.000002 0.294203 -2.497366
v 0.000000 0.294203 -2.497366
v 0.050431 0.178070 -3.328529
v 9.949569 0.178070 -3.328529
v 0.050431 0.432645 -3.328529
v 9.949569 0.432645 -3.328529
v 0.050431 0.432645 -3.655670
v 9.949569 0.432645 -3.655670
v 0.050431 0.178070 -3.655670
v 9.949569 0.178070 -3.655670
v 0.050431 0.178070 -2.333796
v 9.949569 0.178070 -2.333796
v 0.050431 0.432645 -2.333796
v 9.949569 0.432645 -2.333796
v 0.050431 0.432645 -2.660937
v 9.949569 0.432645 -2.660937
v 0.050431 0.178070 -2.660937
v 9.949569 0.178070 -2.660937
v 10.000002 0.000000 -1.994733
v 10.000002 0.000000 0.000000
v 0.000000 0.000000 0.000000
v 0.000000 0.000000 -1.994733
v 10.000002 0.142454 -0.994733
v 0.000000 0.142454 -0.994733
v 10.000002 0.294203 -1.492100
v 0.000000 0.294203 -1.492100
v 10.000002 0.294203 -0.497367
v 0.000000 0.294203 -0.497367
v 0.050431 0.178070 -1.328529
v 9.949569 0.178070 -1.328529
v 0.050431 0.432645 -1.328529
v 9.949569 0.432645 -1.328529
v 0.050431 0.432645 -1.655670
v 9.949569 0.432645 -1.655670
v 0.050431 0.178070 -1.655670
v 9.949569 0.178070 -1.655670
v 0.050431 0.178070 -0.333797
v 9.949569 0.178070 -0.333797
v 0.050431 0.432645 -0.333797
v 9.949569 0.432645 -0.333797
v 0.050431 0.432645 -0.660937
v 9.949569 0.432645 -0.660937
v 0.050431 0.178070 -0.660937
v 9.949569 0.178070 -0.660937
vt 0.134796 0.393712
vt 0.134796 0.393712
vt 0.134796 0.393712
vt 0.134796 0.393712
vt 0.134796 0.393712
vt 0.134796 0.393712
vt 0.134796 0.393712
vt 0.134796 0.393712
vt 0.200192 0.392377
vt 0.200193 0.392377
vt 0.200193 0.392377
vt 0.200192 0.392377
vt 0.200192 0.392377
vt 0.200193 0.392377
vt 0.200193 0.392377
vt 0.200192 0.392377
vt 0.113442 0.392377
vt 0.113442 0.392377
vt 0.113442 0.392377
vt 0.113442 0.392377
vt 0.113442 0.392377
vt 0.113442 0.392377
vt 0.113442 0.392377
vt 0.113442 0.392377
vt 0.113442 0.392377
vt 0.113442 0.392377
vt 0.144139 0.156150
vt 0.144138 0.156150
vt 0.144138 0.156150
vt 0.144139 0.156150
vt 0.237562 0.150812
vt 0.237562 0.150812
vt 0.237562 0.150812
vt 0.237562 0.150812
vt 0.144139 0.156150
vt 0.144138 0.156150
vt 0.144138 0.156150
vt 0.144139 0.156150
vt 0.144139 0.156150
vt 0.144138 0.156150
vt 0.144138 0.156150
vt 0.144139 0.156150
vt 0.237562 0.150812
vt 0.237562 0.150812
vt 0.237562 0.150812
vt 0.237562 0.150812
vt 0.144139 0.156150
vt 0.144138 0.156150
vt 0.144138 0.156150
vt 0.144139 0.156150
vt 0.134796 0.393712
vt 0.134796 0.393712
vt 0.134796 0.393712
vt 0.134796 0.393712
vt 0.134796 0.393712
vt 0.134796 0.393712
vt 0.134796 0.393712
vt 0.134796 0.393712
vt 0.200192 0.392377
vt 0.200193 0.392377
vt 0.200193 0.392377
vt 0.200192 0.392377
vt 0.200192 0.392377
vt 0.200193 0.392377
vt 0.200193 0.392377
vt 0.200192 0.392377
vt 0.113442 0.392377
vt 0.113442 0.392377
vt 0.113442 0.392377
vt 0.113442 0.392377
vt 0.113442 0.392377
vt 0.113442 0.392377
vt 0.113442 0.392377
vt 0.113442 0.392377
vt 0.113442 0.392377
vt 0.113442 0.392377
vt 0.144139 0.156150
vt 0.144138 0.156150
vt 0.144138 0.156150
vt 0.144139 0.156150
vt 0.237562 0.150812
vt 0.237562 0.150812
vt 0.237562 0.150812
vt 0.237562 0.150812
vt 0.144139 0.156150
vt 0.144138 0.156150
vt 0.144138 0.156150
vt 0.144139 0.156150
vt 0.144139 0.156150
vt 0.144138 0.156150
vt 0.144138 0.156150
vt 0.144139 0.156150
vt 0.237562 0.150812
vt 0.237562 0.150812
vt 0.237562 0.150812
vt 0.237562 0.150812
vt 0.144139 0.156150
vt 0.144138 0.156150
vt 0.144138 0.156150
vt 0.144139 0.156150
vt 0.134796 0.393712
vt 0.134796 0.393712
vt 0.134796 0.393712
vt 0.134796 0.393712
vt 0.134796 0.393712
vt 0.134796 0.393712
vt 0.134796 0.393712
vt 0.134796 0.393712
vt 0.200192 0.392377
vt 0.200193 0.392377
vt 0.200193 0.392377
vt 0.200192 0.392377
vt 0.200192 0.392377
vt 0.200193 0.392377
vt 0.200193 0.392377
vt 0.200192 0.392377
vt 0.113442 0.392377
vt 0.113442 0.392377
vt 0.113442 0.392377
vt 0.113442 0.392377
vt 0.113442 0.392377
vt 0.113442 0.392377
vt 0.113442 0.392377
vt 0.113442 0.392377
vt 0.113442 0.392377
vt 0.113442 0.392377
vt 0.144139 0.156150
vt 0.144138 0.156150
vt 0.144138 0.156150
vt 0.144139 0.156150
vt 0.237562 0.150812
vt 0.237562 0.150812
vt 0.237562 0.150812
vt 0.237562 0.150812
vt 0.144139 0.156150
vt 0.144138 0.156150
vt 0.144138 0.156150
vt 0.144139 0.156150
vt 0.144139 0.156150
vt 0.144138 0.156150
vt 0.144138 0.156150
vt 0.144139 0.156150
vt 0.237562 0.150812
vt 0.237562 0.150812
vt 0.237562 0.150812
vt 0.237562 0.150812
vt 0.144139 0.156150
vt 0.144138 0.156150
vt 0.144138 0.156150
vt 0.144139 0.156150
vt 0.134796 0.393712
vt 0.134796 0.393712
vt 0.134796 0.393712
vt 0.134796 0.393712
vt 0.134796 0.393712
vt 0.134796 0.393712
vt 0.134796 0.393712
vt 0.134796 0.393712
vt 0.200192 0.392377
vt 0.200193 0.392377
vt 0.200193 0.392377
vt 0.200192 0.392377
vt 0.200192 0.392377
vt 0.200193 0.392377
vt 0.200193 0.392377
vt 0.200192 0.392377
vt 0.113442 0.392377
vt 0.113442 0.392377
vt 0.113442 0.392377
vt 0.113442 0.392377
vt 0.113442 0.392377
vt 0.113442 0.392377
vt 0.113442 0.392377
vt 0.113442 0.392377
vt 0.113442 0.392377
vt 0.113442 0.392377
vt 0.144139 0.156150
vt 0.144138 0.156150
vt 0.144138 0.156150
vt 0.144139 0.156150
vt 0.237562 0.150812
vt 0.237562 0.150812
vt 0.237562 0.150812
vt 0.237562 0.150812
vt 0.144139 0.156150
vt 0.144138 0.156150
vt 0.144138 0.156150
vt 0.144139 0.156150
vt 0.144139 0.156150
vt 0.144138 0.156150
vt 0.144138 0.156150
vt 0.144139 0.156150
vt 0.237562 0.150812
vt 0.237562 0.150812
vt 0.237562 0.150812
vt 0.237562 0.150812
vt 0.144139 0.156150
vt 0.144138 0.156150
vt 0.144138 0.156150
vt 0.144139 0.156150
vt 0.134796 0.393712
vt 0.134796 0.393712
vt 0.134796 0.393712
vt 0.134796 0.393712
vt 0.134796 0.393712
vt 0.134796 0.393712
vt 0.134796 0.393712
vt 0.134796 0.393712
vt 0.200192 0.392377
vt 0.200193 0.392377
vt 0.200193 0.392377
vt 0.200192 0.392377
vt 0.200192 0.392377
vt 0.200193 0.392377
vt 0.200193 0.392377
vt 0.200192 0.392377
vt 0.113442 0.392377
vt 0.113442 0.392377
vt 0.113442 0.392377
vt 0.113442 0.392377
vt 0.113442 0.392377
vt 0.113442 0.392377
vt 0.113442 0.392377
vt 0.113442 0.392377
vt 0.113442 0.392377
vt 0.113442 0.392377
vt 0.144139 0.156150
vt 0.144138 0.156150
vt 0.144138 0.156150
vt 0.144139 0.156150
vt 0.237562 0.150812
vt 0.237562 0.150812
vt 0.237562 0.150812
vt 0.237562 0.150812
vt 0.144139 0.156150
vt 0.144138 0.156150
vt 0.144138 0.156150
vt 0.144139 0.156150
vt 0.144139 0.156150
vt 0.144138 0.156150
vt 0.144138 0.156150
vt 0.144139 0.156150
vt 0.237562 0.150812
vt 0.237562 0.150812
vt 0.237562 0.150812
vt 0.237562 0.150812
vt 0.144139 0.156150
vt 0.144138 0.156150
vt 0.144138 0.156150
vt 0.144139 0.156150
vn 0.000000 0.990005 0.141030
vn 0.000000 0.990005 0.141030
vn 0.000000 0.863030 0.505152
vn 0.000000 0.863030 0.505152
vn 0.000000 0.989901 -0.141762
vn 0.000000 0.989901 -0.141762
vn 0.000000 1.000000 0.000000
vn 0.000000 1.000000 0.000000
vn 0.000000 0.860695 -0.509121
vn 0.000000 0.860695 -0.509121
vn 0.000000 0.989901 -0.141762
vn 0.000000 0.989901 -0.141762
vn 0.000000 1.000000 0.000000
vn 0.000000 1.000000 0.000000
vn 0.000000 0.990005 0.141030
vn 0.000000 0.990005 0.141030
vn -1.000000 0.000000 0.000000
vn -1.000000 0.000000 0.000000
vn -1.000000 0.000000 0.000000
vn -1.000000 0.000000 0.000000
vn -1.000000 0.000000 0.000000
vn -1.000000 0.000000 0.000000
vn -1.000000 0.000000 0.000000
vn -1.000000 0.000000 0.000000
vn -1.000000 0.000000 0.000000
vn 1.000000 0.000000 0.000000
vn 1.000000 0.000000 0.000000
vn 1.000000 0.000000 0.000000
vn 1.000000 0.000000 0.000000
vn 1.000000 0.000000 0.000000
vn 1.000000 0.000000 0.000000
vn 1.000000 0.000000 0.000000
vn 1.000000 0.000000 0.000000
vn 1.000000 0.000000 0.000000
vn 0.000000 0.000000 1.000000
vn 0.000000 0.000000 1.000000
vn 0.000000 0.000000 1.000000
vn 0.000000 0.000000 1.000000
vn 0.000000 1.000000 0.000000
vn 0.000000 1.000000 0.000000
vn 0.000000 1.000000 0.000000
vn 0.000000 1.000000 0.000000
vn 0.000000 0.000000 -1.000000
vn 0.000000 0.000000 -1.000000
vn 0.000000 0.000000 -1.000000
vn 0.000000 0.000000 -1.000000
vn 1.000000 0.000000 0.000000
vn 1.000000 0.000000 0.000000
vn 1.000000 0.000000 0.000000
vn 1.000000 0.000000 0.000000
vn -1.000000 0.000000 0.000000
vn -1.000000 0.000000 0.000000
vn -1.000000 0.000000 0.000000
vn -1.000000 0.000000 0.000000
vn 0.000000 0.000000 1.000000
vn 0.000000 0.000000 1.000000
vn 0.000000 0.000000 1.000000
vn 0.000000 0.000000 1.000000
vn 0.000000 1.000000 0.000000
vn 0.000000 1.000000 0.000000
vn 0.000000 1.000000 0.000000
vn 0.000000 1.000000 0.000000
vn 0.000000 0.000000 -1.000000
vn 0.000000 0.000000 -1.000000
vn 0.000000 0.000000 -1.000000
vn 0.000000 0.000000 -1.000000
vn 1.000000 0.000000 0.000000
vn 1.000000 0.000000 0.000000
vn 1.000000 0.000000 0.000000
vn 1.000000 0.000000 0.000000
vn -1.000000 0.000000 0.000000
vn -1.000000 0.000000 0.000000
vn -1.000000 0.000000 0.000000
vn -1.000000 0.000000 0.000000
vn 0.000000 0.990005 0.141030
vn 0.000000 0.990005 0.141030
vn 0.000000 0.863030 0.505152
vn 0.000000 0.863030 0.505152
vn 0.000000 0.990005 -0.141030
vn 0.000000 0.990005 -0.141030
vn 0.000000 1.000000 0.000000
vn 0.000000 1.000000 0.000000
vn 0.000000 0.863030 -0.505152
vn 0.000000 0.863030 -0.505152
vn 0.000000 0.990005 -0.141030
vn 0.000000 0.990005 -0.141030
vn 0.000000 1.000000 0.000000
vn 0.000000 1.000000 0.000000
vn 0.000000 0.990005 0.141030
vn 0.000000 0.990005 0.141030
vn -1.000000 0.000000 0.000000
vn -1.000000 0.000000 0.000000
vn -1.000000 0.000000 0.000000
vn -1.000000 0.000000 0.000000
vn -1.000000 0.000000 0.000000
vn -1.000000 0.000000 0.000000
vn -1.000000 0.000000 0.000000
vn -1.000000 0.000000 0.000000
vn -1.000000 0.000000 0.000000
vn 1.000000 0.000000 0.000000
vn 1.000000 0.000000 0.000000
vn 1.000000 0.000000 0.000000
vn 1.000000 0.000000 0.000000
vn 1.000000 0.000000 0.000000
vn 1.000000 0.000000 0.000000
vn 1.000000 0.000000 0.000000
vn 1.000000 0.000000 0.000000
vn 1.000000 0.000000 0.000000
vn 0.000000 0.000000 1.000000
vn 0.000000 0.000000 1.000000
vn 0.000000 0.000000 1.000000
vn 0.000000 0.000000 1.000000
vn 0.000000 1.000000 0.000000
vn 0.000000 1.000000 0.000000
vn 0.000000 1.000000 0.000000
vn 0.000000 1.000000 0.000000
vn 0.000000 0.000000 -1.000000
vn 0.000000 0.000000 -1.000000
vn 0.000000 0.000000 -1.000000
vn 0.000000 0.000000 -1.000000
vn 1.000000 0.000000 0.000000
vn 1.000000 0.000000 0.000000
vn 1.000000 0.000000 0.000000
vn 1.000000 0.000000 0.000000
vn -1.000000 0.000000 0.000000
vn -1.000000 0.000000 0.000000
vn -1.000000 0.000000 0.000000
vn -1.000000 0.000000 0.000000
vn 0.000000 0.000000 1.000000
vn 0.000000 0.000000 1.000000
vn 0.000000 0.000000 1.000000
vn 0.000000 0.000000 1.000000
vn 0.000000 1.000000 0.000000
vn 0.000000 1.000000 0.000000
vn 0.000000 1.000000 0.000000
vn 0.000000 1.000000 0.000000
vn 0.000000 0.000000 -1.000000
vn 0.000000 0.000000 -1.000000
vn 0.000000 0.000000 -1.000000
vn 0.000000 0.000000 -1.000000
vn 1.000000 0.000000 0.000000
vn 1.000000 0.000000 0.000000
vn 1.000000 0.000000 0.000000
vn 1.000000 0.000000 0.000000
vn -1.000000 0.000000 0.000000
vn -1.000000 0.000000 0.000000
vn -1.000000 0.000000 0.000000
vn -1.000000 0.000000 0.000000
vn 0.000000 0.990005 0.141030
vn 0.000000 0.990005 0.141030
vn 0.000000 0.863030 0.505152
vn 0.000000 0.863030 0.505152
vn 0.000000 0.990005 -0.141030
vn 0.000000 0.990005 -0.141030
vn 0.000000 1.000000 0.000000
vn 0.000000 1.000000 0.000000
vn 0.000000 0.863030 -0.505152
vn 0.000000 0.863030 -0.505152
vn 0.000000 0.990005 -0.141030
vn 0.000000 0.990005 -0.141030
vn 0.000000 1.000000 0.000000
vn 0.000000 1.000000 0.000000
vn 0.000000 0.990005 0.141030
vn 0.000000 0.990005 0.141030
vn -1.000000 0.000000 0.000000
vn -1.000000 0.000000 0.000000
vn -1.000000 0.000000 0.000000
vn -1.000000 0.000000 0.000000
vn -1.000000 0.000000 0.000000
vn -1.000000 0.000000 0.000000
vn -1.000000 0.000000 0.000000
vn -1.000000 0.000000 0.000000
vn -1.000000 0.000000 0.000000
vn 1.000000 0.000000 0.000000
vn 1.000000 0.000000 0.000000
vn 1.000000 0.000000 0.000000
vn 1.000000 0.000000 0.000000
vn 1.000000 0.000000 0.000000
vn 1.000000 0.000000 0.000000
vn 1.000000 0.000000 0.000000
vn 1.000000 0.000000 0.000000
vn 1.000000 0.000000 0.000000
vn 0.000000 0.000000 1.000000
vn 0.000000 0.000000 1.000000
vn 0.000000 0.000000 1.000000
vn 0.000000 0.000000 1.000000
vn 0.000000 1.000000 0.000000
vn 0.000000 1.000000 0.000000
vn 0.000000 1.000000 0.000000
vn 0.000000 1.000000 0.000000
vn 0.000000 0.000000 -1.000000
vn 0.000000 0.000000 -1.000000
vn 0.000000 0.000000 -1.000000
vn 0.000000 0.000000 -1.000000
vn 1.000000 0.000000 0.000000
vn 1.000000 0.000000 0.000000
vn 1.000000 0.000000 0.000000
vn 1.000000 0.000000 0.000000
vn -1.000000 0.000000 0.000000
vn -1.000000 0.000000 0.000000
vn -1.000000 0.000000 0.000000
vn -1.000000 0.000000 0.000000
vn 0.000000 0.000000 1.000000
vn 0.000000 0.000000 1.000000
vn 0.000000 0.000000 1.000000
vn 0.000000 0.000000 1.000000
vn 0.000000 1.000000 0.000000
vn 0.000000 1.000000 0.000000
vn 0.000000 1.000000 0.000000
vn 0.000000 1.000000 0.000000
vn 0.000000 0.000000 -1.000000
vn 0.000000 0.000000 -1.000000
vn 0.000000 0.000000 -1.000000
vn 0.000000 0.000000 -1.000000
vn 1.000000 0.000000 0.000000
vn 1.000000 0.000000 0.000000
vn 1.000000 0.000000 0.000000
vn 1.000000 0.000000 0.000000
vn -1.000000 0.000000 0.000000
vn -1.000000 0.000000 0.000000
vn -1.000000 0.000000 0.000000
vn -1.000000 0.000000 0.000000
vn 0.000000 0.990005 0.141030
vn 0.000000 0.990005 0.141030
vn 0.000000 0.863030 0.505152
vn 0.000000 0.863030 0.505152
vn 0.000000 0.990005 -0.141030
vn 0.000000 0.990005 -0.141030
vn 0.000000 1.000000 0.000000
vn 0.000000 1.000000 0.000000
vn 0.000000 0.863030 -0.505152
vn 0.000000 0.863030 -0.505152
vn 0.000000 0.990005 -0.141030
vn 0.000000 0.990005 -0.141030
vn 0.000000 1.000000 0.000000
vn 0.000000 1.000000 0.000000
vn 0.000000 0.990005 0.141030
vn 0.000000 0.990005 0.141030
vn -1.000000 0.000000 0.000000
vn -1.000000 0.000000 0.000000
vn -1.000000 0.000000 0.000000
vn -1.000000 0.000000 0.000000
vn -1.000000 0.000000 0.000000
vn -1.000000 0.000000 0.000000
vn -1.000000 0.000000 0.000000
vn -1.000000 0.000000 0.000000
vn -1.000000 0.000000 0.000000
vn 1.000000 0.000000 0.000000
vn 1.000000 0.000000 0.000000
vn 1.000000 0.000000 0.000000
vn 1.000000 0.000000 0.000000
vn 1.000000 0.000000 0.000000
vn 1.000000 0.000000 0.000000
vn 1.000000 0.000000 0.000000
vn 1.000000 0.000000 0.000000
vn 1.000000 0.000000 0.000000
vn 0.000000 0.000000 1.000000
vn 0.000000 0.000000 1.000000
vn 0.000000 0.000000 1.000000
vn 0.000000 0.000000 1.000000
vn 0.000000 1.000000 0.000000
vn 0.000000 1.000000 0.000000
vn 0.000000 1.000000 0.000000
vn 0.000000 1.000000 0.000000
vn 0.000000 0.000000 -1.000000
vn 0.000000 0.000000 -1.000000
vn 0.000000 0.000000 -1.000000
vn 0.000000 0.000000 -1.000000
vn 1.000000 0.000000 0.000000
vn 1.000000 0.000000 0.000000
vn 1.000000 0.000000 0.000000
vn 1.000000 0.000000 0.000000
vn -1.000000 0.000000 0.000000
vn -1.000000 0.000000 0.000000
vn -1.000000 0.000000 0.000000
vn -1.000000 0.000000 0.000000
vn 0.000000 0.000000 1.000000
vn 0.000000 0.000000 1.000000
vn 0.000000 0.000000 1.000000
vn 0.000000 0.000000 1.000000
vn 0.000000 1.000000 0.000000
vn 0.000000 1.000000 0.000000
vn 0.000000 1.000000 0.000000
vn 0.000000 1.000000 0.000000
vn 0.000000 0.000000 -1.000000
vn 0.000000 0.000000 -1.000000
vn 0.000000 0.000000 -1.000000
vn 0.000000 0.000000 -1.000000
vn 1.000000 0.000000 0.000000
vn 1.000000 0.000000 0.000000
vn 1.000000 0.000000 0.000000
vn 1.000000 0.000000 0.000000
vn -1.000000 0.000000 0.000000
vn -1.000000 0.000000 0.000000
vn -1.000000 0.000000 0.000000
vn -1.000000 0.000000 0.000000
vn 0.000000 0.989901 0.141762
vn 0.000000 0.989901 0.141762
vn 0.000000 0.860695 0.509120
vn 0.000000 0.860695 0.509120
vn 0.000000 0.990005 -0.141030
vn 0.000000 0.990005 -0.141030
vn 0.000000 1.000000 0.000000
vn 0.000000 1.000000 0.000000
vn 0.000000 0.863030 -0.505153
vn 0.000000 0.863030 -0.505153
vn 0.000000 0.990005 -0.141030
vn 0.000000 0.990005 -0.141030
vn 0.000000 1.000000 0.000000
vn 0.000000 1.000000 0.000000
vn 0.000000 0.989901 0.141762
vn 0.000000 0.989901 0.141762
vn -1.000000 0.000000 0.000000
vn -1.000000 0.000000 0.000000
vn -1.000000 0.000000 0.000000
vn -1.000000 0.000000 0.000000
vn -1.000000 0.000000 0.000000
vn -1.000000 0.000000 0.000000
vn -1.000000 0.000000 0.000000
vn -1.000000 0.000000 0.000000
vn -1.000000 0.000000 0.000000
vn 1.000000 0.000000 0.000000
vn 1.000000 0.000000 0.000000
vn 1.000000 0.000000 0.000000
vn 1.000000 0.000000 0.000000
vn 1.000000 0.000000 0.000000
vn 1.000000 0.000000 0.000000
vn 1.000000 0.000000 0.000000
vn 1.000000 0.000000 0.000000
vn 1.000000 0.000000 0.000000
vn 0.000000 0.000000 1.000000
vn 0.000000 0.000000 1.000000
vn 0.000000 0.000000 1.000000
vn 0.000000 0.000000 1.000000
vn 0.000000 1.000000 0.000000
vn 0.000000 1.000000 0.000000
vn 0.000000 1.000000 0.000000
vn 0.000000 1.000000 0.000000
vn 0.000000 0.000000 -1.000000
vn 0.000000 0.000000 -1.000000
vn 0.000000 0.000000 -1.000000
vn 0.000000 0.000000 -1.000000
vn 1.000000 0.000000 0.000000
vn 1.000000 0.000000 0.000000
vn 1.000000 0.000000 0.000000
vn 1.000000 0.000000 0.000000
vn -1.000000 0.000000 0.000000
vn -1.000000 0.000000 0.000000
vn -1.000000 0.000000 0.000000
vn -1.000000 0.000000 0.000000
vn 0.000000 0.000000 1.000000
vn 0.000000 0.000000 1.000000
vn 0.000000 0.000000 1.000000
vn 0.000000 0.000000 1.000000
vn 0.000000 1.000000 0.000000
vn 0.000000 1.000000 0.000000
vn 0.000000 1.000000 0.000000
vn 0.000000 1.000000 0.000000
vn 0.000000 0.000000 -1.000000
vn 0.000000 0.000000 -1.000000
vn 0.000000 0.000000 -1.000000
vn 0.000000 0.000000 -1.000000
vn 1.000000 0.000000 0.000000
vn 1.000000 0.000000 0.000000
vn 1.000000 0.000000 0.000000
vn 1.000000 0.000000 0.000000
vn -1.000000 0.000000 0.000000
vn -1.000000 0.000000 0.000000
vn -1.000000 0.000000 0.000000
vn -1.000000 0.000000 0.000000
s off
f 9/1/1 10/2/2 3/3/3 2/4/4
f 7/5/5 8/6/6 6/7/7 5/8/8
f 1/9/9 4/10/10 8/11/11 7/12/12
f 5/13/13 6/14/14 10/15/15 9/16/16
f 6/17/17 3/18/18 10/19/19
f 8/20/20 4/21/21 6/17/22
f 6/17/23 4/21/24 3/18/25
f 5/22/26 1/23/27 7/24/28
f 5/22/29 2/25/30 1/23/31
f 9/26/32 2/25/33 5/22/34
f 11/27/35 12/28/36 14/29/37 13/30/38
f 13/31/39 14/32/40 16/33/41 15/34/42
f 15/35/43 16/36/44 18/37/45 17/38/46
f 12/28/47 18/37/48 16/36/49 14/29/50
f 17/38/51 11/27/52 13/30/53 15/35/54
f 19/39/55 20/40/56 22/41/57 21/42/58
f 21/43/59 22/44/60 24/45/61 23/46/62
f 23/47/63 24/48/64 26/49/65 25/50/66
f 20/40/67 26/49/68 24/48/69 22/41/70
f 25/50/71 19/39/72 21/42/73 23/47/74
f 35/51/75 36/52/76 29/53/77 28/54/78
f 33/55/79 34/56/80 32/57/81 31/58/82
f 27/59/83 30/60/84 34/61/85 33/62/86
f 31/63/87 32/64/88 36/65/89 35/66/90
f 32/67/91 29/68/92 36/69/93
f 34/70/94 30/71/95 32/67/96
f 32/67/97 30/71/98 29/68/99
f 31/72/100 27/73/101 33/74/102
f 31/72/103 28/75/104 27/73/105
f 35/76/106 28/75/107 31/72/108
f 37/77/109 38/78/110 40/79/111 39/80/112
f 39/81/113 40/82/114 42/83/115 41/84/116
f 41/85/117 42/86/118 44/87/119 43/88/120
f 38/78/121 44/87/122 42/86/123 40/79/124
f 43/88/125 37/77/126 39/80/127 41/85/128
f 45/89/129 46/90/130 48/91/131 47/92/132
f 47/93/133 48/94/134 50/95/135 49/96/136
f 49/97/137 50/98/138 52/99/139 51/100/140
f 46/90/141 52/99/142 50/98/143 48/91/144
f 51/100/145 45/89/146 47/92/147 49/97/148
f 61/101/149 62/102/150 55/103/151 54/104/152
f 59/105/153 60/106/154 58/107/155 57/108/156
f 53/109/157 56/110/158 60/111/159 59/112/160
f 57/113/161 58/114/162 62/115/163 61/116/164
f 58/117/165 55/118/166 62/119/167
f 60/120/168 56/121/169 58/117/170
f 58/117/171 56/121/172 55/118/173
f 57/122/174 53/123/175 59/124/176
f 57/122/177 54/125/178 53/123/179
f 61/126/180 54/125/181 57/122/182
f 63/127/183 64/128/184 66/129/185 65/130/186
f 65/131/187 66/132/188 68/133/189 67/134/190
f 67/135/191 68/136/192 70/137/193 69/138/194
f 64/128/195 70/137/196 68/136/197 66/129/198
f 69/138/199 63/127/200 65/130/201 67/135/202
f 71/139/203 72/140/204 74/141/205 73/142/206
f 73/143/207 74/144/208 76/145/209 75/146/210
f 75/147/211 76/148/212 78/149/213 77/150/214
f 72/140/215 78/149/216 76/148/217 74/141/218
f 77/150/219 71/139/220 73/142/221 75/147/222
f 87/151/223 88/152/224 81/153/225 80/154/226
f 85/155/227 86/156/228 84/157/229 83/158/230
f 79/159/231 82/160/232 86/161/233 85/162/234
f 83/163/235 84/164/236 88/165/237 87/166/238
f 84/167/239 81/168/240 88/169/241
f 86/170/242 82/171/243 84/167/244
f 84/167/245 82/171/246 81/168/247
f 83/172/248 79/173/249 85/174/250
f 83/172/251 80/175/252 79/173/253
f 87/176/254 80/175/255 83/172/256
f 89/177/257 90/178/258 92/179/259 91/180/260
f 91/181/261 92/182/262 94/183/263 93/184/264
f 93/185/265 94/186/266 96/187/267 95/188/268
f 90/178/269 96/187/270 94/186/271 92/179/272
f 95/188/273 89/177/274 91/180/275 93/185/276
f 97/189/277 98/190/278 100/191/279 99/192/280
f 99/193/281 100/194/282 102/195/283 101/196/284
f 101/197/285 102/198/286 104/199/287 103/200/288
f 98/190/289 104/199/290 102/198/291 100/191/292
f 103/200/293 97/189/294 99/192/295 101/197/296
f 113/201/297 114/202/298 107/203/299 106/204/300
f 111/205/301 112/206/302 110/207/303 109/208/304
f 105/209/305 108/210/306 112/211/307 111/212/308
f 109/213/309 110/214/310 114/215/311 113/216/312
f 110/217/313 107/218/314 114/219/315
f 112/220/316 108/221/317 110/217/318
f 110/217/319 108/221/320 107/218/321
f 109/222/322 105/223/323 111/224/324
f 109/222/325 106/225/326 105/223/327
f 113/226/328 106/225/329 109/222/330
f 115/227/331 116/228/332 118/229/333 117/230/334
f 117/231/335 118/232/336 120/233/337 119/234/338
f 119/235/339 120/236/340 122/237/341 121/238/342
f 116/228/343 122/237/344 120/236/345 118/229/346
f 121/238/347 115/227/348 117/230/349 119/235/350
f 123/239/351 124/240/352 126/241/353 125/242/354
f 125/243/355 126/244/356 128/245/357 127/246/358
f 127/247/359 128/248/360 130/249/361 129/250/362
f 124/240/363 130/249/364 128/248/365 126/241/366
f 129/250/367 123/239/368 125/242/369 127/247/370
