# This file uses meters as units for non-parametric coordinates.

v -0.051554 -0.337036 0.051554
v 0.051554 -0.337036 0.051554
v -0.164736 0.509719 0.164736
v 0.164736 0.509719 0.164736
v -0.164736 0.509719 -0.164736
v 0.164736 0.509719 -0.164736
v -0.051554 -0.337036 -0.051554
v 0.051554 -0.337036 -0.051554
v -0.081066 0.509719 0.081066
v 0.081066 0.509719 0.081066
v 0.081066 0.509719 -0.081066
v -0.081066 0.509719 -0.081066
v -0.170989 0.837586 0.170989
v 0.170989 0.837586 0.170989
v 0.170989 0.837586 -0.170989
v -0.170989 0.837586 -0.170989
v 0.089391 0.000000 0.089391
v 0.089391 0.000000 -0.089391
v -0.089391 0.000000 -0.089391
v -0.089391 0.000000 0.089391
vt 0.238263 0.379697
vt 0.238263 0.379697
vt 0.238263 0.379697
vt 0.238263 0.379697
vt 0.299114 0.422474
vt 0.299114 0.422474
vt 0.299114 0.422474
vt 0.299114 0.422474
vt 0.238263 0.379697
vt 0.238263 0.379697
vt 0.238263 0.379697
vt 0.238263 0.379697
vt 0.206933 0.379697
vt 0.206933 0.379697
vt 0.206933 0.379697
vt 0.206933 0.379697
vt 0.206933 0.379697
vt 0.206933 0.379697
vt 0.206933 0.379697
vt 0.206933 0.379697
vt 0.294294 0.374878
vt 0.294294 0.374878
vt 0.294294 0.374878
vt 0.294294 0.374878
vt 0.294294 0.374878
vt 0.294294 0.374878
vt 0.294294 0.374878
vt 0.294294 0.374878
vt 0.261760 0.422474
vt 0.261760 0.422474
vt 0.261760 0.422474
vt 0.261760 0.422474
vt 0.230430 0.422474
vt 0.230430 0.422474
vt 0.230430 0.422474
vt 0.230430 0.422474
vt 0.261760 0.422474
vt 0.261760 0.422474
vt 0.261760 0.422474
vt 0.261760 0.422474
vt 0.230430 0.422474
vt 0.230430 0.422474
vt 0.230430 0.422474
vt 0.230430 0.422474
vt 0.238263 0.379697
vt 0.206933 0.379697
vt 0.238263 0.379697
vt 0.206933 0.379697
vt 0.238263 0.379697
vt 0.206933 0.379697
vt 0.238263 0.379697
vt 0.206933 0.379697
vt 0.271814 0.114392
vt 0.261779 0.114392
vt 0.261877 0.103879
vt 0.271751 0.103771
vn 0.000000 -0.146228 0.989251
vn 0.000000 -0.146228 0.989251
vn 0.000000 -0.111562 0.993758
vn 0.000000 -0.111562 0.993758
vn 0.000000 1.000000 0.000000
vn 0.000000 1.000000 0.000000
vn 0.000000 1.000000 0.000000
vn 0.000000 1.000000 0.000000
vn 0.000000 -0.146228 -0.989251
vn 0.000000 -0.146228 -0.989251
vn 0.000000 -0.146228 -0.989251
vn 0.000000 -0.146228 -0.989251
vn 0.989251 -0.146229 0.000000
vn 0.989251 -0.146229 0.000000
vn 0.989251 -0.146230 0.000000
vn 0.989251 -0.146230 0.000000
vn -0.989251 -0.146229 0.000000
vn -0.989251 -0.146229 0.000000
vn -0.989251 -0.146229 0.000000
vn -0.989251 -0.146229 0.000000
vn 0.000000 1.000000 0.000001
vn 0.000000 1.000000 0.000001
vn 0.000000 1.000000 0.000001
vn 0.000000 1.000000 0.000001
vn 0.000000 1.000000 0.000000
vn 0.000000 1.000000 0.000000
vn 0.000000 1.000000 0.000000
vn 0.000000 1.000000 0.000000
vn 0.000000 1.000000 -0.000001
vn 0.000000 1.000000 -0.000001
vn 0.000000 1.000000 -0.000001
vn 0.000000 1.000000 -0.000001
vn 0.000000 1.000000 0.000000
vn 0.000000 1.000000 0.000000
vn 0.000000 1.000000 0.000000
vn 0.000000 1.000000 0.000000
vn 0.000000 -0.264497 0.964387
vn 0.000000 -0.264497 0.964387
vn 0.000000 -0.264497 0.964386
vn 0.000000 -0.264497 0.964386
vn 0.964387 -0.264497 0.000000
vn 0.964387 -0.264497 0.000000
vn 0.964387 -0.264497 0.000000
vn 0.964387 -0.264497 0.000000
vn 0.000000 -0.264497 -0.964387
vn 0.000000 -0.264497 -0.964387
vn 0.000000 -0.264497 -0.964386
vn 0.000000 -0.264497 -0.964386
vn -0.964386 -0.264499 0.000000
vn -0.964386 -0.264499 0.000000
vn -0.964386 -0.264499 0.000000
vn -0.964386 -0.264499 0.000000
vn 0.989251 -0.146230 0.000000
vn 0.989251 -0.146230 0.000000
vn 0.993758 -0.111562 0.000000
vn 0.993758 -0.111562 0.000000
vn 0.000000 -0.111562 -0.993758
vn 0.000000 -0.111562 -0.993758
vn 0.000000 -0.146228 -0.989251
vn 0.000000 -0.146228 -0.989251
vn -0.989251 -0.146229 0.000000
vn -0.989251 -0.146229 0.000000
vn -0.993758 -0.111562 0.000000
vn -0.993758 -0.111562 0.000000
vn 0.000000 -0.146228 0.989251
vn 0.000000 -0.146228 0.989251
vn 0.000000 -0.146228 0.989251
vn 0.000000 -0.146228 0.989251
vn 0.000000 -1.000000 0.000000
vn 0.000000 -1.000000 0.000000
vn 0.000000 -1.000000 0.000000
vn 0.000000 -1.000000 0.000000
s off
f 1/1/1 2/2/2 17/45/3 20/51/4
f 13/5/5 14/6/6 15/7/7 16/8/8
f 5/9/9 6/10/10 18/47/11 19/49/12
f 17/46/13 18/48/14 6/15/15 4/16/16
f 19/50/17 20/52/18 3/19/19 5/20/20
f 3/21/21 4/22/22 10/23/23 9/24/24
f 4/22/25 6/25/26 11/26/27 10/23/28
f 6/25/29 5/27/30 12/28/31 11/26/32
f 5/27/33 3/21/34 9/24/35 12/28/36
f 9/29/37 10/30/38 14/31/39 13/32/40
f 10/33/41 11/34/42 15/35/43 14/36/44
f 11/37/45 12/38/46 16/39/47 15/40/48
f 12/41/49 9/42/50 13/43/51 16/44/52
f 2/13/53 8/14/54 18/48/55 17/46/56
f 19/49/57 18/47/58 8/11/59 7/12/60
f 7/17/61 1/18/62 20/52/63 19/50/64
f 20/51/65 17/45/66 4/3/67 3/4/68
f 7/53/69 8/54/70 2/55/71 1/56/72
