# This file uses meters as units for non-parametric coordinates.

v -0.242603 1.361142 0.459607
v 0.242672 1.361142 0.459607
v -0.242603 1.785262 0.459607
v 0.242672 1.785262 0.459607
v -0.242603 1.785262 -0.459606
v 0.242672 1.785262 -0.459606
v -0.242603 1.361142 -0.459606
v 0.242672 1.361142 -0.459606
v -0.133120 1.928916 0.459607
v 0.133189 1.928916 0.459607
v 0.133189 1.928916 -0.459606
v -0.133120 1.928916 -0.459606
v -0.166263 1.749983 -0.459606
v 0.166332 1.749983 -0.459606
v 0.166332 1.702657 -0.459606
v -0.166263 1.702657 -0.459606
v -0.133120 1.928916 -0.424472
v 0.133189 1.928916 -0.424472
v 0.242672 1.785262 -0.424472
v 0.242672 1.361142 -0.424472
v -0.242603 1.361142 -0.424472
v -0.242603 1.785262 -0.424472
vt 0.291944 0.474409
vt 0.322496 0.474409
vt 0.353897 0.480349
vt 0.394633 0.477803
vt 0.353897 0.480349
vt 0.353897 0.480349
vt 0.353897 0.480349
vt 0.291095 0.483744
vt 0.291095 0.483744
vt 0.291095 0.483744
vt 0.291944 0.474409
vt 0.291944 0.474409
vt 0.291944 0.474409
vt 0.291944 0.474409
vt 0.353897 0.480349
vt 0.322496 0.474409
vt 0.353897 0.480349
vt 0.353897 0.480349
vt 0.291944 0.474409
vt 0.353897 0.480349
vt 0.394633 0.477803
vt 0.394633 0.477803
vt 0.322496 0.474409
vt 0.394633 0.477803
vt 0.322496 0.474409
vt 0.322496 0.474409
vt 0.291944 0.474409
vt 0.291095 0.483744
vt 0.291944 0.474409
vt 0.322496 0.474409
vt 0.322496 0.474409
vt 0.322496 0.474409
vt 0.322496 0.474409
vt 0.322496 0.474409
vt 0.322496 0.474409
vt 0.322496 0.474409
vt 0.115420 0.479501
vt 0.322496 0.474409
vt 0.322496 0.474409
vt 0.322496 0.474409
vt 0.115420 0.479501
vt 0.322496 0.474409
vt 0.115420 0.479501
vt 0.115420 0.479501
vt 0.394633 0.477803
vt 0.353897 0.480349
vt 0.394633 0.477803
vt 0.353897 0.480349
vt 0.291944 0.474409
vt 0.353897 0.480349
vt 0.291095 0.483744
vt 0.291944 0.474409
vt 0.291095 0.483744
vt 0.291944 0.474409
vt 0.291944 0.474409
vt 0.353897 0.480349
vn 0.000000 0.000000 1.000000
vn 0.000000 0.000000 1.000000
vn 0.000000 0.000000 1.000000
vn 0.000000 0.000000 1.000000
vn 0.000000 1.000000 -0.000000
vn 0.000000 1.000000 0.000000
vn 0.000000 1.000000 0.000000
vn 0.000000 1.000000 0.000000
vn 0.000000 0.000000 -1.000000
vn 0.000000 0.000000 -1.000000
vn 0.000000 0.000000 -1.000000
vn 0.000000 0.000000 -1.000000
vn 0.000000 -1.000000 0.000000
vn 0.000000 -1.000000 0.000000
vn 0.000000 -1.000000 0.000000
vn 0.000000 -1.000000 0.000000
vn 1.000000 0.000000 0.000000
vn 1.000000 0.000000 0.000000
vn 1.000000 0.000000 0.000000
vn 1.000000 0.000000 0.000000
vn -1.000000 0.000000 0.000000
vn -1.000000 0.000000 0.000000
vn -1.000000 0.000000 0.000000
vn -1.000000 0.000000 0.000000
vn 0.000000 0.000000 1.000000
vn 0.000000 0.000000 1.000000
vn 0.000000 0.000000 1.000000
vn 0.000000 0.000000 1.000000
vn 0.795345 0.606156 0.000000
vn 0.795346 0.606156 0.000000
vn 0.795346 0.606156 0.000000
vn 0.795345 0.606156 0.000000
vn 0.000000 0.000000 -1.000000
vn 0.000000 0.000000 -1.000000
vn 0.000000 0.000000 -1.000000
vn 0.000000 0.000000 -1.000000
vn -0.795346 0.606156 0.000000
vn -0.795346 0.606156 -0.000000
vn -0.795346 0.606156 -0.000000
vn -0.795346 0.606156 0.000000
vn 0.000000 0.000000 -1.000000
vn 0.000000 0.000000 -1.000000
vn 0.000000 0.000000 -1.000000
vn 0.000000 0.000000 -1.000000
vn 0.000000 0.000000 -1.000000
vn 0.000000 0.000000 -1.000000
vn 0.000000 0.000000 -1.000000
vn 0.000000 0.000000 -1.000000
vn 0.000000 0.000000 -1.000000
vn 0.000000 0.000000 -1.000000
vn 0.000000 0.000000 -1.000000
vn 0.000000 0.000000 -1.000000
vn 0.000000 0.000000 -1.000000
vn 0.000000 0.000000 -1.000000
vn 0.000000 0.000000 -1.000000
vn 0.000000 0.000000 -1.000000
vn 0.000000 1.000000 0.000000
vn 0.000000 1.000000 0.000000
vn 0.000000 1.000000 0.000000
vn 0.000000 1.000000 -0.000000
vn 0.795346 0.606156 0.000000
vn 0.795345 0.606156 0.000000
vn 0.795345 0.606156 0.000000
vn 0.795346 0.606156 0.000000
vn 1.000000 0.000000 0.000000
vn 1.000000 0.000000 0.000000
vn 1.000000 0.000000 0.000000
vn 1.000000 0.000000 0.000000
vn 0.000000 -1.000000 0.000000
vn 0.000000 -1.000000 0.000000
vn 0.000000 -1.000000 0.000000
vn 0.000000 -1.000000 0.000000
vn -1.000000 0.000000 0.000000
vn -1.000000 0.000000 0.000000
vn -1.000000 0.000000 0.000000
vn -1.000000 0.000000 0.000000
vn -0.795346 0.606156 -0.000000
vn -0.795346 0.606156 -0.000000
vn -0.795346 0.606156 0.000000
vn -0.795346 0.606156 0.000000
s off
f 1/30/1 2/2/2 4/25/3 3/26/4
f 17/45/5 18/47/6 11/22/7 12/21/8
f 13/37/9 14/44/10 15/43/11 16/41/12
f 7/8/13 8/28/14 20/51/15 21/53/16
f 20/52/17 8/11/18 6/12/19 19/49/20
f 7/13/21 21/54/22 22/55/23 5/14/24
f 3/26/25 4/25/26 10/16/27 9/23/28
f 19/50/29 6/18/30 11/17/31 18/48/32
f 6/32/33 5/31/34 12/35/35 11/36/36
f 5/7/37 22/56/38 17/46/39 12/6/40
f 5/31/41 6/32/42 14/38/43 13/42/44
f 6/32/45 8/33/46 15/39/47 14/38/48
f 8/33/49 7/34/50 16/40/51 15/39/52
f 7/34/53 5/31/54 13/42/55 16/40/56
f 9/4/57 10/24/58 18/47/59 17/45/60
f 4/3/61 19/50/62 18/48/63 10/5/64
f 2/29/65 20/52/66 19/49/67 4/19/68
f 21/53/69 20/51/70 2/9/71 1/10/72
f 22/55/73 21/54/74 1/1/75 3/27/76
f 17/46/77 22/56/78 3/20/79 9/15/80
v -0.291411 1.591259 -0.234455
v -0.242603 1.591259 -0.234455
v -0.291411 2.128713 -0.234455
v -0.242603 2.128713 -0.234455
v -0.291411 2.128713 -0.304556
v -0.242603 2.128713 -0.304556
v -0.291411 1.591259 -0.304556
v -0.242603 1.591259 -0.304556
v -0.291411 2.016489 -0.304556
v -0.291411 2.016489 -0.234455
v -0.242603 2.016489 -0.234455
v -0.242603 2.016489 -0.304556
v -0.291411 2.016489 -0.068893
v -0.242603 2.016489 -0.068893
v -0.242603 2.128713 -0.068893
v -0.291411 2.128713 -0.068893
vt 0.292792 0.171432
vt 0.292792 0.171432
vt 0.292792 0.171432
vt 0.292792 0.171432
vt 0.319101 0.171432
vt 0.319101 0.171432
vt 0.319101 0.171432
vt 0.319101 0.171432
vt 0.292792 0.171432
vt 0.292792 0.171432
vt 0.292792 0.171432
vt 0.292792 0.171432
vt 0.292792 0.171432
vt 0.292792 0.171432
vt 0.292792 0.171432
vt 0.292792 0.171432
vt 0.268181 0.170583
vt 0.268181 0.170583
vt 0.268181 0.170583
vt 0.268181 0.170583
vt 0.268181 0.170583
vt 0.268181 0.170583
vt 0.268181 0.170583
vt 0.268181 0.170583
vt 0.268181 0.170583
vt 0.268181 0.170583
vt 0.268181 0.170583
vt 0.268181 0.170583
vt 0.292792 0.171432
vt 0.292792 0.171432
vt 0.292792 0.171432
vt 0.292792 0.171432
vt 0.268181 0.170583
vt 0.268181 0.170583
vt 0.268181 0.170583
vt 0.268181 0.170583
vt 0.292792 0.171432
vt 0.292792 0.171432
vt 0.292792 0.171432
vt 0.292792 0.171432
vt 0.292792 0.171432
vt 0.292792 0.171432
vt 0.292792 0.171432
vt 0.292792 0.171432
vt 0.268181 0.170583
vt 0.268181 0.170583
vt 0.268181 0.170583
vt 0.268181 0.170583
vt 0.319101 0.171432
vt 0.319101 0.171432
vt 0.319101 0.171432
vt 0.319101 0.171432
vt 0.268181 0.170583
vt 0.268181 0.170583
vt 0.268181 0.170583
vt 0.268181 0.170583
vn 0.000000 0.000000 1.000000
vn 0.000000 0.000000 1.000000
vn 0.000000 0.000000 1.000000
vn 0.000000 0.000000 1.000000
vn 0.000000 1.000000 0.000000
vn 0.000000 1.000000 0.000000
vn 0.000000 1.000000 0.000000
vn 0.000000 1.000000 0.000000
vn 0.000000 0.000000 -1.000000
vn 0.000000 0.000000 -1.000000
vn 0.000000 0.000000 -1.000000
vn 0.000000 0.000000 -1.000000
vn 0.000000 -1.000000 0.000000
vn 0.000000 -1.000000 0.000000
vn 0.000000 -1.000000 0.000000
vn 0.000000 -1.000000 0.000000
vn 1.000000 0.000000 0.000000
vn 1.000000 0.000000 0.000000
vn 1.000000 0.000000 0.000000
vn 1.000000 0.000000 0.000000
vn -1.000000 0.000000 0.000000
vn -1.000000 0.000000 0.000000
vn -1.000000 0.000000 0.000000
vn -1.000000 0.000000 0.000000
vn -1.000000 0.000000 0.000000
vn -1.000000 0.000000 0.000000
vn -1.000000 0.000000 0.000000
vn -1.000000 0.000000 0.000000
vn 0.000000 0.000000 1.000000
vn 0.000000 0.000000 1.000000
vn 0.000000 0.000000 1.000000
vn 0.000000 0.000000 1.000000
vn 1.000000 0.000000 0.000000
vn 1.000000 0.000000 0.000000
vn 1.000000 0.000000 0.000000
vn 1.000000 0.000000 0.000000
vn 0.000000 0.000000 -1.000000
vn 0.000000 0.000000 -1.000000
vn 0.000000 0.000000 -1.000000
vn 0.000000 0.000000 -1.000000
vn 0.000000 -1.000000 0.000000
vn 0.000000 -1.000000 0.000000
vn 0.000000 -1.000000 0.000000
vn 0.000000 -1.000000 0.000000
vn 1.000000 0.000000 0.000000
vn 1.000000 0.000000 0.000000
vn 1.000000 0.000000 0.000000
vn 1.000000 0.000000 0.000000
vn 0.000000 1.000000 0.000000
vn 0.000000 1.000000 0.000000
vn 0.000000 1.000000 0.000000
vn 0.000000 1.000000 0.000000
vn -1.000000 0.000000 0.000000
vn -1.000000 0.000000 0.000000
vn -1.000000 0.000000 0.000000
vn -1.000000 0.000000 0.000000
s off
f 35/57/81 36/58/82 37/59/83 38/60/84
f 25/61/85 26/62/86 28/63/87 27/64/88
f 27/65/89 28/66/90 34/67/91 31/68/92
f 29/69/93 30/70/94 24/71/95 23/72/96
f 33/73/97 34/74/98 28/75/99 26/76/100
f 31/77/101 32/78/102 25/79/103 27/80/104
f 29/81/105 23/82/106 32/83/107 31/84/108
f 23/85/109 24/86/110 33/87/111 32/88/112
f 24/89/113 30/90/114 34/91/115 33/92/116
f 31/93/117 34/94/118 30/95/119 29/96/120
f 32/97/121 33/98/122 36/99/123 35/100/124
f 33/101/125 26/102/126 37/103/127 36/104/128
f 26/105/129 25/106/130 38/107/131 37/108/132
f 25/109/133 32/110/134 35/111/135 38/112/136
