# This file uses meters as units for non-parametric coordinates.

v -0.180394 -0.000004 -1.819606
v 0.180394 -0.000004 -1.819606
v -0.180394 2.381702 -1.819606
v 0.180394 2.381702 -1.819606
v -0.180394 2.381702 -2.180394
v 0.180394 2.381702 -2.180394
v -0.180394 -0.000004 -2.180394
v 0.180394 -0.000004 -2.180394
v -0.180394 -0.000004 0.180394
v 0.180394 -0.000004 0.180394
v -0.180394 2.381702 0.180394
v 0.180394 2.381702 0.180394
v -0.180394 2.381702 -0.180394
v 0.180394 2.381702 -0.180394
v -0.180394 -0.000004 -0.180394
v 0.180394 -0.000004 -0.180394
v -0.115210 1.512773 0.007830
v 0.115210 1.512773 0.007830
v -0.115210 1.743193 0.007830
v 0.115210 1.743193 0.007830
v 0.115210 1.743192 -1.999981
v -0.115210 1.743192 -1.999981
v -0.115210 1.512773 -1.999981
v 0.115210 1.512773 -1.999981
v -0.115210 0.792435 0.007830
v 0.115210 0.792435 0.007830
v -0.115210 1.022854 0.007830
v 0.115210 1.022854 0.007830
v 0.115210 1.022854 -2.000019
v -0.115210 1.022854 -2.000019
v -0.115210 0.792435 -2.000019
v 0.115210 0.792435 -2.000019
v -0.180394 -0.000004 -7.819606
v 0.180394 -0.000004 -7.819606
v -0.180394 2.381702 -7.819606
v 0.180394 2.381702 -7.819606
v -0.180394 2.381702 -8.180394
v 0.180394 2.381702 -8.180394
v -0.180394 -0.000004 -8.180394
v 0.180394 -0.000004 -8.180394
v -0.115210 1.512773 -10.000015
v 0.115210 1.512773 -10.000015
v -0.115210 1.743193 -10.000015
v 0.115210 1.743193 -10.000015
v 0.115210 1.743193 -8.000012
v -0.115210 1.743193 -8.000012
v -0.115210 1.512773 -8.000012
v 0.115210 1.512773 -8.000012
v -0.115210 0.792435 -10.000015
v 0.115210 0.792435 -10.000015
v -0.115210 1.022854 -10.000015
v 0.115210 1.022854 -10.000015
v 0.115210 1.022854 -7.999988
v -0.115210 1.022854 -7.999988
v -0.115210 0.792435 -7.999988
v 0.115210 0.792435 -7.999988
vt 0.201846 0.046946
vt 0.201846 0.046946
vt 0.201846 0.046946
vt 0.201846 0.046946
vt 0.369406 0.046933
vt 0.369406 0.046933
vt 0.369406 0.046933
vt 0.369406 0.046933
vt 0.201846 0.046946
vt 0.201846 0.046946
vt 0.201846 0.046946
vt 0.201846 0.046946
vt 0.259159 0.045735
vt 0.259159 0.045735
vt 0.259159 0.045735
vt 0.259159 0.045735
vt 0.259159 0.045735
vt 0.259159 0.045735
vt 0.259159 0.045735
vt 0.259159 0.045735
vt 0.201846 0.046946
vt 0.201846 0.046946
vt 0.201846 0.046946
vt 0.201846 0.046946
vt 0.369406 0.046933
vt 0.369406 0.046933
vt 0.369406 0.046933
vt 0.369406 0.046933
vt 0.201846 0.046946
vt 0.201846 0.046946
vt 0.201846 0.046946
vt 0.201846 0.046946
vt 0.259159 0.045735
vt 0.259159 0.045735
vt 0.259159 0.045735
vt 0.259159 0.045735
vt 0.259159 0.045735
vt 0.259159 0.045735
vt 0.259159 0.045735
vt 0.259159 0.045735
vt 0.139202 0.046290
vt 0.139202 0.046290
vt 0.139202 0.046290
vt 0.139202 0.046290
vt 0.369406 0.046933
vt 0.369406 0.046933
vt 0.369406 0.046933
vt 0.369406 0.046933
vt 0.259159 0.045735
vt 0.259159 0.045735
vt 0.259159 0.045735
vt 0.259159 0.045735
vt 0.259159 0.045735
vt 0.259159 0.045735
vt 0.259159 0.045735
vt 0.259159 0.045735
vt 0.139202 0.046290
vt 0.139202 0.046290
vt 0.139202 0.046290
vt 0.139202 0.046290
vt 0.369406 0.046933
vt 0.369406 0.046933
vt 0.369406 0.046933
vt 0.369406 0.046933
vt 0.259159 0.045735
vt 0.259159 0.045735
vt 0.259159 0.045735
vt 0.259159 0.045735
vt 0.259159 0.045735
vt 0.259159 0.045735
vt 0.259159 0.045735
vt 0.259159 0.045735
vt 0.201846 0.046946
vt 0.201846 0.046946
vt 0.201846 0.046946
vt 0.201846 0.046946
vt 0.369406 0.046933
vt 0.369406 0.046933
vt 0.369406 0.046933
vt 0.369406 0.046933
vt 0.201846 0.046946
vt 0.201846 0.046946
vt 0.201846 0.046946
vt 0.201846 0.046946
vt 0.259159 0.045735
vt 0.259159 0.045735
vt 0.259159 0.045735
vt 0.259159 0.045735
vt 0.259159 0.045735
vt 0.259159 0.045735
vt 0.259159 0.045735
vt 0.259159 0.045735
vt 0.259159 0.045735
vt 0.259159 0.045735
vt 0.259159 0.045735
vt 0.259159 0.045735
vt 0.369406 0.046933
vt 0.369406 0.046933
vt 0.369406 0.046933
vt 0.369406 0.046933
vt 0.259159 0.045735
vt 0.259159 0.045735
vt 0.139202 0.046290
vt 0.139202 0.046290
vt 0.139202 0.046290
vt 0.139202 0.046290
vt 0.259159 0.045735
vt 0.259159 0.045735
vt 0.259159 0.045735
vt 0.259159 0.045735
vt 0.259159 0.045735
vt 0.259159 0.045735
vt 0.369406 0.046933
vt 0.369406 0.046933
vt 0.369406 0.046933
vt 0.369406 0.046933
vt 0.259159 0.045735
vt 0.259159 0.045735
vt 0.139202 0.046290
vt 0.139202 0.046290
vt 0.139202 0.046290
vt 0.139202 0.046290
vt 0.259159 0.045735
vt 0.259159 0.045735
vn 0.000000 0.000000 1.000000
vn 0.000000 0.000000 1.000000
vn 0.000000 0.000000 1.000000
vn 0.000000 0.000000 1.000000
vn 0.000000 1.000000 0.000000
vn 0.000000 1.000000 0.000000
vn 0.000000 1.000000 0.000000
vn 0.000000 1.000000 0.000000
vn 0.000000 0.000000 -1.000000
vn 0.000000 0.000000 -1.000000
vn 0.000000 0.000000 -1.000000
vn 0.000000 0.000000 -1.000000
vn 1.000000 0.000000 0.000000
vn 1.000000 0.000000 0.000000
vn 1.000000 0.000000 0.000000
vn 1.000000 0.000000 0.000000
vn -1.000000 0.000000 0.000000
vn -1.000000 0.000000 0.000000
vn -1.000000 0.000000 0.000000
vn -1.000000 0.000000 0.000000
vn 0.000000 0.000000 1.000000
vn 0.000000 0.000000 1.000000
vn 0.000000 0.000000 1.000000
vn 0.000000 0.000000 1.000000
vn 0.000000 1.000000 0.000000
vn 0.000000 1.000000 0.000000
vn 0.000000 1.000000 0.000000
vn 0.000000 1.000000 0.000000
vn 0.000000 0.000000 -1.000000
vn 0.000000 0.000000 -1.000000
vn 0.000000 0.000000 -1.000000
vn 0.000000 0.000000 -1.000000
vn 1.000000 0.000000 0.000000
vn 1.000000 0.000000 0.000000
vn 1.000000 0.000000 0.000000
vn 1.000000 0.000000 0.000000
vn -1.000000 0.000000 0.000000
vn -1.000000 0.000000 0.000000
vn -1.000000 0.000000 0.000000
vn -1.000000 0.000000 0.000000
vn 0.000000 -1.000000 0.000000
vn 0.000000 -1.000000 0.000000
vn 0.000000 -1.000000 0.000000
vn 0.000000 -1.000000 0.000000
vn 0.000000 1.000000 -0.000000
vn 0.000000 1.000000 -0.000000
vn 0.000000 1.000000 -0.000000
vn 0.000000 1.000000 -0.000000
vn 1.000000 0.000000 0.000000
vn 1.000000 0.000000 0.000000
vn 1.000000 0.000000 0.000000
vn 1.000000 0.000000 0.000000
vn -1.000000 0.000000 0.000000
vn -1.000000 0.000000 0.000000
vn -1.000000 0.000000 0.000000
vn -1.000000 0.000000 0.000000
vn 0.000000 -1.000000 0.000000
vn 0.000000 -1.000000 0.000000
vn 0.000000 -1.000000 0.000000
vn 0.000000 -1.000000 0.000000
vn 0.000000 1.000000 0.000000
vn 0.000000 1.000000 0.000000
vn 0.000000 1.000000 0.000000
vn 0.000000 1.000000 0.000000
vn 1.000000 0.000000 0.000000
vn 1.000000 0.000000 0.000000
vn 1.000000 0.000000 0.000000
vn 1.000000 0.000000 0.000000
vn -1.000000 0.000000 0.000000
vn -1.000000 0.000000 0.000000
vn -1.000000 0.000000 0.000000
vn -1.000000 0.000000 0.000000
vn 0.000000 0.000000 1.000000
vn 0.000000 0.000000 1.000000
vn 0.000000 0.000000 1.000000
vn 0.000000 0.000000 1.000000
vn 0.000000 1.000000 0.000000
vn 0.000000 1.000000 0.000000
vn 0.000000 1.000000 0.000000
vn 0.000000 1.000000 0.000000
vn 0.000000 0.000000 -1.000000
vn 0.000000 0.000000 -1.000000
vn 0.000000 0.000000 -1.000000
vn 0.000000 0.000000 -1.000000
vn 1.000000 0.000000 0.000000
vn 1.000000 0.000000 0.000000
vn 1.000000 0.000000 0.000000
vn 1.000000 0.000000 0.000000
vn -1.000000 0.000000 0.000000
vn -1.000000 0.000000 0.000000
vn -1.000000 0.000000 0.000000
vn -1.000000 0.000000 0.000000
vn 0.000000 0.000000 -1.000000
vn 0.000000 0.000000 -1.000000
vn 0.000000 0.000000 -1.000000
vn 0.000000 0.000000 -1.000000
vn 0.000000 1.000000 -0.000000
vn 0.000000 1.000000 -0.000000
vn 0.000000 1.000000 -0.000000
vn 0.000000 1.000000 -0.000000
vn -1.000000 0.000000 0.000000
vn -1.000000 0.000000 0.000000
vn -1.000000 0.000000 0.000000
vn -1.000000 0.000000 0.000000
vn 0.000000 -1.000000 0.000000
vn 0.000000 -1.000000 0.000000
vn 0.000000 -1.000000 0.000000
vn 0.000000 -1.000000 0.000000
vn 1.000000 0.000000 0.000000
vn 1.000000 0.000000 0.000000
vn 1.000000 0.000000 0.000000
vn 1.000000 0.000000 0.000000
vn 0.000000 0.000000 -1.000000
vn 0.000000 0.000000 -1.000000
vn 0.000000 0.000000 -1.000000
vn 0.000000 0.000000 -1.000000
vn 0.000000 1.000000 0.000000
vn 0.000000 1.000000 0.000000
vn 0.000000 1.000000 0.000000
vn 0.000000 1.000000 0.000000
vn -1.000000 0.000000 0.000000
vn -1.000000 0.000000 0.000000
vn -1.000000 0.000000 0.000000
vn -1.000000 0.000000 0.000000
vn 0.000000 -1.000000 0.000000
vn 0.000000 -1.000000 0.000000
vn 0.000000 -1.000000 0.000000
vn 0.000000 -1.000000 0.000000
vn 1.000000 0.000000 0.000000
vn 1.000000 0.000000 0.000000
vn 1.000000 0.000000 0.000000
vn 1.000000 0.000000 0.000000
s off
f 1/1/1 2/2/2 4/3/3 3/4/4
f 3/5/5 4/6/6 6/7/7 5/8/8
f 5/9/9 6/10/10 8/11/11 7/12/12
f 2/13/13 8/14/14 6/15/15 4/16/16
f 7/17/17 1/18/18 3/19/19 5/20/20
f 9/21/21 10/22/22 12/23/23 11/24/24
f 11/25/25 12/26/26 14/27/27 13/28/28
f 13/29/29 14/30/30 16/31/31 15/32/32
f 10/33/33 16/34/34 14/35/35 12/36/36
f 15/37/37 9/38/38 11/39/39 13/40/40
f 23/41/41 24/42/42 18/43/43 17/44/44
f 19/45/45 20/46/46 21/47/47 22/48/48
f 24/49/49 21/50/50 20/51/51 18/52/52
f 22/53/53 23/54/54 17/55/55 19/56/56
f 31/57/57 32/58/58 26/59/59 25/60/60
f 27/61/61 28/62/62 29/63/63 30/64/64
f 32/65/65 29/66/66 28/67/67 26/68/68
f 30/69/69 31/70/70 25/71/71 27/72/72
f 33/73/73 34/74/74 36/75/75 35/76/76
f 35/77/77 36/78/78 38/79/79 37/80/80
f 37/81/81 38/82/82 40/83/83 39/84/84
f 34/85/85 40/86/86 38/87/87 36/88/88
f 39/89/89 33/90/90 35/91/91 37/92/92
f 43/93/93 44/94/94 42/95/95 41/96/96
f 46/97/97 45/98/98 44/99/99 43/100/100
f 43/93/101 41/96/102 47/101/103 46/102/104
f 41/103/105 42/104/106 48/105/107 47/106/108
f 42/95/109 44/94/110 45/107/111 48/108/112
f 51/109/113 52/110/114 50/111/115 49/112/116
f 54/113/117 53/114/118 52/115/119 51/116/120
f 51/109/121 49/112/122 55/117/123 54/118/124
f 49/119/125 50/120/126 56/121/127 55/122/128
f 50/111/129 52/110/130 53/123/131 56/124/132
v -0.180394 -0.000004 -5.044854
v 0.180394 -0.000004 -5.044854
v -0.180394 2.381702 -5.044854
v 0.180394 2.381702 -5.044854
v -0.180394 2.381702 -5.405643
v 0.180394 2.381702 -5.405643
v -0.180394 -0.000004 -5.405643
v 0.180394 -0.000004 -5.405643
v -0.180394 -0.000004 -7.370109
v 0.180394 -0.000004 -7.370109
v -0.180394 2.381702 -7.370109
v 0.180394 2.381702 -7.370109
v -0.180394 2.381702 -7.730897
v 0.180394 2.381702 -7.730897
v -0.180394 -0.000004 -7.730897
v 0.180394 -0.000004 -7.730897
v -0.115210 1.512773 -5.393671
v 0.115210 1.512773 -5.393671
v -0.115210 1.743193 -5.393671
v 0.115210 1.743193 -5.393671
v 0.115210 1.743192 -7.401484
v -0.115210 1.743192 -7.401484
v -0.115210 1.512773 -7.401483
v 0.115210 1.512773 -7.401483
v -0.115210 0.792435 -5.393671
v 0.115210 0.792435 -5.393671
v -0.115210 1.022854 -5.393671
v 0.115210 1.022854 -5.393671
v 0.115210 1.022854 -7.401520
v -0.115210 1.022854 -7.401520
v -0.115210 0.792435 -7.401520
v 0.115210 0.792435 -7.401520
v -0.064776 0.552656 -7.394147
v 0.064776 0.552656 -7.394147
v -0.064776 0.752205 -7.509356
v 0.064776 0.752205 -7.509356
v 0.064776 1.966743 -5.405714
v -0.064776 1.966743 -5.405714
v -0.064776 1.767194 -5.290504
v 0.064776 1.767194 -5.290504
vt 0.201846 0.046946
vt 0.201846 0.046946
vt 0.201846 0.046946
vt 0.201846 0.046946
vt 0.369406 0.046933
vt 0.369406 0.046933
vt 0.369406 0.046933
vt 0.369406 0.046933
vt 0.201846 0.046946
vt 0.201846 0.046946
vt 0.201846 0.046946
vt 0.201846 0.046946
vt 0.259159 0.045735
vt 0.259159 0.045735
vt 0.259159 0.045735
vt 0.259159 0.045735
vt 0.259159 0.045735
vt 0.259159 0.045735
vt 0.259159 0.045735
vt 0.259159 0.045735
vt 0.201846 0.046946
vt 0.201846 0.046946
vt 0.201846 0.046946
vt 0.201846 0.046946
vt 0.369406 0.046933
vt 0.369406 0.046933
vt 0.369406 0.046933
vt 0.369406 0.046933
vt 0.201846 0.046946
vt 0.201846 0.046946
vt 0.201846 0.046946
vt 0.201846 0.046946
vt 0.259159 0.045735
vt 0.259159 0.045735
vt 0.259159 0.045735
vt 0.259159 0.045735
vt 0.259159 0.045735
vt 0.259159 0.045735
vt 0.259159 0.045735
vt 0.259159 0.045735
vt 0.139202 0.046290
vt 0.139202 0.046290
vt 0.139202 0.046290
vt 0.139202 0.046290
vt 0.369406 0.046933
vt 0.369406 0.046933
vt 0.369406 0.046933
vt 0.369406 0.046933
vt 0.259159 0.045735
vt 0.259159 0.045735
vt 0.259159 0.045735
vt 0.259159 0.045735
vt 0.259159 0.045735
vt 0.259159 0.045735
vt 0.259159 0.045735
vt 0.259159 0.045735
vt 0.139202 0.046290
vt 0.139202 0.046290
vt 0.139202 0.046290
vt 0.139202 0.046290
vt 0.369406 0.046933
vt 0.369406 0.046933
vt 0.369406 0.046933
vt 0.369406 0.046933
vt 0.259159 0.045735
vt 0.259159 0.045735
vt 0.259159 0.045735
vt 0.259159 0.045735
vt 0.259159 0.045735
vt 0.259159 0.045735
vt 0.259159 0.045735
vt 0.259159 0.045735
vt 0.139202 0.046290
vt 0.139202 0.046290
vt 0.139202 0.046290
vt 0.139202 0.046290
vt 0.369406 0.046933
vt 0.369406 0.046933
vt 0.369406 0.046933
vt 0.369406 0.046933
vt 0.259159 0.045735
vt 0.259159 0.045735
vt 0.259159 0.045735
vt 0.259159 0.045735
vt 0.259159 0.045735
vt 0.259159 0.045735
vt 0.259159 0.045735
vt 0.259159 0.045735
vn 0.000000 0.000000 1.000000
vn 0.000000 0.000000 1.000000
vn 0.000000 0.000000 1.000000
vn 0.000000 0.000000 1.000000
vn 0.000000 1.000000 0.000000
vn 0.000000 1.000000 0.000000
vn 0.000000 1.000000 0.000000
vn 0.000000 1.000000 0.000000
vn 0.000000 0.000000 -1.000000
vn 0.000000 0.000000 -1.000000
vn 0.000000 0.000000 -1.000000
vn 0.000000 0.000000 -1.000000
vn 1.000000 0.000000 0.000000
vn 1.000000 0.000000 0.000000
vn 1.000000 0.000000 0.000000
vn 1.000000 0.000000 0.000000
vn -1.000000 0.000000 0.000000
vn -1.000000 0.000000 0.000000
vn -1.000000 0.000000 0.000000
vn -1.000000 0.000000 0.000000
vn 0.000000 0.000000 1.000000
vn 0.000000 0.000000 1.000000
vn 0.000000 0.000000 1.000000
vn 0.000000 0.000000 1.000000
vn 0.000000 1.000000 0.000000
vn 0.000000 1.000000 0.000000
vn 0.000000 1.000000 0.000000
vn 0.000000 1.000000 0.000000
vn 0.000000 0.000000 -1.000000
vn 0.000000 0.000000 -1.000000
vn 0.000000 0.000000 -1.000000
vn 0.000000 0.000000 -1.000000
vn 1.000000 0.000000 0.000000
vn 1.000000 0.000000 0.000000
vn 1.000000 0.000000 0.000000
vn 1.000000 0.000000 0.000000
vn -1.000000 0.000000 0.000000
vn -1.000000 0.000000 0.000000
vn -1.000000 0.000000 0.000000
vn -1.000000 0.000000 0.000000
vn 0.000000 -1.000000 0.000000
vn 0.000000 -1.000000 0.000000
vn 0.000000 -1.000000 0.000000
vn 0.000000 -1.000000 0.000000
vn 0.000000 1.000000 -0.000000
vn 0.000000 1.000000 -0.000000
vn 0.000000 1.000000 -0.000000
vn 0.000000 1.000000 -0.000000
vn 1.000000 0.000000 0.000000
vn 1.000000 0.000000 0.000000
vn 1.000000 0.000000 0.000000
vn 1.000000 0.000000 0.000000
vn -1.000000 0.000000 0.000000
vn -1.000000 0.000000 0.000000
vn -1.000000 0.000000 0.000000
vn -1.000000 0.000000 0.000000
vn 0.000000 -1.000000 0.000000
vn 0.000000 -1.000000 0.000000
vn 0.000000 -1.000000 0.000000
vn 0.000000 -1.000000 0.000000
vn 0.000000 1.000000 0.000000
vn 0.000000 1.000000 0.000000
vn 0.000000 1.000000 0.000000
vn 0.000000 1.000000 0.000000
vn 1.000000 0.000000 0.000000
vn 1.000000 0.000000 0.000000
vn 1.000000 0.000000 0.000000
vn 1.000000 0.000000 0.000000
vn -1.000000 0.000000 0.000000
vn -1.000000 0.000000 0.000000
vn -1.000000 0.000000 0.000000
vn -1.000000 0.000000 0.000000
vn 0.000000 -0.866026 0.500000
vn 0.000000 -0.866026 0.500000
vn 0.000000 -0.866026 0.500000
vn 0.000000 -0.866026 0.500000
vn 0.000000 0.866025 -0.500000
vn 0.000000 0.866025 -0.500000
vn 0.000000 0.866025 -0.500000
vn 0.000000 0.866025 -0.500000
vn 1.000000 -0.000000 0.000000
vn 1.000000 -0.000000 0.000000
vn 1.000000 -0.000000 0.000000
vn 1.000000 -0.000000 0.000000
vn -1.000000 -0.000000 0.000000
vn -1.000000 -0.000000 0.000000
vn -1.000000 -0.000000 0.000000
vn -1.000000 -0.000000 0.000000
s off
f 57/125/133 58/126/134 60/127/135 59/128/136
f 59/129/137 60/130/138 62/131/139 61/132/140
f 61/133/141 62/134/142 64/135/143 63/136/144
f 58/137/145 64/138/146 62/139/147 60/140/148
f 63/141/149 57/142/150 59/143/151 61/144/152
f 65/145/153 66/146/154 68/147/155 67/148/156
f 67/149/157 68/150/158 70/151/159 69/152/160
f 69/153/161 70/154/162 72/155/163 71/156/164
f 66/157/165 72/158/166 70/159/167 68/160/168
f 71/161/169 65/162/170 67/163/171 69/164/172
f 79/165/173 80/166/174 74/167/175 73/168/176
f 75/169/177 76/170/178 77/171/179 78/172/180
f 80/173/181 77/174/182 76/175/183 74/176/184
f 78/177/185 79/178/186 73/179/187 75/180/188
f 87/181/189 88/182/190 82/183/191 81/184/192
f 83/185/193 84/186/194 85/187/195 86/188/196
f 88/189/197 85/190/198 84/191/199 82/192/200
f 86/193/201 87/194/202 81/195/203 83/196/204
f 95/197/205 89/198/206 90/199/207 96/200/208
f 91/201/209 94/202/210 93/203/211 92/204/212
f 96/205/213 90/206/214 92/207/215 93/208/216
f 94/209/217 91/210/218 89/211/219 95/212/220
v -0.180394 -0.000004 -4.567706
v 0.180394 -0.000004 -4.567706
v -0.180394 2.381702 -4.567706
v 0.180394 2.381702 -4.567706
v -0.180394 2.381702 -4.928494
v 0.180394 2.381702 -4.928494
v -0.180394 -0.000004 -4.928494
v 0.180394 -0.000004 -4.928494
v -0.180394 -0.000004 -2.278728
v 0.180394 -0.000004 -2.278728
v -0.180394 2.381702 -2.278728
v 0.180394 2.381702 -2.278728
v -0.180394 2.381702 -2.639517
v 0.180394 2.381702 -2.639517
v -0.180394 -0.000004 -2.639517
v 0.180394 -0.000004 -2.639517
v -0.115210 1.512773 -2.596165
v 0.115210 1.512773 -2.596165
v -0.115210 1.743193 -2.596165
v 0.115210 1.743193 -2.596165
v 0.115210 1.743192 -4.603976
v -0.115210 1.743192 -4.603976
v -0.115210 1.512773 -4.603976
v 0.115210 1.512773 -4.603976
v -0.115210 0.792435 -2.596165
v 0.115210 0.792435 -2.596165
v -0.115210 1.022854 -2.596165
v 0.115210 1.022854 -2.596165
v 0.115210 1.022854 -4.604013
v -0.115210 1.022854 -4.604013
v -0.115210 0.792435 -4.604013
v 0.115210 0.792435 -4.604013
v -0.064776 0.552656 -2.605855
v 0.064776 0.552656 -2.605855
v -0.064776 0.752205 -2.490645
v 0.064776 0.752205 -2.490645
v 0.064776 1.966743 -4.594287
v -0.064776 1.966743 -4.594287
v -0.064776 1.767194 -4.709496
v 0.064776 1.767194 -4.709496
vt 0.201846 0.046946
vt 0.201846 0.046946
vt 0.201846 0.046946
vt 0.201846 0.046946
vt 0.369406 0.046933
vt 0.369406 0.046933
vt 0.369406 0.046933
vt 0.369406 0.046933
vt 0.201846 0.046946
vt 0.201846 0.046946
vt 0.201846 0.046946
vt 0.201846 0.046946
vt 0.259159 0.045735
vt 0.259159 0.045735
vt 0.259159 0.045735
vt 0.259159 0.045735
vt 0.259159 0.045735
vt 0.259159 0.045735
vt 0.259159 0.045735
vt 0.259159 0.045735
vt 0.201846 0.046946
vt 0.201846 0.046946
vt 0.201846 0.046946
vt 0.201846 0.046946
vt 0.369406 0.046933
vt 0.369406 0.046933
vt 0.369406 0.046933
vt 0.369406 0.046933
vt 0.201846 0.046946
vt 0.201846 0.046946
vt 0.201846 0.046946
vt 0.201846 0.046946
vt 0.259159 0.045735
vt 0.259159 0.045735
vt 0.259159 0.045735
vt 0.259159 0.045735
vt 0.259159 0.045735
vt 0.259159 0.045735
vt 0.259159 0.045735
vt 0.259159 0.045735
vt 0.139202 0.046290
vt 0.139202 0.046290
vt 0.139202 0.046290
vt 0.139202 0.046290
vt 0.369406 0.046933
vt 0.369406 0.046933
vt 0.369406 0.046933
vt 0.369406 0.046933
vt 0.259159 0.045735
vt 0.259159 0.045735
vt 0.259159 0.045735
vt 0.259159 0.045735
vt 0.259159 0.045735
vt 0.259159 0.045735
vt 0.259159 0.045735
vt 0.259159 0.045735
vt 0.139202 0.046290
vt 0.139202 0.046290
vt 0.139202 0.046290
vt 0.139202 0.046290
vt 0.369406 0.046933
vt 0.369406 0.046933
vt 0.369406 0.046933
vt 0.369406 0.046933
vt 0.259159 0.045735
vt 0.259159 0.045735
vt 0.259159 0.045735
vt 0.259159 0.045735
vt 0.259159 0.045735
vt 0.259159 0.045735
vt 0.259159 0.045735
vt 0.259159 0.045735
vt 0.139202 0.046290
vt 0.139202 0.046290
vt 0.139202 0.046290
vt 0.139202 0.046290
vt 0.369406 0.046933
vt 0.369406 0.046933
vt 0.369406 0.046933
vt 0.369406 0.046933
vt 0.259159 0.045735
vt 0.259159 0.045735
vt 0.259159 0.045735
vt 0.259159 0.045735
vt 0.259159 0.045735
vt 0.259159 0.045735
vt 0.259159 0.045735
vt 0.259159 0.045735
vn 0.000000 0.000000 1.000000
vn 0.000000 0.000000 1.000000
vn 0.000000 0.000000 1.000000
vn 0.000000 0.000000 1.000000
vn 0.000000 1.000000 0.000000
vn 0.000000 1.000000 0.000000
vn 0.000000 1.000000 0.000000
vn 0.000000 1.000000 0.000000
vn 0.000000 0.000000 -1.000000
vn 0.000000 0.000000 -1.000000
vn 0.000000 0.000000 -1.000000
vn 0.000000 0.000000 -1.000000
vn 1.000000 0.000000 0.000000
vn 1.000000 0.000000 0.000000
vn 1.000000 0.000000 0.000000
vn 1.000000 0.000000 0.000000
vn -1.000000 0.000000 0.000000
vn -1.000000 0.000000 0.000000
vn -1.000000 0.000000 0.000000
vn -1.000000 0.000000 0.000000
vn 0.000000 0.000000 1.000000
vn 0.000000 0.000000 1.000000
vn 0.000000 0.000000 1.000000
vn 0.000000 0.000000 1.000000
vn 0.000000 1.000000 0.000000
vn 0.000000 1.000000 0.000000
vn 0.000000 1.000000 0.000000
vn 0.000000 1.000000 0.000000
vn 0.000000 0.000000 -1.000000
vn 0.000000 0.000000 -1.000000
vn 0.000000 0.000000 -1.000000
vn 0.000000 0.000000 -1.000000
vn 1.000000 0.000000 0.000000
vn 1.000000 0.000000 0.000000
vn 1.000000 0.000000 0.000000
vn 1.000000 0.000000 0.000000
vn -1.000000 0.000000 0.000000
vn -1.000000 0.000000 0.000000
vn -1.000000 0.000000 0.000000
vn -1.000000 0.000000 0.000000
vn 0.000000 -1.000000 0.000000
vn 0.000000 -1.000000 0.000000
vn 0.000000 -1.000000 0.000000
vn 0.000000 -1.000000 0.000000
vn 0.000000 1.000000 -0.000000
vn 0.000000 1.000000 -0.000000
vn 0.000000 1.000000 -0.000000
vn 0.000000 1.000000 -0.000000
vn 1.000000 0.000000 0.000000
vn 1.000000 0.000000 0.000000
vn 1.000000 0.000000 0.000000
vn 1.000000 0.000000 0.000000
vn -1.000000 0.000000 0.000000
vn -1.000000 0.000000 0.000000
vn -1.000000 0.000000 0.000000
vn -1.000000 0.000000 0.000000
vn 0.000000 -1.000000 0.000000
vn 0.000000 -1.000000 0.000000
vn 0.000000 -1.000000 0.000000
vn 0.000000 -1.000000 0.000000
vn 0.000000 1.000000 0.000000
vn 0.000000 1.000000 0.000000
vn 0.000000 1.000000 0.000000
vn 0.000000 1.000000 0.000000
vn 1.000000 0.000000 0.000000
vn 1.000000 0.000000 0.000000
vn 1.000000 0.000000 0.000000
vn 1.000000 0.000000 0.000000
vn -1.000000 0.000000 0.000000
vn -1.000000 0.000000 0.000000
vn -1.000000 0.000000 0.000000
vn -1.000000 0.000000 0.000000
vn 0.000000 -0.866025 -0.500000
vn 0.000000 -0.866025 -0.500000
vn 0.000000 -0.866025 -0.500000
vn 0.000000 -0.866025 -0.500000
vn 0.000000 0.866025 0.500000
vn 0.000000 0.866025 0.500000
vn 0.000000 0.866025 0.500000
vn 0.000000 0.866025 0.500000
vn 1.000000 0.000000 0.000000
vn 1.000000 0.000000 0.000000
vn 1.000000 0.000000 0.000000
vn 1.000000 0.000000 0.000000
vn -1.000000 0.000000 0.000000
vn -1.000000 0.000000 0.000000
vn -1.000000 0.000000 0.000000
vn -1.000000 0.000000 0.000000
s off
f 97/213/221 98/214/222 100/215/223 99/216/224
f 99/217/225 100/218/226 102/219/227 101/220/228
f 101/221/229 102/222/230 104/223/231 103/224/232
f 98/225/233 104/226/234 102/227/235 100/228/236
f 103/229/237 97/230/238 99/231/239 101/232/240
f 105/233/241 106/234/242 108/235/243 107/236/244
f 107/237/245 108/238/246 110/239/247 109/240/248
f 109/241/249 110/242/250 112/243/251 111/244/252
f 106/245/253 112/246/254 110/247/255 108/248/256
f 111/249/257 105/250/258 107/251/259 109/252/260
f 119/253/261 120/254/262 114/255/263 113/256/264
f 115/257/265 116/258/266 117/259/267 118/260/268
f 120/261/269 117/262/270 116/263/271 114/264/272
f 118/265/273 119/266/274 113/267/275 115/268/276
f 127/269/277 128/270/278 122/271/279 121/272/280
f 123/273/281 124/274/282 125/275/283 126/276/284
f 128/277/285 125/278/286 124/279/287 122/280/288
f 126/281/289 127/282/290 121/283/291 123/284/292
f 135/285/293 136/286/294 130/287/295 129/288/296
f 131/289/297 132/290/298 133/291/299 134/292/300
f 136/293/301 133/294/302 132/295/303 130/296/304
f 134/297/305 135/298/306 129/299/307 131/300/308
