# This file uses meters as units for non-parametric coordinates.

v 1.167904 0.000000 -2.022861
v -1.167904 0.000000 -2.022862
v -2.335804 0.000000 -0.000000
v -1.167904 0.000000 2.022862
v 1.167904 0.000000 2.022862
v 2.335804 0.000000 -0.000000
v -0.682744 4.157259 -1.182528
v 0.682727 4.157259 -1.182528
v 1.365479 4.157259 -0.000001
v 0.682727 4.157259 1.182529
v -0.682744 4.157259 1.182529
v -1.365479 4.157259 -0.000001
v -0.000009 3.898494 -0.000001
v -1.028517 2.064086 -1.781452
v 1.028517 2.064086 -1.781452
v 2.057041 2.064086 -0.000000
v 1.028517 2.064086 1.781452
v -1.028517 2.064086 1.781452
v -2.057041 2.064086 -0.000000
v -0.414505 3.338341 -0.717931
v 0.414505 3.338341 -0.717931
v 0.829001 3.338341 -0.000001
v 0.414505 3.338341 0.717932
v -0.414505 3.338341 0.717932
v -0.829001 3.338341 -0.000001
v -0.960378 3.706241 -0.000001
v -0.480194 3.706241 -0.831717
v 0.480194 3.706241 -0.831717
v 0.960378 3.706241 -0.000001
v 0.480194 3.706241 0.831718
v -0.480194 3.706241 0.831718
vt 0.252621 0.217869
vt 0.252621 0.217869
vt 0.252621 0.217869
vt 0.252621 0.217869
vt 0.252621 0.217869
vt 0.252621 0.217869
vt 0.295393 0.213859
vt 0.332819 0.219206
vt 0.295393 0.213859
vt 0.295393 0.213859
vt 0.332819 0.219206
vt 0.332819 0.219206
vt 0.332819 0.219206
vt 0.332819 0.219206
vt 0.332819 0.219206
vt 0.332819 0.219206
vt 0.295393 0.213859
vt 0.295393 0.213859
vt 0.295393 0.213859
vt 0.307423 0.219206
vt 0.307423 0.219206
vt 0.181511 0.401720
vt 0.181511 0.401720
vt 0.307423 0.219206
vt 0.307423 0.219206
vt 0.141682 0.216533
vt 0.141682 0.216533
vt 0.307423 0.219206
vt 0.307423 0.219206
vt 0.181511 0.401720
vt 0.141682 0.216533
vt 0.367571 0.217869
vt 0.367571 0.217869
vt 0.367571 0.217869
vt 0.367571 0.217869
vt 0.367571 0.217869
vt 0.367571 0.217869
vt 0.367571 0.217869
vt 0.334155 0.215196
vt 0.334155 0.215196
vt 0.181511 0.401720
vt 0.141682 0.216533
vt 0.334155 0.215196
vt 0.334155 0.215196
vt 0.181511 0.401720
vt 0.141682 0.216533
vt 0.334155 0.215196
vt 0.334155 0.215196
vt 0.181511 0.401720
vt 0.141682 0.216533
vt 0.307423 0.219206
vt 0.252621 0.217869
vt 0.252621 0.217869
vt 0.307423 0.219206
vt 0.307423 0.219206
vt 0.252621 0.217869
vt 0.252621 0.217869
vt 0.307423 0.219206
vt 0.307423 0.219206
vt 0.252621 0.217869
vt 0.252621 0.217869
vt 0.307423 0.219206
vt 0.334155 0.215196
vt 0.295393 0.213859
vt 0.295393 0.213859
vt 0.334155 0.215196
vt 0.334155 0.215196
vt 0.295393 0.213859
vt 0.295393 0.213859
vt 0.334155 0.215196
vt 0.334155 0.215196
vt 0.295393 0.213859
vt 0.295393 0.213859
vt 0.334155 0.215196
vt 0.141682 0.216533
vt 0.141682 0.216533
vt 0.141682 0.216533
vt 0.141682 0.216533
vt 0.141682 0.216533
vt 0.141682 0.216533
vt 0.181511 0.401720
vt 0.181511 0.401720
vt 0.181511 0.401720
vt 0.181511 0.401720
vt 0.181511 0.401720
vt 0.181511 0.401720
vn 0.000000 0.116165 -0.993230
vn 0.000000 0.116165 -0.993230
vn 0.000000 0.116165 -0.993230
vn 0.000000 0.116165 -0.993230
vn -0.860162 0.116169 -0.496615
vn -0.860162 0.116169 -0.496615
vn -0.860162 0.116169 -0.496615
vn -0.860162 0.116169 -0.496615
vn -0.860162 0.116169 0.496615
vn -0.860162 0.116169 0.496615
vn -0.860162 0.116169 0.496615
vn -0.860162 0.116169 0.496615
vn 0.000000 0.116166 0.993230
vn 0.000000 0.116166 0.993230
vn 0.000000 0.116166 0.993230
vn 0.000000 0.116166 0.993230
vn 0.860162 0.116169 0.496615
vn 0.860162 0.116169 0.496615
vn 0.860162 0.116169 0.496615
vn 0.860162 0.116169 0.496615
vn 0.860162 0.116168 -0.496615
vn 0.860162 0.116168 -0.496615
vn 0.860162 0.116168 -0.496615
vn 0.860162 0.116168 -0.496615
vn -0.185124 0.976885 0.106884
vn -0.185124 0.976885 0.106884
vn -0.185124 0.976885 0.106884
vn -0.664880 0.640765 0.383868
vn -0.664880 0.640765 0.383868
vn -0.664880 0.640765 0.383868
vn -0.664880 0.640765 0.383868
vn 0.000000 0.640768 0.767735
vn 0.000000 0.640768 0.767735
vn 0.000000 0.640768 0.767735
vn 0.000000 0.640768 0.767735
vn 0.664880 0.640765 0.383868
vn 0.664880 0.640765 0.383868
vn 0.664880 0.640765 0.383868
vn 0.664880 0.640765 0.383868
vn 0.664880 0.640765 -0.383869
vn 0.664880 0.640765 -0.383869
vn 0.664880 0.640765 -0.383869
vn 0.664880 0.640765 -0.383869
vn 0.000000 0.640768 -0.767735
vn 0.000000 0.640768 -0.767735
vn 0.000000 0.640768 -0.767735
vn 0.000000 0.640768 -0.767735
vn -0.664880 0.640765 -0.383869
vn -0.664880 0.640765 -0.383869
vn -0.664880 0.640765 -0.383869
vn -0.664880 0.640765 -0.383869
vn 0.185126 0.976885 -0.106883
vn 0.185126 0.976885 -0.106883
vn 0.185126 0.976885 -0.106883
vn 0.000000 0.976885 -0.213766
vn 0.000000 0.976885 -0.213766
vn 0.000000 0.976885 -0.213766
vn -0.185124 0.976885 -0.106884
vn -0.185124 0.976885 -0.106884
vn -0.185124 0.976885 -0.106884
vn 0.000000 0.976885 0.213766
vn 0.000000 0.976885 0.213766
vn 0.000000 0.976885 0.213766
vn 0.185126 0.976885 0.106883
vn 0.185126 0.976885 0.106883
vn 0.185126 0.976885 0.106883
vn 0.000000 -0.295474 -0.955351
vn 0.000000 -0.295474 -0.955351
vn 0.000000 -0.533125 -0.846036
vn 0.000000 -0.533125 -0.846037
vn 0.827364 -0.295458 -0.477675
vn 0.827364 -0.295458 -0.477675
vn 0.732687 -0.533127 -0.423019
vn 0.732688 -0.533126 -0.423019
vn 0.827365 -0.295458 0.477673
vn 0.827365 -0.295458 0.477673
vn 0.732688 -0.533126 0.423019
vn 0.732687 -0.533127 0.423018
vn 0.000000 -0.295477 0.955350
vn 0.000000 -0.295477 0.955350
vn 0.000000 -0.533124 0.846037
vn 0.000000 -0.533125 0.846036
vn -0.827365 -0.295458 0.477673
vn -0.827365 -0.295458 0.477673
vn -0.732686 -0.533133 0.423013
vn -0.732686 -0.533133 0.423013
vn -0.827364 -0.295458 -0.477675
vn -0.827364 -0.295458 -0.477675
vn -0.732686 -0.533133 -0.423014
vn -0.732685 -0.533134 -0.423014
vn -0.732685 -0.533134 -0.423014
vn -0.732686 -0.533133 -0.423014
vn -0.683577 -0.613975 -0.394662
vn -0.683577 -0.613975 -0.394662
vn 0.000000 -0.533125 -0.846037
vn 0.000000 -0.533125 -0.846036
vn 0.000000 -0.613962 -0.789336
vn 0.000000 -0.613962 -0.789336
vn 0.732688 -0.533126 -0.423019
vn 0.732687 -0.533127 -0.423019
vn 0.683580 -0.613967 -0.394669
vn 0.683580 -0.613967 -0.394669
vn 0.732687 -0.533127 0.423018
vn 0.732688 -0.533126 0.423019
vn 0.683580 -0.613967 0.394669
vn 0.683580 -0.613967 0.394669
vn 0.000000 -0.533125 0.846036
vn 0.000000 -0.533124 0.846037
vn 0.000000 -0.613961 0.789336
vn 0.000000 -0.613961 0.789336
vn -0.732686 -0.533133 0.423013
vn -0.732686 -0.533133 0.423013
vn -0.683577 -0.613975 0.394661
vn -0.683577 -0.613975 0.394661
s off
f 1/20/1 2/21/2 14/51/3 15/54/4
f 2/2/5 3/3/6 19/61/7 14/52/8
f 3/24/9 4/25/10 18/59/11 19/62/12
f 4/4/13 5/5/14 17/57/15 18/60/16
f 5/28/17 6/29/18 16/55/19 17/58/20
f 6/6/21 1/1/22 15/53/23 16/56/24
f 8/8/25 13/11/26 9/12/27
f 19/39/28 18/40/29 24/71/30 25/74/31
f 18/9/32 17/10/33 23/69/34 24/72/35
f 17/43/36 16/44/37 22/67/38 23/70/39
f 16/17/40 15/18/41 21/65/42 22/68/43
f 15/47/44 14/48/45 20/63/46 21/66/47
f 14/19/48 19/7/49 25/73/50 20/64/51
f 12/32/52 11/33/53 13/34/54
f 13/11/55 11/14/56 10/15/57
f 13/34/58 10/35/59 9/36/60
f 7/37/61 13/34/62 8/38/63
f 12/13/64 13/11/65 7/16/66
f 21/22/67 20/23/68 27/30/69 28/41/70
f 22/45/71 21/22/72 28/41/73 29/49/74
f 23/81/75 22/45/76 29/49/77 30/82/78
f 24/83/79 23/81/80 30/82/81 31/84/82
f 25/85/83 24/83/84 31/84/85 26/86/86
f 20/23/87 25/85/88 26/86/89 27/30/90
f 27/76/91 26/75/92 12/50/93 7/26/94
f 28/77/95 27/76/96 7/26/97 8/27/98
f 29/78/99 28/77/100 8/27/101 9/31/102
f 30/79/103 29/78/104 9/31/105 10/42/106
f 31/80/107 30/79/108 10/42/109 11/46/110
f 26/75/111 31/80/112 11/46/113 12/50/114
