# wash_basin_corner.obj
#
# Created by Ola-Kristian HOFF
# http://sourceforge.net/p/sweethome3d/d-models/297/
#
# This file is distributed under Free Art License, see http://artlibre.org/licence/lal/en for more informations
# and under CC-BY Creative Commons Attribution 3.0 Unported license, see http://creativecommons.org/licenses/by/3.0/
# at your choice
#
mtllib cornerWashbasin.mtl
o 12_12
v -6.409363 95.999962 6.871918
v -6.671844 93.188393 6.522156
v -6.671844 95.999962 6.522186
v -6.409363 93.188393 6.871887
v -6.246338 93.188393 7.277618
v -6.255585 93.188393 8.144592
v -6.193878 93.188393 7.711731
v -6.427185 93.188393 8.546783
v -6.697052 93.188393 8.890839
v -7.015869 93.188393 6.252289
v -7.046783 93.188393 9.153320
v -7.418060 93.188393 6.080658
v -7.452515 93.188393 9.316315
v -7.850952 93.188393 6.018982
v -7.886627 93.188393 9.368774
v -8.285065 93.188393 6.071411
v -8.319519 93.188393 9.307098
v -8.690796 93.188393 6.234436
v -8.721680 93.188393 9.135468
v -9.040497 93.188393 6.496918
v -9.065735 93.188393 8.865601
v -9.310364 93.188393 6.840973
v -9.328217 93.188393 8.515869
v -9.481995 93.188393 7.243134
v -9.491241 93.188393 8.110138
v -9.543701 93.188393 7.676025
v -7.015869 95.999962 6.252319
v -6.246338 95.999962 7.277649
v -6.255585 95.999962 8.144623
v -6.193878 95.999962 7.711761
v -6.427185 95.999962 8.546814
v -6.697052 95.999962 8.890869
v -7.046783 95.999962 9.153351
v -7.418060 95.999962 6.080688
v -7.452515 95.999962 9.316345
v -7.850952 95.999962 6.019012
v -7.886627 95.999962 9.368805
v -8.285065 95.999962 6.071442
v -8.319519 95.999962 9.307129
v -8.690796 95.999962 6.234467
v -8.721680 95.999962 9.135498
v -9.040497 95.999962 6.496948
v -9.065735 95.999962 8.865631
v -9.310364 95.999962 6.841003
v -9.328217 95.999962 8.515900
v -9.481995 95.999962 7.243164
v -9.491241 95.999962 8.110168
v -9.543701 95.999962 7.676056
vn 0.639800 0.678900 -0.360300
vn 0.482700 -0.737400 -0.472500
vn 0.524700 0.678900 -0.513600
vn 0.588500 -0.737400 -0.331500
vn -0.925700 0.294300 0.237500
vn -0.920500 0.294300 -0.257200
vn -0.955700 0.294300 -0.010200
vn -0.588500 0.737400 0.331400
vn -0.822500 0.294300 -0.486600
vn -0.482700 0.737400 0.472500
vn -0.668500 0.294300 -0.683000
vn -0.486600 0.294300 0.822600
vn -0.469000 0.294300 -0.832700
vn -0.257200 0.294300 0.920500
vn -0.237500 0.294300 -0.925700
vn -0.010200 0.294300 0.955700
vn 0.007200 0.737400 -0.675400
vn 0.237500 0.294300 0.925700
vn 0.181800 0.737400 -0.650500
vn 0.469000 0.294300 0.832700
vn 0.486600 0.294300 -0.822600
vn 0.668500 0.294300 0.683000
vn 0.683000 0.294300 -0.668500
vn 0.822600 0.294300 0.486600
vn 0.832700 0.294300 -0.469000
vn 0.920500 0.294300 0.257200
vn 0.925700 0.294300 -0.237500
vn 0.955700 0.294300 0.010200
vn 0.373900 0.678900 -0.631900
vn 0.486700 -0.294300 -0.822500
vn 0.711200 0.678900 -0.182500
vn 0.707400 0.678600 0.197700
vn 0.734500 0.678600 0.007800
vn 0.632000 0.678900 0.373900
vn 0.513600 0.678900 0.524700
vn 0.360300 0.678900 0.639800
vn 0.197700 0.678500 -0.707500
vn 0.182500 0.678600 0.711400
vn 0.007800 0.678500 -0.734600
vn -0.007800 0.678500 0.734600
vn -0.182500 0.678900 -0.711200
vn -0.197600 0.678900 0.707200
vn -0.360300 0.678900 -0.639700
vn -0.373900 0.678900 0.631900
vn -0.513600 0.678900 -0.524700
vn -0.524700 0.678900 0.513600
vn -0.632100 0.678600 -0.374000
vn -0.639800 0.678900 0.360300
vn -0.707500 0.678500 -0.197700
vn -0.711200 0.678900 0.182500
vn -0.734200 0.678900 -0.007800
vn 0.925700 -0.294300 -0.237500
vn 0.469000 -0.294300 0.832700
vn 0.668500 -0.294300 0.683000
vn 0.822500 -0.294300 0.486600
vn 0.920500 -0.294300 0.257200
vn 0.955700 -0.294300 0.010200
vn 0.257300 -0.294300 -0.920400
vn 0.010300 -0.294300 -0.955700
vn -0.237500 -0.294300 -0.925700
vn -0.469000 -0.294300 -0.832700
vn -0.668500 -0.294300 -0.683000
vn -0.822500 -0.294300 -0.486600
vn -0.920500 -0.294300 -0.257200
vn -0.955700 -0.294300 -0.010300
vn -0.925700 -0.294300 0.237500
vn -0.832700 -0.294300 0.469000
vn -0.683000 -0.294300 0.668600
vn -0.486700 -0.294300 0.822500
vn -0.181400 -0.737400 0.650600
vn -0.007100 -0.737400 0.675400
vn 0.237600 -0.294300 0.925700
usemtl metal
s 1
f 1//1 2//2 3//3
f 2//2 1//1 4//4
f 5//5 6//6 7//7
f 6//6 5//5 4//8
f 6//6 4//8 8//9
f 8//9 4//8 2//10
f 8//9 2//10 9//11
f 9//11 2//10 10//12
f 9//11 10//12 11//13
f 11//13 10//12 12//14
f 11//13 12//14 13//15
f 13//15 12//14 14//16
f 13//15 14//16 15//17
f 15//17 14//16 16//18
f 15//17 16//18 17//19
f 17//19 16//18 18//20
f 17//19 18//20 19//21
f 19//21 18//20 20//22
f 19//21 20//22 21//23
f 21//23 20//22 22//24
f 21//23 22//24 23//25
f 23//25 22//24 24//26
f 23//25 24//26 25//27
f 25//27 24//26 26//28
f 27//29 2//2 10//30
f 2//2 27//29 3//3
f 28//31 29//32 30//33
f 29//32 28//31 1//1
f 29//32 1//1 31//34
f 31//34 1//1 3//3
f 31//34 3//3 32//35
f 32//35 3//3 27//29
f 32//35 27//29 33//36
f 33//36 27//29 34//37
f 33//36 34//37 35//38
f 35//38 34//37 36//39
f 35//38 36//39 37//40
f 37//40 36//39 38//41
f 37//40 38//41 39//42
f 39//42 38//41 40//43
f 39//42 40//43 41//44
f 41//44 40//43 42//45
f 41//44 42//45 43//46
f 43//46 42//45 44//47
f 43//46 44//47 45//48
f 45//48 44//47 46//49
f 45//48 46//49 47//50
f 47//50 46//49 48//51
f 28//31 4//4 1//1
f 4//4 28//31 5//52
f 32//35 11//53 9//54
f 11//53 32//35 33//36
f 32//35 8//55 31//34
f 8//55 32//35 9//54
f 31//34 6//56 29//32
f 6//56 31//34 8//55
f 29//32 7//57 30//33
f 7//57 29//32 6//56
f 30//33 5//52 28//31
f 5//52 30//33 7//57
f 34//37 10//30 12//58
f 10//30 34//37 27//29
f 36//39 12//58 14//59
f 12//58 36//39 34//37
f 38//41 14//59 16//60
f 14//59 38//41 36//39
f 40//43 16//60 18//61
f 16//60 40//43 38//41
f 42//45 18//61 20//62
f 18//61 42//45 40//43
f 22//63 42//45 20//62
f 42//45 22//63 44//47
f 24//64 44//47 22//63
f 44//47 24//64 46//49
f 26//65 46//49 24//64
f 46//49 26//65 48//51
f 25//66 48//51 26//65
f 48//51 25//66 47//50
f 23//67 47//50 25//66
f 47//50 23//67 45//48
f 21//68 45//48 23//67
f 45//48 21//68 43//46
f 41//44 21//68 19//69
f 21//68 41//44 43//46
f 39//42 19//69 17//70
f 19//69 39//42 41//44
f 37//40 17//70 15//71
f 17//70 37//40 39//42
f 35//38 15//71 13//72
f 15//71 35//38 37//40
f 33//36 13//72 11//53
f 13//72 33//36 35//38
o 14_14
v -15.358307 91.393753 16.419739
v -16.817902 92.848625 15.035797
v -16.764374 91.393753 14.983398
v -15.411835 92.848625 16.472137
v -7.310486 88.430519 8.541595
v -7.496368 86.975647 8.723541
v -8.716553 88.430519 7.105255
v -8.902435 86.975647 7.287201
vn -0.041400 -0.463100 0.885400
vn -0.737600 0.672600 -0.059300
vn -0.886000 -0.463100 0.022500
vn 0.043500 0.672600 0.738700
vn 0.915500 0.395600 -0.073000
vn 0.682300 -0.720100 0.126300
vn 0.092500 0.395600 -0.913800
vn -0.111600 -0.720300 -0.684600
usemtl metal
s 1
f 49//73 50//74 51//75
f 50//74 49//73 52//76
f 53//77 49//73 54//78
f 49//73 53//77 52//76
f 55//79 52//76 53//77
f 52//76 55//79 50//74
f 51//75 55//79 56//80
f 55//79 51//75 50//74
f 49//73 56//80 54//78
f 56//80 49//73 51//75
f 53//77 56//80 55//79
f 56//80 53//77 54//78
o 9_9
v -17.768799 70.951607 18.455719
v -17.449921 70.951607 17.265656
v -17.265808 70.951607 17.952728
v -18.136993 70.951607 17.081543
v -18.455872 70.951607 18.271606
v -18.639984 70.951607 17.584534
vn 0.145400 0.827100 0.542900
vn 0.542900 0.827100 0.145400
vn 0.397400 0.827100 -0.397400
vn -0.145400 0.827100 -0.542900
vn -0.397400 0.827100 0.397400
vn -0.542900 0.827100 -0.145400
usemtl drain
s 1
f 57//81 59//82 58//83
f 58//83 60//84 57//81
f 60//84 61//85 57//81
f 60//84 62//86 61//85
o 8_8
v -16.021027 71.950745 18.286255
v -16.578705 71.950745 18.136841
v -16.538666 71.950745 16.354401
v -17.435242 71.950745 19.700470
v -17.584686 71.950745 19.142792
v -19.367096 71.950745 19.182831
v -18.958862 71.950745 18.774597
v -19.327057 71.950745 17.400421
v -16.946930 71.950745 16.762665
v -18.470520 71.950745 15.836761
v -18.321106 71.950745 16.394440
v -19.884735 71.950745 17.250977
vn 0.000000 1.000000 0.000000
vn 0.311600 0.946500 0.083500
vn 0.083500 0.946500 0.311700
vn -0.228100 0.946500 0.228200
vn -0.311600 0.946500 -0.083500
vn 0.228100 0.946500 -0.228200
vn -0.083500 0.946500 -0.311600
usemtl metal
s 1
f 63//87 65//87 64//88
f 64//88 66//87 63//87
f 64//88 67//89 66//87
f 67//89 68//87 66//87
f 67//89 69//90 68//87
f 69//90 70//91 68//87
f 65//87 72//87 71//92
f 71//92 64//88 65//87
f 72//87 73//93 71//92
f 72//87 70//91 73//93
f 72//87 74//87 70//91
f 74//87 68//87 70//91
o 10_10
v -18.639984 70.951607 17.584534
v -18.958862 71.950745 18.774597
v -19.327057 71.950745 17.400421
v -18.455872 70.951607 18.271606
v -17.584686 71.950745 19.142792
v -17.768799 70.951607 18.455719
v -18.136993 70.951607 17.081543
v -18.321106 71.950745 16.394440
v -16.578705 71.950745 18.136841
v -17.265808 70.951607 17.952728
v -17.449921 70.951607 17.265656
v -16.946930 71.950745 16.762665
vn 0.897600 0.369400 0.240500
vn 0.952100 0.168900 0.255100
vn 0.696900 0.168900 -0.697000
vn 0.657100 0.369400 -0.657100
vn -0.255100 0.168900 -0.952100
vn -0.240500 0.369500 -0.897600
vn 0.240500 0.369400 0.897600
vn 0.255100 0.168900 0.952100
vn -0.953400 0.160500 -0.255400
vn -0.900300 0.362400 -0.241200
vn -0.655900 0.373600 0.655900
vn -0.695200 0.182600 0.695200
usemtl metal
s 1
f 75//94 77//95 76//96
f 76//96 78//97 75//94
f 79//98 80//99 78//97
f 78//97 76//96 79//98
f 77//95 75//94 81//100
f 81//100 82//101 77//95
f 83//102 84//103 80//99
f 80//99 79//98 83//102
f 82//101 81//100 85//104
f 85//104 86//105 82//101
f 83//102 86//105 85//104
f 85//104 84//103 83//102
o 13_13
v -7.276276 94.656105 14.394470
v -7.204895 94.154037 7.694855
v -7.204895 94.656105 7.694855
v -7.276276 94.154037 14.394470
v -8.544830 94.656105 7.680573
v -8.544830 94.154037 7.680573
v -8.616180 94.656105 14.380188
v -8.616180 94.154037 14.380188
vn 0.571200 0.577400 0.583500
vn 0.583700 -0.577000 -0.571400
vn 0.583600 0.577100 -0.571300
vn 0.571400 -0.577000 0.583700
vn -0.571200 0.577300 -0.583500
vn -0.571200 -0.577300 -0.583500
vn -0.583700 0.577000 0.571400
vn -0.583500 -0.577400 0.571200
usemtl metal
s 1
f 87//106 88//107 89//108
f 88//107 87//106 90//109
f 91//110 88//107 92//111
f 88//107 91//110 89//108
f 91//110 87//106 89//108
f 87//106 91//110 93//112
f 87//106 94//113 90//109
f 94//113 87//106 93//112
f 90//109 92//111 88//107
f 92//111 90//109 94//113
f 94//113 91//110 92//111
f 91//110 94//113 93//112
o 1_1
v -0.984833 81.942101 50.800568
v -0.984833 14.999962 0.800568
v -0.984833 81.942108 0.800568
v -0.984833 79.943832 49.800568
v -0.984833 79.943832 50.800568
v -0.984833 14.999953 49.800568
v -13.070618 14.999953 49.800568
v -13.070618 79.943832 49.800568
v -49.984833 14.999962 0.800568
v -49.984833 14.999960 12.886353
v -50.984833 81.942108 0.800568
v -49.984833 79.943840 0.800568
v -50.984833 79.943840 0.800568
v -49.277740 15.999100 13.593445
v -49.984833 79.943840 12.886353
v -49.277740 62.708729 13.593445
v -13.777740 15.999094 49.093475
v -13.777740 62.708725 49.093475
v -13.777740 63.707859 49.093475
v -13.777740 78.944695 49.093475
v -49.277740 78.944702 13.593445
v -49.277740 63.707863 13.593445
vn 1.000000 0.000000 0.000000
vn 0.000000 0.000000 1.000000
vn -0.000000 -1.000000 -0.000000
vn 0.000000 0.000000 -1.000000
vn -0.707100 0.000000 0.707100
vn -0.707200 0.000000 0.707000
vn -1.000000 0.000000 0.000000
usemtl cabinet
s 1
f 95//114 96//114 97//114
f 96//114 95//114 98//114
f 98//114 95//114 99//114
f 100//114 96//114 98//114
f 98//115 101//115 100//115
f 101//115 98//115 102//115
f 101//116 96//116 100//116
f 96//116 101//116 103//116
f 103//116 101//116 104//116
f 105//117 106//117 107//117
f 106//117 96//117 103//117
f 96//117 106//117 97//117
f 97//117 106//117 105//117
f 104//118 108//118 109//118
f 108//118 104//118 101//118
f 109//118 108//118 110//118
f 108//118 101//118 111//118
f 111//118 101//118 112//118
f 112//118 101//118 113//118
f 113//118 101//118 114//118
f 109//118 115//118 102//118
f 115//119 109//118 110//118
f 102//118 115//118 114//118
f 102//118 114//118 101//118
f 110//118 116//118 115//119
f 116//118 110//118 112//118
f 116//118 112//118 113//118
f 104//120 106//120 103//120
f 106//120 104//120 109//120
o 4_4
v -2.984833 82.441673 48.800568
v -3.984833 82.441673 47.800568
v -3.984833 82.441681 20.793213
v -12.656403 82.441673 48.800568
v -12.242188 82.441673 47.800568
v -47.984833 82.441681 12.057922
v -48.984833 82.441681 12.472137
v -47.984833 82.441681 3.800568
v -2.984833 82.441681 20.378998
v -20.563263 82.441681 2.800568
v -20.977478 82.441681 3.800568
v -48.984833 82.441681 2.800568
v -2.984833 81.942101 48.800568
v -2.984833 81.942108 20.378998
v -12.656403 81.942101 48.800568
v -48.984833 81.942108 12.472137
v -48.984833 81.942108 2.800568
v -20.563263 81.942108 2.800568
vn 0.577300 0.577400 0.577300
vn 0.327000 0.929900 -0.168300
vn 0.093700 0.992600 0.077000
vn -0.297100 0.630300 0.717300
vn -0.094600 0.979000 0.180400
vn -0.180400 0.979000 0.094600
vn -0.717300 0.630300 0.297100
vn -0.077000 0.992600 -0.093700
vn 0.717300 0.630300 -0.297100
vn 0.297100 0.630300 -0.717300
vn 0.168300 0.929900 -0.327000
vn -0.577300 0.577400 -0.577300
vn 0.707100 0.000000 0.707100
vn 0.923900 0.000000 -0.382700
vn -0.382700 0.000000 0.923900
vn -0.923900 0.000000 0.382700
vn -0.707100 0.000000 -0.707100
vn 0.382700 0.000000 -0.923900
usemtl sink
s 1
f 117//121 119//122 118//123
f 118//123 120//124 117//121
f 118//123 121//125 120//124
f 121//125 122//126 120//124
f 122//126 123//127 120//124
f 122//126 124//128 123//127
f 125//129 126//130 119//122
f 119//122 117//121 125//129
f 126//130 127//131 119//122
f 126//130 128//132 127//131
f 128//132 124//128 127//131
f 128//132 123//127 124//128
f 129//133 130//134 125//129
f 125//129 117//121 129//133
f 120//124 131//135 129//133
f 129//133 117//121 120//124
f 123//127 132//136 131//135
f 131//135 120//124 123//127
f 123//127 128//132 133//137
f 133//137 132//136 123//127
f 126//130 134//138 133//137
f 133//137 128//132 126//130
f 130//134 134//138 126//130
f 126//130 125//129 130//134
o 5_5
v -12.242188 82.441673 47.800568
v -12.234833 71.950745 28.550568
v -3.984833 82.441673 47.800568
v -15.331329 71.950745 28.550568
v -3.984833 82.441681 20.793213
v -12.234833 71.950745 18.422821
v -47.984833 82.441681 12.057922
v -28.734833 71.950745 15.147064
v -17.435242 71.950745 19.700470
v -16.021027 71.950745 18.286255
v -19.367096 71.950745 19.182831
v -19.884735 71.950745 17.250977
v -16.538666 71.950745 16.354401
v -18.607086 71.950745 12.050568
v -18.470520 71.950745 15.836761
v -28.734833 71.950745 12.050568
v -20.977478 82.441681 3.800568
v -47.984833 82.441681 3.800568
vn 0.264300 0.672900 -0.690900
vn -0.470500 0.733000 -0.491300
vn -0.375400 0.910400 -0.174000
vn 0.196500 0.928500 -0.315100
vn -0.928600 0.134400 0.346000
vn -0.508800 0.811500 0.287400
vn 0.690300 0.673700 -0.263900
vn 0.314900 0.928700 -0.195900
vn 0.000000 1.000000 0.000000
vn -0.287200 0.811600 0.508700
vn 0.173700 0.910400 0.375600
vn -0.344600 0.145000 0.927500
vn 0.495500 0.726400 0.476200
usemtl sink
s 1
f 135//139 137//140 136//141
f 136//141 138//142 135//139
f 139//143 140//144 136//141
f 136//141 137//140 139//143
f 141//145 135//139 138//142
f 138//142 142//146 141//145
f 138//142 144//147 143//147
f 143//147 145//147 138//142
f 145//147 142//146 138//142
f 145//147 146//147 142//146
f 140//144 148//148 147//147
f 147//147 136//141 140//144
f 147//147 144//147 136//141
f 144//147 138//142 136//141
f 148//148 149//147 147//147
f 148//148 146//147 149//147
f 148//148 150//149 146//147
f 150//149 142//146 146//147
f 139//143 151//150 148//148
f 148//148 140//144 139//143
f 141//145 142//146 150//149
f 150//149 152//151 141//145
f 152//151 150//149 148//148
f 148//148 151//150 152//151
o 6_6
v -15.372345 64.588348 48.913055
v -49.097321 78.064209 15.188080
v -49.097321 64.588356 15.188080
v -15.372345 78.064201 48.913055
v -49.277740 63.707863 13.593445
v -49.277740 78.944702 13.593445
v -13.777740 63.707859 49.093475
v -13.777740 78.944695 49.093475
vn -0.707100 0.000000 0.707100
vn -0.993700 0.000000 0.112400
vn -0.467700 -0.750000 0.467700
vn -0.467600 -0.750100 0.467600
vn -0.467800 -0.749900 0.467800
vn -0.112400 0.000000 0.993700
vn -0.467700 0.750000 0.467700
usemtl front
s 1
f 153//152 154//152 155//152
f 154//152 153//152 156//152
f 157//153 154//153 158//153
f 154//153 157//153 155//153
f 153//154 157//155 159//156
f 157//155 153//154 155//156
f 160//157 153//157 159//157
f 153//157 160//157 156//157
f 158//158 156//158 160//158
f 156//158 158//158 154//158
o 7_7
v -49.097321 17.166836 15.188080
v -15.372345 61.540985 48.913055
v -49.097321 61.540989 15.188080
v -15.372345 17.166830 48.913055
v -49.277740 62.708729 13.593445
v -13.777740 62.708725 49.093475
v -49.277740 15.999100 13.593445
v -13.777740 15.999094 49.093475
vn -0.707100 0.000000 0.707100
vn -0.537400 0.649900 0.537400
vn -0.537500 0.649800 0.537500
vn -0.993700 0.000000 0.112400
vn -0.537500 -0.649800 0.537500
vn -0.537400 -0.649900 0.537400
vn -0.112400 0.000000 0.993700
usemtl front
s 1
f 161//159 162//159 163//159
f 162//159 161//159 164//159
f 165//160 162//160 166//160
f 162//161 165//161 163//161
f 167//162 163//162 165//162
f 163//162 167//162 161//162
f 164//163 167//164 168//164
f 167//164 164//163 161//164
f 166//165 164//165 168//165
f 164//165 166//165 162//165
o 11_11
v -6.246338 92.987564 7.277618
v -6.255585 92.987564 8.144592
v -6.193878 92.987564 7.711731
v -6.409363 92.987564 6.871887
v -6.427185 92.987564 8.546783
v -6.671844 92.987564 6.522156
v -6.697052 92.987564 8.890839
v -7.015869 92.987564 6.252289
v -7.046783 92.987564 9.153320
v -7.418060 92.987564 6.080658
v -7.452515 92.987564 9.316315
v -7.850952 92.987564 6.018982
v -7.886627 92.987564 9.368774
v -8.285065 92.987564 6.071411
v -8.319519 92.987564 9.307098
v -8.690796 92.987564 6.234436
v -8.721680 92.987564 9.135468
v -9.040497 92.987564 6.496918
v -9.065735 92.987564 8.865601
v -9.310364 92.987564 6.840973
v -9.328217 92.987564 8.515869
v -9.481995 92.987564 7.243134
v -9.491241 92.987564 8.110138
v -9.543701 92.987564 7.676025
v -7.046783 81.942108 9.153320
v -6.697052 81.942108 8.890839
v -6.427185 81.942108 8.546783
v -6.255585 81.942108 8.144592
v -6.193878 81.942108 7.711731
v -6.246338 81.942108 7.277618
v -6.409363 81.942108 6.871887
v -6.671844 81.942108 6.522156
v -7.015869 81.942108 6.252289
v -7.418060 81.942108 6.080658
v -7.850952 81.942108 6.018982
v -8.285065 81.942108 6.071411
v -8.690796 81.942108 6.234436
v -9.040497 81.942108 6.496918
v -9.310364 81.942108 6.840973
v -9.481995 81.942108 7.243134
v -9.543701 81.942108 7.676025
v -9.491241 81.942108 8.110138
v -9.328217 81.942108 8.515869
v -9.065735 81.942108 8.865601
v -8.721680 81.942108 9.135468
v -8.319519 81.942108 9.307098
v -7.886627 81.942108 9.368774
v -7.452515 81.942108 9.316315
vn 0.711500 0.678500 -0.182600
vn 0.707500 0.678500 0.197700
vn 0.734500 0.678600 0.007800
vn 0.640000 0.678500 -0.360500
vn 0.632000 0.678900 0.373900
vn 0.524900 0.678500 -0.513900
vn 0.513600 0.678900 0.524700
vn 0.373900 0.678900 -0.631900
vn 0.360400 0.678600 0.639900
vn 0.197700 0.678500 -0.707500
vn 0.182500 0.678900 0.711200
vn 0.007800 0.678900 -0.734200
vn -0.007800 0.678500 0.734600
vn -0.182500 0.678900 -0.711200
vn -0.197600 0.678600 0.707400
vn -0.360300 0.678900 -0.639800
vn -0.373900 0.678900 0.631900
vn -0.513600 0.678900 -0.524700
vn -0.524700 0.678900 0.513600
vn -0.631900 0.678900 -0.373900
vn -0.639800 0.678900 0.360300
vn -0.707500 0.678500 -0.197700
vn -0.711400 0.678600 0.182600
vn -0.734500 0.678600 -0.007800
vn 0.490700 0.000000 0.871300
vn 0.699500 0.000000 0.714600
vn 0.860700 0.000000 0.509200
vn 0.963100 0.000000 0.269100
vn 0.999900 0.000000 0.010700
vn 0.968600 0.000000 -0.248500
vn 0.871300 0.000000 -0.490700
vn 0.714600 0.000000 -0.699500
vn 0.509200 0.000000 -0.860600
vn 0.269100 0.000000 -0.963100
vn 0.010700 0.000000 -0.999900
vn -0.248500 0.000000 -0.968600
vn -0.490800 0.000000 -0.871300
vn -0.699600 0.000000 -0.714600
vn -0.860600 0.000000 -0.509200
vn -0.963100 0.000000 -0.269100
vn -0.999900 0.000000 -0.010700
vn -0.968600 0.000000 0.248500
vn -0.871300 0.000000 0.490700
vn -0.714600 0.000000 0.699500
vn -0.509200 0.000000 0.860600
vn -0.269100 0.000000 0.963100
vn -0.010600 0.000000 0.999900
vn 0.248500 0.000000 0.968600
usemtl metal
s 1
f 169//166 170//167 171//168
f 170//167 169//166 172//169
f 170//167 172//169 173//170
f 173//170 172//169 174//171
f 173//170 174//171 175//172
f 175//172 174//171 176//173
f 175//172 176//173 177//174
f 177//174 176//173 178//175
f 177//174 178//175 179//176
f 179//176 178//175 180//177
f 179//176 180//177 181//178
f 181//178 180//177 182//179
f 181//178 182//179 183//180
f 183//180 182//179 184//181
f 183//180 184//181 185//182
f 185//182 184//181 186//183
f 185//182 186//183 187//184
f 187//184 186//183 188//185
f 187//184 188//185 189//186
f 189//186 188//185 190//187
f 189//186 190//187 191//188
f 191//188 190//187 192//189
f 175//172 193//190 194//191
f 193//190 175//172 177//174
f 175//172 195//192 173//170
f 195//192 175//172 194//191
f 173//170 196//193 170//167
f 196//193 173//170 195//192
f 170//167 197//194 171//168
f 197//194 170//167 196//193
f 171//168 198//195 169//166
f 198//195 171//168 197//194
f 169//166 199//196 172//169
f 199//196 169//166 198//195
f 172//169 200//197 174//171
f 200//197 172//169 199//196
f 176//173 200//197 201//198
f 200//197 176//173 174//171
f 178//175 201//198 202//199
f 201//198 178//175 176//173
f 180//177 202//199 203//200
f 202//199 180//177 178//175
f 182//179 203//200 204//201
f 203//200 182//179 180//177
f 184//181 204//201 205//202
f 204//201 184//181 182//179
f 186//183 205//202 206//203
f 205//202 186//183 184//181
f 207//204 186//183 206//203
f 186//183 207//204 188//185
f 208//205 188//185 207//204
f 188//185 208//205 190//187
f 209//206 190//187 208//205
f 190//187 209//206 192//189
f 210//207 192//189 209//206
f 192//189 210//207 191//188
f 211//208 191//188 210//207
f 191//188 211//208 189//186
f 212//209 189//186 211//208
f 189//186 212//209 187//184
f 185//182 212//209 213//210
f 212//209 185//182 187//184
f 183//180 213//210 214//211
f 213//210 183//180 185//182
f 181//178 214//211 215//212
f 214//211 181//178 183//180
f 179//176 215//212 216//213
f 215//212 179//176 181//178
f 177//174 216//213 193//190
f 216//213 177//174 179//176
o 3_3
v -50.984833 81.942108 13.300568
v -50.984833 79.943840 0.800568
v -50.984833 81.942108 0.800568
v -50.984833 79.943840 13.300568
v -0.984833 81.942101 50.800568
v -2.984833 81.942101 48.800568
v -0.984833 81.942108 0.800568
v -13.484833 81.942101 50.800568
v -2.984833 81.942108 20.378998
v -12.656403 81.942101 48.800568
v -48.984833 81.942108 12.472137
v -48.984833 81.942108 2.800568
v -20.563263 81.942108 2.800568
v -13.484833 79.943832 50.800568
v -0.984833 79.943832 49.800568
v -0.984833 79.943832 50.800568
v -13.070618 79.943832 49.800568
v -49.984833 79.943840 12.886353
v -49.984833 79.943840 0.800568
vn -1.000000 0.000000 0.000000
vn -0.000000 1.000000 0.000000
vn -0.707100 0.000000 0.707100
vn 0.000000 0.000000 1.000000
usemtl top
s 1
f 217//214 219//214 218//214
f 218//214 220//214 217//214
f 221//215 223//215 222//215
f 222//215 224//215 221//215
f 223//215 225//215 222//215
f 222//215 226//215 224//215
f 226//215 227//215 224//215
f 227//215 217//215 224//215
f 227//215 228//215 217//215
f 223//215 219//215 229//215
f 229//215 225//215 223//215
f 219//215 228//215 229//215
f 219//215 217//215 228//215
f 224//216 217//216 220//216
f 220//216 230//216 224//216
f 230//215 232//215 231//215
f 231//215 233//215 230//215
f 233//215 234//215 230//215
f 234//215 220//215 230//215
f 234//215 235//215 220//215
f 235//215 218//215 220//215
f 224//217 230//217 232//217
f 232//217 221//217 224//217
