# cube.obj
#
# Copyright 2019 Sean Bradley
#
# Created by Sean Bradley for HomeIdea3D http://homeidea3d.seanwasere.com
#
# This file is distributed under Attribution 4.0 International (CC BY 4.0)  license, see https://creativecommons.org/licenses/by/4.0/
#
mtllib cube.mtl
o Cube
v 50.000000 -50.000000 -49.999996
v 50.000000 -50.000000 50.000000
v -50.000008 -50.000000 49.999992
v -49.999981 -50.000000 -50.000019
v 50.000023 50.000000 -49.999973
v 49.999966 50.000000 50.000031
v -50.000019 50.000000 49.999981
v -49.999996 50.000000 -50.000000
vn 0.0000 -1.0000 -0.0000
vn 0.0000 1.0000 0.0000
vn 1.0000 0.0000 0.0000
vn -0.0000 -0.0000 1.0000
vn -1.0000 -0.0000 -0.0000
vn 0.0000 0.0000 -1.0000
usemtl Material
s off
f 1//1 2//1 3//1 4//1
f 5//2 8//2 7//2 6//2
f 1//3 5//3 6//3 2//3
f 2//4 6//4 7//4 3//4
f 3//5 7//5 8//5 4//5
f 5//6 1//6 4//6 8//6
