# cylinder.obj
#
# Copyright 2019 Sean Bradley
#
# Created by Sean Bradley for HomeIdea3D http://homeidea3d.seanwasere.com
#
# This file is distributed under Attribution 4.0 International (CC BY 4.0)  license, see https://creativecommons.org/licenses/by/4.0/
#
mtllib cylinder.mtl
o Cylinder
v 0.000000 50.000000 50.000000
v 0.000000 -50.000000 50.000000
v -9.754517 50.000000 49.039261
v -9.754517 -50.000000 49.039261
v -19.134172 50.000000 46.193974
v -19.134172 -50.000000 46.193974
v -27.778513 50.000000 41.573479
v -27.778513 -50.000000 41.573479
v -35.355339 50.000000 35.355339
v -35.355339 -50.000000 35.355339
v -41.573483 50.000000 27.778509
v -41.573483 -50.000000 27.778509
v -46.193974 50.000000 19.134171
v -46.193974 -50.000000 19.134171
v -49.039261 50.000000 9.754518
v -49.039261 -50.000000 9.754518
v -50.000000 50.000000 0.000004
v -50.000000 -50.000000 0.000004
v -49.039265 50.000000 -9.754510
v -49.039265 -50.000000 -9.754510
v -46.193977 50.000000 -19.134163
v -46.193977 -50.000000 -19.134163
v -41.573483 50.000000 -27.778509
v -41.573483 -50.000000 -27.778509
v -35.355339 50.000000 -35.355339
v -35.355339 -50.000000 -35.355339
v -27.778509 50.000000 -41.573483
v -27.778509 -50.000000 -41.573483
v -19.134163 50.000000 -46.193981
v -19.134163 -50.000000 -46.193981
v -9.754504 50.000000 -49.039265
v -9.754504 -50.000000 -49.039265
v 0.000016 50.000000 -50.000000
v 0.000016 -50.000000 -50.000000
v 9.754537 50.000000 -49.039261
v 9.754537 -50.000000 -49.039261
v 19.134193 50.000000 -46.193966
v 19.134193 -50.000000 -46.193966
v 27.778536 50.000000 -41.573463
v 27.778536 -50.000000 -41.573463
v 35.355362 50.000000 -35.355316
v 35.355362 -50.000000 -35.355316
v 41.573502 50.000000 -27.778482
v 41.573502 -50.000000 -27.778482
v 46.193993 50.000000 -19.134134
v 46.193993 -50.000000 -19.134134
v 49.039272 50.000000 -9.754473
v 49.039272 -50.000000 -9.754473
v 50.000000 50.000000 0.000048
v 50.000000 -50.000000 0.000048
v 49.039253 50.000000 9.754567
v 49.039253 -50.000000 9.754567
v 46.193954 50.000000 19.134224
v 46.193954 -50.000000 19.134224
v 41.573448 50.000000 27.778563
v 41.573448 -50.000000 27.778563
v 35.355293 50.000000 35.355385
v 35.355293 -50.000000 35.355385
v 27.778456 50.000000 41.573517
v 27.778456 -50.000000 41.573517
v 19.134104 50.000000 46.194004
v 19.134104 -50.000000 46.194004
v 9.754441 50.000000 49.039276
v 9.754441 -50.000000 49.039276
vn -0.0980 0.0000 0.9952
vn -0.2903 0.0000 0.9569
vn -0.4714 0.0000 0.8819
vn -0.6344 0.0000 0.7730
vn -0.7730 0.0000 0.6344
vn -0.8819 0.0000 0.4714
vn -0.9569 0.0000 0.2903
vn -0.9952 0.0000 0.0980
vn -0.9952 0.0000 -0.0980
vn -0.9569 0.0000 -0.2903
vn -0.8819 0.0000 -0.4714
vn -0.7730 0.0000 -0.6344
vn -0.6344 0.0000 -0.7730
vn -0.4714 0.0000 -0.8819
vn -0.2903 0.0000 -0.9569
vn -0.0980 0.0000 -0.9952
vn 0.0980 0.0000 -0.9952
vn 0.2903 0.0000 -0.9569
vn 0.4714 0.0000 -0.8819
vn 0.6344 0.0000 -0.7730
vn 0.7730 0.0000 -0.6344
vn 0.8819 0.0000 -0.4714
vn 0.9569 0.0000 -0.2903
vn 0.9952 0.0000 -0.0980
vn 0.9952 0.0000 0.0980
vn 0.9569 0.0000 0.2903
vn 0.8819 0.0000 0.4714
vn 0.7730 0.0000 0.6344
vn 0.6344 0.0000 0.7730
vn 0.4714 0.0000 0.8819
vn 0.0000 -1.0000 0.0000
vn 0.2903 0.0000 0.9569
vn 0.0980 0.0000 0.9952
vn 0.0000 1.0000 0.0000
usemtl Material.001
s off
f 1//1 3//1 4//1 2//1
f 3//2 5//2 6//2 4//2
f 5//3 7//3 8//3 6//3
f 7//4 9//4 10//4 8//4
f 9//5 11//5 12//5 10//5
f 11//6 13//6 14//6 12//6
f 13//7 15//7 16//7 14//7
f 15//8 17//8 18//8 16//8
f 17//9 19//9 20//9 18//9
f 19//10 21//10 22//10 20//10
f 21//11 23//11 24//11 22//11
f 23//12 25//12 26//12 24//12
f 25//13 27//13 28//13 26//13
f 27//14 29//14 30//14 28//14
f 29//15 31//15 32//15 30//15
f 31//16 33//16 34//16 32//16
f 33//17 35//17 36//17 34//17
f 35//18 37//18 38//18 36//18
f 37//19 39//19 40//19 38//19
f 39//20 41//20 42//20 40//20
f 41//21 43//21 44//21 42//21
f 43//22 45//22 46//22 44//22
f 45//23 47//23 48//23 46//23
f 47//24 49//24 50//24 48//24
f 49//25 51//25 52//25 50//25
f 51//26 53//26 54//26 52//26
f 53//27 55//27 56//27 54//27
f 55//28 57//28 58//28 56//28
f 57//29 59//29 60//29 58//29
f 59//30 61//30 62//30 60//30
f 4//31 6//31 8//31 10//31 12//31 14//31 16//31 18//31 20//31 22//31 24//31 26//31 28//31 30//31 32//31 34//31 36//31 38//31 40//31 42//31 44//31 46//31 48//31 50//31 52//31 54//31 56//31 58//31 60//31 62//31 64//31 2//31
f 61//32 63//32 64//32 62//32
f 63//33 1//33 2//33 64//33
f 1//34 63//34 61//34 59//34 57//34 55//34 53//34 51//34 49//34 47//34 45//34 43//34 41//34 39//34 37//34 35//34 33//34 31//34 29//34 27//34 25//34 23//34 21//34 19//34 17//34 15//34 13//34 11//34 9//34 7//34 5//34 3//34
