# door_window_thick.obj
#
# Created by Ola-Kristian HOFF
# http://sourceforge.net/p/sweethome3d/d-models/260/
# Split in outer frame and inner frame parts by Emmanuel Puybaret / eTeks
#
# This file is distributed under Free Art License, see http://artlibre.org/licence/lal/en for more informations
# and under CC-BY Creative Commons Attribution 3.0 Unported license, see http://creativecommons.org/licenses/by/3.0/
# at your choice
#
mtllib doorWindow.mtl
g 5_5_5_5_5_5.001
v -40.000004 3.000004 -11.908875
v -37.000004 207.000000 -11.908811
v -37.000004 3.000004 -11.908876
v -40.000004 209.999985 -11.908808
v 36.999996 207.000000 -11.908833
v 39.999996 3.000004 -11.908899
v 36.999996 3.000004 -11.908898
v 39.999996 209.999985 -11.908833
v -37.000000 207.000000 -0.908810
v -37.000000 3.000000 -0.908877
v -40.000000 -0.000002 3.091123
v -40.000000 209.999985 3.091191
v -40.000004 0.000004 -11.908876
v 40.000000 209.999985 3.091167
v 39.999996 0.000004 -11.908901
v 40.000000 -0.000002 3.091099
v 37.000000 3.000000 -0.908899
v 37.000000 207.000000 -0.908832
v -37.000000 207.000000 2.091190
v -37.000000 2.999999 2.091124
v 37.000000 2.999999 3.091100
v 37.000000 207.000000 3.091168
v -37.000000 207.000000 3.091190
v -37.000000 2.999999 3.091124
v 37.000000 2.999999 2.091100
v 37.000000 207.000000 2.091168
v -30.189556 29.810440 -0.908870
v -30.189554 200.189560 3.091186
v -30.189554 29.810440 3.091130
v -30.189556 200.189560 -0.908814
v 30.189558 29.810440 3.091112
v 30.189556 29.810440 -0.908888
v 30.189556 200.189560 -0.908832
v 30.189558 200.189560 3.091168
v -37.000000 3.000000 -0.908877
v -30.189556 29.810440 -0.908870
v 37.000000 3.000000 -0.908899
v -37.000000 207.000000 -0.908810
v -30.189556 200.189560 -0.908814
v 30.189556 200.189560 -0.908832
v 30.189556 29.810440 -0.908888
v 37.000000 207.000000 -0.908832
vn 1.000000 0.000000 -0.000000
vn 0.000000 1.000000 -0.000000
vn 0.000000 -1.000000 0.000000
vn -1.000000 0.000000 0.000000
vn -0.000000 0.000000 -1.000000
vn 0.000000 0.000000 1.000000
usemtl Frame_out
s off
f 27//1 28//1 29//1
f 28//1 27//1 30//1
f 31//2 27//2 29//2
f 27//2 31//2 32//2
f 33//3 28//3 30//3
f 28//3 33//3 34//3
f 33//4 31//4 34//4
f 31//4 33//4 32//4
f 35//5 36//5 37//5
f 36//5 35//5 38//5
f 36//5 38//5 39//5
f 39//5 38//5 40//5
f 37//5 41//5 42//5
f 41//5 37//5 36//5
f 42//5 41//5 40//5
f 42//5 40//5 38//5
usemtl Cage_out
f 1//5 2//5 3//5
f 2//5 1//5 4//5
f 2//5 4//5 5//5
f 5//5 6//5 7//5
f 6//5 5//5 8//5
f 8//5 5//5 4//5
f 3//1 9//1 10//1
f 9//1 3//1 2//1
f 4//4 11//4 12//4
f 11//4 4//4 13//4
f 13//6 4//6 1//6
f 14//2 4//2 12//2
f 4//2 14//2 8//2
f 15//1 14//1 16//1
f 14//1 15//1 8//1
f 8//4 15//4 6//4
f 5//4 17//4 18//4
f 17//4 5//4 7//4
f 5//3 9//3 2//3
f 9//3 5//3 18//3
f 10//1 19//1 20//1
f 19//1 10//1 9//1
f 15//3 11//3 13//3
f 11//3 15//3 16//3
f 16//6 21//6 11//6
f 21//6 16//6 14//6
f 21//6 14//6 22//6
f 22//6 14//6 23//6
f 11//6 24//6 12//6
f 24//6 11//6 21//6
f 12//6 24//6 23//6
f 12//6 23//6 14//6
f 18//4 25//4 26//4
f 25//4 18//4 17//4
f 18//3 19//3 9//3
f 19//3 18//3 26//3
f 20//1 23//1 24//1
f 23//1 20//1 19//1
f 25//2 10//2 20//2
f 10//2 25//2 17//2
f 26//4 21//4 22//4
f 21//4 26//4 25//4
f 21//2 20//2 24//2
f 20//2 21//2 25//2
g 8_8
v 32.000000 108.433281 9.896022
v 32.500004 108.433281 10.432958
v 32.000000 118.433281 10.225114
v 32.500004 108.433281 9.359086
v 33.500004 108.433281 9.359086
v 33.500004 108.433281 10.432958
v 34.000004 108.433281 9.896022
v 32.500004 118.433281 11.091140
v 32.500004 118.433281 9.359089
v 34.000004 118.433281 10.225113
v 33.500004 118.433281 11.091140
v 33.500004 118.433281 9.359089
v 32.500004 120.165329 9.359090
v 32.000000 119.299309 9.359089
v 33.500004 120.165329 9.359090
v 33.500000 118.433281 -4.640912
v 32.500000 118.433281 -4.640911
v 31.999996 119.299309 -4.640911
v 32.500000 120.165329 -4.640911
v 34.000004 119.299309 9.359089
v 33.500000 120.165329 -4.640911
v 34.000000 119.299309 -4.640912
v 32.500000 108.433281 -4.640914
v 33.500000 108.433281 -4.640914
v 32.500000 118.433281 -6.372962
v 31.999996 118.433281 -5.506936
v 33.500000 118.433281 -6.372962
v 34.000000 118.433281 -5.506937
v 31.999996 108.433281 -5.073926
v 32.500000 108.433281 -5.506939
v 33.500000 108.433281 -5.506939
v 34.000000 108.433281 -5.073927
vn -0.810000 -0.586300 -0.005800
vn -0.314600 -0.645400 0.696000
vn -0.986700 0.108000 0.121200
vn -0.310800 -0.627300 -0.714000
vn 0.310800 -0.627300 -0.714000
vn 0.314600 -0.645400 0.696000
vn 0.810000 -0.586300 -0.005800
vn -0.443300 0.300200 0.844600
vn -0.668000 -0.522700 -0.529600
vn 0.986700 0.108000 0.121200
vn 0.443300 0.300200 0.844600
vn 0.668000 -0.522700 -0.529600
vn -0.444800 0.833900 0.326800
vn -0.987200 0.112900 0.112900
vn 0.444800 0.833900 0.326800
vn 0.378400 -0.328100 0.865500
vn -0.190600 -0.694100 0.694100
vn -0.896900 0.093700 -0.432300
vn -0.799500 0.500000 -0.332900
vn 0.987200 0.112900 0.112900
vn -0.038300 0.998000 -0.050400
vn 0.896900 0.093700 -0.432300
vn -0.278700 -0.630200 0.724700
vn 0.278700 -0.630200 0.724700
vn -0.438600 0.296900 -0.848200
vn -0.987400 0.106900 -0.116800
vn 0.438600 0.296900 -0.848200
vn 0.987400 0.106900 -0.116800
vn -0.815800 -0.577700 0.025800
vn -0.265300 -0.666300 -0.696900
vn 0.265300 -0.666300 -0.696900
vn 0.815800 -0.577700 0.025800
usemtl Lock
s 1
f 43//7 44//8 45//9
f 46//10 44//8 43//7
f 44//8 46//10 47//11
f 44//8 47//11 48//12
f 48//12 47//11 49//13
f 45//9 44//8 50//14
f 51//15 43//7 45//9
f 49//13 52//16 48//12
f 48//12 50//14 44//8
f 50//14 48//12 53//17
f 51//15 46//10 43//7
f 51//15 47//11 46//10
f 47//11 51//15 54//18
f 54//18 49//13 47//11
f 55//19 45//9 50//14
f 45//9 55//19 56//20
f 56//20 51//15 45//9
f 54//18 52//16 49//13
f 52//16 53//17 48//12
f 53//17 55//19 50//14
f 55//19 53//17 57//21
f 58//22 51//15 59//23
f 51//15 58//22 54//18
f 55//19 60//24 56//20
f 60//24 55//19 61//25
f 56//20 59//23 51//15
f 59//23 56//20 60//24
f 62//26 52//16 54//18
f 52//16 57//21 53//17
f 57//21 52//16 62//26
f 57//21 61//25 55//19
f 61//25 57//21 63//27
f 58//22 62//26 54//18
f 62//26 58//22 64//28
f 59//23 65//29 66//30
f 66//30 58//22 59//23
f 60//24 61//25 67//31
f 67//31 68//32 60//24
f 68//32 59//23 60//24
f 64//28 57//21 62//26
f 57//21 64//28 63//27
f 67//31 61//25 63//27
f 63//27 69//33 67//31
f 70//34 64//28 58//22
f 70//34 58//22 66//30
f 65//29 71//35 72//36
f 72//36 66//30 65//29
f 72//36 73//37 66//30
f 73//37 74//38 66//30
f 68//32 65//29 59//23
f 67//31 71//35 68//32
f 69//33 63//27 64//28
f 64//28 70//34 69//33
f 69//33 73//37 72//36
f 72//36 67//31 69//33
f 70//34 66//30 74//38
f 69//33 74//38 73//37
f 67//31 72//36 71//35
f 68//32 71//35 65//29
f 69//33 70//34 74//38
g 1_1
v 30.189556 200.189560 3.341168
v -30.189556 29.810440 3.341130
v 30.189556 29.810440 3.341112
v -30.189556 200.189560 3.341186
v 30.189556 200.189560 2.841168
v 30.189556 29.810440 2.841112
v -30.189556 29.810440 2.841130
v -30.189556 200.189560 2.841186
vn 0.000000 -0.000000 1.000000
vn -0.000000 0.000000 -1.000000
usemtl Glass
s off
f 75//39 76//39 77//39
f 76//39 75//39 78//39
f 79//40 80//40 81//40
f 81//40 82//40 79//40
g 2_2
v -40.000004 3.000001 3.091125
v -37.000004 207.000000 3.091190
v -37.000004 3.000001 3.091124
v -40.000004 209.999985 3.091191
v 36.999996 207.000000 3.091168
v 39.999996 3.000001 3.091100
v 36.999996 3.000001 3.091100
v 39.999996 209.999985 3.091167
v -37.000000 207.000000 7.091190
v -37.000000 2.999999 7.091124
v -39.999996 -0.000002 8.091124
v -39.999996 209.999985 8.091192
v -40.000004 0.000001 3.091123
v 40.000004 209.999985 8.091167
v 39.999996 0.000001 3.091099
v 40.000004 -0.000002 8.091099
v 37.000000 2.999999 7.091102
v 37.000000 207.000000 7.091168
v -36.999996 207.000000 7.091190
v -36.999996 2.999998 7.091124
v 37.000004 2.999998 8.091102
v 37.000004 207.000000 8.091167
v -36.999996 207.000000 8.091189
v -36.999996 2.999998 8.091124
v 37.000004 2.999998 7.091102
v 37.000004 207.000000 7.091168
v -30.189554 29.810440 3.091130
v -30.189554 200.189560 7.091186
v -30.189554 29.810436 7.091130
v -30.189554 200.189560 3.091186
v 30.189558 29.810436 7.091112
v 30.189558 29.810440 3.091112
v 30.189558 200.189560 3.091168
v 30.189558 200.189560 7.091167
v -36.999996 2.999998 7.091124
v 37.000004 2.999998 7.091102
v -30.189554 29.810436 7.091130
v -36.999996 207.000000 7.091190
v -30.189554 200.189560 7.091186
v 30.189558 200.189560 7.091167
v 37.000004 207.000000 7.091168
v 30.189558 29.810436 7.091112
vn 1.000000 0.000000 0.000000
vn 0.000000 1.000000 0.000000
vn 0.000000 -1.000000 0.000000
vn -1.000000 0.000000 0.000000
vn 0.000000 -0.000000 1.000000
vn -0.000000 0.000000 -1.000000
usemtl Frame_in
s off
f 109//41 110//41 111//41
f 110//41 109//41 112//41
f 113//42 109//42 111//42
f 109//42 113//42 114//42
f 115//43 110//43 112//43
f 110//43 115//43 116//43
f 115//44 113//44 116//44
f 113//44 115//44 114//44
f 117//45 118//45 119//45
f 119//45 120//45 117//45
f 119//45 121//45 120//45
f 121//45 122//45 120//45
f 118//45 123//45 124//45
f 124//45 119//45 118//45
f 123//45 122//45 124//45
f 123//45 120//45 122//45
usemtl Cage_in
f 83//46 84//46 85//46
f 84//46 83//46 86//46
f 84//46 86//46 87//46
f 87//46 88//46 89//46
f 88//46 87//46 90//46
f 90//46 87//46 86//46
f 85//41 91//41 92//41
f 91//41 85//41 84//41
f 86//44 93//44 94//44
f 93//44 86//44 95//44
f 95//41 86//41 83//41
f 96//42 86//42 94//42
f 86//42 96//42 90//42
f 97//41 96//41 98//41
f 96//41 97//41 90//41
f 90//44 97//44 88//44
f 87//44 99//44 100//44
f 99//44 87//44 89//44
f 87//43 91//43 84//43
f 91//43 87//43 100//43
f 92//46 101//46 102//46
f 101//46 92//46 91//46
f 97//43 93//43 95//43
f 93//43 97//43 98//43
f 98//45 103//45 93//45
f 103//45 98//45 96//45
f 103//45 96//45 104//45
f 104//45 96//45 105//45
f 93//45 106//45 94//45
f 106//45 93//45 103//45
f 94//45 106//45 105//45
f 94//45 105//45 96//45
f 100//45 107//45 108//45
f 107//45 100//45 99//45
f 100//45 101//45 91//45
f 101//46 100//46 108//46
f 102//41 105//41 106//41
f 105//41 102//41 101//41
f 107//45 92//45 102//45
f 92//45 107//45 99//45
f 108//44 103//44 104//44
f 103//44 108//44 107//44
f 108//43 105//43 101//43
f 105//43 108//43 104//43
f 103//42 102//42 106//42
f 102//42 103//42 107//42
g 3_3
v 37.000000 3.000000 -0.908899
v -37.000004 3.000004 -11.908876
v -37.000000 3.000000 -0.908877
v 36.999996 3.000004 -11.908898
v -40.000004 3.000004 -11.908875
v 39.999996 0.000004 -11.908901
v -40.000004 0.000004 -11.908876
v 39.999996 3.000004 -11.908899
vn 0.000000 1.000000 0.000000
vn -0.000000 0.000000 -1.000000
usemtl Threshold
s off
f 125//47 126//47 127//47
f 126//47 125//47 128//47
f 129//48 130//48 131//48
f 130//48 129//48 126//48
f 126//48 132//48 130//48
f 132//47 126//47 128//47
