# frontDoor.obj
#
# Copyright 2019 Sean Bradley
#
# Created by Sean Bradley for HomeIdea3D http://homeidea3d.seanwasere.com
#
# This file is distributed under Attribution 4.0 International (CC BY 4.0)  license, see https://creativecommons.org/licenses/by/4.0/
#
mtllib frontDoor.mtl
o Cylinder
v -0.000010 67.781387 -1.092643
v 0.000010 -67.781387 -1.092643
v -0.500930 67.781387 -0.772615
v -0.500909 -67.781387 -0.772615
v -0.708417 67.781387 0.000000
v -0.708397 -67.781387 0.000000
v -0.500930 67.781387 0.772615
v -0.500909 -67.781387 0.772615
v -0.000010 67.781387 1.092643
v 0.000010 -67.781387 1.092643
v 0.500909 67.781387 0.772615
v 0.500930 -67.781387 0.772615
v 0.708397 67.781387 -0.000000
v 0.708417 -67.781387 -0.000000
v 0.500909 67.781387 -0.772615
v 0.500930 -67.781387 -0.772615
v 8.079631 -22.014164 -19.754620
v 8.079619 22.014172 -19.754620
v 8.079631 -22.014164 -6.233632
v 8.079619 22.014172 -6.233632
v -71.780296 -22.014189 -19.754620
v -71.780312 22.014147 -19.754620
v -71.780296 -22.014189 -6.233632
v -71.780312 22.014147 -6.233632
v 15.410363 -112.516861 -19.988951
v 15.410296 112.516861 -19.988951
v 15.410363 -112.516861 -4.965630
v 15.410296 112.516861 -4.965630
v 8.592183 -112.516861 -19.988951
v 8.592115 112.516861 -19.988951
v 8.592183 -112.516861 -4.965630
v 8.592115 112.516861 -4.965630
v 6.275863 3.721201 -19.171331
v 6.275866 -3.769396 -19.171331
v 6.275863 3.721201 -5.667179
v 6.275866 -3.769396 -5.667179
v 4.327812 3.721200 -19.171331
v 4.327814 -3.769396 -19.171331
v 4.327812 3.721200 -5.667179
v 4.327814 -3.769396 -5.667179
v -72.370682 112.595047 -19.983585
v -79.261375 118.266144 -19.983583
v -79.261360 -116.551643 -19.983583
v -79.261360 -116.551636 -4.960295
v 66.842491 -116.551620 -19.983585
v 59.951805 -110.880524 -19.983585
v 66.842506 -116.551620 -4.960295
v -72.370628 -110.880531 -19.983585
v -72.370628 -110.880531 -4.960295
v 66.842453 118.266151 -19.983585
v 59.951752 112.595055 -19.983583
v 66.842461 118.266159 -4.960296
v 59.951763 112.595055 -4.960295
v 59.951782 -110.880524 -4.960295
v -72.370712 112.595047 -4.960295
v -79.261360 -118.305801 -19.983583
v 66.842491 -118.305771 -19.983585
v 67.811943 -118.305771 2.011050
v -79.261360 -119.750397 -19.983583
v -80.237503 -119.750381 2.011051
v 66.842491 -119.750366 -19.983585
v 67.811943 -119.750366 2.011050
v 8.079659 -112.516853 -18.252289
v 8.079592 112.516853 -18.252289
v 8.079659 -112.516853 -7.735964
v 8.079592 112.516853 -7.735964
v -71.780273 -112.516876 -18.252289
v -71.780334 112.516823 -18.252289
v -71.780273 -112.516876 -7.735964
v -71.780334 112.516823 -7.735964
v 8.079597 22.992579 -19.754620
v 8.079585 67.020912 -19.754620
v 8.079597 22.992579 -6.233632
v 8.079585 67.020912 -6.233632
v -71.780334 22.992554 -19.754620
v -71.780342 67.020889 -19.754620
v -71.780334 22.992554 -6.233632
v -71.780342 67.020889 -6.233632
v 8.079601 67.999329 -19.754620
v 8.079589 112.027664 -19.754620
v 8.079601 67.999329 -6.233632
v 8.079589 112.027664 -6.233632
v -71.780327 67.999306 -19.754620
v -71.780334 112.027634 -19.754620
v -71.780327 67.999306 -6.233632
v -71.780334 112.027634 -6.233632
v 8.079622 -67.020905 -19.754620
v 8.079610 -22.992571 -19.754620
v 8.079622 -67.020905 -6.233632
v 8.079610 -22.992571 -6.233632
v -71.780312 -67.020927 -19.754620
v -71.780319 -22.992598 -19.754620
v -71.780312 -67.020927 -6.233632
v -71.780319 -22.992598 -6.233632
v 8.079661 -112.027641 -19.754620
v 8.079649 -67.999313 -19.754620
v 8.079661 -112.027641 -6.233632
v 8.079649 -67.999313 -6.233632
v -71.780273 -112.027672 -19.754620
v -71.780281 -67.999336 -19.754620
v -71.780273 -112.027672 -6.233632
v -71.780281 -67.999336 -6.233632
v 66.842422 119.257889 -19.983585
v 67.811760 119.257889 2.004663
v 66.842422 120.249619 -19.983585
v 67.811760 120.249619 2.004663
v -80.224754 120.249611 2.004663
v 67.816521 -116.551620 -19.983587
v 67.816536 -118.326332 1.964248
v 67.816444 118.266151 -19.983587
v 67.816460 119.268845 1.964248
v 67.816521 -118.305771 -19.983587
v 67.816536 -118.305771 2.011049
v 67.816536 -119.750366 2.011049
v 67.816498 -119.750366 -19.983587
v 67.816444 119.257889 -19.983587
v 67.816460 119.257889 2.004662
v 67.816444 120.249619 -19.983587
v 67.816460 120.249619 2.004662
v 68.790550 -116.551620 -19.983589
v 68.790558 -118.326332 1.964247
v 68.790520 119.268852 1.964246
v 68.790550 -118.305771 -19.983589
v 68.790558 -118.305771 2.011048
v 68.790550 -119.750366 -19.983589
v 68.790558 -119.750366 2.011048
v 68.790474 118.266151 -19.983589
v 68.790474 119.257889 -19.983589
v 68.790489 119.257889 2.004661
v 68.790474 120.249619 -19.983589
v 68.790489 120.249619 2.004661
v -79.261375 118.266136 -4.960295
v -80.237503 -118.305786 2.011051
v -79.261406 119.257874 -19.983585
v -80.224754 119.257874 2.004663
v -79.261406 120.249611 -19.983585
v -80.235405 118.266144 -19.983583
v -80.235382 -116.551643 -19.983583
v -80.235352 -118.314774 1.959055
v -80.235382 -118.305801 -19.983583
v -80.235352 -118.305786 2.011049
v -80.235382 -119.750397 -19.983583
v -80.235352 -119.750381 2.011049
v -80.235435 119.269707 1.958165
v -80.235435 119.257874 -19.983585
v -80.235435 119.257874 2.004663
v -80.235435 120.249611 -19.983585
v -80.235435 120.249611 2.004663
v -81.209435 118.266144 -19.983583
v -81.209412 -116.551643 -19.983583
v -81.209412 -118.314774 1.959056
v -81.209412 -118.305801 -19.983583
v -81.209412 -118.305786 2.011051
v -81.209412 -119.750397 -19.983583
v -81.209381 -119.750381 2.011049
v -81.209457 119.269707 1.958165
v -81.209457 119.257874 -19.983585
v -81.209457 119.257874 2.004663
v -81.209457 120.249611 -19.983585
v -81.209457 120.249611 2.004663
vn -0.5384 -0.0000 -0.8427
vn -0.9658 -0.0000 -0.2594
vn -0.9658 -0.0000 0.2594
vn -0.5384 -0.0000 0.8427
vn 0.5384 0.0000 0.8427
vn 0.9658 0.0000 0.2594
vn 0.0000 -1.0000 0.0000
vn 0.9658 0.0000 -0.2594
vn 0.5384 0.0000 -0.8427
vn 0.0000 1.0000 0.0000
vn 0.0000 0.0000 -1.0000
vn 1.0000 0.0000 0.0000
vn 0.0000 0.0000 1.0000
vn -1.0000 -0.0000 0.0000
vn 0.6355 0.7721 0.0000
vn 0.6355 -0.7721 0.0000
vn -0.0000 0.9698 0.2440
vn -0.6355 0.7721 0.0000
vn 0.0003 0.0000 1.0000
vn 0.9443 0.3253 -0.0502
vn 0.8491 -0.5264 -0.0438
vn 0.0000 -0.9900 0.1410
vn -0.0000 0.9155 -0.4022
vn 0.0000 0.9967 0.0806
vn 0.0000 -0.9990 0.0456
vn 0.5946 0.8031 0.0386
vn -0.9903 -0.0000 0.1393
vn 0.3858 -0.9222 0.0250
vn 0.0000 -0.9652 -0.2617
vn -0.0009 0.0000 -1.0000
vn 0.3861 0.9221 -0.0250
vn -0.7319 -0.6813 -0.0053
vn 0.0000 -0.9691 -0.2467
vn 0.0000 -0.9990 0.0457
vn 0.0000 0.9968 0.0801
vn -0.9710 0.2255 -0.0791
vn 0.9902 0.0000 0.1394
vn -0.5922 0.8049 0.0384
vn -0.0000 0.9854 -0.1704
usemtl Material.001
s off
f 1//1 2//1 4//1 3//1
f 3//2 4//2 6//2 5//2
f 5//3 6//3 8//3 7//3
f 7//4 8//4 10//4 9//4
f 9//5 10//5 12//5 11//5
f 11//6 12//6 14//6 13//6
f 4//7 2//7 16//7 14//7 12//7 10//7 8//7 6//7
f 13//8 14//8 16//8 15//8
f 15//9 16//9 2//9 1//9
f 1//10 3//10 5//10 7//10 9//10 11//10 13//10 15//10
f 114//7 115//7 125//7 126//7
f 43//11 56//11 140//11 138//11
f 140//11 142//11 154//11 152//11
f 138//11 140//11 152//11 150//11
usemtl Material.002
f 17//12 18//12 20//12 19//12
f 19//13 20//13 24//13 23//13
f 23//14 24//14 22//14 21//14
f 21//11 22//11 18//11 17//11
f 19//7 23//7 21//7 17//7
f 24//10 20//10 18//10 22//10
f 25//12 26//12 28//12 27//12
f 27//13 28//13 32//13 31//13
f 31//14 32//14 30//14 29//14
f 29//11 30//11 26//11 25//11
f 27//7 31//7 29//7 25//7
f 32//10 28//10 26//10 30//10
f 33//14 34//14 36//14 35//14
f 35//11 36//11 40//11 39//11
f 39//12 40//12 38//12 37//12
f 37//13 38//13 34//13 33//13
f 35//7 39//7 37//7 33//7
f 40//10 36//10 34//10 38//10
f 41//15 42//15 132//15 55//15
f 55//13 132//13 44//13 49//13
f 49//16 44//16 43//16 48//16
f 48//11 43//11 42//11 41//11
f 55//12 49//12 48//12 41//12
f 45//15 46//15 54//15 47//15
f 47//13 54//13 49//13 44//13
f 43//11 48//11 46//11 45//11
f 47//17 44//17 133//17 58//17
f 49//10 54//10 46//10 48//10
f 50//18 51//18 53//18 52//18
f 52//13 53//13 54//13 47//13
f 45//11 46//11 51//11 50//11
f 57//11 45//11 108//11 112//11
f 54//14 53//14 51//14 46//14
f 53//13 52//13 132//13 55//13
f 41//11 42//11 50//11 51//11
f 53//7 55//7 41//7 51//7
f 105//10 106//10 119//10 118//10
f 43//11 45//11 57//11 56//11
f 62//7 61//7 115//7 114//7
f 62//7 60//7 59//7 61//7
f 58//19 62//19 114//19 113//19
f 56//11 57//11 61//11 59//11
f 58//13 133//13 60//13 62//13
f 47//20 58//20 113//20 109//20
f 63//12 64//12 66//12 65//12
f 65//13 66//13 70//13 69//13
f 69//14 70//14 68//14 67//14
f 67//11 68//11 64//11 63//11
f 65//7 69//7 67//7 63//7
f 70//10 66//10 64//10 68//10
f 71//12 72//12 74//12 73//12
f 73//13 74//13 78//13 77//13
f 77//14 78//14 76//14 75//14
f 75//11 76//11 72//11 71//11
f 73//7 77//7 75//7 71//7
f 78//10 74//10 72//10 76//10
f 79//12 80//12 82//12 81//12
f 81//13 82//13 86//13 85//13
f 85//14 86//14 84//14 83//14
f 83//11 84//11 80//11 79//11
f 81//7 85//7 83//7 79//7
f 86//10 82//10 80//10 84//10
f 87//12 88//12 90//12 89//12
f 89//13 90//13 94//13 93//13
f 93//14 94//14 92//14 91//14
f 91//11 92//11 88//11 87//11
f 89//7 93//7 91//7 87//7
f 94//10 90//10 88//10 92//10
f 95//12 96//12 98//12 97//12
f 97//13 98//13 102//13 101//13
f 101//14 102//14 100//14 99//14
f 99//11 100//11 96//11 95//11
f 97//7 101//7 99//7 95//7
f 102//10 98//10 96//10 100//10
f 104//21 52//21 111//21 117//21
f 50//11 103//11 116//11 110//11
f 50//11 42//11 134//11 103//11
f 132//22 52//22 104//22 135//22
f 107//10 106//10 105//10 136//10
f 103//11 134//11 136//11 105//11
f 135//13 104//13 106//13 107//13
f 109//23 113//23 124//23 121//23
f 115//11 112//11 123//11 125//11
f 108//24 109//24 121//24 120//24
f 110//11 116//11 128//11 127//11
f 113//13 114//13 126//13 124//13
f 111//25 110//25 127//25 122//25
f 45//11 50//11 110//11 108//11
f 61//11 57//11 112//11 115//11
f 45//26 47//26 109//26 108//26
f 52//27 47//27 109//27 111//27
f 103//11 105//11 118//11 116//11
f 52//28 50//28 110//28 111//28
f 106//19 104//19 117//19 119//19
f 122//12 121//12 120//12 127//12
f 120//12 121//12 124//12 123//12
f 123//12 124//12 126//12 125//12
f 129//12 128//12 130//12 131//12
f 122//12 127//12 128//12 129//12
f 117//29 111//29 122//29 129//29
f 112//11 108//11 120//11 123//11
f 118//10 119//10 131//10 130//10
f 111//13 109//13 121//13 122//13
f 116//11 118//11 130//11 128//11
f 119//13 117//13 129//13 131//13
f 108//11 110//11 127//11 120//11
f 60//30 133//30 141//30 143//30
f 132//31 42//31 137//31 144//31
f 132//32 135//32 146//32 144//32
f 56//11 59//11 142//11 140//11
f 59//7 60//7 143//7 142//7
f 144//33 146//33 158//33 156//33
f 142//7 143//7 155//7 154//7
f 137//34 144//34 156//34 149//34
f 139//35 138//35 150//35 151//35
f 133//36 44//36 139//36 141//36
f 134//11 42//11 137//11 145//11
f 44//37 132//37 144//37 139//37
f 107//10 136//10 147//10 148//10
f 136//11 134//11 145//11 147//11
f 42//11 43//11 138//11 137//11
f 135//13 107//13 148//13 146//13
f 44//38 43//38 138//38 139//38
f 151//14 156//14 149//14 150//14
f 153//14 152//14 154//14 155//14
f 151//14 150//14 152//14 153//14
f 149//14 156//14 158//14 157//14
f 157//14 158//14 160//14 159//14
f 143//13 141//13 153//13 155//13
f 141//39 139//39 151//39 153//39
f 145//11 137//11 149//11 157//11
f 139//13 144//13 156//13 151//13
f 148//10 147//10 159//10 160//10
f 147//11 145//11 157//11 159//11
f 137//11 138//11 150//11 149//11
f 146//13 148//13 160//13 158//13
