# frame_horizontal.obj
#
# Created by Ola-Kristian HOFF
# http://sourceforge.net/p/sweethome3d/d-models/364/
#
# Painting by Annick Puybaret
#
# This file is distributed under Free Art License, see http://artlibre.org/licence/lal/en for more informations
# and under CC-BY Creative Commons Attribution 3.0 Unported license, see http://creativecommons.org/licenses/by/3.0/
# at your choice
#
mtllib horizontalFrame.mtl
g 5_5
v 77.514160 125.393600 0.029968
v -62.605835 109.793594 -0.412109
v -77.485840 125.393600 0.029968
v 62.634155 109.793594 -0.412109
v 62.634155 10.993580 -3.211914
v 77.514160 -4.606413 -3.653992
v 62.634155 109.766953 2.066040
v -62.605835 109.766953 2.066040
v -62.605835 10.993580 -3.211914
v -77.485840 -4.606413 -3.653992
v 62.634155 10.966936 -0.733826
v -62.605835 10.966936 -0.733826
vt -0.000000 12.500000
vt -1.200000 1.200000
vt 0.000000 0.000000
vt -1.200000 11.300000
vt -8.800000 11.300000
vt -10.000000 12.500000
vt 0.300000 1.200000
vt 0.185496 11.300000
vt 0.185496 1.200000
vt 0.300000 11.300000
vt -8.800000 1.200000
vt -10.000000 -0.000000
vt -8.800000 0.300000
vt -1.200000 0.185496
vt -1.200000 0.300000
vt -8.800000 0.185496
vt 8.800000 0.185496
vt 1.200000 0.300000
vt 1.200000 0.185496
vt 8.800000 0.300000
vt -0.300000 11.300000
vt -0.185496 1.200000
vt -0.185496 11.300000
vt -0.300000 1.200000
vn 0.766300 0.059300 -0.639700
vn 0.160100 0.054700 -0.985600
vn -0.705900 0.319000 -0.632400
vn 0.162300 0.028400 -0.986300
vn 0.688200 0.357600 -0.631300
vn -0.088200 0.139700 -0.986300
vn 0.331800 0.709900 -0.621300
vn 0.008500 0.202600 -0.979200
vn 0.141400 0.012100 -0.989900
vn 0.144500 0.126500 -0.981400
vn 0.050900 0.783600 -0.619200
vn 0.271500 -0.706500 -0.653600
vn 0.006200 -0.988400 0.151600
vn -0.036900 -0.999300 -0.011300
vn 0.009700 -0.999100 -0.042500
vn -0.010600 -0.998900 -0.046000
vn 0.162300 -0.986700 -0.007500
vn -0.081300 -0.991000 0.106200
vn -0.050900 0.783600 -0.619200
vn -0.023000 0.195700 -0.980400
vn -0.271500 -0.706500 -0.653600
vn -0.000100 0.197300 -0.980400
vn -0.331800 0.709900 -0.621300
vn -0.118700 0.138700 -0.983200
vn -0.116000 -0.095500 -0.988600
vn 0.771400 -0.044200 -0.634800
vn -0.704500 -0.302300 -0.642100
vn 0.685500 -0.341100 -0.643200
vn 0.168400 0.009200 -0.985700
vn -0.019500 -0.145900 -0.989100
vn -0.984600 0.174800 0.007700
vn -0.999300 -0.034700 -0.012300
vn -0.989800 -0.118500 0.078800
vn -0.999300 -0.036800 -0.001200
vn -0.984600 0.093200 0.148100
vn -0.998900 0.039300 0.027400
vn 0.998600 0.037000 0.038200
vn 0.986700 -0.162200 0.005700
vn 0.999400 -0.031500 -0.010500
vn 0.986700 -0.162300 -0.004500
vn 0.998600 0.044300 0.029400
vn 0.985500 -0.001000 0.169400
vn -0.144400 0.983500 0.109500
vn 0.037300 0.998900 -0.027200
vn 0.026300 0.999200 -0.029300
vn -0.029400 0.999000 -0.033700
vn -0.175000 0.984500 0.011900
vn 0.169400 0.985500 0.011400
usemtl frame_back
s off
f 1/1 2/2 3/3
f 2/2 1/1 4/4
f 1/1 5/5 4/4
f 5/5 1/1 6/6
f 2/7 7/8 8/9
f 7/8 2/7 4/10
f 3/3 9/11 10/12
f 9/11 3/3 2/2
f 9/11 6/6 10/12
f 6/6 9/11 5/5
f 5/13 7/14 4/15
f 7/14 5/13 11/16
f 12/17 2/18 8/19
f 2/18 12/17 9/20
f 5/21 12/22 11/23
f 12/22 5/21 9/24
g 4_4
v -73.875671 -0.868104 0.781677
v -70.920105 119.090324 6.346008
v -73.875671 121.562202 4.251160
v -70.920105 1.557229 3.015320
v 73.903992 -0.868104 0.781677
v 70.948364 1.557229 3.015320
v -64.720093 8.057245 3.199524
v 64.748413 8.057245 3.199524
v 64.748413 112.590332 6.161804
v -64.720093 112.590332 6.161804
v 70.948364 119.090324 6.346008
v 73.903992 121.562202 4.251160
vt 0.970886 0.021478
vt 0.047950 0.042156
vt 0.029114 0.021478
vt 0.952050 0.042156
vt 1.537716 0.976709
vt 1.516391 0.042360
vt 1.537716 0.023291
vt 1.516391 0.957640
vt 0.952050 0.042360
vt 0.902050 0.082360
vt 0.047950 0.042360
vt 0.952050 0.957640
vt 0.902050 0.917640
vt 0.097950 0.917640
vt 0.097950 0.082360
vt 0.047950 0.957640
vt 0.047040 0.042360
vt 0.025715 0.976709
vt 0.025715 0.023291
vt 0.047040 0.957640
vt -0.748641 0.021478
vt 0.174295 0.042156
vt -0.729805 0.042156
vt 0.193131 0.021478
vn -0.033500 -0.043700 0.998500
vn -0.084100 0.106500 0.990800
vn -0.033400 0.022200 0.999200
vn -0.084400 -0.128200 0.988200
vn 0.033500 -0.043800 0.998500
vn 0.084400 -0.128200 0.988200
vn 0.049700 0.038000 0.998000
vn -0.049700 0.038000 0.998000
vn -0.049800 -0.059600 0.997000
vn 0.049800 -0.059600 0.997000
vn 0.084100 0.106400 0.990800
vn 0.033400 0.022200 0.999200
usemtl Frame
s 1
f 13/25/49 14/26/50 15/27/51
f 14/26/50 13/25/49 16/28/52
f 17/29/53 16/30/52 13/31/49
f 16/30/52 17/29/53 18/32/54
f 16/33/52 19/34/55 14/35/50
f 19/34/55 16/33/52 18/36/54
f 19/34/55 18/36/54 20/37/56
f 20/37/56 18/36/54 21/38/57
f 14/35/50 22/39/58 23/40/59
f 22/39/58 14/35/50 19/34/55
f 23/40/59 22/39/58 21/38/57
f 23/40/59 21/38/57 18/36/54
f 14/41/50 24/42/60 15/43/51
f 24/42/60 14/41/50 23/44/59
f 17/45/53 23/46/59 18/47/54
f 23/46/59 17/45/53 24/48/60
g 1_1
v 62.806396 111.045685 3.942444
v -62.778076 9.648567 1.069031
v 62.806396 9.648567 1.069031
v -62.778076 111.045685 3.942444
vt 0.997498 1.007800
vt 0.001588 0.001405
vt 0.997498 0.001405
vt 0.001588 1.007800
vn -0.000000 -0.010700 0.999900
usemtl Canvas
s off
f 25/49 26/50 27/51
f 26/50 25/49 28/52
g 3_3
v -62.778076 9.648506 1.079712
v -64.720093 112.590332 6.161804
v -64.720093 8.057245 3.199524
v -62.778076 111.045601 3.953125
v 64.748413 8.057245 3.199524
v 62.806396 9.648506 1.079712
v 64.748413 112.590332 6.161804
v 62.806396 111.045601 3.953125
vt 0.889989 0.079976
vt 0.097950 0.065111
vt 0.902050 0.065111
vt 0.110011 0.079976
vt 1.289706 0.917640
vt 1.274038 0.094889
vt 1.289706 0.082360
vt 1.274038 0.905111
vt 0.084690 0.094889
vt 0.069022 0.917640
vt 0.069022 0.082360
vt 0.084690 0.905111
vt 0.889989 0.762865
vt 0.097950 0.777731
vt 0.110011 0.762865
vt 0.902050 0.777731
vn 0.173800 0.227000 0.958300
vn 0.049800 -0.059600 0.997000
vn 0.049700 0.038000 0.998000
vn 0.175200 -0.249500 0.952400
vn -0.049700 0.038000 0.998000
vn -0.173800 0.227000 0.958300
vn -0.049800 -0.059600 0.997000
vn -0.175200 -0.249500 0.952400
usemtl Frame
s 1
f 29/53/62 30/54/63 31/55/64
f 30/54/63 29/53/62 32/56/65
f 33/57/66 29/58/62 31/59/64
f 29/58/62 33/57/66 34/60/67
f 32/61/65 35/62/68 30/63/63
f 35/62/68 32/61/65 36/64/69
f 34/65/67 35/66/68 36/67/69
f 35/66/68 34/65/67 33/68/66
g 2_2
v -62.605835 109.766914 2.066040
v 62.634155 10.966887 -0.733826
v -62.605835 10.966887 -0.733826
v 62.634155 109.766914 2.066040
vt -0.002954 0.994911
vt -0.996132 0.014294
vt -0.002954 0.014294
vt -0.996132 0.994911
vn -0.000000 0.010700 -0.999900
usemtl Back
s 1
f 37/69 38/70 39/71
f 38/70 37/69 40/72
g 6_6
v -77.485840 -4.606413 -3.653992
v -76.710815 124.697052 4.340027
v -77.485840 125.393600 0.029968
v -76.710815 -4.002953 0.692871
v 76.739197 -4.002953 0.692871
v 77.514160 -4.606413 -3.653992
v -73.875671 -0.868104 0.781677
v -73.875671 121.562202 4.251160
v 73.903992 -0.868104 0.781677
v 73.903992 121.562202 4.251160
v 76.739197 124.697052 4.340027
v 77.514160 125.393600 0.029968
vt 1.000000 -0.015272
vt 0.005000 0.001491
vt -0.000000 -0.015272
vt 0.995000 0.001491
vt 0.261939 -0.000000
vt 0.241323 0.995000
vt 0.241323 0.005000
vt 0.261939 1.000000
vt 0.995000 0.005000
vt 0.970886 0.023291
vt 0.005000 0.005000
vt 0.995000 0.995000
vt 0.029114 0.023291
vt 0.970886 0.976709
vt 0.029114 0.976709
vt 0.005000 0.995000
vt -0.019403 1.000000
vt 0.001213 0.005000
vt 0.001213 0.995000
vt -0.019403 0.000000
vt 0.005000 0.296784
vt 1.000000 0.313547
vt 0.000000 0.313547
vt 0.995000 0.296784
vn -0.536700 -0.539400 -0.648900
vn -0.332400 0.356800 0.873000
vn -0.543400 0.559800 -0.625600
vn -0.336200 -0.379500 0.861900
vn 0.336200 -0.379600 0.861900
vn 0.536700 -0.539400 -0.648900
vn -0.033500 -0.043800 0.998500
vn -0.033400 0.022200 0.999200
vn 0.033500 -0.043800 0.998500
vn 0.033400 0.022200 0.999200
vn 0.332400 0.356800 0.873000
vn 0.543400 0.559800 -0.625600
usemtl Frame
s 1
f 41/73/71 42/74/72 43/75/73
f 42/74/72 41/73/71 44/76/74
f 41/77/71 45/78/75 44/79/74
f 45/78/75 41/77/71 46/80/76
f 44/81/74 47/82/77 42/83/72
f 47/82/77 44/81/74 45/84/75
f 42/83/72 47/82/77 48/85/78
f 47/82/77 45/84/75 49/86/79
f 49/86/79 45/84/75 50/87/80
f 48/85/78 51/88/81 42/83/72
f 51/88/81 48/85/78 50/87/80
f 51/88/81 50/87/80 45/84/75
f 52/89/82 42/90/72 51/91/81
f 42/90/72 52/89/82 43/92/73
f 51/93/81 46/94/76 52/95/82
f 46/94/76 51/93/81 45/96/75
