# internalDoorOpen.obj
#
# Copyright 2019 Sean Bradley
#
# Created by Sean Bradley for HomeIdea3D http://homeidea3d.seanwasere.com
#
# This file is distributed under Attribution 4.0 International (CC BY 4.0)  license, see https://creativecommons.org/licenses/by/4.0/
#
mtllib internalDoorOpen.mtl
o Cube.004_Cube.006
v 39.052826 -133.250153 81.248657
v 43.535706 -133.250153 80.856445
v 39.052837 60.390915 81.248657
v 43.535713 60.390915 80.856445
v 32.713562 -133.250153 8.790554
v 37.196438 -133.250153 8.398350
v 32.713570 60.390915 8.790554
v 37.196449 60.390915 8.398350
vn 0.0872 -0.0000 0.9962
vn 0.0000 1.0000 0.0000
vn -0.0872 0.0000 -0.9962
vn 0.0000 -1.0000 -0.0000
vn -0.9962 0.0000 0.0872
vn 0.9962 -0.0000 -0.0872
usemtl Material.001
s off
f 1//1 2//1 4//1 3//1
f 3//2 4//2 8//2 7//2
f 7//3 8//3 6//3 5//3
f 5//4 6//4 2//4 1//4
f 3//5 7//5 5//5 1//5
f 8//6 4//6 2//6 6//6
o Cube.003_Cube.005
v 36.960934 -134.292755 2.911000
v 36.960934 61.131897 2.911000
v 36.960934 -134.292755 0.961509
v 36.960934 61.131897 0.961509
v 43.704472 -134.292755 2.911000
v 43.704472 67.966705 2.911000
v 43.704472 -134.292755 0.961509
v 43.704472 67.966705 0.961509
v -43.353836 -134.378082 2.911000
v -43.353836 67.966347 2.911000
v -43.353836 -134.378082 0.961509
v -43.353836 67.966347 0.961509
v -36.610291 -134.378082 2.911000
v -36.610291 61.145462 2.911000
v -36.610291 -134.378082 0.961509
v -36.610291 61.145462 0.961509
v -43.351585 67.967361 2.911000
v 43.704334 67.967361 2.911000
v -43.351585 67.967361 0.961509
v 43.704334 67.967361 0.961509
v -36.571060 61.144135 2.911000
v 36.978210 61.144142 2.911000
v -36.571060 61.144135 0.961509
v 36.978210 61.144142 0.961509
vn -1.0000 0.0000 0.0000
vn -0.0000 0.0000 -1.0000
vn 1.0000 0.0000 0.0000
vn 0.0000 0.0000 1.0000
vn 0.0000 -1.0000 0.0000
vn -0.7118 0.7023 0.0000
vn 0.7111 0.7031 0.0000
vn 0.0000 1.0000 0.0000
vn -0.7093 -0.7049 0.0000
vn 0.7122 -0.7020 0.0000
usemtl None
s off
f 9//7 10//7 12//7 11//7
f 11//8 12//8 16//8 15//8
f 15//9 16//9 14//9 13//9
f 13//10 14//10 10//10 9//10
f 11//11 15//11 13//11 9//11
f 16//12 12//12 10//12 14//12
f 17//7 18//7 20//7 19//7
f 19//8 20//8 24//8 23//8
f 23//9 24//9 22//9 21//9
f 21//10 22//10 18//10 17//10
f 19//11 23//11 21//11 17//11
f 24//13 20//13 18//13 22//13
f 25//14 26//14 28//14 27//14
f 27//8 28//8 32//8 31//8
f 31//11 32//11 30//11 29//11
f 29//10 30//10 26//10 25//10
f 27//15 31//15 29//15 25//15
f 32//16 28//16 26//16 30//16
o Cube.002_Cube.004
v 37.682919 -134.060425 8.000000
v 37.323559 62.263748 8.000000
v 37.682919 -134.060425 -8.000000
v 37.323559 62.263748 -8.000000
v 45.179512 -134.328690 8.000000
v 45.179512 70.687164 8.000000
v 45.179512 -134.328690 -8.000000
v 45.179512 70.687164 -8.000000
v -45.189644 -134.416214 8.000000
v -45.189644 70.686798 8.000000
v -45.189644 -134.416214 -8.000000
v -45.189644 70.686798 -8.000000
v -37.336163 -134.416214 8.000000
v -37.336163 62.314861 8.000000
v -37.336163 -134.416214 -8.000000
v -37.336163 62.314861 -8.000000
v -45.187309 70.687836 8.000000
v 45.179367 70.687836 8.000000
v -45.187309 70.687836 -8.000000
v 45.179367 70.687836 -8.000000
v -37.295441 62.313496 8.000000
v 37.341492 62.276310 8.000000
v -37.295441 62.313496 -8.000000
v 37.341492 62.276310 -8.000000
vn -1.0000 -0.0018 0.0000
vn 0.0000 0.0000 -1.0000
vn 1.0000 0.0000 0.0000
vn 0.0000 0.0000 1.0000
vn -0.0358 -0.9994 0.0000
vn -0.7313 0.6820 0.0000
vn -1.0000 0.0000 0.0000
vn 0.0000 -1.0000 0.0000
vn 0.7293 0.6842 0.0000
vn 0.0000 1.0000 0.0000
vn -0.0005 -1.0000 0.0000
vn -0.7278 -0.6858 0.0000
vn 0.7316 -0.6817 0.0000
usemtl None
s off
f 33//17 34//17 36//17 35//17
f 35//18 36//18 40//18 39//18
f 39//19 40//19 38//19 37//19
f 37//20 38//20 34//20 33//20
f 35//21 39//21 37//21 33//21
f 40//22 36//22 34//22 38//22
f 41//23 42//23 44//23 43//23
f 43//18 44//18 48//18 47//18
f 47//19 48//19 46//19 45//19
f 45//20 46//20 42//20 41//20
f 43//24 47//24 45//24 41//24
f 48//25 44//25 42//25 46//25
f 49//26 50//26 52//26 51//26
f 51//18 52//18 56//18 55//18
f 55//27 56//27 54//27 53//27
f 53//20 54//20 50//20 49//20
f 51//28 55//28 53//28 49//28
f 56//29 52//29 50//29 54//29
o Cube.001_Cube.003
v 38.193485 -134.528778 -8.065607
v 38.193485 63.475178 -8.065607
v 38.193485 -134.528778 -10.065607
v 38.193485 63.475178 -10.065607
v 45.193485 -134.528778 -8.065607
v 45.193485 70.487061 -8.065607
v 45.193485 -134.528778 -10.065607
v 45.193485 70.487061 -10.065607
v -45.175671 -134.616318 -8.065607
v -45.175671 70.486694 -8.065607
v -45.175671 -134.616318 -10.065607
v -45.175671 70.486694 -10.065607
v -38.175671 -134.616318 -8.065607
v -38.175671 63.489094 -8.065607
v -38.175671 -134.616318 -10.065607
v -38.175671 63.489094 -10.065607
v -45.173336 70.487732 -8.065607
v 45.193340 70.487732 -8.065607
v -45.173336 70.487732 -10.065607
v 45.193340 70.487732 -10.065607
v -38.134953 63.487736 -8.065607
v 38.211418 63.487736 -8.065607
v -38.134953 63.487736 -10.065607
v 38.211418 63.487736 -10.065607
vn -1.0000 0.0000 0.0000
vn 0.0000 0.0000 -1.0000
vn 1.0000 0.0000 0.0000
vn 0.0000 0.0000 1.0000
vn 0.0000 -1.0000 0.0000
vn -0.7077 0.7065 0.0000
vn 0.7070 0.7072 0.0000
vn 0.0000 1.0000 0.0000
vn -0.7052 -0.7090 0.0000
vn 0.7080 -0.7062 0.0000
usemtl None
s off
f 57//30 58//30 60//30 59//30
f 59//31 60//31 64//31 63//31
f 63//32 64//32 62//32 61//32
f 61//33 62//33 58//33 57//33
f 59//34 63//34 61//34 57//34
f 64//35 60//35 58//35 62//35
f 65//30 66//30 68//30 67//30
f 67//31 68//31 72//31 71//31
f 71//32 72//32 70//32 69//32
f 69//33 70//33 66//33 65//33
f 67//34 71//34 69//34 65//34
f 72//36 68//36 66//36 70//36
f 73//37 74//37 76//37 75//37
f 75//31 76//31 80//31 79//31
f 79//34 80//34 78//34 77//34
f 77//33 78//33 74//33 73//33
f 75//38 79//38 77//38 73//38
f 80//39 76//39 74//39 78//39
o Cube
v 38.213531 -134.460175 10.108275
v 38.213531 63.543793 10.108275
v 38.213531 -134.460175 8.108275
v 38.213531 63.543793 8.108275
v 45.213531 -134.460175 10.108275
v 45.213531 70.555679 10.108275
v 45.213531 -134.460175 8.108275
v 45.213531 70.555679 8.108275
v -45.155624 -134.547699 10.108275
v -45.155624 70.555313 10.108275
v -45.155624 -134.547699 8.108275
v -45.155624 70.555313 8.108275
v -38.155624 -134.547699 10.108275
v -38.155624 63.557709 10.108275
v -38.155624 -134.547699 8.108275
v -38.155624 63.557709 8.108275
v -45.153290 70.556351 10.108275
v 45.213387 70.556351 10.108275
v -45.153290 70.556351 8.108275
v 45.213387 70.556351 8.108275
v -38.114906 63.556351 10.108275
v 38.231464 63.556351 10.108275
v -38.114906 63.556351 8.108275
v 38.231464 63.556351 8.108275
vn -1.0000 0.0000 0.0000
vn 0.0000 0.0000 -1.0000
vn 1.0000 0.0000 0.0000
vn 0.0000 0.0000 1.0000
vn 0.0000 -1.0000 0.0000
vn -0.7077 0.7065 0.0000
vn 0.7070 0.7072 0.0000
vn 0.0000 1.0000 0.0000
vn -0.7052 -0.7090 0.0000
vn 0.7080 -0.7062 0.0000
usemtl None
s off
f 81//40 82//40 84//40 83//40
f 83//41 84//41 88//41 87//41
f 87//42 88//42 86//42 85//42
f 85//43 86//43 82//43 81//43
f 83//44 87//44 85//44 81//44
f 88//45 84//45 82//45 86//45
f 89//40 90//40 92//40 91//40
f 91//41 92//41 96//41 95//41
f 95//42 96//42 94//42 93//42
f 93//43 94//43 90//43 89//43
f 91//44 95//44 93//44 89//44
f 96//46 92//46 90//46 94//46
f 97//47 98//47 100//47 99//47
f 99//41 100//41 104//41 103//41
f 103//44 104//44 102//44 101//44
f 101//43 102//43 98//43 97//43
f 99//48 103//48 101//48 97//48
f 104//49 100//49 98//49 102//49
