# 
# Generated by Sweet Home 3D - Do Mrz 18 12:20:32 MEZ 2010
# http://www.sweethome3d.eu/
# 
mtllib rainGutterPart1.mtl
g piece_1_piece_1_Wall_1_1_1
usemtl piece_1_piece_1_Wall_1_1_1
v 268.0 258.0 302.0
v 468.0 258.0 302.0
v 468.0 258.0313 302.5881
v 268.0 258.0313 302.5881
v 468.0 258.1249 303.17053
v 268.0 258.1249 303.17053
v 468.0 258.27988 303.7417
v 268.0 258.27988 303.7417
v 468.0 258.49478 304.2961
v 268.0 258.49478 304.29608
v 468.0 258.76752 304.82837
v 268.0 258.76752 304.82837
v 468.0 259.09546 305.33344
v 268.0 259.09546 305.3334
v 468.0 259.47543 305.80637
v 268.0 259.47543 305.80637
v 468.0 259.9038 306.24265
v 268.0 259.9038 306.24265
v 468.0 260.37643 306.63806
v 268.0 260.37643 306.63806
v 468.0 260.8888 306.98883
v 268.0 260.8888 306.9888
v 468.0 261.4359 307.29153
v 268.0 261.4359 307.29153
v 468.0 262.01254 307.54327
v 268.0 262.01254 307.54327
v 468.0 262.61316 307.74164
v 268.0 262.61316 307.74164
v 468.0 263.2319 307.8847
v 268.0 263.2319 307.8847
v 468.0 263.86288 307.9711
v 268.0 263.86288 307.9711
v 468.0 264.5 308.0
v 268.0 264.5 308.0
v 468.0 263.42212 307.002
v 268.0 262.89618 306.8804
v 268.0 263.42212 307.002
v 468.0 263.95847 307.07544
v 268.0 263.95847 307.07544
v 468.0 264.5 307.1
v 268.0 261.43048 306.24048
v 468.0 261.43048 306.2405
v 268.0 260.99496 305.94235
v 468.0 258.975 302.0
v 468.0 259.00162 302.49988
v 468.0 259.08115 302.99496
v 468.0 259.2129 303.48047
v 468.0 259.39557 303.9517
v 468.0 259.90613 304.8334
v 268.0 259.90613 304.8334
v 468.0 260.22913 305.2354
v 468.0 259.62738 304.4041
v 468.0 260.59323 305.60626
v 468.0 260.99496 305.94235
v 468.0 261.89554 306.4978
v 468.0 262.38568 306.7118
v 268.0 259.2129 303.48044
v 468.0 262.89618 306.8804
v 268.0 259.39557 303.9517
v 268.0 260.22913 305.2354
v 268.0 259.08115 302.99496
v 268.0 259.00162 302.49988
v 268.0 258.975 302.0
v 268.0 261.89554 306.4978
v 268.0 260.59323 305.60623
v 268.0 259.62738 304.4041
v 268.0 262.38568 306.7118
v 268.0 264.5 307.1
vn -0 -0.9989733 0.04530325
vn -0 -0.99589235 0.09054479
vn -0 -0.9835582 0.18059136
vn -0 -0.96296203 0.26963708
vn -0 -0.9340536 0.357133
vn -0 -0.89678246 0.44247168
vn -0 -0.85112786 0.5249585
vn -0 -0.7971035 0.60384274
vn -0 -0.7348034 0.6782802
vn -0 -0.66443706 0.7473442
vn -0 -0.58636177 0.81004936
vn -0 -0.5011083 0.8653846
vn -0 -0.40939865 0.9123556
vn -0 -0.31219524 0.9500179
vn -0 -0.21065167 0.9775612
vn -0 -0.10610033 0.9943554
vn -0 -0.0531478 0.99858665
vn 0 0.21065167 -0.9775612
vn 0 0.31219524 -0.9500179
vn 0 0.10610033 -0.9943554
vn 0 0.0531478 -0.99858665
vn 0 0.58636177 -0.81004936
vn 0 0.66443706 -0.7473442
vn 1.0 0.0 0
vn 0 0.85112786 -0.5249585
vn 0 0.7971035 -0.60384274
vn 0 0.96296203 -0.26963708
vn 0 0.9340536 -0.357133
vn -1.0 0.0 -0
vn 0 0.7348034 -0.6782802
vn 0 0.9835582 -0.18059136
vn 0 0.99589235 -0.09054479
vn 0 0.9989733 -0.04530325
vn 0 0.5011083 -0.8653846
vn 0 0.40939865 -0.9123556
vn 0 0.89678246 -0.44247168
vn 0 0.0 -1.0
vn 0.0 1.0 0.0
f 1//1 2//1 3//2
f 4//2 3//2 5//3
f 6//3 5//3 7//4
f 8//4 7//4 9//5
f 10//5 9//5 11//6
f 12//6 11//6 13//7
f 14//7 13//7 15//8
f 16//8 15//8 17//9
f 18//9 17//9 19//10
f 20//10 19//10 21//11
f 22//11 21//11 23//12
f 24//12 23//12 25//13
f 26//13 25//13 27//14
f 28//14 27//14 29//15
f 30//15 29//15 31//16
f 32//16 31//16 33//17
f 1//1 3//2 4//2
f 4//2 5//3 6//3
f 6//3 7//4 8//4
f 8//4 9//5 10//5
f 10//5 11//6 12//6
f 12//6 13//7 14//7
f 14//7 15//8 16//8
f 16//8 17//9 18//9
f 18//9 19//10 20//10
f 20//10 21//11 22//11
f 22//11 23//12 24//12
f 24//12 25//13 26//13
f 26//13 27//14 28//14
f 28//14 29//15 30//15
f 30//15 31//16 32//16
f 32//16 33//17 34//17
f 35//18 36//19 37//18
f 38//20 39//20 40//21
f 41//22 42//22 43//23
f 3//24 2//24 44//24
f 3//24 45//24 46//24
f 5//24 3//24 46//24
f 5//24 46//24 47//24
f 7//24 5//24 47//24
f 9//24 7//24 47//24
f 11//24 9//24 48//24
f 49//25 50//25 51//26
f 13//24 11//24 52//24
f 15//24 13//24 49//24
f 15//24 51//24 53//24
f 17//24 15//24 53//24
f 17//24 53//24 54//24
f 19//24 17//24 54//24
f 19//24 54//24 42//24
f 21//24 19//24 42//24
f 23//24 21//24 42//24
f 23//24 55//24 56//24
f 25//24 23//24 56//24
f 57//27 48//28 47//27
f 27//24 25//24 56//24
f 29//24 27//24 58//24
f 31//24 29//24 35//24
f 59//29 57//29 10//29
f 33//24 31//24 38//24
f 60//26 53//30 51//26
f 39//20 35//18 37//18
f 43//23 42//22 54//23
f 61//31 47//27 46//31
f 62//32 46//31 45//32
f 45//32 63//33 62//32
f 62//29 63//29 4//29
f 64//34 56//35 55//34
f 58//19 36//19 35//18
f 65//30 54//23 53//30
f 52//36 66//36 49//25
f 54//23 65//30 43//23
f 1//29 4//29 63//29
f 4//29 6//29 62//29
f 6//29 8//29 61//29
f 8//29 10//29 57//29
f 10//29 12//29 59//29
f 53//30 60//26 65//30
f 12//29 14//29 66//29
f 14//29 16//29 50//29
f 51//26 50//25 60//26
f 16//29 18//29 60//29
f 56//35 67//35 58//19
f 18//29 20//29 65//29
f 43//29 20//29 41//29
f 20//29 22//29 41//29
f 49//25 66//36 50//25
f 22//29 24//29 41//29
f 64//29 24//29 67//29
f 24//29 26//29 67//29
f 26//29 28//29 67//29
f 52//36 59//28 66//36
f 28//29 30//29 36//29
f 37//29 30//29 39//29
f 30//29 32//29 39//29
f 32//29 34//29 39//29
f 57//29 61//29 8//29
f 35//18 39//20 38//20
f 61//29 62//29 6//29
f 55//34 41//22 64//34
f 46//31 62//32 61//31
f 45//24 3//24 44//24
f 48//24 9//24 47//24
f 52//24 11//24 48//24
f 49//24 13//24 52//24
f 51//24 15//24 49//24
f 55//24 23//24 42//24
f 58//24 27//24 56//24
f 35//24 29//24 58//24
f 38//24 31//24 35//24
f 40//24 33//24 38//24
f 12//29 66//29 59//29
f 14//29 50//29 66//29
f 16//29 60//29 50//29
f 18//29 65//29 60//29
f 20//29 43//29 65//29
f 24//29 64//29 41//29
f 28//29 36//29 67//29
f 30//29 37//29 36//29
f 34//29 68//29 39//29
f 67//35 56//35 64//34
f 48//28 59//28 52//36
f 48//28 57//27 59//28
f 58//19 67//35 36//19
f 42//22 41//22 55//34
f 47//27 61//31 57//27
f 1//37 63//37 2//37
f 2//37 63//37 44//37
f 44//33 63//33 45//32
f 68//21 40//21 39//20
f 33//38 40//38 34//38
f 34//38 40//38 68//38
g piece_1_piece_2_Wall_69_69_69
usemtl piece_1_piece_1_Wall_1_1_1
v 468.0 258.0 302.0
v 268.0 258.0 302.0
v 268.0 258.0313 301.4119
v 468.0 258.0313 301.4119
v 268.0 258.1249 300.82947
v 468.0 258.1249 300.82947
v 268.0 258.27988 300.2583
v 468.0 258.27988 300.2583
v 268.0 258.49478 299.7039
v 468.0 258.49478 299.70392
v 268.0 258.76752 299.17163
v 468.0 258.76752 299.17163
v 268.0 259.09546 298.66656
v 468.0 259.09546 298.6666
v 268.0 259.47543 298.19363
v 468.0 259.47543 298.19363
v 268.0 259.9038 297.75735
v 468.0 259.9038 297.75735
v 268.0 260.37643 297.36194
v 468.0 260.37643 297.36194
v 268.0 260.8888 297.01117
v 468.0 260.8888 297.0112
v 268.0 261.4359 296.70847
v 468.0 261.4359 296.70847
v 268.0 262.01254 296.45673
v 468.0 262.01254 296.45673
v 268.0 262.61316 296.25836
v 468.0 262.61316 296.25836
v 268.0 263.2319 296.1153
v 468.0 263.2319 296.1153
v 268.0 263.86288 296.0289
v 468.0 263.86288 296.0289
v 268.0 264.5 296.0
v 468.0 264.5 296.0
v 268.0 263.42212 296.998
v 468.0 262.89618 297.1196
v 468.0 263.42212 296.99802
v 268.0 263.95847 296.92456
v 468.0 263.95847 296.92456
v 268.0 264.5 296.9
v 468.0 261.43048 297.75952
v 268.0 261.43048 297.7595
v 468.0 260.99496 298.05765
v 268.0 258.975 302.0
v 268.0 259.00162 301.50012
v 268.0 259.08115 301.00504
v 268.0 259.2129 300.51953
v 268.0 259.39557 300.0483
v 268.0 259.90613 299.1666
v 468.0 259.90613 299.1666
v 268.0 260.22913 298.7646
v 268.0 259.62738 299.5959
v 268.0 260.59323 298.39374
v 268.0 260.99496 298.05765
v 268.0 261.89554 297.5022
v 268.0 262.38568 297.2882
v 468.0 259.2129 300.51956
v 268.0 262.89618 297.1196
v 468.0 259.39557 300.0483
v 468.0 260.22913 298.7646
v 468.0 259.08115 301.00504
v 468.0 259.00162 301.50012
v 468.0 258.975 302.0
v 468.0 261.89554 297.5022
v 468.0 260.59323 298.39377
v 468.0 259.62738 299.5959
v 468.0 262.38568 297.2882
v 468.0 264.5 296.9
vn 0 -0.9989733 -0.04530325
vn 0 -0.99589235 -0.09054479
vn 0 -0.9835582 -0.18059136
vn 0 -0.96296203 -0.26963708
vn 0 -0.9340536 -0.357133
vn 0 -0.89678246 -0.44247168
vn 0 -0.85112786 -0.5249585
vn 0.0000007 -0.7971035 -0.60384274
vn 0.0000007 -0.7348034 -0.6782802
vn 0.0000007 -0.66443706 -0.7473442
vn 0.0000007 -0.58636177 -0.81004936
vn 0.0000007 -0.5011083 -0.8653846
vn 0.0000007 -0.40939865 -0.9123556
vn 0.0000007 -0.31219524 -0.9500179
vn 0.0000007 -0.21065167 -0.9775612
vn 0.0000007 -0.10610033 -0.9943554
vn 0.0000007 -0.0531478 -0.99858665
vn -0.0000007 0.21065167 0.9775612
vn -0.0000007 0.31219524 0.9500179
vn -0.0000007 0.10610033 0.9943554
vn -0.0000007 0.0531478 0.99858665
vn -0.0000007 0.58636177 0.81004936
vn -0.0000007 0.66443706 0.7473442
vn -1.0 0.0 -0.0000001
vn -0 0.85112786 0.5249585
vn -0.0000007 0.7971035 0.60384274
vn -0 0.96296203 0.26963708
vn -0 0.9340536 0.357133
vn 1.0 0.0 0.0000001
vn -0.0000007 0.7348034 0.6782802
vn -0 0.9835582 0.18059136
vn -0 0.99589235 0.09054479
vn -0 0.9989733 0.04530325
vn -0.0000007 0.5011083 0.8653846
vn -0.0000007 0.40939865 0.9123556
vn -0 0.89678246 0.44247168
vn -0.0000007 0.0 1.0
vn 0.0 1.0 0.0
f 69//39 70//39 71//40
f 72//40 71//40 73//41
f 74//41 73//41 75//42
f 76//42 75//42 77//43
f 78//43 77//43 79//44
f 80//44 79//44 81//45
f 82//45 81//45 83//46
f 84//46 83//46 85//47
f 86//47 85//47 87//48
f 88//48 87//48 89//49
f 90//49 89//49 91//50
f 92//50 91//50 93//51
f 94//51 93//51 95//52
f 96//52 95//52 97//53
f 98//53 97//53 99//54
f 100//54 99//54 101//55
f 69//39 71//40 72//40
f 72//40 73//41 74//41
f 74//41 75//42 76//42
f 76//42 77//43 78//43
f 78//43 79//44 80//44
f 80//44 81//45 82//45
f 82//45 83//46 84//46
f 84//46 85//47 86//47
f 86//47 87//48 88//48
f 88//48 89//49 90//49
f 90//49 91//50 92//50
f 92//50 93//51 94//51
f 94//51 95//52 96//52
f 96//52 97//53 98//53
f 98//53 99//54 100//54
f 100//54 101//55 102//55
f 103//56 104//57 105//56
f 106//58 107//58 108//59
f 109//60 110//60 111//61
f 71//62 70//62 112//62
f 71//62 113//62 114//62
f 73//62 71//62 114//62
f 73//62 114//62 115//62
f 75//62 73//62 115//62
f 77//62 75//62 115//62
f 79//62 77//62 116//62
f 117//63 118//63 119//64
f 81//62 79//62 120//62
f 83//62 81//62 117//62
f 83//62 119//62 121//62
f 85//62 83//62 121//62
f 85//62 121//62 122//62
f 87//62 85//62 122//62
f 87//62 122//62 110//62
f 89//62 87//62 110//62
f 91//62 89//62 110//62
f 91//62 123//62 124//62
f 93//62 91//62 124//62
f 125//65 116//66 115//65
f 95//62 93//62 124//62
f 97//62 95//62 126//62
f 99//62 97//62 103//62
f 127//67 125//67 78//67
f 101//62 99//62 106//62
f 128//64 121//68 119//64
f 107//58 103//56 105//56
f 111//61 110//60 122//61
f 129//69 115//65 114//69
f 130//70 114//69 113//70
f 113//70 131//71 130//70
f 130//67 131//67 72//67
f 132//72 124//73 123//72
f 126//57 104//57 103//56
f 133//68 122//61 121//68
f 120//74 134//74 117//63
f 122//61 133//68 111//61
f 69//67 72//67 131//67
f 72//67 74//67 130//67
f 74//67 76//67 129//67
f 76//67 78//67 125//67
f 78//67 80//67 127//67
f 121//68 128//64 133//68
f 80//67 82//67 134//67
f 82//67 84//67 118//67
f 119//64 118//63 128//64
f 84//67 86//67 128//67
f 124//73 135//73 126//57
f 86//67 88//67 133//67
f 111//67 88//67 109//67
f 88//67 90//67 109//67
f 117//63 134//74 118//63
f 90//67 92//67 109//67
f 132//67 92//67 135//67
f 92//67 94//67 135//67
f 94//67 96//67 135//67
f 120//74 127//66 134//74
f 96//67 98//67 104//67
f 105//67 98//67 107//67
f 98//67 100//67 107//67
f 100//67 102//67 107//67
f 125//67 129//67 76//67
f 103//56 107//58 106//58
f 129//67 130//67 74//67
f 123//72 109//60 132//72
f 114//69 130//70 129//69
f 113//62 71//62 112//62
f 116//62 77//62 115//62
f 120//62 79//62 116//62
f 117//62 81//62 120//62
f 119//62 83//62 117//62
f 123//62 91//62 110//62
f 126//62 95//62 124//62
f 103//62 97//62 126//62
f 106//62 99//62 103//62
f 108//62 101//62 106//62
f 80//67 134//67 127//67
f 82//67 118//67 134//67
f 84//67 128//67 118//67
f 86//67 133//67 128//67
f 88//67 111//67 133//67
f 92//67 132//67 109//67
f 96//67 104//67 135//67
f 98//67 105//67 104//67
f 102//67 136//67 107//67
f 135//73 124//73 132//72
f 116//66 127//66 120//74
f 116//66 125//65 127//66
f 126//57 135//73 104//57
f 110//60 109//60 123//72
f 115//65 129//69 125//65
f 69//75 131//75 70//75
f 70//75 131//75 112//75
f 112//71 131//71 113//70
f 136//59 108//59 107//58
f 101//76 108//76 102//76
f 102//76 108//76 136//76
