# Blender v2.79 (sub 0) OBJ File: ''
# www.blender.org
mtllib redCabinetWithBasin.mtl
o Cube.002_Cube.002_Wood_Cherry
v -0.092925 -4.755155 34.433228
v -0.092925 -4.755154 29.433203
v -54.783558 -4.755179 29.433203
v -54.783558 -4.755155 34.433254
v -0.092925 -74.912315 34.433216
v -54.783558 -74.912270 34.433216
v -0.092925 -74.912315 29.433191
v -54.783558 -74.912315 29.433191
v 0.729804 -4.755155 34.433228
v 55.115509 -4.755155 34.433228
v 55.115509 -4.755179 29.433203
v 0.729804 -4.755154 29.433203
v 0.729804 -74.912270 34.433216
v 55.115509 -74.912270 34.433216
v 0.729804 -74.912315 29.433165
v 55.115509 -74.912315 29.433165
v -52.201946 -74.884010 -28.337408
v -52.201946 -74.884010 -30.837397
v 52.798599 -74.884010 -30.837370
v 52.798599 -74.884010 -28.337383
v -52.201946 -4.638644 -28.337372
v 52.798599 -4.638644 -28.337349
v 52.798599 -4.638644 -30.837336
v -52.201923 -4.638644 -30.837385
v -54.931438 -74.884010 -30.837421
v -54.931438 -4.638644 -30.837433
v -54.931461 -4.638644 -28.337397
v -54.931438 -74.884010 -28.337408
v 55.298637 -4.638644 -30.837336
v 55.298637 -74.884010 -30.837370
v 55.298637 -4.638644 -28.337322
v 55.298637 -74.884010 -28.337360
v 52.798347 -4.638679 29.162952
v 55.298389 -4.638679 29.162952
v 55.298389 -74.884048 29.162941
v 52.798347 -74.884048 29.162941
v -52.202244 -74.884026 29.162916
v -54.931782 -74.884026 29.162889
v -54.931782 -4.638679 29.162928
v -52.202271 -4.638679 29.162928
vn -0.0000 1.0000 -0.0000
vn 0.0000 -0.0000 1.0000
vn -0.0000 -1.0000 0.0000
vn 0.0000 0.0000 -1.0000
vn -1.0000 -0.0000 0.0000
vn 1.0000 0.0000 0.0000
usemtl Wood_Cherry
s off
f 1//1 2//1 3//1 4//1
f 5//2 1//2 4//2 6//2
f 7//3 5//3 6//3 8//3
f 2//4 7//4 8//4 3//4
f 3//5 8//5 6//5 4//5
f 2//6 1//6 5//6 7//6
f 9//1 10//1 11//1 12//1
f 13//2 14//2 10//2 9//2
f 15//3 16//3 14//3 13//3
f 12//4 11//4 16//4 15//4
f 11//6 10//6 14//6 16//6
f 13//5 9//5 12//5 15//5
f 17//3 18//3 19//3 20//3
f 21//1 22//1 23//1 24//1
f 18//4 24//4 23//4 19//4
f 21//2 17//2 20//2 22//2
f 24//4 18//4 25//4 26//4
f 21//1 24//1 26//1 27//1
f 18//3 17//3 28//3 25//3
f 28//5 27//5 26//5 25//5
f 19//4 23//4 29//4 30//4
f 23//1 22//1 31//1 29//1
f 20//3 19//3 30//3 32//3
f 30//6 29//6 31//6 32//6
f 31//1 22//1 33//1 34//1
f 32//6 31//6 34//6 35//6
f 20//3 32//3 35//3 36//3
f 22//5 20//5 36//5 33//5
f 33//2 36//2 35//2 34//2
f 28//3 17//3 37//3 38//3
f 27//5 28//5 38//5 39//5
f 21//1 27//1 39//1 40//1
f 17//6 21//6 40//6 37//6
f 37//2 40//2 39//2 38//2
o Plane.001_Plane.001_Material
v 55.785515 0.346246 34.406002
v 52.189419 0.346247 26.536161
v -51.774521 0.346247 26.536161
v -55.306934 0.346246 34.405979
v 55.785515 0.346282 -30.777760
v 52.189419 0.346281 -28.386248
v -55.306911 0.346282 -30.777760
v -51.774498 0.346281 -28.386248
v -51.710869 -4.634053 26.536161
v -51.710819 -4.634019 -28.386248
v 51.691395 -4.634019 -28.386248
v 51.691395 -4.634053 26.536161
v -55.243282 -4.634019 -30.777760
v -55.243313 -4.634055 34.406002
v 55.785515 -4.634019 -30.777733
v 55.785515 -4.634055 34.406002
vn -0.0000 1.0000 0.0000
vn 0.9999 0.0128 0.0000
vn 0.0000 0.0000 1.0000
vn -0.9950 0.0995 0.0000
vn 0.0000 0.0000 -1.0000
vn -0.9999 -0.0128 -0.0000
vn 1.0000 -0.0000 0.0000
vn 0.0000 -1.0000 -0.0000
usemtl Material.001
s off
f 41//7 42//7 43//7 44//7
f 42//7 41//7 45//7 46//7
f 46//7 45//7 47//7 48//7
f 44//7 43//7 48//7 47//7
f 43//8 49//8 50//8 48//8
f 48//9 50//9 51//9 46//9
f 46//10 51//10 52//10 42//10
f 42//11 52//11 49//11 43//11
f 47//12 53//12 54//12 44//12
f 45//11 55//11 53//11 47//11
f 41//13 56//13 55//13 45//13
f 56//9 41//9 44//9 54//9
f 49//14 52//14 56//14 54//14
f 52//14 51//14 55//14 56//14
f 51//14 50//14 53//14 55//14
f 50//14 49//14 54//14 53//14
o Plane_Plane_Aluminum
v -26.412714 -0.932458 21.612288
v -26.412714 0.518974 24.120350
v -7.241713 0.518974 24.120350
v -9.164998 -0.932458 21.612288
v -43.660454 -0.932458 21.612288
v -45.583736 0.518974 24.120350
v -2.448938 0.518981 -20.879883
v -4.853025 -0.932452 -18.873373
v -4.853025 -0.932455 -0.879780
v -2.448938 0.518978 -0.879780
v -2.448938 0.518975 19.120350
v -4.853025 -0.932458 17.113863
v -26.412714 0.518982 -25.879911
v -26.412714 -0.932451 -23.371820
v -9.164998 -0.932451 -23.371798
v -7.241713 0.518982 -25.879911
v -45.583736 0.518982 -25.879911
v -43.660454 -0.932451 -23.371820
v -50.376488 0.518978 -0.879780
v -50.376488 0.518975 19.120350
v -47.972374 -0.932458 17.113863
v -47.972374 -0.932455 -0.879780
v -50.376488 0.518981 -20.879883
v -47.972374 -0.932452 -18.873398
v -26.412714 -11.092661 18.927521
v -11.223734 -11.092661 18.927521
v -41.601715 -11.092661 18.927521
v -7.426514 -11.092655 -16.725615
v -7.426514 -11.092658 -0.879781
v -7.426514 -11.092661 14.966076
v -26.412714 -11.092654 -20.687059
v -11.223734 -11.092654 -20.687059
v -41.601715 -11.092654 -20.687059
v -45.398937 -11.092661 14.966051
v -45.398937 -11.092658 -0.879781
v -45.398937 -11.092655 -16.725615
v -14.336550 -13.467749 14.868275
v -26.412714 -13.467749 14.868275
v -38.488899 -13.467749 14.868275
v -11.317484 -13.467744 -13.478197
v -11.317484 -13.467746 -0.879782
v -11.317484 -13.467748 11.718659
v -26.412714 -13.467743 -16.627813
v -14.336550 -13.467743 -16.627813
v -38.488899 -13.467743 -16.627813
v -41.507938 -13.467748 11.718659
v -41.507938 -13.467746 -0.879782
v -41.507938 -13.467744 -13.478197
v -18.865124 -13.467746 -0.879782
v -26.412714 -13.467746 -0.879782
v -33.960350 -13.467746 -0.879782
v 2.343812 0.518978 -0.879780
v 2.343812 0.518981 -20.879883
v 2.343812 0.518975 19.120350
v 41.402866 -13.467746 -0.879782
v 33.855251 -13.467746 -0.879782
v 38.383823 -13.467749 14.868275
v 41.402866 -13.467748 11.718659
v 26.307611 -13.467749 14.868275
v 26.307611 -13.467746 -0.879782
v 18.760023 -13.467746 -0.879782
v 14.231423 -13.467749 14.868275
v 11.212383 -13.467746 -0.879782
v 11.212383 -13.467748 11.718659
v 11.212383 -13.467744 -13.478197
v 14.231423 -13.467743 -16.627813
v 26.307611 -13.467743 -16.627813
v 38.383823 -13.467743 -16.627813
v 41.402866 -13.467744 -13.478197
v 45.293861 -11.092661 14.966076
v 41.496590 -11.092661 18.927521
v 11.118657 -11.092661 18.927521
v 7.321413 -11.092661 14.966051
v 7.321413 -11.092655 -16.725615
v 11.118657 -11.092654 -20.687059
v 45.293861 -11.092655 -16.725615
v 41.496590 -11.092654 -20.687059
v 7.321413 -11.092658 -0.879781
v 26.307611 -11.092654 -20.687059
v 45.293861 -11.092658 -0.879781
v 26.307611 -11.092661 18.927521
v 47.867271 -0.932458 17.113863
v 43.555374 -0.932458 21.612288
v 9.059872 -0.932458 21.612288
v 4.747974 -0.932458 17.113863
v 4.747974 -0.932452 -18.873398
v 9.059872 -0.932451 -23.371820
v 47.867271 -0.932452 -18.873373
v 43.555374 -0.932451 -23.371798
v 4.747974 -0.932455 -0.879780
v 26.307611 -0.932451 -23.371820
v 47.867271 -0.932455 -0.879780
v 26.307611 -0.932458 21.612288
v 50.271439 0.518975 19.120350
v 45.478661 0.518974 24.120350
v 7.136562 0.518974 24.120350
v 7.136587 0.518982 -25.879911
v 50.271439 0.518981 -20.879883
v 45.478687 0.518982 -25.879911
v 26.307611 0.518982 -25.879911
v 50.271439 0.518978 -0.879780
v 26.307611 0.518974 24.120350
v -7.241713 0.518982 -28.281496
v -26.412714 0.518982 -28.281523
v -45.583736 0.518982 -28.281523
v 26.307611 0.518982 -28.281523
v 7.136587 0.518982 -28.281523
v 45.478687 0.518982 -28.281496
v 52.667797 0.518975 19.120350
v 52.667797 0.518978 -0.879780
v 52.667797 0.518981 -20.879883
v -52.772896 0.518978 -0.879780
v -52.772896 0.518975 19.120350
v -52.772896 0.518981 -20.879883
v -26.412714 0.518973 26.620390
v -7.241713 0.518973 26.620390
v -45.583736 0.518973 26.620390
v 7.136562 0.518973 26.620390
v 26.307611 0.518973 26.620390
v 45.478661 0.518973 26.620390
v -52.809174 0.518974 24.848703
v -51.074661 0.518973 26.658215
v 50.299934 0.518973 26.590614
v 52.639275 0.518974 25.514183
v 52.554623 0.518982 -27.372368
v 51.257317 0.518982 -28.201172
v -51.830894 0.518982 -28.221647
v -52.783470 0.518982 -26.456139
vn 0.0000 0.6070 -0.7947
vn 0.0000 0.9658 -0.2593
vn -0.0705 0.9866 -0.1473
vn -0.2615 0.7098 -0.6540
vn 0.2615 0.7098 -0.6540
vn 0.0705 0.9866 -0.1473
vn -0.1538 0.9855 0.0712
vn -0.6713 0.6978 0.2496
vn -0.8034 0.5954 0.0000
vn -0.2682 0.9633 0.0000
vn -0.1538 0.9855 -0.0712
vn -0.6713 0.6978 -0.2496
vn 0.0000 0.9658 0.2593
vn 0.0000 0.6070 0.7947
vn -0.2615 0.7098 0.6540
vn -0.0705 0.9866 0.1473
vn 0.0705 0.9866 0.1473
vn 0.2615 0.7098 0.6540
vn 0.2682 0.9633 0.0000
vn 0.1538 0.9855 -0.0712
vn 0.6713 0.6978 -0.2496
vn 0.8034 0.5954 0.0000
vn 0.1538 0.9855 0.0712
vn 0.6713 0.6978 0.2496
vn 0.0000 0.6051 -0.7961
vn -0.3060 0.6130 -0.7284
vn 0.3060 0.6130 -0.7284
vn -0.7377 0.6088 0.2917
vn -0.8048 0.5935 0.0000
vn -0.7377 0.6088 -0.2917
vn 0.0000 0.6051 0.7961
vn -0.3060 0.6130 0.7284
vn 0.3060 0.6130 0.7284
vn 0.7377 0.6088 -0.2917
vn 0.8048 0.5935 0.0000
vn 0.7377 0.6088 0.2917
vn -0.0877 0.9600 -0.2660
vn 0.0000 0.9651 -0.2616
vn 0.0877 0.9600 -0.2660
vn -0.2748 0.9581 0.0804
vn -0.2706 0.9627 0.0000
vn -0.2748 0.9581 -0.0804
vn 0.0000 0.9651 0.2616
vn -0.0877 0.9600 0.2660
vn 0.0877 0.9600 0.2660
vn 0.2748 0.9581 -0.0804
vn 0.2706 0.9627 0.0000
vn 0.2748 0.9581 0.0804
vn 0.0000 1.0000 0.0000
usemtl Aluminum
s 1
f 57//15 58//16 59//17 60//18
f 57//15 61//19 62//20 58//16
f 63//21 64//22 65//23 66//24
f 67//25 66//24 65//23 68//26
f 69//27 70//28 71//29 72//30
f 69//27 73//31 74//32 70//28
f 75//33 76//34 77//35 78//36
f 79//37 75//33 78//36 80//38
f 63//21 72//30 71//29 64//22
f 79//37 80//38 74//32 73//31
f 62//20 61//19 77//35 76//34
f 67//25 68//26 60//18 59//17
f 81//39 57//15 60//18 82//40
f 61//19 57//15 81//39 83//41
f 64//22 84//42 85//43 65//23
f 68//26 65//23 85//43 86//44
f 70//28 87//45 88//46 71//29
f 70//28 74//32 89//47 87//45
f 78//36 77//35 90//48 91//49
f 80//38 78//36 91//49 92//50
f 64//22 71//29 88//46 84//42
f 80//38 92//50 89//47 74//32
f 61//19 83//41 90//48 77//35
f 68//26 86//44 82//40 60//18
f 82//40 93//51 94//52 81//39
f 83//41 81//39 94//52 95//53
f 84//42 96//54 97//55 85//43
f 86//44 85//43 97//55 98//56
f 87//45 99//57 100//58 88//46
f 87//45 89//47 101//59 99//57
f 91//49 90//48 102//60 103//61
f 92//50 91//49 103//61 104//62
f 84//42 88//46 100//58 96//54
f 92//50 104//62 101//59 89//47
f 83//41 95//53 102//60 90//48
f 86//44 98//56 93//51 82//40
f 96//54 100//58 105//63 97//55
f 100//58 99//57 106//63 105//63
f 99//57 101//59 107//63 106//63
f 104//62 103//61 107//63 101//59
f 95//53 107//63 103//61 102//60
f 94//52 106//63 107//63 95//53
f 94//52 93//51 105//63 106//63
f 97//55 105//63 93//51 98//56
f 66//24 108//33 109//37 63//21
f 66//24 67//25 110//34 108//33
f 111//55 112//63 113//51 114//56
f 115//52 113//51 112//63 116//63
f 115//52 116//63 117//63 118//53
f 118//53 117//63 119//61 120//60
f 121//62 119//61 117//63 122//59
f 123//57 122//59 117//63 116//63
f 124//58 123//57 116//63 112//63
f 125//54 124//58 112//63 111//55
f 126//44 114//56 113//51 127//40
f 128//41 118//53 120//60 129//48
f 130//50 121//62 122//59 131//47
f 132//42 133//46 124//58 125//54
f 130//50 134//49 119//61 121//62
f 134//49 129//48 120//60 119//61
f 135//45 131//47 122//59 123//57
f 135//45 123//57 124//58 133//46
f 126//44 136//43 111//55 114//56
f 132//42 125//54 111//55 136//43
f 128//41 137//39 115//52 118//53
f 127//40 113//51 115//52 137//39
f 138//26 126//44 127//40 139//18
f 140//19 128//41 129//48 141//35
f 142//38 130//50 131//47 143//32
f 144//22 145//29 133//46 132//42
f 142//38 146//36 134//49 130//50
f 146//36 141//35 129//48 134//49
f 147//28 143//32 131//47 135//45
f 147//28 135//45 133//46 145//29
f 138//26 148//23 136//43 126//44
f 144//22 132//42 136//43 148//23
f 140//19 149//15 137//39 128//41
f 139//18 127//40 137//39 149//15
f 150//25 138//26 139//18 151//17
f 152//20 140//19 141//35 110//34
f 109//37 142//38 143//32 153//31
f 154//21 155//30 145//29 144//22
f 109//37 108//33 146//36 142//38
f 108//33 110//34 141//35 146//36
f 156//27 153//31 143//32 147//28
f 156//27 147//28 145//29 155//30
f 150//25 157//24 148//23 138//26
f 154//21 144//22 148//23 157//24
f 152//20 158//16 149//15 140//19
f 151//17 139//18 149//15 158//16
f 59//17 152//20 110//34 67//25
f 63//21 109//37 153//31 72//30
f 72//30 159//63 160//63 69//27
f 73//31 69//27 160//63 161//63
f 153//31 156//27 162//63 163//63
f 155//30 164//63 162//63 156//27
f 153//31 163//63 159//63 72//30
f 157//24 150//25 165//63 166//63
f 157//24 166//63 167//63 154//21
f 76//34 75//33 168//63 169//63
f 75//33 79//37 170//63 168//63
f 58//16 171//63 172//63 59//17
f 58//16 62//20 173//63 171//63
f 158//16 152//20 174//63 175//63
f 158//16 175//63 176//63 151//17
f 59//17 172//63 174//63 152//20
f 62//20 76//34 169//63 173//63
f 173//63 169//63 177//63 178//63
f 73//31 161//63 170//63 79//37
f 155//30 154//21 167//63 164//63
f 150//25 151//17 176//63 165//63
f 176//63 179//63 180//63 165//63
f 167//63 181//63 182//63 164//63
f 170//63 161//63 183//63 184//63
o Cube.002_Cube.002_Aluminum
v -6.416558 -7.008167 33.909500
v -3.978695 -7.008167 33.909500
v -3.978695 -8.681851 33.909500
v -6.416558 -8.681851 33.909500
v -3.978695 -7.008167 36.409489
v -3.978695 -8.681851 36.409489
v -6.416558 -7.008167 36.409489
v -6.416558 -8.681851 36.409489
v -6.416558 -8.681852 38.909527
v -6.416558 -7.008167 38.909527
v -3.978695 -7.008167 38.909527
v -3.978695 -8.681852 38.909527
v -6.416558 -17.263645 36.409485
v -6.416558 -17.263645 38.909523
v -3.978695 -17.263645 38.909523
v -3.978695 -17.263645 36.409485
v -3.978695 -18.980003 38.909523
v -3.978695 -18.980003 36.409485
v -6.416558 -18.980003 38.909523
v -6.416558 -18.980003 36.409485
v -6.416558 -17.263645 33.909496
v -6.416558 -18.980003 33.909496
v -3.978695 -18.980003 33.909496
v -3.978695 -17.263645 33.909496
v 7.640339 -7.008167 33.909477
v 7.640339 -8.681826 33.909477
v 5.202502 -8.681826 33.909477
v 5.202502 -7.008167 33.909477
v 5.202502 -8.681826 36.409489
v 5.202502 -7.008167 36.409489
v 7.640339 -7.008167 36.409489
v 7.640339 -8.681826 36.409489
v 7.640339 -7.008167 38.909527
v 7.640339 -8.681827 38.909527
v 5.202502 -7.008167 38.909527
v 5.202502 -8.681827 38.909527
v 7.640339 -17.263645 38.909523
v 7.640339 -17.263645 36.409485
v 5.202502 -17.263645 38.909523
v 5.202502 -17.263645 36.409485
v 5.202502 -18.980003 36.409485
v 5.202502 -18.980003 38.909523
v 7.640339 -18.980003 38.909523
v 7.640339 -18.980003 36.409485
v 7.640339 -18.980003 33.909496
v 7.640339 -17.263645 33.909496
v 5.202502 -18.980003 33.909473
v 5.202502 -17.263645 33.909473
vn 0.0000 0.0000 -1.0000
vn 1.0000 0.0000 0.0000
vn 0.0000 1.0000 0.0000
vn -1.0000 0.0000 0.0000
vn 0.0000 -1.0000 0.0000
vn 0.0000 0.0000 1.0000
usemtl Aluminum
s off
f 185//64 186//64 187//64 188//64
f 187//65 186//65 189//65 190//65
f 191//66 189//66 186//66 185//66
f 185//67 188//67 192//67 191//67
f 188//68 187//68 190//68 192//68
f 191//67 192//67 193//67 194//67
f 189//66 191//66 194//66 195//66
f 190//65 189//65 195//65 196//65
f 194//69 193//69 196//69 195//69
f 193//67 192//67 197//67 198//67
f 196//69 193//69 198//69 199//69
f 190//65 196//65 199//65 200//65
f 192//64 190//64 200//64 197//64
f 200//65 199//65 201//65 202//65
f 199//69 198//69 203//69 201//69
f 198//67 197//67 204//67 203//67
f 204//68 202//68 201//68 203//68
f 204//67 197//67 205//67 206//67
f 202//68 204//68 206//68 207//68
f 200//65 202//65 207//65 208//65
f 197//66 200//66 208//66 205//66
f 205//64 208//64 207//64 206//64
f 209//64 210//64 211//64 212//64
f 211//67 213//67 214//67 212//67
f 215//66 209//66 212//66 214//66
f 209//65 215//65 216//65 210//65
f 210//68 216//68 213//68 211//68
f 215//65 217//65 218//65 216//65
f 214//66 219//66 217//66 215//66
f 213//67 220//67 219//67 214//67
f 217//69 219//69 220//69 218//69
f 218//65 221//65 222//65 216//65
f 220//69 223//69 221//69 218//69
f 213//67 224//67 223//67 220//67
f 216//64 222//64 224//64 213//64
f 224//67 225//67 226//67 223//67
f 223//69 226//69 227//69 221//69
f 221//65 227//65 228//65 222//65
f 228//68 227//68 226//68 225//68
f 228//65 229//65 230//65 222//65
f 225//68 231//68 229//68 228//68
f 224//67 232//67 231//67 225//67
f 222//66 230//66 232//66 224//66
f 230//64 229//64 231//64 232//64
o Cube.001_Cube.001_Aluminum
v 0.455977 7.599119 -25.761932
v -9.102822 16.482512 -13.224840
v -9.521150 14.144375 -12.676165
v 0.455977 5.161306 -25.761934
v -11.459734 14.144375 -14.154246
v -1.482658 5.161306 -27.239992
v -11.041457 16.482512 -14.702899
v -1.482658 7.599119 -27.239990
v 0.033175 7.599119 -29.228050
v 0.033175 5.161306 -29.228052
v 1.971735 5.161306 -27.749996
v 1.971735 7.599119 -27.749994
v 1.971735 0.161280 -27.749996
v 0.033150 0.161281 -29.228052
v 0.455977 0.161280 -25.761934
v -1.482658 0.161280 -27.239992
v 0.033175 10.099133 -29.228050
v 1.971735 10.099133 -27.749994
v 0.455977 10.099132 -25.761932
v -1.482658 10.099133 -27.239990
v -12.495240 17.416367 -12.796114
v -10.556655 17.416367 -11.318031
v -12.913592 15.078230 -12.247460
v -10.974932 15.078230 -10.769378
v -11.964737 18.274797 -9.471221
v -12.383014 15.936659 -8.922568
v -14.321649 15.936659 -10.400651
v -13.903296 18.274797 -10.949305
v -13.459394 12.766892 -11.531608
v -11.520735 12.766892 -10.053526
v -10.066952 11.833014 -11.960310
v -12.005537 11.833014 -13.438393
vn 0.6722 0.2506 0.6966
vn 0.7373 0.6529 0.1734
vn 0.8128 -0.3700 0.4499
vn 0.3879 -0.2755 0.8795
vn -0.6491 -0.3700 -0.6646
vn -0.9509 -0.2755 -0.1412
vn -0.3624 0.6529 -0.6651
vn -0.8498 0.2506 -0.4637
vn -0.1335 0.0000 -0.9910
vn 0.9910 0.0000 -0.1336
vn 0.8092 -0.5773 -0.1090
vn -0.1090 -0.5773 -0.8092
vn 0.1091 -0.5773 0.8092
vn -0.8092 -0.5773 0.1090
vn -0.1090 0.5773 -0.8092
vn 0.8092 0.5773 -0.1090
vn 0.1091 0.5773 0.8092
vn -0.8092 0.5773 0.1090
vn -0.4082 0.6629 -0.6276
vn 0.7133 0.6629 0.2275
vn -0.9543 -0.1731 -0.2435
vn 0.4875 -0.1731 0.8557
vn 0.2337 0.7320 0.6399
vn 0.0209 -0.3649 0.9308
vn -0.9031 -0.3649 0.2263
vn -0.6790 0.7320 -0.0560
vn -0.9124 -0.3284 0.2444
vn 0.0059 -0.3284 0.9445
vn 0.6583 -0.7475 0.0888
vn -0.2600 -0.7475 -0.6112
usemtl Aluminum
s 1
f 233//70 234//71 235//72 236//73
f 236//73 235//72 237//74 238//75
f 238//75 237//74 239//76 240//77
f 234//71 233//70 240//77 239//76
f 238//75 240//77 241//78 242//78
f 233//70 236//73 243//79 244//79
f 242//78 241//78 244//79 243//79
f 242//78 243//79 245//80 246//81
f 243//79 236//73 247//82 245//80
f 238//75 242//78 246//81 248//83
f 236//73 238//75 248//83 247//82
f 247//82 248//83 246//81 245//80
f 244//79 241//78 249//84 250//85
f 233//70 244//79 250//85 251//86
f 241//78 240//77 252//87 249//84
f 240//77 233//70 251//86 252//87
f 252//87 251//86 250//85 249//84
f 234//71 239//76 253//88 254//89
f 239//76 237//74 255//90 253//88
f 235//72 234//71 254//89 256//91
f 256//91 254//89 257//92 258//93
f 255//90 256//91 258//93 259//94
f 253//88 255//90 259//94 260//95
f 254//89 253//88 260//95 257//92
f 257//92 260//95 259//94 258//93
f 256//91 255//90 261//96 262//97
f 235//72 256//91 262//97 263//98
f 255//90 237//74 264//99 261//96
f 237//74 235//72 263//98 264//99
f 264//99 263//98 262//97 261//96
