# meubleHiFiBas.obj 3D model
#
# Created by Gael Bettinelli
#
# This file is distributed under Free Art License, see http://artlibre.org/licence/lal/en for more informations
# and under CC-BY Creative Commons Attribution 3.0 Unported license, see http://creativecommons.org/licenses/by/3.0/
# at your choice
# 
mtllib tvShelfUnit.mtl
g Cube_1_1
usemtl Bois
v 51.9 -31.64779 22.2
v -51.9 -31.64779 22.2
v 0.0 -31.64779 0.0
v 51.9 -31.64779 -22.2
v -51.9 -31.64779 -22.2
v 51.9 -29.94779 0.0
v 51.9 -28.24779 -22.2
v 51.9 -28.24779 22.2
v 0.0 -29.94779 22.2
v -51.9 -28.24779 22.2
v -51.9 -29.94779 0.0
v -51.9 -28.24779 -22.2
v 0.0 -28.24779 0.0
v 0.0 -29.94779 -22.2
vt 1.0 0.0 0
vt 0.0 0.0 0
vt 0.5 0.0 0
vt 1.0 0.5 0
vt 1.0 1.0 0
vt 0.5 0.5 0
vt 0.0 1.0 0
vt 0.0 0.5 0
vt 0.5 1.0 0
vn 0.0 -1.0 0.0
vn 1.0 0.0 0.0
vn 0.0 0.0 1.0
vn -1.0 0.0 0.0
vn 0.0 1.0 0.0
vn 0.0 0.0 -1.0
f 1/1/1 2/2/1 3/3/1
f 4/1/1 1/1/1 3/3/1
f 5/2/1 4/1/1 3/3/1
f 2/2/1 5/2/1 3/3/1
f 1/1/2 4/1/2 6/4/2
f 4/1/2 7/5/2 6/4/2
f 7/5/2 8/5/2 6/4/2
f 8/5/2 1/1/2 6/4/2
f 2/2/3 1/1/3 9/6/3
f 1/1/3 8/5/3 9/6/3
f 8/5/3 10/7/3 9/6/3
f 10/7/3 2/2/3 9/6/3
f 5/2/4 2/2/4 11/8/4
f 2/2/4 10/7/4 11/8/4
f 10/7/4 12/7/4 11/8/4
f 12/7/4 5/2/4 11/8/4
f 10/7/5 8/5/5 13/9/5
f 8/5/5 7/5/5 13/9/5
f 7/5/5 12/7/5 13/9/5
f 12/7/5 10/7/5 13/9/5
f 4/1/6 5/2/6 14/6/6
f 5/2/6 12/7/6 14/6/6
f 12/7/6 7/5/6 14/6/6
f 7/5/6 4/1/6 14/6/6
g Cube_2_2
usemtl Bois
v -48.50072 -28.25258 22.15725
v -51.90072 -28.25258 22.15725
v -50.20072 -28.25258 -0.04275
v -48.50072 -28.25258 -22.24275
v -51.90072 -28.25258 -22.24275
v -48.50072 -15.00258 -0.04275
v -48.50072 -1.75258 -22.24275
v -48.50072 -1.75258 22.15725
v -50.20072 -15.00258 22.15725
v -51.90072 -1.75258 22.15725
v -51.90072 -15.00258 -0.04275
v -51.90072 -1.75258 -22.24275
v -50.20072 -1.75258 -0.04275
v -50.20072 -15.00258 -22.24275
f 15/1/1 16/1/1 17/3/1
f 18/2/1 15/1/1 17/3/1
f 19/2/1 18/2/1 17/3/1
f 16/1/1 19/2/1 17/3/1
f 15/1/2 18/2/2 20/6/2
f 18/2/2 21/7/2 20/6/2
f 21/7/2 22/5/2 20/6/2
f 22/5/2 15/1/2 20/6/2
f 16/1/3 15/1/3 23/4/3
f 15/1/3 22/5/3 23/4/3
f 22/5/3 24/5/3 23/4/3
f 24/5/3 16/1/3 23/4/3
f 19/2/4 16/1/4 25/6/4
f 16/1/4 24/5/4 25/6/4
f 24/5/4 26/7/4 25/6/4
f 26/7/4 19/2/4 25/6/4
f 24/5/5 22/5/5 27/9/5
f 22/5/5 21/7/5 27/9/5
f 21/7/5 26/7/5 27/9/5
f 26/7/5 24/5/5 27/9/5
f 18/2/6 19/2/6 28/8/6
f 19/2/6 26/7/6 28/8/6
f 26/7/6 21/7/6 28/8/6
f 21/7/6 18/2/6 28/8/6
g Cube_2_1_3
usemtl Bois
v 51.89194 -28.24867 22.15725
v 48.49194 -28.24867 22.15725
v 50.19194 -28.24867 -0.04275
v 51.89194 -28.24867 -22.24275
v 48.49194 -28.24867 -22.24275
v 51.89194 -14.99867 -0.04275
v 51.89194 -1.74867 -22.24275
v 51.89194 -1.74867 22.15725
v 50.19194 -14.99867 22.15725
v 48.49194 -1.74867 22.15725
v 48.49194 -14.99867 -0.04275
v 48.49194 -1.74867 -22.24275
v 50.19194 -1.74867 -0.04275
v 50.19194 -14.99867 -22.24275
f 29/1/1 30/1/1 31/3/1
f 32/2/1 29/1/1 31/3/1
f 33/2/1 32/2/1 31/3/1
f 30/1/1 33/2/1 31/3/1
f 29/1/2 32/2/2 34/6/2
f 32/2/2 35/7/2 34/6/2
f 35/7/2 36/5/2 34/6/2
f 36/5/2 29/1/2 34/6/2
f 30/1/3 29/1/3 37/4/3
f 29/1/3 36/5/3 37/4/3
f 36/5/3 38/5/3 37/4/3
f 38/5/3 30/1/3 37/4/3
f 33/2/4 30/1/4 39/6/4
f 30/1/4 38/5/4 39/6/4
f 38/5/4 40/7/4 39/6/4
f 40/7/4 33/2/4 39/6/4
f 38/5/5 36/5/5 41/9/5
f 36/5/5 35/7/5 41/9/5
f 35/7/5 40/7/5 41/9/5
f 40/7/5 38/5/5 41/9/5
f 32/2/6 33/2/6 42/8/6
f 33/2/6 40/7/6 42/8/6
f 40/7/6 35/7/6 42/8/6
f 35/7/6 32/2/6 42/8/6
g Cube_1_1_4
usemtl Bois
v 51.9 -1.75383 22.2
v -51.9 -1.75383 22.2
v 0.0 -1.75383 0.0
v 51.9 -1.75383 -22.2
v -51.9 -1.75383 -22.2
v 51.9 -0.05383 0.0
v 51.9 1.64617 -22.2
v 51.9 1.64617 22.2
v 0.0 -0.05383 22.2
v -51.9 1.64617 22.2
v -51.9 -0.05383 0.0
v -51.9 1.64617 -22.2
v 0.0 1.64617 0.0
v 0.0 -0.05383 -22.2
f 43/1/1 44/2/1 45/6/1
f 46/5/1 43/1/1 45/6/1
f 47/7/1 46/5/1 45/6/1
f 44/2/1 47/7/1 45/6/1
f 43/1/2 46/5/2 48/4/2
f 46/5/2 49/5/2 48/4/2
f 49/5/2 50/1/2 48/4/2
f 50/1/2 43/1/2 48/4/2
f 44/2/3 43/1/3 51/3/3
f 43/1/3 50/1/3 51/3/3
f 50/1/3 52/2/3 51/3/3
f 52/2/3 44/2/3 51/3/3
f 47/7/4 44/2/4 53/8/4
f 44/2/4 52/2/4 53/8/4
f 52/2/4 54/7/4 53/8/4
f 54/7/4 47/7/4 53/8/4
f 52/2/5 50/1/5 55/6/5
f 50/1/5 49/5/5 55/6/5
f 49/5/5 54/7/5 55/6/5
f 54/7/5 52/2/5 55/6/5
f 46/5/6 47/7/6 56/9/6
f 47/7/6 54/7/6 56/9/6
f 54/7/6 49/5/6 56/9/6
f 49/5/6 46/5/6 56/9/6
g Cube_3_5
usemtl Bois
v 0.925 -28.24843 22.2
v -0.925 -28.24843 22.2
v 0.0 -28.24843 0.0
v 0.925 -28.24843 -22.2
v -0.925 -28.24843 -22.2
v 0.925 -14.99843 0.0
v 0.925 -1.74843 -22.2
v 0.925 -1.74843 22.2
v 0.0 -14.99843 22.2
v -0.925 -1.74843 22.2
v -0.925 -14.99843 0.0
v -0.925 -1.74843 -22.2
v 0.0 -1.74843 0.0
v 0.0 -14.99843 -22.2
f 57/1/1 58/2/1 59/3/1
f 60/1/1 57/1/1 59/3/1
f 61/2/1 60/1/1 59/3/1
f 58/2/1 61/2/1 59/3/1
f 57/1/2 60/1/2 62/4/2
f 60/1/2 63/5/2 62/4/2
f 63/5/2 64/5/2 62/4/2
f 64/5/2 57/1/2 62/4/2
f 58/2/3 57/1/3 65/6/3
f 57/1/3 64/5/3 65/6/3
f 64/5/3 66/7/3 65/6/3
f 66/7/3 58/2/3 65/6/3
f 61/2/4 58/2/4 67/8/4
f 58/2/4 66/7/4 67/8/4
f 66/7/4 68/7/4 67/8/4
f 68/7/4 61/2/4 67/8/4
f 66/7/5 64/5/5 69/9/5
f 64/5/5 63/5/5 69/9/5
f 63/5/5 68/7/5 69/9/5
f 68/7/5 66/7/5 69/9/5
f 60/1/6 61/2/6 70/6/6
f 61/2/6 68/7/6 70/6/6
f 68/7/6 63/5/6 70/6/6
f 63/5/6 60/1/6 70/6/6
g Cube_4_6
usemtl Bois
v -0.958 -15.863 22.15
v -48.458 -15.863 22.15
v -24.708 -15.863 0.0
v -0.958 -15.863 -22.15
v -48.458 -15.863 -22.15
v -0.958 -14.938 0.0
v -0.958 -14.013 -22.15
v -0.958 -14.013 22.15
v -24.708 -14.938 22.15
v -48.458 -14.013 22.15
v -48.458 -14.938 0.0
v -48.458 -14.013 -22.15
v -24.708 -14.013 0.0
v -24.708 -14.938 -22.15
f 71/1/1 72/2/1 73/3/1
f 74/1/1 71/1/1 73/3/1
f 75/2/1 74/1/1 73/3/1
f 72/2/1 75/2/1 73/3/1
f 71/1/2 74/1/2 76/4/2
f 74/1/2 77/5/2 76/4/2
f 77/5/2 78/5/2 76/4/2
f 78/5/2 71/1/2 76/4/2
f 72/2/3 71/1/3 79/6/3
f 71/1/3 78/5/3 79/6/3
f 78/5/3 80/7/3 79/6/3
f 80/7/3 72/2/3 79/6/3
f 75/2/4 72/2/4 81/8/4
f 72/2/4 80/7/4 81/8/4
f 80/7/4 82/7/4 81/8/4
f 82/7/4 75/2/4 81/8/4
f 80/7/5 78/5/5 83/9/5
f 78/5/5 77/5/5 83/9/5
f 77/5/5 82/7/5 83/9/5
f 82/7/5 80/7/5 83/9/5
f 74/1/6 75/2/6 84/6/6
f 75/2/6 82/7/6 84/6/6
f 82/7/6 77/5/6 84/6/6
f 77/5/6 74/1/6 84/6/6
g Cube_4_1_7
usemtl Bois
v 48.45972 -15.863 22.15
v 0.95972 -15.863 22.15
v 24.70972 -15.863 0.0
v 48.45972 -15.863 -22.15
v 0.95972 -15.863 -22.15
v 48.45972 -14.938 0.0
v 48.45972 -14.013 -22.15
v 48.45972 -14.013 22.15
v 24.70972 -14.938 22.15
v 0.95972 -14.013 22.15
v 0.95972 -14.938 0.0
v 0.95972 -14.013 -22.15
v 24.70972 -14.013 0.0
v 24.70972 -14.938 -22.15
f 85/1/1 86/2/1 87/3/1
f 88/1/1 85/1/1 87/3/1
f 89/2/1 88/1/1 87/3/1
f 86/2/1 89/2/1 87/3/1
f 85/1/2 88/1/2 90/4/2
f 88/1/2 91/5/2 90/4/2
f 91/5/2 92/5/2 90/4/2
f 92/5/2 85/1/2 90/4/2
f 86/2/3 85/1/3 93/6/3
f 85/1/3 92/5/3 93/6/3
f 92/5/3 94/7/3 93/6/3
f 94/7/3 86/2/3 93/6/3
f 89/2/4 86/2/4 95/8/4
f 86/2/4 94/7/4 95/8/4
f 94/7/4 96/7/4 95/8/4
f 96/7/4 89/2/4 95/8/4
f 94/7/5 92/5/5 97/9/5
f 92/5/5 91/5/5 97/9/5
f 91/5/5 96/7/5 97/9/5
f 96/7/5 94/7/5 97/9/5
f 88/1/6 89/2/6 98/6/6
f 89/2/6 96/7/6 98/6/6
f 96/7/6 91/5/6 98/6/6
f 91/5/6 88/1/6 98/6/6
g Cube_6_8
usemtl Default_Texture
v -29.15411 -28.18406 -20.77914
v -29.15411 -28.03478 -20.77914
v -29.15411 -27.8855 -20.77914
f 99//2 99//2 99//2
f 99//2 99//2 99//2
f 99//2 99//2 99//2
f 99//2 99//2 99//2
f 99//2 99//2 100//2
f 99//2 101//2 100//2
f 101//2 101//2 100//2
f 101//2 99//2 100//2
f 99//2 99//2 100//2
f 99//2 101//2 100//2
f 101//2 101//2 100//2
f 101//2 99//2 100//2
f 99//2 99//2 100//2
f 99//2 101//2 100//2
f 101//2 101//2 100//2
f 101//2 99//2 100//2
f 101//2 101//2 101//2
f 101//2 101//2 101//2
f 101//2 101//2 101//2
f 101//2 101//2 101//2
f 99//2 99//2 100//2
f 99//2 101//2 100//2
f 101//2 101//2 100//2
f 101//2 99//2 100//2
