# newWindowDk.obj Produced by Art of Illusion 2.8.1, Thu Aug 26 17:09:18 EDT 2010
#
# Created by Pencilart
#
# 2019 Sean Bradley rescaled for optimisation in HomeIdea3D http://homeidea3d.com
#
# This file is distributed under Free Art License, see http://artlibre.org/licence/lal/en for more informations
# and under CC-BY Creative Commons Attribution 3.0 Unported license, see http://creativecommons.org/licenses/by/3.0/
# at your choice
# 
mtllib window.mtl
o Cube_5
v 29.004284 -45.040478 0.679678
v 23.003983 -45.040478 0.679678
v 26.004133 -45.040478 -0.620288
v 29.004284 -45.040478 -1.920453
v 23.003983 -45.040478 -1.920453
v 29.004284 -0.038215 -0.620281
v 29.004284 44.964043 -1.920438
v 29.004284 44.964043 0.679693
v 26.004133 -0.038215 0.679685
v 23.003983 44.964043 0.679693
v 23.003983 -0.038215 -0.620281
v 23.003983 44.964043 -1.920438
v 26.004133 44.964043 -0.620274
v 26.004133 -0.038215 -1.920445
vt -0.469550 -0.565980
vt -0.530450 -0.565980
vt -0.500000 -0.500000
vt -0.469550 -0.434030
vt -0.530450 -0.434030
vt -0.469550 -0.500000
vt -0.469550 -0.434020
vt -0.469550 -0.565970
vt -0.500000 -0.565980
vt -0.530450 -0.565970
vt -0.530450 -0.500000
vt -0.530450 -0.434020
vt -0.500000 -0.500000
vt -0.500000 -0.434020
vn 0.5773 -0.5773 0.5773
vn -0.5773 -0.5773 0.5773
vn 0.0000 -1.0000 0.0000
vn 0.5773 -0.5773 -0.5773
vn -0.5773 -0.5773 -0.5773
vn 1.0000 0.0000 0.0000
vn 0.5773 0.5773 -0.5773
vn 0.5773 0.5773 0.5773
vn 0.0000 0.0000 1.0000
vn -0.5773 0.5773 0.5773
vn -1.0000 0.0000 0.0000
vn -0.5773 0.5773 -0.5773
vn 0.0000 1.0000 0.0000
vn 0.0000 0.0000 -1.0000
usemtl darkwood
s 1
f 1/1/1 2/2/2 3/3/3
f 4/4/4 1/1/1 3/3/3
f 5/5/5 4/4/4 3/3/3
f 2/2/2 5/5/5 3/3/3
f 1/1/1 4/4/4 6/6/6
f 4/4/4 7/7/7 6/6/6
f 7/7/7 8/8/8 6/6/6
f 8/8/8 1/1/1 6/6/6
f 2/2/2 1/1/1 9/9/9
f 1/1/1 8/8/8 9/9/9
f 8/8/8 10/10/10 9/9/9
f 10/10/10 2/2/2 9/9/9
f 5/5/5 2/2/2 11/11/11
f 2/2/2 10/10/10 11/11/11
f 10/10/10 12/12/12 11/11/11
f 12/12/12 5/5/5 11/11/11
f 10/10/10 8/8/8 13/13/13
f 8/8/8 7/7/7 13/13/13
f 7/7/7 12/12/12 13/13/13
f 12/12/12 10/10/10 13/13/13
f 4/4/4 5/5/5 14/14/14
f 5/5/5 12/12/12 14/14/14
f 12/12/12 7/7/7 14/14/14
f 7/7/7 4/4/4 14/14/14
o innerpane2
v 25.100443 32.579185 0.996358
v -25.148384 32.579185 0.996358
v -0.023972 32.579189 -0.595249
v 25.100443 32.579189 -2.186856
v -25.148384 32.579189 -2.186856
v 25.100443 33.885460 -0.595249
v 25.100443 35.191929 -2.186856
v 25.100443 35.191929 0.996358
v -0.023972 33.885460 0.996358
v -25.148384 35.191929 0.996358
v -25.148384 33.885460 -0.595249
v -25.148384 35.191929 -2.186856
v -0.023972 35.191929 -0.595249
v -0.023972 33.885460 -2.186856
vt 0.516150 0.433710
vt 0.516150 0.433710
vt 0.500000 0.433710
vt 0.483850 0.433710
vt 0.483850 0.433710
vt 0.500000 0.500000
vt 0.483850 0.566290
vt 0.516150 0.566290
vt 0.516150 0.500000
vt 0.516150 0.566290
vt 0.500000 0.500000
vt 0.483850 0.566290
vt 0.500000 0.566290
vt 0.483850 0.500000
vn 0.5773 -0.5773 0.5773
vn -0.5773 -0.5773 0.5773
vn 0.0000 -1.0000 0.0000
vn 0.5773 -0.5773 -0.5773
vn -0.5773 -0.5773 -0.5773
vn 1.0000 0.0000 0.0000
vn 0.5773 0.5773 -0.5773
vn 0.5773 0.5773 0.5773
vn 0.0000 0.0000 1.0000
vn -0.5773 0.5773 0.5773
vn -1.0000 0.0000 0.0000
vn -0.5773 0.5773 -0.5773
vn 0.0000 1.0000 0.0000
vn 0.0000 0.0000 -1.0000
usemtl darkwood
s 1
f 15/15/15 16/16/16 17/17/17
f 18/18/18 15/15/15 17/17/17
f 19/19/19 18/18/18 17/17/17
f 16/16/16 19/19/19 17/17/17
f 15/15/15 18/18/18 20/20/20
f 18/18/18 21/21/21 20/20/20
f 21/21/21 22/22/22 20/20/20
f 22/22/22 15/15/15 20/20/20
f 16/16/16 15/15/15 23/23/23
f 15/15/15 22/22/22 23/23/23
f 22/22/22 24/24/24 23/23/23
f 24/24/24 16/16/16 23/23/23
f 19/19/19 16/16/16 25/25/25
f 16/16/16 24/24/24 25/25/25
f 24/24/24 26/26/26 25/25/25
f 26/26/26 19/19/19 25/25/25
f 24/24/24 22/22/22 27/27/27
f 22/22/22 21/21/21 27/27/27
f 21/21/21 26/26/26 27/27/27
f 26/26/26 24/24/24 27/27/27
f 18/18/18 19/19/19 28/28/28
f 19/19/19 26/26/26 28/28/28
f 26/26/26 21/21/21 28/28/28
f 21/21/21 18/18/18 28/28/28
o Cube_4_1
v 28.859253 38.678013 0.868273
v -29.143661 38.678013 0.868273
v -0.142203 38.678013 -0.536329
v 28.859253 38.678013 -1.940735
v -29.143661 38.678013 -1.940735
v 28.859253 41.821030 -0.536329
v 28.859253 44.964043 -1.940734
v 28.859253 44.964043 0.868274
v -0.142203 41.821030 0.868274
v -29.143661 44.964043 0.868274
v -29.143661 41.821030 -0.536329
v -29.143661 44.964043 -1.940734
v -0.142203 44.964043 -0.536328
v -0.142203 41.821030 -1.940735
vt -0.428720 -0.531900
vt -0.428720 -0.531900
vt -0.500000 -0.531900
vt -0.571280 -0.531900
vt -0.571280 -0.531900
vt -0.500000 -0.500000
vt -0.571280 -0.468100
vt -0.428720 -0.468100
vt -0.428720 -0.500000
vt -0.428720 -0.468100
vt -0.500000 -0.500000
vt -0.571280 -0.468100
vt -0.500000 -0.468100
vt -0.571280 -0.500000
vn 0.5773 -0.5773 0.5773
vn -0.5773 -0.5773 0.5773
vn 0.0000 -1.0000 0.0000
vn 0.5773 -0.5773 -0.5773
vn -0.5773 -0.5773 -0.5773
vn 1.0000 0.0000 0.0000
vn 0.5773 0.5773 -0.5773
vn 0.5773 0.5773 0.5773
vn 0.0000 0.0000 1.0000
vn -0.5773 0.5773 0.5773
vn -1.0000 0.0000 0.0000
vn -0.5773 0.5773 -0.5773
vn 0.0000 1.0000 0.0000
vn 0.0000 0.0000 -1.0000
usemtl darkwood
s 1
f 29/29/29 30/30/30 31/31/31
f 32/32/32 29/29/29 31/31/31
f 33/33/33 32/32/32 31/31/31
f 30/30/30 33/33/33 31/31/31
f 29/29/29 32/32/32 34/34/34
f 32/32/32 35/35/35 34/34/34
f 35/35/35 36/36/36 34/34/34
f 36/36/36 29/29/29 34/34/34
f 30/30/30 29/29/29 37/37/37
f 29/29/29 36/36/36 37/37/37
f 36/36/36 38/38/38 37/37/37
f 38/38/38 30/30/30 37/37/37
f 33/33/33 30/30/30 39/39/39
f 30/30/30 38/38/38 39/39/39
f 38/38/38 40/40/40 39/39/39
f 40/40/40 33/33/33 39/39/39
f 38/38/38 36/36/36 41/41/41
f 36/36/36 35/35/35 41/41/41
f 35/35/35 40/40/40 41/41/41
f 40/40/40 38/38/38 41/41/41
f 32/32/32 33/33/33 42/42/42
f 33/33/33 40/40/40 42/42/42
f 40/40/40 35/35/35 42/42/42
f 35/35/35 32/32/32 42/42/42
o innerpane4
v -17.266214 -39.936768 1.079700
v -19.433809 -39.936768 1.079700
v -18.350014 -39.936768 -0.496734
v -17.266214 -39.936768 -2.073168
v -19.433809 -39.936768 -2.073168
v -17.266214 0.163765 -0.496728
v -17.266214 40.264297 -2.073155
v -17.266214 40.264297 1.079713
v -18.350014 0.163765 1.079706
v -19.433809 40.264297 1.079713
v -19.433809 0.163765 -0.496728
v -19.433809 40.264297 -2.073155
v -18.350014 40.264297 -0.496721
v -18.350014 0.163766 -2.073162
vt 0.555000 0.484000
vt 0.445000 0.484000
vt 0.500000 0.500000
vt 0.555000 0.516000
vt 0.445000 0.516000
vt 0.555000 0.500000
vt 0.555000 0.516000
vt 0.555000 0.484000
vt 0.500000 0.484000
vt 0.445000 0.484000
vt 0.445000 0.500000
vt 0.445000 0.516000
vt 0.500000 0.500000
vt 0.500000 0.516000
vn 0.5773 -0.5773 0.5773
vn -0.5773 -0.5773 0.5773
vn 0.0000 -1.0000 0.0000
vn 0.5773 -0.5773 -0.5773
vn -0.5773 -0.5773 -0.5773
vn 1.0000 0.0000 0.0000
vn 0.5773 0.5773 -0.5773
vn 0.5773 0.5773 0.5773
vn 0.0000 0.0000 1.0000
vn -0.5773 0.5773 0.5773
vn -1.0000 0.0000 0.0000
vn -0.5773 0.5773 -0.5773
vn 0.0000 1.0000 0.0000
vn 0.0000 0.0000 -1.0000
usemtl darkwood
s 1
f 43/43/43 44/44/44 45/45/45
f 46/46/46 43/43/43 45/45/45
f 47/47/47 46/46/46 45/45/45
f 44/44/44 47/47/47 45/45/45
f 43/43/43 46/46/46 48/48/48
f 46/46/46 49/49/49 48/48/48
f 49/49/49 50/50/50 48/48/48
f 50/50/50 43/43/43 48/48/48
f 44/44/44 43/43/43 51/51/51
f 43/43/43 50/50/50 51/51/51
f 50/50/50 52/52/52 51/51/51
f 52/52/52 44/44/44 51/51/51
f 47/47/47 44/44/44 53/53/53
f 44/44/44 52/52/52 53/53/53
f 52/52/52 54/54/54 53/53/53
f 54/54/54 47/47/47 53/53/53
f 52/52/52 50/50/50 55/55/55
f 50/50/50 49/49/49 55/55/55
f 49/49/49 54/54/54 55/55/55
f 54/54/54 52/52/52 55/55/55
f 46/46/46 47/47/47 56/56/56
f 47/47/47 54/54/54 56/56/56
f 54/54/54 49/49/49 56/56/56
f 49/49/49 46/46/46 56/56/56
o Cube_4
v 28.938076 -45.611935 0.957525
v -29.064835 -45.611935 0.957525
v -0.063382 -45.611935 -0.454369
v 28.938076 -45.611935 -1.866262
v -29.064835 -45.611935 -1.866262
v 28.938076 -42.468918 -0.454368
v 28.938076 -39.325905 -1.866261
v 28.938076 -39.325905 0.957526
v -0.063382 -42.468918 0.957525
v -29.064835 -39.325905 0.957526
v -29.064835 -42.468918 -0.454368
v -29.064835 -39.325905 -1.866261
v -0.063382 -39.325905 -0.454368
v -0.063382 -42.468918 -1.866262
vt -0.428350 -0.517720
vt -0.428350 -0.517720
vt -0.500000 -0.517720
vt -0.571650 -0.517720
vt -0.571650 -0.517720
vt -0.500000 -0.500000
vt -0.571650 -0.482280
vt -0.428350 -0.482280
vt -0.428350 -0.500000
vt -0.428350 -0.482280
vt -0.500000 -0.500000
vt -0.571650 -0.482280
vt -0.500000 -0.482280
vt -0.571650 -0.500000
vn 0.5773 -0.5773 0.5773
vn -0.5773 -0.5773 0.5773
vn 0.0000 -1.0000 0.0000
vn 0.5773 -0.5773 -0.5773
vn -0.5773 -0.5773 -0.5773
vn 1.0000 0.0000 0.0000
vn 0.5773 0.5773 -0.5773
vn 0.5773 0.5773 0.5773
vn 0.0000 0.0000 1.0000
vn -0.5773 0.5773 0.5773
vn -1.0000 0.0000 0.0000
vn -0.5773 0.5773 -0.5773
vn 0.0000 1.0000 0.0000
vn 0.0000 0.0000 -1.0000
usemtl darkwood
s 1
f 57/57/57 58/58/58 59/59/59
f 60/60/60 57/57/57 59/59/59
f 61/61/61 60/60/60 59/59/59
f 58/58/58 61/61/61 59/59/59
f 57/57/57 60/60/60 62/62/62
f 60/60/60 63/63/63 62/62/62
f 63/63/63 64/64/64 62/62/62
f 64/64/64 57/57/57 62/62/62
f 58/58/58 57/57/57 65/65/65
f 57/57/57 64/64/64 65/65/65
f 64/64/64 66/66/66 65/65/65
f 66/66/66 58/58/58 65/65/65
f 61/61/61 58/58/58 67/67/67
f 58/58/58 66/66/66 67/67/67
f 66/66/66 68/68/68 67/67/67
f 68/68/68 61/61/61 67/67/67
f 66/66/66 64/64/64 69/69/69
f 64/64/64 63/63/63 69/69/69
f 63/63/63 68/68/68 69/69/69
f 68/68/68 66/66/66 69/69/69
f 60/60/60 61/61/61 70/70/70
f 61/61/61 68/68/68 70/70/70
f 68/68/68 63/63/63 70/70/70
f 63/63/63 60/60/60 70/70/70
o Cube_5_1
v -23.087986 -45.040478 0.679678
v -29.088289 -45.040478 0.679678
v -26.088142 -45.040478 -0.620288
v -23.087986 -45.040478 -1.920453
v -29.088289 -45.040478 -1.920453
v -23.087986 -0.038215 -0.620281
v -23.087986 44.964043 -1.920438
v -23.087986 44.964043 0.679693
v -26.088142 -0.038215 0.679685
v -29.088289 44.964043 0.679693
v -29.088289 -0.038215 -0.620281
v -29.088289 44.964043 -1.920438
v -26.088142 44.964043 -0.620274
v -26.088142 -0.038215 -1.920445
vt -0.469550 -0.565980
vt -0.530450 -0.565980
vt -0.500000 -0.500000
vt -0.469550 -0.434030
vt -0.530450 -0.434030
vt -0.469550 -0.500000
vt -0.469550 -0.434020
vt -0.469550 -0.565970
vt -0.500000 -0.565980
vt -0.530450 -0.565970
vt -0.530450 -0.500000
vt -0.530450 -0.434020
vt -0.500000 -0.500000
vt -0.500000 -0.434020
vn 0.5773 -0.5773 0.5773
vn -0.5773 -0.5773 0.5773
vn 0.0000 -1.0000 0.0000
vn 0.5773 -0.5773 -0.5773
vn -0.5773 -0.5773 -0.5773
vn 1.0000 0.0000 0.0000
vn 0.5773 0.5773 -0.5773
vn 0.5773 0.5773 0.5773
vn 0.0000 0.0000 1.0000
vn -0.5773 0.5773 0.5773
vn -1.0000 0.0000 0.0000
vn -0.5773 0.5773 -0.5773
vn 0.0000 1.0000 0.0000
vn 0.0000 0.0000 -1.0000
usemtl darkwood
s 1
f 71/71/71 72/72/72 73/73/73
f 74/74/74 71/71/71 73/73/73
f 75/75/75 74/74/74 73/73/73
f 72/72/72 75/75/75 73/73/73
f 71/71/71 74/74/74 76/76/76
f 74/74/74 77/77/77 76/76/76
f 77/77/77 78/78/78 76/76/76
f 78/78/78 71/71/71 76/76/76
f 72/72/72 71/71/71 79/79/79
f 71/71/71 78/78/78 79/79/79
f 78/78/78 80/80/80 79/79/79
f 80/80/80 72/72/72 79/79/79
f 75/75/75 72/72/72 81/81/81
f 72/72/72 80/80/80 81/81/81
f 80/80/80 82/82/82 81/81/81
f 82/82/82 75/75/75 81/81/81
f 80/80/80 78/78/78 83/83/83
f 78/78/78 77/77/77 83/83/83
f 77/77/77 82/82/82 83/83/83
f 82/82/82 80/80/80 83/83/83
f 74/74/74 75/75/75 84/84/84
f 75/75/75 82/82/82 84/84/84
f 82/82/82 77/77/77 84/84/84
f 77/77/77 74/74/74 84/84/84
o sweethome3d_window_pane
v 24.509279 -39.739712 0.537012
v -23.966059 -39.739712 0.537012
v 0.271608 -39.739712 -0.497523
v 24.509279 -39.739712 -1.532058
v -23.966059 -39.739712 -1.532058
v 24.509279 -0.033289 -0.497516
v 24.509279 39.673141 -1.532045
v 24.509279 39.673141 0.537025
v 0.271608 -0.033289 0.537018
v -23.966059 39.673141 0.537025
v -23.966059 -0.033289 -0.497516
v -23.966059 39.673141 -1.532045
v 0.271608 39.673141 -0.497510
v 0.271608 -0.033289 -1.532051
vt 0.000000 0.000000
vt 1.000000 0.000000
vt 1.000000 1.000000
vt 0.000000 0.000000
vt 1.000000 0.000000
vt 0.000000 0.000000
vt 1.000000 0.000000
vt 0.000000 0.000000
vt 1.000000 0.000000
vt 1.000000 1.000000
vt 1.000000 0.000000
vt 0.000000 0.000000
vt 1.000000 0.000000
vt 0.000000 0.000000
vt 1.000000 1.000000
vt 1.000000 0.000000
vt 0.000000 0.000000
vt 1.000000 1.000000
vt 1.000000 0.000000
vt 0.000000 0.000000
vt 1.000000 1.000000
vt 1.000000 1.000000
vn 0.5773 -0.5773 0.5773
vn -0.5773 -0.5773 0.5773
vn 0.0000 -1.0000 0.0000
vn 0.5773 -0.5773 -0.5773
vn -0.5773 -0.5773 -0.5773
vn 1.0000 0.0000 0.0000
vn 0.5773 0.5773 -0.5773
vn 0.5773 0.5773 0.5773
vn 0.0000 0.0000 1.0000
vn -0.5773 0.5773 0.5773
vn -1.0000 0.0000 0.0000
vn -0.5773 0.5773 -0.5773
vn 0.0000 1.0000 0.0000
vn 0.0000 0.0000 -1.0000
usemtl glass
s 1
f 85/85/85 86/86/86 87/87/87
f 88/88/88 85/89/85 87/87/87
f 89/90/89 88/91/88 87/87/87
f 86/92/86 89/93/89 87/87/87
f 85/85/85 88/91/88 90/94/90
f 88/88/88 91/95/91 90/94/90
f 91/96/91 92/97/92 90/94/90
f 92/98/92 85/89/85 90/94/90
f 86/92/86 85/89/85 93/99/93
f 85/85/85 92/97/92 93/99/93
f 92/98/92 94/100/94 93/99/93
f 94/101/94 86/86/86 93/99/93
f 89/90/89 86/86/86 95/102/95
f 86/92/86 94/100/94 95/102/95
f 94/101/94 96/103/96 95/102/95
f 96/104/96 89/93/89 95/102/95
f 94/101/94 92/97/92 97/105/97
f 92/98/92 91/95/91 97/105/97
f 91/96/91 96/103/96 97/105/97
f 96/104/96 94/100/94 97/105/97
f 88/88/88 89/93/89 98/106/98
f 89/90/89 96/103/96 98/106/98
f 96/104/96 91/95/91 98/106/98
f 91/96/91 88/91/88 98/106/98
o innerpane3
v 19.385870 -39.936768 1.079700
v 17.218275 -39.936768 1.079700
v 18.302071 -39.936768 -0.496734
v 19.385870 -39.936768 -2.073168
v 17.218275 -39.936768 -2.073168
v 19.385870 0.163765 -0.496728
v 19.385870 40.264297 -2.073155
v 19.385870 40.264297 1.079713
v 18.302071 0.163765 1.079706
v 17.218275 40.264297 1.079713
v 17.218275 0.163765 -0.496728
v 17.218275 40.264297 -2.073155
v 18.302071 40.264297 -0.496721
v 18.302071 0.163766 -2.073162
vt -0.445000 -0.508890
vt -0.555000 -0.508890
vt -0.500000 -0.500000
vt -0.445000 -0.491110
vt -0.555000 -0.491110
vt -0.445000 -0.500000
vt -0.445000 -0.491110
vt -0.445000 -0.508890
vt -0.500000 -0.508890
vt -0.555000 -0.508890
vt -0.555000 -0.500000
vt -0.555000 -0.491110
vt -0.500000 -0.500000
vt -0.500000 -0.491110
vn 0.5773 -0.5773 0.5773
vn -0.5773 -0.5773 0.5773
vn 0.0000 -1.0000 0.0000
vn 0.5773 -0.5773 -0.5773
vn -0.5773 -0.5773 -0.5773
vn 1.0000 0.0000 0.0000
vn 0.5773 0.5773 -0.5773
vn 0.5773 0.5773 0.5773
vn 0.0000 0.0000 1.0000
vn -0.5773 0.5773 0.5773
vn -1.0000 0.0000 0.0000
vn -0.5773 0.5773 -0.5773
vn 0.0000 1.0000 0.0000
vn 0.0000 0.0000 -1.0000
usemtl darkwood
s 1
f 99/107/99 100/108/100 101/109/101
f 102/110/102 99/107/99 101/109/101
f 103/111/103 102/110/102 101/109/101
f 100/108/100 103/111/103 101/109/101
f 99/107/99 102/110/102 104/112/104
f 102/110/102 105/113/105 104/112/104
f 105/113/105 106/114/106 104/112/104
f 106/114/106 99/107/99 104/112/104
f 100/108/100 99/107/99 107/115/107
f 99/107/99 106/114/106 107/115/107
f 106/114/106 108/116/108 107/115/107
f 108/116/108 100/108/100 107/115/107
f 103/111/103 100/108/100 109/117/109
f 100/108/100 108/116/108 109/117/109
f 108/116/108 110/118/110 109/117/109
f 110/118/110 103/111/103 109/117/109
f 108/116/108 106/114/106 111/119/111
f 106/114/106 105/113/105 111/119/111
f 105/113/105 110/118/110 111/119/111
f 110/118/110 108/116/108 111/119/111
f 102/110/102 103/111/103 112/120/112
f 103/111/103 110/118/110 112/120/112
f 110/118/110 105/113/105 112/120/112
f 105/113/105 102/110/102 112/120/112
o innerpane1
v 25.100443 -34.975540 0.940974
v -25.148384 -34.975540 0.940974
v -0.023972 -34.975540 -0.536933
v 25.100443 -34.975540 -2.014840
v -25.148384 -34.975540 -2.014840
v 25.100443 -33.891739 -0.536933
v 25.100443 -32.807941 -2.014840
v 25.100443 -32.807941 0.940974
v -0.023972 -33.891739 0.940974
v -25.148384 -32.807941 0.940974
v -25.148384 -33.891739 -0.536933
v -25.148384 -32.807941 -2.014840
v -0.023972 -32.807941 -0.536933
v -0.023972 -33.891739 -2.014840
vt 0.515000 0.445000
vt 0.515000 0.445000
vt 0.500000 0.445000
vt 0.485000 0.445000
vt 0.485000 0.445000
vt 0.500000 0.500000
vt 0.485000 0.555000
vt 0.515000 0.555000
vt 0.515000 0.500000
vt 0.515000 0.555000
vt 0.500000 0.500000
vt 0.485000 0.555000
vt 0.500000 0.555000
vt 0.485000 0.500000
vn 0.5773 -0.5773 0.5773
vn -0.5773 -0.5773 0.5773
vn 0.0000 -1.0000 0.0000
vn 0.5773 -0.5773 -0.5773
vn -0.5773 -0.5773 -0.5773
vn 1.0000 0.0000 0.0000
vn 0.5773 0.5773 -0.5773
vn 0.5773 0.5773 0.5773
vn 0.0000 0.0000 1.0000
vn -0.5773 0.5773 0.5773
vn -1.0000 0.0000 0.0000
vn -0.5773 0.5773 -0.5773
vn 0.0000 1.0000 0.0000
vn 0.0000 0.0000 -1.0000
usemtl darkwood
s 1
f 113/121/113 114/122/114 115/123/115
f 116/124/116 113/121/113 115/123/115
f 117/125/117 116/124/116 115/123/115
f 114/122/114 117/125/117 115/123/115
f 113/121/113 116/124/116 118/126/118
f 116/124/116 119/127/119 118/126/118
f 119/127/119 120/128/120 118/126/118
f 120/128/120 113/121/113 118/126/118
f 114/122/114 113/121/113 121/129/121
f 113/121/113 120/128/120 121/129/121
f 120/128/120 122/130/122 121/129/121
f 122/130/122 114/122/114 121/129/121
f 117/125/117 114/122/114 123/131/123
f 114/122/114 122/130/122 123/131/123
f 122/130/122 124/132/124 123/131/123
f 124/132/124 117/125/117 123/131/123
f 122/130/122 120/128/120 125/133/125
f 120/128/120 119/127/119 125/133/125
f 119/127/119 124/132/124 125/133/125
f 124/132/124 122/130/122 125/133/125
f 116/124/116 117/125/117 126/134/126
f 117/125/117 124/132/124 126/134/126
f 124/132/124 119/127/119 126/134/126
f 119/127/119 116/124/116 126/134/126
