{
  "accessors": [
    {
      "bufferView": 2,
      "componentType": 5126,
      "count": 2476,
      "max": [
        15.075092315673828,
        13.458223342895508,
        44.994907379150391
      ],
      "min": [
        -11.905153274536133,
        -15.263011932373047,
        1.3848693370819092
      ],
      "type": "VEC3"
    },
    {
      "bufferView": 2,
      "byteOffset": 29712,
      "componentType": 5126,
      "count": 2476,
      "max": [
        1,
        1,
        1
      ],
      "min": [
        -1,
        -1,
        -1
      ],
      "type": "VEC3"
    },
    {
      "bufferView": 3,
      "componentType": 5126,
      "count": 2476,
      "max": [
        1,
        1,
        0.99880951642990112,
        1
      ],
      "min": [
        -1,
        -1,
        -0.99923181533813477,
        1
      ],
      "type": "VEC4"
    },
    {
      "bufferView": 1,
      "componentType": 5126,
      "count": 2476,
      "max": [
        0.99950003623962402,
        0.99827927350997925
      ],
      "min": [
        0.00050000002374872565,
        0.00050000002374872565
      ],
      "type": "VEC2"
    },
    {
      "bufferView": 0,
      "componentType": 5125,
      "count": 8712,
      "max": [
        2475
      ],
      "min": [
        0
      ],
      "type": "SCALAR"
    },
    {
      "bufferView": 2,
      "byteOffset": 59424,
      "componentType": 5126,
      "count": 492,
      "max": [
        10.133762359619141,
        10.133762359619141,
        15.253019332885742
      ],
      "min": [
        -10.133762359619141,
        -10.133762359619141,
        14.41926383972168
      ],
      "type": "VEC3"
    },
    {
      "bufferView": 2,
      "byteOffset": 65328,
      "componentType": 5126,
      "count": 492,
      "max": [
        1,
        1,
        1
      ],
      "min": [
        -1,
        -1,
        -1
      ],
      "type": "VEC3"
    },
    {
      "bufferView": 3,
      "byteOffset": 39616,
      "componentType": 5126,
      "count": 492,
      "max": [
        1,
        1,
        0.69700121879577637,
        1
      ],
      "min": [
        -1,
        -1,
        -1,
        1
      ],
      "type": "VEC4"
    },
    {
      "bufferView": 1,
      "byteOffset": 19808,
      "componentType": 5126,
      "count": 492,
      "max": [
        0.95572435855865479,
        0.74396401643753052
      ],
      "min": [
        0.23489001393318176,
        0.00050000002374872565
      ],
      "type": "VEC2"
    },
    {
      "bufferView": 0,
      "byteOffset": 34848,
      "componentType": 5125,
      "count": 1512,
      "max": [
        491
      ],
      "min": [
        0
      ],
      "type": "SCALAR"
    },
    {
      "bufferView": 2,
      "byteOffset": 71232,
      "componentType": 5126,
      "count": 307,
      "max": [
        15.479180335998535,
        1.1084082126617432,
        16.303291320800781
      ],
      "min": [
        10.106166839599609,
        -2.4189233779907227,
        11.736936569213867
      ],
      "type": "VEC3"
    },
    {
      "bufferView": 2,
      "byteOffset": 74916,
      "componentType": 5126,
      "count": 307,
      "max": [
        1,
        0.99667763710021973,
        0.99619472026824951
      ],
      "min": [
        -1,
        -0.99687737226486206,
        -0.99619472026824951
      ],
      "type": "VEC3"
    },
    {
      "bufferView": 3,
      "byteOffset": 47488,
      "componentType": 5126,
      "count": 307,
      "max": [
        0.99996978044509888,
        0.9984123706817627,
        0.89102107286453247,
        1
      ],
      "min": [
        -0.99994111061096191,
        -0.99195778369903564,
        -0.86964505910873413,
        1
      ],
      "type": "VEC4"
    },
    {
      "bufferView": 1,
      "byteOffset": 23744,
      "componentType": 5126,
      "count": 307,
      "max": [
        0.70039141178131104,
        0.94039630889892578
      ],
      "min": [
        0.28272470831871033,
        0.0052834693342447281
      ],
      "type": "VEC2"
    },
    {
      "bufferView": 0,
      "byteOffset": 40896,
      "componentType": 5125,
      "count": 1290,
      "max": [
        306
      ],
      "min": [
        0
      ],
      "type": "SCALAR"
    },
    {
      "bufferView": 4,
      "componentType": 5126,
      "count": 241,
      "max": [
        8
      ],
      "min": [
        0
      ],
      "type": "SCALAR"
    },
    {
      "bufferView": 5,
      "componentType": 5126,
      "count": 241,
      "max": [
        0.49795052409172058,
        0.70710676908493042,
        0.70710676908493042,
        0.70710676908493042
      ],
      "min": [
        -0.70710676908493042,
        -0.49999973177909851,
        -0.49999973177909851,
        -0.49795052409172058
      ],
      "type": "VEC4"
    },
    {
      "bufferView": 4,
      "byteOffset": 964,
      "componentType": 5126,
      "count": 136,
      "max": [
        4.5
      ],
      "min": [
        0
      ],
      "type": "SCALAR"
    },
    {
      "bufferView": 5,
      "byteOffset": 3856,
      "componentType": 5126,
      "count": 136,
      "max": [
        0.99998003244400024,
        0,
        0,
        0.99993377923965454
      ],
      "min": [
        -0.85160571336746216,
        0,
        0,
        -0.48726484179496765
      ],
      "type": "VEC4"
    }
  ],
  "animations": [
    {
      "channels": [
        {
          "sampler": 0,
          "target": {
            "node": 8,
            "path": "rotation"
          }
        },
        {
          "sampler": 1,
          "target": {
            "node": 11,
            "path": "rotation"
          }
        }
      ],
      "name": "Gramofon_Anim",
      "samplers": [
        {
          "input": 15,
          "interpolation": "LINEAR",
          "output": 16
        },
        {
          "input": 17,
          "interpolation": "LINEAR",
          "output": 18
        }
      ]
    }
  ],
  "asset": {
    "extras": {
      "author": "kifir (https://sketchfab.com/kifir)",
      "license": "CC-BY-4.0 (http://creativecommons.org/licenses/by/4.0/)",
      "source": "https://sketchfab.com/3d-models/old-gramophone-5e892fc786db4ca1b36738ab5e40e64d",
      "title": "Old Gramophone"
    },
    "generator": "Sketchfab-6.17.1",
    "version": "2.0"
  },
  "bufferViews": [
    {
      "buffer": 0,
      "byteLength": 46056,
      "byteOffset": 0,
      "name": "floatBufferViews",
      "target": 34963
    },
    {
      "buffer": 0,
      "byteLength": 26200,
      "byteOffset": 46056,
      "byteStride": 8,
      "name": "floatBufferViews",
      "target": 34962
    },
    {
      "buffer": 0,
      "byteLength": 78600,
      "byteOffset": 72256,
      "byteStride": 12,
      "name": "floatBufferViews",
      "target": 34962
    },
    {
      "buffer": 0,
      "byteLength": 52400,
      "byteOffset": 150856,
      "byteStride": 16,
      "name": "floatBufferViews",
      "target": 34962
    },
    {
      "buffer": 0,
      "byteLength": 1508,
      "byteOffset": 203256,
      "name": "floatBufferViews"
    },
    {
      "buffer": 0,
      "byteLength": 6032,
      "byteOffset": 204764,
      "byteStride": 16,
      "name": "floatBufferViews"
    }
  ],
  "buffers": [
    {
      "byteLength": 210796,
      "uri": "scene.bin"
    }
  ],
  "images": [
    {
      "uri": "textures/Scene_-_Root_baseColor.png"
    },
    {
      "uri": "textures/Scene_-_Root_metallicRoughness.png"
    },
    {
      "uri": "textures/Scene_-_Root_normal.png"
    }
  ],
  "materials": [
    {
      "doubleSided": true,
      "name": "Scene_-_Root",
      "normalTexture": {
        "index": 2,
        "scale": 1,
        "texCoord": 0
      },
      "occlusionTexture": {
        "index": 1,
        "strength": 0.61756859760000005,
        "texCoord": 0
      },
      "pbrMetallicRoughness": {
        "baseColorFactor": [
          1,
          1,
          1,
          1
        ],
        "baseColorTexture": {
          "index": 0,
          "texCoord": 0
        },
        "metallicFactor": 1,
        "metallicRoughnessTexture": {
          "index": 1,
          "texCoord": 0
        },
        "roughnessFactor": 1
      }
    }
  ],
  "meshes": [
    {
      "name": "Gromofon__0",
      "primitives": [
        {
          "attributes": {
            "NORMAL": 1,
            "POSITION": 0,
            "TANGENT": 2,
            "TEXCOORD_0": 3
          },
          "indices": 4,
          "material": 0,
          "mode": 4
        }
      ]
    },
    {
      "name": "Object001__0",
      "primitives": [
        {
          "attributes": {
            "NORMAL": 6,
            "POSITION": 5,
            "TANGENT": 7,
            "TEXCOORD_0": 8
          },
          "indices": 9,
          "material": 0,
          "mode": 4
        }
      ]
    },
    {
      "name": "Object002__0",
      "primitives": [
        {
          "attributes": {
            "NORMAL": 11,
            "POSITION": 10,
            "TANGENT": 12,
            "TEXCOORD_0": 13
          },
          "indices": 14,
          "material": 0,
          "mode": 4
        }
      ]
    }
  ],
  "nodes": [
    {
      "children": [
        1
      ],
      "name": "RootNode (gltf orientation matrix)",
      "rotation": [
        -0.70710678118654746,
        -0,
        -0,
        0.70710678118654757
      ]
    },
    {
      "children": [
        2
      ],
      "name": "RootNode (model correction matrix)"
    },
    {
      "children": [
        3
      ],
      "matrix": [
        1,
        0,
        0,
        0,
        0,
        0,
        1,
        0,
        0,
        -1,
        0,
        0,
        0,
        0,
        0,
        1
      ],
      "name": "2116c92d38514993b56b4ca3412cb887.fbx"
    },
    {
      "children": [
        4
      ],
      "name": ""
    },
    {
      "children": [
        5,
        8,
        11
      ],
      "name": "RootNode"
    },
    {
      "children": [
        6
      ],
      "name": "Gromofon",
      "rotation": [
        -0.7071068286895752,
        -0,
        0,
        0.7071068286895752
      ],
      "scale": [
        0.96274197101593018,
        0.96274197101593018,
        0.96274197101593018
      ],
      "translation": [
        -14.723594665527344,
        11.87654972076416,
        2.6200604438781738
      ]
    },
    {
      "children": [
        7
      ],
      "matrix": [
        1,
        0,
        -0,
        0,
        0,
        1,
        0,
        0,
        0,
        0,
        1,
        0,
        0,
        0,
        -14.341459274291992,
        1
      ],
      "name": ""
    },
    {
      "mesh": 0,
      "name": "Gromofon__0"
    },
    {
      "children": [
        9
      ],
      "name": "Object001",
      "rotation": [
        -0.7071068286895752,
        -0,
        0,
        0.7071068286895752
      ],
      "scale": [
        0.96274197101593018,
        0.96274197101593018,
        0.96274197101593018
      ],
      "translation": [
        -14.723594665527344,
        11.87654972076416,
        2.6200604438781738
      ]
    },
    {
      "children": [
        10
      ],
      "matrix": [
        1,
        0,
        -0,
        0,
        0,
        1,
        0,
        0,
        0,
        0,
        1,
        0,
        0,
        0,
        -14.341459274291992,
        1
      ],
      "name": ""
    },
    {
      "mesh": 1,
      "name": "Object001__0"
    },
    {
      "children": [
        12
      ],
      "name": "Object002",
      "rotation": [
        0.70710670948028564,
        0,
        0,
        0.7071068286895752
      ],
      "scale": [
        0.96274197101593018,
        0.96274197101593018,
        0.96274197101593018
      ],
      "translation": [
        -4.8824310302734375,
        9.6674871444702148,
        4.6438002586364746
      ]
    },
    {
      "children": [
        13
      ],
      "matrix": [
        1,
        0,
        -0,
        0,
        0,
        1,
        0,
        0,
        0,
        0,
        1,
        0,
        -10.222015380859375,
        2.102057933807373,
        -12.046906471252441,
        1
      ],
      "name": ""
    },
    {
      "mesh": 2,
      "name": "Object002__0"
    }
  ],
  "samplers": [
    {
      "magFilter": 9729,
      "minFilter": 9987,
      "wrapS": 10497,
      "wrapT": 10497
    }
  ],
  "scene": 0,
  "scenes": [
    {
      "name": "OSG_Scene",
      "nodes": [
        0
      ]
    }
  ],
  "textures": [
    {
      "sampler": 0,
      "source": 0
    },
    {
      "sampler": 0,
      "source": 1
    },
    {
      "sampler": 0,
      "source": 2
    }
  ]
}

