# This file uses meters as units for non-parametric coordinates.

v -0.465361 -0.166581 0.437315
v 0.465361 -0.166581 0.437315
v -0.343767 0.254575 0.323050
v 0.343764 0.254575 0.323050
v -0.343767 0.254575 -0.323050
v 0.343764 0.254575 -0.323050
v -0.465361 -0.166581 -0.437315
v 0.465361 -0.166581 -0.437315
v -0.465361 0.000000 0.437315
v 0.465361 0.000000 0.437315
v 0.465361 0.000000 -0.437315
v -0.465361 0.000000 -0.437315
vt 0.274931 0.415308
vt 0.274931 0.415308
vt 0.274931 0.415308
vt 0.274931 0.415308
vt 0.313635 0.415478
vt 0.313635 0.415478
vt 0.313635 0.415478
vt 0.313635 0.415478
vt 0.274931 0.415308
vt 0.274931 0.415308
vt 0.274931 0.415308
vt 0.274931 0.415308
vt 0.220211 0.416158
vt 0.220211 0.416158
vt 0.220211 0.416158
vt 0.220211 0.416158
vt 0.220212 0.416158
vt 0.220212 0.416158
vt 0.220212 0.416158
vt 0.220212 0.416158
vt 0.274931 0.415308
vt 0.220212 0.416158
vt 0.274931 0.415308
vt 0.220211 0.416158
vt 0.274931 0.415308
vt 0.220211 0.416158
vt 0.274931 0.415308
vt 0.220212 0.416158
vn 0.000000 0.409488 0.912315
vn 0.000000 0.409488 0.912315
vn 0.000000 0.409488 0.912315
vn 0.000000 0.409488 0.912315
vn 0.000000 1.000000 0.000000
vn 0.000000 1.000000 0.000000
vn 0.000000 1.000000 0.000000
vn 0.000000 1.000000 0.000000
vn 0.000000 0.409488 -0.912315
vn 0.000000 0.409488 -0.912315
vn 0.000000 0.409488 -0.912315
vn 0.000000 0.409488 -0.912315
vn 0.902351 0.431002 0.000000
vn 0.902351 0.431002 0.000000
vn 0.902351 0.431003 0.000000
vn 0.902351 0.431003 0.000000
vn -0.902355 0.430994 0.000000
vn -0.902355 0.430994 0.000000
vn -1.000000 0.000000 0.000000
vn -1.000000 0.000000 0.000000
vn 0.000000 0.409488 0.912315
vn 0.000000 0.409488 0.912315
vn 0.000000 0.000000 1.000000
vn 0.000000 0.000000 1.000000
vn 0.902351 0.431003 0.000000
vn 0.902351 0.431003 0.000000
vn 1.000000 0.000000 0.000000
vn 1.000000 0.000000 0.000000
vn 0.000000 0.000000 -1.000000
vn 0.000000 0.000000 -1.000000
vn 0.000000 0.409488 -0.912315
vn 0.000000 0.409488 -0.912315
vn -0.902355 0.430994 0.000000
vn -0.902355 0.430994 0.000000
vn -0.902355 0.430994 0.000000
vn -0.902355 0.430994 0.000000
s off
f 9/21/1 10/23/2 4/3/3 3/4/4
f 3/5/5 4/6/6 6/7/7 5/8/8
f 5/9/9 6/10/10 11/25/11 12/27/12
f 10/24/13 11/26/14 6/15/15 4/16/16
f 7/17/17 1/18/18 9/22/19 12/28/20
f 1/1/21 2/2/22 10/23/23 9/21/24
f 2/13/25 8/14/26 11/26/27 10/24/28
f 12/27/29 11/25/30 8/11/31 7/12/32
f 12/28/33 9/22/34 3/19/35 5/20/36
