# This file uses meters as units for non-parametric coordinates.

v -0.181052 0.000000 0.163570
v 0.181052 0.000000 0.163570
v -0.181052 0.254575 0.163570
v 0.181052 0.254575 0.163570
v -0.181052 0.254575 -0.163570
v 0.181052 0.254575 -0.163570
v -0.181052 0.000000 -0.163570
v 0.181052 0.000000 -0.163570
vt 0.144139 0.156150
vt 0.144138 0.156150
vt 0.144138 0.156150
vt 0.144139 0.156150
vt 0.237562 0.150812
vt 0.237562 0.150812
vt 0.237562 0.150812
vt 0.237562 0.150812
vt 0.144139 0.156150
vt 0.144138 0.156150
vt 0.144138 0.156150
vt 0.144139 0.156150
vn 0.000000 0.000000 1.000000
vn 0.000000 0.000000 1.000000
vn 0.000000 0.000000 1.000000
vn 0.000000 0.000000 1.000000
vn 0.000000 1.000000 0.000000
vn 0.000000 1.000000 0.000000
vn 0.000000 1.000000 0.000000
vn 0.000000 1.000000 0.000000
vn 0.000000 0.000000 -1.000000
vn 0.000000 0.000000 -1.000000
vn 0.000000 0.000000 -1.000000
vn 0.000000 0.000000 -1.000000
vn 1.000000 0.000000 0.000000
vn 1.000000 0.000000 0.000000
vn 1.000000 0.000000 0.000000
vn 1.000000 0.000000 0.000000
vn -1.000000 0.000000 0.000000
vn -1.000000 0.000000 0.000000
vn -1.000000 0.000000 0.000000
vn -1.000000 0.000000 0.000000
s off
f 1/1/1 2/2/2 4/3/3 3/4/4
f 3/5/5 4/6/6 6/7/7 5/8/8
f 5/9/9 6/10/10 8/11/11 7/12/12
f 2/2/13 8/11/14 6/10/15 4/3/16
f 7/12/17 1/1/18 3/4/19 5/9/20
