# This file uses meters as units for non-parametric coordinates.

v 10.000002 0.000000 -10.000000
v 10.000002 0.000000 -6.000000
v 0.000000 0.000000 -6.000000
v 0.000000 0.000000 -10.000000
v 10.000002 0.142454 -8.020555
v 0.000000 0.142454 -8.020555
v 10.000002 0.294203 -9.030832
v 0.000000 0.294203 -9.030832
v 10.000002 0.294203 -7.010278
v 0.000000 0.294203 -7.010278
v 10.000002 0.000000 -4.041109
v 10.000002 0.000000 0.000000
v 0.000000 0.000000 0.000000
v 0.000000 0.000000 -4.041109
v 10.000002 0.142454 -2.020555
v 0.000000 0.142454 -2.020555
v 10.000002 0.294203 -3.030832
v 0.000000 0.294203 -3.030832
v 10.000002 0.294203 -1.010278
v 0.000000 0.294203 -1.010278
v 10.000002 0.000000 -6.120662
v 10.000002 -0.000000 -3.929973
v 0.000000 -0.000000 -3.929973
v 0.000000 0.000000 -6.120662
v 10.000002 0.294203 -5.030832
v 0.000000 0.294203 -5.030832
vt 0.134796 0.393712
vt 0.134796 0.393712
vt 0.134796 0.393712
vt 0.134796 0.393712
vt 0.134796 0.393712
vt 0.134796 0.393712
vt 0.134796 0.393712
vt 0.134796 0.393712
vt 0.200192 0.392377
vt 0.200193 0.392377
vt 0.200193 0.392377
vt 0.200192 0.392377
vt 0.200192 0.392377
vt 0.200193 0.392377
vt 0.200193 0.392377
vt 0.200192 0.392377
vt 0.113442 0.392377
vt 0.113442 0.392377
vt 0.113442 0.392377
vt 0.113442 0.392377
vt 0.113442 0.392377
vt 0.113442 0.392377
vt 0.113442 0.392377
vt 0.113442 0.392377
vt 0.113442 0.392377
vt 0.113442 0.392377
vt 0.134796 0.393712
vt 0.134796 0.393712
vt 0.134796 0.393712
vt 0.134796 0.393712
vt 0.134796 0.393712
vt 0.134796 0.393712
vt 0.134796 0.393712
vt 0.134796 0.393712
vt 0.200192 0.392377
vt 0.200193 0.392377
vt 0.200193 0.392377
vt 0.200192 0.392377
vt 0.200192 0.392377
vt 0.200193 0.392377
vt 0.200193 0.392377
vt 0.200192 0.392377
vt 0.113442 0.392377
vt 0.113442 0.392377
vt 0.113442 0.392377
vt 0.113442 0.392377
vt 0.113442 0.392377
vt 0.113442 0.392377
vt 0.113442 0.392377
vt 0.113442 0.392377
vt 0.113442 0.392377
vt 0.113442 0.392377
vt 0.134796 0.393712
vt 0.134796 0.393712
vt 0.134796 0.393712
vt 0.134796 0.393712
vt 0.200192 0.392377
vt 0.200193 0.392377
vt 0.200193 0.392377
vt 0.200192 0.392377
vt 0.113442 0.392377
vt 0.113442 0.392377
vt 0.113442 0.392377
vt 0.113442 0.392377
vt 0.113442 0.392377
vt 0.113442 0.392377
vn 0.000000 0.997524 0.070328
vn 0.000000 0.997524 0.070328
vn 0.000000 0.960118 0.279596
vn 0.000000 0.960118 0.279596
vn 0.000000 0.997420 -0.071781
vn 0.000000 0.997420 -0.071781
vn 0.000000 1.000000 0.000000
vn 0.000000 1.000000 0.000000
vn 0.000000 0.956883 -0.290474
vn 0.000000 0.956883 -0.290474
vn 0.000000 0.997420 -0.071781
vn 0.000000 0.997420 -0.071781
vn 0.000000 1.000000 0.000000
vn 0.000000 1.000000 0.000000
vn 0.000000 0.997524 0.070328
vn 0.000000 0.997524 0.070328
vn -1.000000 0.000000 0.000000
vn -1.000000 0.000000 0.000000
vn -1.000000 0.000000 0.000000
vn -1.000000 0.000000 0.000000
vn -1.000000 0.000000 0.000000
vn -1.000000 0.000000 0.000000
vn -1.000000 0.000000 0.000000
vn -1.000000 0.000000 0.000000
vn -1.000000 0.000000 0.000000
vn 1.000000 0.000000 0.000000
vn 1.000000 0.000000 0.000000
vn 1.000000 0.000000 0.000000
vn 1.000000 0.000000 0.000000
vn 1.000000 0.000000 0.000000
vn 1.000000 0.000000 0.000000
vn 1.000000 0.000000 0.000000
vn 1.000000 0.000000 0.000000
vn 1.000000 0.000000 0.000000
vn 0.000000 0.997524 0.070328
vn 0.000000 0.997524 0.070328
vn 0.000000 0.960118 0.279596
vn 0.000000 0.960118 0.279596
vn 0.000000 0.997524 -0.070328
vn 0.000000 0.997524 -0.070328
vn 0.000000 1.000000 0.000000
vn 0.000000 1.000000 0.000000
vn 0.000000 0.960118 -0.279596
vn 0.000000 0.960118 -0.279596
vn 0.000000 0.997524 -0.070328
vn 0.000000 0.997524 -0.070328
vn 0.000000 1.000000 0.000000
vn 0.000000 1.000000 0.000000
vn 0.000000 0.997524 0.070328
vn 0.000000 0.997524 0.070328
vn -1.000000 0.000000 0.000000
vn -1.000000 0.000000 0.000000
vn -1.000000 0.000000 0.000000
vn -1.000000 0.000000 0.000000
vn -1.000000 0.000000 0.000000
vn -1.000000 0.000000 0.000000
vn -1.000000 0.000000 0.000000
vn -1.000000 0.000000 0.000000
vn -1.000000 0.000000 0.000000
vn 1.000000 0.000000 0.000000
vn 1.000000 0.000000 0.000000
vn 1.000000 0.000000 0.000000
vn 1.000000 0.000000 0.000000
vn 1.000000 0.000000 0.000000
vn 1.000000 0.000000 0.000000
vn 1.000000 0.000000 0.000000
vn 1.000000 0.000000 0.000000
vn 1.000000 0.000000 0.000000
vn 0.000000 1.000000 0.000000
vn 0.000000 1.000000 0.000000
vn 0.000000 0.966095 0.258188
vn 0.000000 0.966095 0.258188
vn 0.000000 0.965440 -0.260624
vn 0.000000 0.965440 -0.260624
vn 0.000000 1.000000 0.000000
vn 0.000000 1.000000 0.000000
vn -1.000000 0.000000 0.000000
vn -1.000000 0.000000 0.000000
vn -1.000000 0.000000 0.000000
vn 1.000000 0.000000 0.000000
vn 1.000000 0.000000 0.000000
vn 1.000000 0.000000 0.000000
s off
f 9/1/1 10/2/2 3/3/3 2/4/4
f 7/5/5 8/6/6 6/7/7 5/8/8
f 1/9/9 4/10/10 8/11/11 7/12/12
f 5/13/13 6/14/14 10/15/15 9/16/16
f 6/17/17 3/18/18 10/19/19
f 8/20/20 4/21/21 6/17/22
f 6/17/23 4/21/24 3/18/25
f 5/22/26 1/23/27 7/24/28
f 5/22/29 2/25/30 1/23/31
f 9/26/32 2/25/33 5/22/34
f 19/27/35 20/28/36 13/29/37 12/30/38
f 17/31/39 18/32/40 16/33/41 15/34/42
f 11/35/43 14/36/44 18/37/45 17/38/46
f 15/39/47 16/40/48 20/41/49 19/42/50
f 16/43/51 13/44/52 20/45/53
f 18/46/54 14/47/55 16/43/56
f 16/43/57 14/47/58 13/44/59
f 15/48/60 11/49/61 17/50/62
f 15/48/63 12/51/64 11/49/65
f 19/52/66 12/51/67 15/48/68
f 25/53/69 26/54/70 23/55/71 22/56/72
f 21/57/73 24/58/74 26/59/75 25/60/76
f 26/61/77 24/62/78 23/63/79
f 22/64/80 21/65/81 25/66/82
