# This file uses meters as units for non-parametric coordinates.

v -0.180394 -0.000004 -7.819606
v 0.180394 -0.000004 -7.819606
v -0.180394 2.381702 -7.819606
v 0.180394 2.381702 -7.819606
v -0.180394 2.381702 -8.180394
v 0.180394 2.381702 -8.180394
v -0.180394 -0.000004 -8.180394
v 0.180394 -0.000004 -8.180394
v -0.180394 -0.000004 -5.819606
v 0.180394 -0.000004 -5.819606
v -0.180394 2.381702 -5.819606
v 0.180394 2.381702 -5.819606
v -0.180394 2.381702 -6.180394
v 0.180394 2.381702 -6.180394
v -0.180394 -0.000004 -6.180394
v 0.180394 -0.000004 -6.180394
v -0.180394 -0.000004 -3.819606
v 0.180394 -0.000004 -3.819606
v -0.180394 2.381702 -3.819606
v 0.180394 2.381702 -3.819606
v -0.180394 2.381702 -4.180394
v 0.180394 2.381702 -4.180394
v -0.180394 -0.000004 -4.180394
v 0.180394 -0.000004 -4.180394
v -0.180394 -0.000004 -1.819606
v 0.180394 -0.000004 -1.819606
v -0.180394 2.381702 -1.819606
v 0.180394 2.381702 -1.819606
v -0.180394 2.381702 -2.180394
v 0.180394 2.381702 -2.180394
v -0.180394 -0.000004 -2.180394
v 0.180394 -0.000004 -2.180394
v -0.180394 -0.000004 0.180394
v 0.180394 -0.000004 0.180394
v -0.180394 2.381702 0.180394
v 0.180394 2.381702 0.180394
v -0.180394 2.381702 -0.180394
v 0.180394 2.381702 -0.180394
v -0.180394 -0.000004 -0.180394
v 0.180394 -0.000004 -0.180394
v -0.115210 1.512773 -10.000015
v 0.115210 1.512773 -10.000015
v -0.115210 1.512773 0.007830
v 0.115210 1.512773 0.007830
v -0.115210 1.743193 0.007830
v 0.115210 1.743193 0.007830
v -0.115210 1.743193 -10.000015
v 0.115210 1.743193 -10.000015
v -0.115210 0.792435 -10.000015
v 0.115210 0.792435 -10.000015
v -0.115210 0.792435 0.007830
v 0.115210 0.792435 0.007830
v -0.115210 1.022854 0.007830
v 0.115210 1.022854 0.007830
v -0.115210 1.022854 -10.000015
v 0.115210 1.022854 -10.000015
vt 0.355853 0.462936
vt 0.355853 0.462936
vt 0.355853 0.462936
vt 0.355853 0.462936
vt 0.355853 0.462936
vt 0.355853 0.462936
vt 0.355853 0.462936
vt 0.355853 0.462936
vt 0.355853 0.462936
vt 0.355853 0.462936
vt 0.355853 0.462936
vt 0.355853 0.462936
vt 0.355853 0.462936
vt 0.355853 0.462936
vt 0.355853 0.462936
vt 0.355853 0.462936
vt 0.355853 0.462936
vt 0.355853 0.462936
vt 0.355853 0.462936
vt 0.355853 0.462936
vt 0.355853 0.462936
vt 0.355853 0.462936
vt 0.355853 0.462936
vt 0.355853 0.462936
vt 0.355853 0.462936
vt 0.355853 0.462936
vt 0.355853 0.462936
vt 0.355853 0.462936
vt 0.355853 0.462936
vt 0.355853 0.462936
vt 0.355853 0.462936
vt 0.355853 0.462936
vt 0.355853 0.462936
vt 0.355853 0.462936
vt 0.355853 0.462936
vt 0.355853 0.462936
vt 0.355853 0.462936
vt 0.355853 0.462936
vt 0.355853 0.462936
vt 0.355853 0.462936
vt 0.355853 0.462936
vt 0.355853 0.462936
vt 0.355853 0.462936
vt 0.355853 0.462936
vt 0.355853 0.462936
vt 0.355853 0.462936
vt 0.355853 0.462936
vt 0.355853 0.462936
vt 0.355853 0.462936
vt 0.355853 0.462936
vt 0.355853 0.462936
vt 0.355853 0.462936
vt 0.355853 0.462936
vt 0.355853 0.462936
vt 0.355853 0.462936
vt 0.355853 0.462936
vt 0.450365 0.463190
vt 0.450365 0.463190
vt 0.450365 0.463190
vt 0.450365 0.463190
vt 0.450365 0.463190
vt 0.450365 0.463190
vt 0.450365 0.463190
vt 0.450365 0.463190
vt 0.450365 0.463190
vt 0.450365 0.463190
vt 0.450365 0.463190
vt 0.450365 0.463190
vt 0.450365 0.463190
vt 0.450365 0.463190
vt 0.450365 0.463190
vt 0.450365 0.463190
vt 0.450365 0.463190
vt 0.450365 0.463190
vt 0.450365 0.463190
vt 0.450365 0.463190
vt 0.450365 0.463190
vt 0.450365 0.463190
vt 0.450365 0.463190
vt 0.450365 0.463190
vt 0.450365 0.463190
vt 0.450365 0.463190
vt 0.450365 0.463190
vt 0.450365 0.463190
vt 0.293292 0.462936
vt 0.293292 0.462936
vt 0.293292 0.462936
vt 0.293292 0.462936
vt 0.293292 0.462936
vt 0.293292 0.462936
vt 0.293292 0.462936
vt 0.293292 0.462936
vt 0.293292 0.462936
vt 0.293292 0.462936
vt 0.293292 0.462936
vt 0.293292 0.462936
vt 0.293292 0.462936
vt 0.293292 0.462936
vt 0.293292 0.462936
vt 0.293292 0.462936
vt 0.293292 0.462936
vt 0.293292 0.462936
vt 0.293292 0.462936
vt 0.293292 0.462936
vt 0.293292 0.462936
vt 0.293292 0.462936
vt 0.293292 0.462936
vt 0.293292 0.462936
vt 0.293292 0.462936
vt 0.293292 0.462936
vt 0.293292 0.462936
vt 0.293292 0.462936
vt 0.293292 0.462936
vt 0.293292 0.462936
vt 0.293292 0.462936
vt 0.293292 0.462936
vt 0.293292 0.462936
vt 0.293292 0.462936
vt 0.293292 0.462936
vt 0.293292 0.462936
vt 0.293292 0.462936
vt 0.293292 0.462936
vt 0.293292 0.462936
vt 0.293292 0.462936
vt 0.239390 0.463063
vt 0.239390 0.463063
vt 0.239390 0.463063
vt 0.239390 0.463063
vt 0.239390 0.463063
vt 0.239390 0.463063
vt 0.239390 0.463063
vt 0.239390 0.463063
vn 0.000000 0.000000 1.000000
vn 0.000000 0.000000 1.000000
vn 0.000000 0.000000 1.000000
vn 0.000000 0.000000 1.000000
vn 0.000000 1.000000 0.000000
vn 0.000000 1.000000 0.000000
vn 0.000000 1.000000 0.000000
vn 0.000000 1.000000 0.000000
vn 0.000000 0.000000 -1.000000
vn 0.000000 0.000000 -1.000000
vn 0.000000 0.000000 -1.000000
vn 0.000000 0.000000 -1.000000
vn 1.000000 0.000000 0.000000
vn 1.000000 0.000000 0.000000
vn 1.000000 0.000000 0.000000
vn 1.000000 0.000000 0.000000
vn -1.000000 0.000000 0.000000
vn -1.000000 0.000000 0.000000
vn -1.000000 0.000000 0.000000
vn -1.000000 0.000000 0.000000
vn 0.000000 0.000000 1.000000
vn 0.000000 0.000000 1.000000
vn 0.000000 0.000000 1.000000
vn 0.000000 0.000000 1.000000
vn 0.000000 1.000000 0.000000
vn 0.000000 1.000000 0.000000
vn 0.000000 1.000000 0.000000
vn 0.000000 1.000000 0.000000
vn 0.000000 0.000000 -1.000000
vn 0.000000 0.000000 -1.000000
vn 0.000000 0.000000 -1.000000
vn 0.000000 0.000000 -1.000000
vn 1.000000 0.000000 0.000000
vn 1.000000 0.000000 0.000000
vn 1.000000 0.000000 0.000000
vn 1.000000 0.000000 0.000000
vn -1.000000 0.000000 0.000000
vn -1.000000 0.000000 0.000000
vn -1.000000 0.000000 0.000000
vn -1.000000 0.000000 0.000000
vn 0.000000 0.000000 1.000000
vn 0.000000 0.000000 1.000000
vn 0.000000 0.000000 1.000000
vn 0.000000 0.000000 1.000000
vn 0.000000 1.000000 0.000000
vn 0.000000 1.000000 0.000000
vn 0.000000 1.000000 0.000000
vn 0.000000 1.000000 0.000000
vn 0.000000 0.000000 -1.000000
vn 0.000000 0.000000 -1.000000
vn 0.000000 0.000000 -1.000000
vn 0.000000 0.000000 -1.000000
vn 1.000000 0.000000 0.000000
vn 1.000000 0.000000 0.000000
vn 1.000000 0.000000 0.000000
vn 1.000000 0.000000 0.000000
vn -1.000000 0.000000 0.000000
vn -1.000000 0.000000 0.000000
vn -1.000000 0.000000 0.000000
vn -1.000000 0.000000 0.000000
vn 0.000000 0.000000 1.000000
vn 0.000000 0.000000 1.000000
vn 0.000000 0.000000 1.000000
vn 0.000000 0.000000 1.000000
vn 0.000000 1.000000 0.000000
vn 0.000000 1.000000 0.000000
vn 0.000000 1.000000 0.000000
vn 0.000000 1.000000 0.000000
vn 0.000000 0.000000 -1.000000
vn 0.000000 0.000000 -1.000000
vn 0.000000 0.000000 -1.000000
vn 0.000000 0.000000 -1.000000
vn 1.000000 0.000000 0.000000
vn 1.000000 0.000000 0.000000
vn 1.000000 0.000000 0.000000
vn 1.000000 0.000000 0.000000
vn -1.000000 0.000000 0.000000
vn -1.000000 0.000000 0.000000
vn -1.000000 0.000000 0.000000
vn -1.000000 0.000000 0.000000
vn 0.000000 0.000000 1.000000
vn 0.000000 0.000000 1.000000
vn 0.000000 0.000000 1.000000
vn 0.000000 0.000000 1.000000
vn 0.000000 1.000000 0.000000
vn 0.000000 1.000000 0.000000
vn 0.000000 1.000000 0.000000
vn 0.000000 1.000000 0.000000
vn 0.000000 0.000000 -1.000000
vn 0.000000 0.000000 -1.000000
vn 0.000000 0.000000 -1.000000
vn 0.000000 0.000000 -1.000000
vn 1.000000 0.000000 0.000000
vn 1.000000 0.000000 0.000000
vn 1.000000 0.000000 0.000000
vn 1.000000 0.000000 0.000000
vn -1.000000 0.000000 0.000000
vn -1.000000 0.000000 0.000000
vn -1.000000 0.000000 0.000000
vn -1.000000 0.000000 0.000000
vn 0.000000 -1.000000 0.000000
vn 0.000000 -1.000000 0.000000
vn 0.000000 -1.000000 0.000000
vn 0.000000 -1.000000 0.000000
vn 0.000000 1.000000 0.000000
vn 0.000000 1.000000 0.000000
vn 0.000000 1.000000 0.000000
vn 0.000000 1.000000 0.000000
vn 0.000000 0.000000 -1.000000
vn 0.000000 0.000000 -1.000000
vn 0.000000 0.000000 -1.000000
vn 0.000000 0.000000 -1.000000
vn 1.000000 0.000000 0.000000
vn 1.000000 0.000000 0.000000
vn 1.000000 0.000000 0.000000
vn 1.000000 0.000000 0.000000
vn -1.000000 0.000000 0.000000
vn -1.000000 0.000000 0.000000
vn -1.000000 0.000000 0.000000
vn -1.000000 0.000000 0.000000
vn 0.000000 -1.000000 0.000000
vn 0.000000 -1.000000 0.000000
vn 0.000000 -1.000000 0.000000
vn 0.000000 -1.000000 0.000000
vn 0.000000 1.000000 0.000000
vn 0.000000 1.000000 0.000000
vn 0.000000 1.000000 0.000000
vn 0.000000 1.000000 0.000000
vn 0.000000 0.000000 -1.000000
vn 0.000000 0.000000 -1.000000
vn 0.000000 0.000000 -1.000000
vn 0.000000 0.000000 -1.000000
vn 1.000000 0.000000 0.000000
vn 1.000000 0.000000 0.000000
vn 1.000000 0.000000 0.000000
vn 1.000000 0.000000 0.000000
vn -1.000000 0.000000 0.000000
vn -1.000000 0.000000 0.000000
vn -1.000000 0.000000 0.000000
vn -1.000000 0.000000 0.000000
s off
f 1/85/1 2/86/2 4/87/3 3/88/4
f 3/57/5 4/58/6 6/59/7 5/60/8
f 5/89/9 6/90/10 8/91/11 7/92/12
f 2/2/13 8/7/14 6/5/15 4/3/16
f 7/8/17 1/1/18 3/4/19 5/6/20
f 9/93/21 10/94/22 12/95/23 11/96/24
f 11/61/25 12/62/26 14/63/27 13/64/28
f 13/97/29 14/98/30 16/99/31 15/100/32
f 10/10/33 16/15/34 14/13/35 12/11/36
f 15/16/37 9/9/38 11/12/39 13/14/40
f 17/101/41 18/102/42 20/103/43 19/104/44
f 19/65/45 20/66/46 22/67/47 21/68/48
f 21/105/49 22/106/50 24/107/51 23/108/52
f 18/18/53 24/23/54 22/21/55 20/19/56
f 23/24/57 17/17/58 19/20/59 21/22/60
f 25/109/61 26/110/62 28/111/63 27/112/64
f 27/69/65 28/70/66 30/71/67 29/72/68
f 29/113/69 30/114/70 32/115/71 31/116/72
f 26/26/73 32/31/74 30/29/75 28/27/76
f 31/32/77 25/25/78 27/28/79 29/30/80
f 33/117/81 34/118/82 36/119/83 35/120/84
f 35/73/85 36/74/86 38/75/87 37/76/88
f 37/121/89 38/122/90 40/123/91 39/124/92
f 34/34/93 40/39/94 38/37/95 36/35/96
f 39/40/97 33/33/98 35/36/99 37/38/100
f 41/125/101 42/126/102 44/127/103 43/128/104
f 45/77/105 46/78/106 48/79/107 47/80/108
f 47/48/109 48/47/110 42/42/111 41/41/112
f 42/42/113 48/47/114 46/45/115 44/43/116
f 47/48/117 41/41/118 43/44/119 45/46/120
f 49/129/121 50/130/122 52/131/123 51/132/124
f 53/81/125 54/82/126 56/83/127 55/84/128
f 55/56/129 56/55/130 50/50/131 49/49/132
f 50/50/133 56/55/134 54/53/135 52/51/136
f 55/56/137 49/49/138 51/52/139 53/54/140
