# This file uses meters as units for non-parametric coordinates.

v 0.500000 0.000037 -0.499992
v -0.500000 0.000037 -0.499992
v 0.655491 0.500000 -0.655487
v -0.655491 0.500000 -0.655487
v 0.655491 0.500000 0.655495
v -0.655491 0.500000 0.655495
v 0.500000 0.000037 0.500008
v -0.500000 0.000037 0.500008
v 0.515549 0.500000 -0.515541
v -0.515549 0.500000 -0.515541
v -0.515549 0.500000 0.515556
v 0.515549 0.500000 0.515556
v 0.163280 0.483013 0.078278
v -0.137516 0.483013 0.078278
v 0.120449 0.540040 0.121109
v -0.094685 0.540040 0.121109
v 0.120449 0.540040 0.336243
v -0.094685 0.540040 0.336243
v 0.163280 0.483013 0.379074
v -0.137516 0.483013 0.379074
v -0.141712 0.483013 -0.388672
v -0.442513 0.483013 -0.388672
v -0.184544 0.540040 -0.345840
v -0.399681 0.540040 -0.345840
v -0.184544 0.540040 -0.130707
v -0.399681 0.540040 -0.130707
v -0.141712 0.483013 -0.087875
v -0.442513 0.483013 -0.087875
v 0.242077 0.483013 -0.164825
v -0.058723 0.483013 -0.164825
v 0.199245 0.540040 -0.121994
v -0.015892 0.540040 -0.121994
v 0.199245 0.540040 0.093140
v -0.015892 0.540040 0.093140
v 0.242077 0.483013 0.135971
v -0.058723 0.483013 0.135971
vt 0.215891 0.401193
vt 0.215891 0.401193
vt 0.215891 0.401193
vt 0.215891 0.401193
vt 0.330545 0.224429
vt 0.330545 0.224429
vt 0.330545 0.224429
vt 0.330545 0.224429
vt 0.215891 0.401193
vt 0.215891 0.401193
vt 0.215891 0.401193
vt 0.215891 0.401193
vt 0.174420 0.401193
vt 0.174420 0.401193
vt 0.174420 0.401193
vt 0.174420 0.401193
vt 0.174420 0.401193
vt 0.174420 0.401193
vt 0.174420 0.401193
vt 0.174420 0.401193
vt 0.261021 0.401193
vt 0.261021 0.401193
vt 0.261021 0.401193
vt 0.261021 0.401193
vt 0.261021 0.401193
vt 0.261021 0.401193
vt 0.261021 0.401193
vt 0.261021 0.401193
vt 0.200035 0.209792
vt 0.200035 0.209792
vt 0.200035 0.209792
vt 0.200035 0.209792
vt 0.348841 0.213452
vt 0.348841 0.213452
vt 0.348841 0.213452
vt 0.348841 0.213452
vt 0.200035 0.209792
vt 0.200035 0.209792
vt 0.200035 0.209792
vt 0.200035 0.209792
vt 0.330545 0.224429
vt 0.330545 0.224429
vt 0.330545 0.224429
vt 0.330545 0.224429
vt 0.330545 0.224429
vt 0.330545 0.224429
vt 0.330545 0.224429
vt 0.330545 0.224429
vt 0.200035 0.209792
vt 0.200035 0.209792
vt 0.200035 0.209792
vt 0.200035 0.209792
vt 0.348841 0.213452
vt 0.348841 0.213452
vt 0.348841 0.213452
vt 0.348841 0.213452
vt 0.200035 0.209792
vt 0.200035 0.209792
vt 0.200035 0.209792
vt 0.200035 0.209792
vt 0.330545 0.224429
vt 0.330545 0.224429
vt 0.330545 0.224429
vt 0.330545 0.224429
vt 0.330545 0.224429
vt 0.330545 0.224429
vt 0.330545 0.224429
vt 0.330545 0.224429
vt 0.200035 0.209792
vt 0.200035 0.209792
vt 0.200035 0.209792
vt 0.200035 0.209792
vt 0.348841 0.213452
vt 0.348841 0.213452
vt 0.348841 0.213452
vt 0.348841 0.213452
vt 0.200035 0.209792
vt 0.200035 0.209792
vt 0.200035 0.209792
vt 0.200035 0.209792
vt 0.330545 0.224429
vt 0.330545 0.224429
vt 0.330545 0.224429
vt 0.330545 0.224429
vt 0.330545 0.224429
vt 0.330545 0.224429
vt 0.330545 0.224429
vt 0.330545 0.224429
vn 0.000000 -0.296981 -0.954884
vn 0.000000 -0.296981 -0.954884
vn 0.000000 -0.296981 -0.954884
vn 0.000000 -0.296981 -0.954884
vn 0.000000 1.000000 0.000000
vn 0.000000 1.000000 0.000000
vn 0.000000 1.000000 0.000000
vn 0.000000 1.000000 0.000000
vn 0.000000 -0.296967 0.954888
vn 0.000000 -0.296967 0.954888
vn 0.000000 -0.296967 0.954888
vn 0.000000 -0.296967 0.954888
vn 0.000000 -1.000000 0.000000
vn 0.000000 -1.000000 0.000000
vn 0.000000 -1.000000 0.000000
vn 0.000000 -1.000000 0.000000
vn -0.954886 -0.296974 0.000000
vn -0.954886 -0.296974 0.000000
vn -0.954886 -0.296974 0.000000
vn -0.954886 -0.296974 0.000000
vn 0.954886 -0.296974 0.000000
vn 0.954886 -0.296974 0.000000
vn 0.954886 -0.296974 0.000000
vn 0.954886 -0.296974 0.000000
vn 0.000000 1.000000 0.000000
vn 0.000000 1.000000 0.000000
vn 0.000000 1.000000 0.000000
vn 0.000000 1.000000 0.000000
vn 0.000000 1.000000 0.000000
vn 0.000000 1.000000 0.000000
vn 0.000000 1.000000 0.000000
vn 0.000000 1.000000 0.000000
vn 0.000000 1.000000 0.000000
vn 0.000000 1.000000 0.000000
vn 0.000000 1.000000 0.000000
vn 0.000000 1.000000 0.000000
vn 0.000000 1.000000 0.000000
vn 0.000000 1.000000 0.000000
vn 0.000000 1.000000 0.000000
vn 0.000000 1.000000 0.000000
vn 0.000000 0.600550 -0.799588
vn 0.000000 0.600550 -0.799588
vn 0.000000 0.600549 -0.799588
vn 0.000000 0.600549 -0.799588
vn 0.000000 1.000000 0.000000
vn 0.000000 1.000000 0.000000
vn 0.000000 1.000000 0.000000
vn 0.000000 1.000000 0.000000
vn 0.000000 0.600549 0.799588
vn 0.000000 0.600549 0.799588
vn 0.000000 0.600550 0.799588
vn 0.000000 0.600550 0.799588
vn -0.799588 0.600549 0.000000
vn -0.799588 0.600549 0.000000
vn -0.799588 0.600549 0.000000
vn -0.799588 0.600549 0.000000
vn 0.799588 0.600549 0.000000
vn 0.799588 0.600549 0.000000
vn 0.799588 0.600549 0.000000
vn 0.799588 0.600549 0.000000
vn 0.000000 0.600549 -0.799588
vn 0.000000 0.600549 -0.799588
vn 0.000000 0.600549 -0.799588
vn 0.000000 0.600549 -0.799588
vn 0.000000 1.000000 0.000000
vn 0.000000 1.000000 0.000000
vn 0.000000 1.000000 0.000000
vn 0.000000 1.000000 0.000000
vn 0.000000 0.600549 0.799588
vn 0.000000 0.600549 0.799588
vn 0.000000 0.600549 0.799588
vn 0.000000 0.600549 0.799588
vn -0.799588 0.600549 0.000000
vn -0.799588 0.600549 0.000000
vn -0.799588 0.600549 0.000000
vn -0.799588 0.600549 0.000000
vn 0.799588 0.600549 0.000000
vn 0.799588 0.600549 0.000000
vn 0.799588 0.600549 0.000000
vn 0.799588 0.600549 0.000000
vn 0.000000 0.600549 -0.799588
vn 0.000000 0.600549 -0.799588
vn 0.000000 0.600549 -0.799588
vn 0.000000 0.600549 -0.799588
vn 0.000000 1.000000 0.000000
vn 0.000000 1.000000 0.000000
vn 0.000000 1.000000 0.000000
vn 0.000000 1.000000 0.000000
vn 0.000000 0.600549 0.799588
vn 0.000000 0.600549 0.799588
vn 0.000000 0.600549 0.799588
vn 0.000000 0.600549 0.799588
vn -0.799588 0.600549 0.000000
vn -0.799588 0.600549 0.000000
vn -0.799588 0.600549 0.000000
vn -0.799588 0.600549 0.000000
vn 0.799588 0.600549 0.000000
vn 0.799588 0.600549 0.000000
vn 0.799588 0.600549 0.000000
vn 0.799588 0.600549 0.000000
s off
f 1/1/1 2/2/2 4/3/3 3/4/4
f 9/5/5 10/6/6 11/7/7 12/8/8
f 5/9/9 6/10/10 8/11/11 7/12/12
f 7/13/13 8/14/14 2/15/15 1/16/16
f 2/15/17 8/14/18 6/17/19 4/18/20
f 7/13/21 1/16/22 3/19/23 5/20/24
f 3/21/25 4/22/26 10/23/27 9/24/28
f 4/22/29 6/25/30 11/26/31 10/23/32
f 6/25/33 5/27/34 12/28/35 11/26/36
f 5/27/37 3/21/38 9/24/39 12/28/40
f 13/29/41 14/30/42 16/31/43 15/32/44
f 15/33/45 16/34/46 18/35/47 17/36/48
f 17/37/49 18/38/50 20/39/51 19/40/52
f 14/41/53 20/42/54 18/43/55 16/44/56
f 19/45/57 13/46/58 15/47/59 17/48/60
f 21/49/61 22/50/62 24/51/63 23/52/64
f 23/53/65 24/54/66 26/55/67 25/56/68
f 25/57/69 26/58/70 28/59/71 27/60/72
f 22/61/73 28/62/74 26/63/75 24/64/76
f 27/65/77 21/66/78 23/67/79 25/68/80
f 29/69/81 30/70/82 32/71/83 31/72/84
f 31/73/85 32/74/86 34/75/87 33/76/88
f 33/77/89 34/78/90 36/79/91 35/80/92
f 30/81/93 36/82/94 34/83/95 32/84/96
f 35/85/97 29/86/98 31/87/99 33/88/100
