# This file uses meters as units for non-parametric coordinates.

v 9.999985 -0.000000 10.000000
v -0.000004 -0.000000 10.000000
v 0.000000 -0.574808 0.606697
v 0.000000 -0.000000 3.621605
v 0.000000 -0.574808 2.450811
v 0.000000 -0.000000 2.869127
v 0.000000 0.000000 0.000000
v 0.000000 -0.143702 2.764549
v 0.000000 0.000000 0.188381
v 0.000000 -0.143702 0.292959
v 1.147818 0.000000 0.188381
v 1.147818 -0.143702 0.292959
v 1.147818 -0.574808 0.606697
v 1.147818 -0.574808 2.450811
v 1.147818 -0.143702 2.764549
v 1.147818 -0.000000 2.869127
v 1.147818 -0.000000 0.000000
v 1.147818 -0.000000 3.621605
v 1.378221 -0.000000 3.621605
v 1.378221 -0.000000 0.000000
v 1.378221 0.194796 0.000000
v 1.147818 0.194796 0.000000
v 1.378221 0.194796 3.621605
v 1.147818 0.194796 3.621605
v 9.999981 -0.574808 0.606697
v 9.999981 -0.000000 3.621605
v 9.999981 -0.574808 2.450811
v 9.999981 -0.000000 2.869127
v 9.999981 0.000000 0.000000
v 9.999981 -0.143702 2.764549
v 9.999981 0.000000 0.188381
v 9.999981 -0.143702 0.292959
v 8.852163 0.000000 0.188381
v 8.852163 -0.143702 0.292959
v 8.852163 -0.574808 0.606697
v 8.852163 -0.574808 2.450811
v 8.852163 -0.143702 2.764549
v 8.852163 -0.000000 2.869127
v 8.852163 -0.000000 0.000000
v 8.852163 -0.000000 3.621605
v 8.621761 -0.000000 3.621605
v 8.621761 -0.000000 0.000000
v 8.621761 0.194796 0.000000
v 8.852163 0.194796 0.000000
v 8.621761 0.194796 3.621605
v 8.852163 0.194796 3.621605
vt 0.232868 0.397550
vt 0.232868 0.397550
vt 0.141364 0.046407
vt 0.296293 0.419809
vt 0.141364 0.046407
vt 0.141364 0.046407
vt 0.232868 0.397550
vt 0.203479 0.420523
vt 0.203479 0.420523
vt 0.171350 0.047835
vt 0.171350 0.047835
vt 0.293438 0.420523
vt 0.264879 0.264165
vt 0.296293 0.419809
vt 0.264879 0.264165
vt 0.235607 0.267021
vt 0.293438 0.420523
vt 0.141364 0.046407
vt 0.207762 0.421236
vt 0.207762 0.421236
vt 0.293438 0.420523
vt 0.207762 0.421236
vt 0.141364 0.046407
vt 0.207762 0.421236
vt 0.171350 0.047835
vt 0.141364 0.046407
vt 0.171350 0.047835
vt 0.141364 0.046407
vt 0.141364 0.046407
vt 0.203479 0.420523
vt 0.203479 0.420523
vt 0.296293 0.419809
vt 0.264879 0.264165
vt 0.264879 0.264165
vt 0.264879 0.264165
vt 0.264879 0.264165
vt 0.293438 0.420523
vt 0.232868 0.397550
vt 0.296293 0.419809
vt 0.264879 0.264165
vt 0.264879 0.264165
vt 0.232868 0.397550
vt 0.235889 0.397035
vt 0.299150 0.264165
vt 0.235607 0.267021
vt 0.238462 0.266307
vt 0.238462 0.266307
vt 0.389109 0.267021
vt 0.389109 0.267021
vt 0.389109 0.267021
vt 0.389109 0.267021
vt 0.264879 0.264165
vt 0.264879 0.264165
vt 0.235607 0.267021
vt 0.235607 0.267021
vt 0.299150 0.264165
vt 0.299150 0.264165
vt 0.299150 0.264165
vt 0.238462 0.266307
vt 0.238462 0.266307
vt 0.207762 0.421236
vt 0.207762 0.421236
vt 0.207762 0.421236
vt 0.207762 0.421236
vt 0.141364 0.046407
vt 0.141364 0.046407
vt 0.141364 0.046407
vt 0.141364 0.046407
vt 0.171350 0.047835
vt 0.171350 0.047835
vt 0.171350 0.047835
vt 0.171350 0.047835
vt 0.141364 0.046407
vt 0.141364 0.046407
vt 0.141364 0.046407
vt 0.141364 0.046407
vt 0.203479 0.420523
vt 0.203479 0.420523
vt 0.203479 0.420523
vt 0.203479 0.420523
vt 0.264879 0.264165
vt 0.264879 0.264165
vt 0.264879 0.264165
vt 0.264879 0.264165
vt 0.264879 0.264165
vt 0.264879 0.264165
vt 0.293438 0.420523
vt 0.293438 0.420523
vt 0.293438 0.420523
vt 0.293438 0.420523
vt 0.296293 0.419809
vt 0.296293 0.419809
vt 0.296293 0.419809
vt 0.296293 0.419809
vt 0.232868 0.397550
vt 0.232868 0.397550
vt 0.232868 0.397550
vt 0.232868 0.397550
vt 0.389109 0.267021
vt 0.389109 0.267021
vt 0.389109 0.267021
vt 0.389109 0.267021
vt 0.235889 0.397035
vt 0.235607 0.267021
vt 0.235607 0.267021
vt 0.235607 0.267021
vt 0.235607 0.267021
vt 0.264879 0.264165
vt 0.264879 0.264165
vt 0.299150 0.264165
vt 0.299150 0.264165
vt 0.299150 0.264165
vt 0.299150 0.264165
vt 0.264879 0.264165
vt 0.264879 0.264165
vt 0.238462 0.266307
vt 0.238462 0.266307
vt 0.238462 0.266307
vt 0.238462 0.266307
vn 0.000000 0.588420 0.808555
vn 0.000000 0.588420 0.808555
vn 0.000000 0.588420 0.808555
vn 0.000000 0.588420 0.808555
vn -0.000000 0.588425 0.808552
vn -0.000000 0.588425 0.808552
vn -0.000000 0.588425 0.808552
vn 0.000000 0.000000 -1.000000
vn -0.000000 1.000000 0.000000
vn -0.000000 1.000000 0.000000
vn 0.000000 1.000000 0.000000
vn 0.000000 1.000000 0.000000
vn -0.000000 0.000000 1.000000
vn -0.000000 0.588425 -0.808552
vn -0.000000 0.588425 -0.808552
vn -0.000000 0.588425 -0.808552
vn 0.000000 0.588420 -0.808555
vn 0.000000 0.588420 -0.808555
vn 0.000000 0.588420 -0.808555
vn -0.000000 0.000000 1.000000
vn -1.000000 0.000000 0.000000
vn -1.000000 0.000000 0.000000
vn -1.000000 0.000000 0.000000
vn -1.000000 0.000000 0.000000
vn -1.000000 -0.000000 0.000000
vn -1.000000 -0.000000 0.000000
vn -1.000000 -0.000000 0.000000
vn -1.000000 -0.000000 0.000000
vn 0.000000 1.000000 -0.000000
vn 0.000000 1.000000 -0.000000
vn 0.000000 1.000000 -0.000000
vn 0.000000 1.000000 -0.000000
vn 0.000000 1.000000 0.000000
vn 0.000000 1.000000 0.000000
vn 0.000000 1.000000 -0.000000
vn 0.000000 1.000000 -0.000000
vn 0.000000 1.000000 0.000000
vn 0.000000 1.000000 -0.000000
vn 0.000000 1.000000 -0.000000
vn 0.000000 1.000000 0.000000
vn 0.000000 1.000000 0.000000
vn 0.000000 1.000000 0.000000
vn 0.000000 1.000000 0.000000
vn 0.000000 1.000000 0.000000
vn 0.000000 1.000000 0.000000
vn 0.000000 1.000000 0.000000
vn -0.000000 1.000000 -0.000000
vn 0.000000 1.000000 0.000000
vn 0.000000 0.000000 -1.000000
vn 0.000000 0.000000 -1.000000
vn 0.000000 0.000000 -1.000000
vn 0.000000 0.000000 -1.000000
vn -1.000000 0.000000 0.000000
vn -1.000000 0.000000 0.000000
vn -1.000000 0.000000 0.000000
vn 1.000000 0.000000 0.000000
vn 1.000000 0.000000 0.000000
vn 1.000000 0.000000 0.000000
vn 1.000000 0.000000 0.000000
vn -1.000000 0.000000 0.000000
vn -1.000000 0.000000 0.000000
vn -1.000000 0.000000 0.000000
vn -1.000000 0.000000 0.000000
vn -1.000000 0.000000 0.000000
vn -1.000000 0.000000 0.000000
vn -1.000000 0.000000 0.000000
vn 0.000000 0.000000 1.000000
vn 0.000000 0.000000 1.000000
vn 0.000000 0.000000 1.000000
vn 0.000000 0.000000 1.000000
vn 0.000000 0.588420 0.808555
vn 0.000000 0.588420 0.808555
vn 0.000000 0.588420 0.808555
vn 0.000000 0.588420 0.808555
vn 0.000000 0.588425 0.808552
vn -0.000000 0.000000 -1.000000
vn 0.000000 0.588425 0.808552
vn 0.000000 0.588425 0.808552
vn 0.000000 1.000000 0.000000
vn 0.000000 1.000000 0.000000
vn 0.000000 1.000000 0.000000
vn 0.000000 1.000000 0.000000
vn 0.000000 0.000000 1.000000
vn 0.000000 0.588425 -0.808552
vn 0.000000 0.588425 -0.808552
vn 0.000000 0.588425 -0.808552
vn 0.000000 0.588420 -0.808555
vn 0.000000 0.000000 1.000000
vn 0.000000 0.588420 -0.808555
vn 0.000000 0.588420 -0.808555
vn 1.000000 0.000002 0.000000
vn 1.000000 0.000002 0.000000
vn 1.000000 0.000002 0.000000
vn 1.000000 0.000002 0.000000
vn 1.000000 0.000000 0.000000
vn 1.000000 0.000000 0.000000
vn 1.000000 0.000000 0.000000
vn 1.000000 0.000000 0.000000
vn -0.000000 1.000000 -0.000000
vn -0.000000 1.000000 -0.000000
vn -0.000000 1.000000 -0.000000
vn -0.000000 1.000000 -0.000000
vn 0.000000 1.000000 0.000000
vn -0.000000 1.000000 -0.000000
vn -0.000000 1.000000 -0.000000
vn 0.000000 1.000000 0.000000
vn -0.000000 1.000000 -0.000000
vn 0.000000 1.000000 0.000000
vn 0.000000 1.000000 0.000000
vn -0.000000 1.000000 -0.000000
vn 0.000000 1.000000 0.000000
vn 0.000000 1.000000 0.000000
vn 0.000000 1.000000 0.000000
vn 0.000000 1.000000 0.000000
vn 0.000000 0.000000 -1.000000
vn 0.000000 0.000000 -1.000000
vn 0.000000 0.000000 -1.000000
vn 0.000000 0.000000 -1.000000
vn 1.000000 0.000000 0.000000
vn 1.000000 0.000000 0.000000
vn 1.000000 0.000000 0.000000
vn -1.000000 0.000000 0.000000
vn -1.000000 0.000000 0.000000
vn -1.000000 0.000000 0.000000
vn -1.000000 0.000000 0.000000
vn 1.000000 -0.000003 0.000000
vn 1.000000 -0.000003 0.000000
vn 1.000000 -0.000003 0.000000
vn 1.000000 -0.000003 0.000000
vn 1.000000 0.000000 0.000000
vn 1.000000 0.000000 0.000000
vn 1.000000 0.000000 0.000000
vn 0.000000 0.000000 1.000000
vn 0.000000 0.000000 1.000000
vn 0.000000 0.000000 1.000000
vn 0.000000 0.000000 1.000000
vn 0.000000 1.000000 -0.000000
vn 0.000000 1.000000 -0.000000
vn 0.000000 1.000000 0.000000
vn 0.000000 1.000000 0.000000
s off
f 10/19/1 12/24/2 11/22/3 9/20/4
f 13/26/5 12/23/6 10/18/7 3/6/8
f 14/27/9 13/25/10 3/10/11 5/11/12
f 5/3/13 8/5/14 15/29/15 14/28/16
f 16/31/17 15/30/18 8/8/19 6/9/20
f 15/13/21 12/15/22 13/33/23 14/34/24
f 16/35/25 11/36/26 12/15/27 15/13/28
f 9/12/29 11/21/30 17/37/31 7/17/32
f 18/39/33 16/32/34 6/4/35 4/14/36
f 19/42/37 2/1/38 1/2/39
f 23/48/40 21/49/41 22/50/42 24/51/43
f 42/103/44 20/43/45 19/42/46 1/96/47 41/97/48
f 20/16/49 17/45/50 22/54/51 21/55/52
f 17/40/53 11/36/54 22/41/55
f 19/44/56 20/56/57 21/57/58 23/58/59
f 11/36/60 16/35/61 24/52/62 22/41/63
f 16/35/64 18/53/65 24/52/66
f 18/46/67 19/47/68 23/59/69 24/60/70
f 32/61/71 31/64/72 33/63/73 34/62/74
f 35/65/75 25/68/76 32/67/77 34/66/78
f 36/69/79 27/72/80 25/71/81 35/70/82
f 27/73/83 36/76/84 37/75/85 30/74/86
f 38/77/87 28/80/88 30/79/89 37/78/90
f 37/81/91 36/84/92 35/83/93 34/82/94
f 38/85/95 37/81/96 34/82/97 33/86/98
f 31/87/99 29/90/100 39/89/101 33/88/102
f 40/91/103 26/94/104 28/93/105 38/92/106
f 26/95/107 40/98/108 41/97/109 1/96/110
f 45/99/111 46/102/112 44/101/113 43/100/114
f 42/104/115 43/107/116 44/106/117 39/105/118
f 39/108/119 44/109/120 33/86/121
f 41/110/122 45/113/123 43/112/124 42/111/125
f 33/86/126 44/109/127 46/114/128 38/85/129
f 38/85/130 46/114/131 40/115/132
f 40/116/133 46/119/134 45/118/135 41/117/136
f 4/7/137 2/1/138 19/42/139 18/38/140
