<?xml version="1.0" encoding="utf-8"?>
<svg xmlns="http://www.w3.org/2000/svg" xmlns:xlink="http://www.w3.org/1999/xlink" style="margin: auto; background: rgba(0, 0, 0, 0) none repeat scroll 0% 0%; display: block; shape-rendering: auto;" width="150px" height="150px" viewBox="0 0 100 100" preserveAspectRatio="xMidYMid">
<g transform="rotate(0 50 50)">
  <rect x="43" y="18" rx="7" ry="7" width="14" height="14" fill="#81bb28">
    <animate attributeName="opacity" values="1;0" keyTimes="0;1" dur="1.4285714285714284s" begin="-1.3095238095238095s" repeatCount="indefinite"></animate>
  </rect>
</g><g transform="rotate(30 50 50)">
  <rect x="43" y="18" rx="7" ry="7" width="14" height="14" fill="#81bb28">
    <animate attributeName="opacity" values="1;0" keyTimes="0;1" dur="1.4285714285714284s" begin="-1.1904761904761905s" repeatCount="indefinite"></animate>
  </rect>
</g><g transform="rotate(60 50 50)">
  <rect x="43" y="18" rx="7" ry="7" width="14" height="14" fill="#81bb28">
    <animate attributeName="opacity" values="1;0" keyTimes="0;1" dur="1.4285714285714284s" begin="-1.0714285714285714s" repeatCount="indefinite"></animate>
  </rect>
</g><g transform="rotate(90 50 50)">
  <rect x="43" y="18" rx="7" ry="7" width="14" height="14" fill="#81bb28">
    <animate attributeName="opacity" values="1;0" keyTimes="0;1" dur="1.4285714285714284s" begin="-0.9523809523809523s" repeatCount="indefinite"></animate>
  </rect>
</g><g transform="rotate(120 50 50)">
  <rect x="43" y="18" rx="7" ry="7" width="14" height="14" fill="#81bb28">
    <animate attributeName="opacity" values="1;0" keyTimes="0;1" dur="1.4285714285714284s" begin="-0.8333333333333333s" repeatCount="indefinite"></animate>
  </rect>
</g><g transform="rotate(150 50 50)">
  <rect x="43" y="18" rx="7" ry="7" width="14" height="14" fill="#81bb28">
    <animate attributeName="opacity" values="1;0" keyTimes="0;1" dur="1.4285714285714284s" begin="-0.7142857142857143s" repeatCount="indefinite"></animate>
  </rect>
</g><g transform="rotate(180 50 50)">
  <rect x="43" y="18" rx="7" ry="7" width="14" height="14" fill="#81bb28">
    <animate attributeName="opacity" values="1;0" keyTimes="0;1" dur="1.4285714285714284s" begin="-0.5952380952380952s" repeatCount="indefinite"></animate>
  </rect>
</g><g transform="rotate(210 50 50)">
  <rect x="43" y="18" rx="7" ry="7" width="14" height="14" fill="#81bb28">
    <animate attributeName="opacity" values="1;0" keyTimes="0;1" dur="1.4285714285714284s" begin="-0.47619047619047616s" repeatCount="indefinite"></animate>
  </rect>
</g><g transform="rotate(240 50 50)">
  <rect x="43" y="18" rx="7" ry="7" width="14" height="14" fill="#81bb28">
    <animate attributeName="opacity" values="1;0" keyTimes="0;1" dur="1.4285714285714284s" begin="-0.35714285714285715s" repeatCount="indefinite"></animate>
  </rect>
</g><g transform="rotate(270 50 50)">
  <rect x="43" y="18" rx="7" ry="7" width="14" height="14" fill="#81bb28">
    <animate attributeName="opacity" values="1;0" keyTimes="0;1" dur="1.4285714285714284s" begin="-0.23809523809523808s" repeatCount="indefinite"></animate>
  </rect>
</g><g transform="rotate(300 50 50)">
  <rect x="43" y="18" rx="7" ry="7" width="14" height="14" fill="#81bb28">
    <animate attributeName="opacity" values="1;0" keyTimes="0;1" dur="1.4285714285714284s" begin="-0.11904761904761904s" repeatCount="indefinite"></animate>
  </rect>
</g><g transform="rotate(330 50 50)">
  <rect x="43" y="18" rx="7" ry="7" width="14" height="14" fill="#81bb28">
    <animate attributeName="opacity" values="1;0" keyTimes="0;1" dur="1.4285714285714284s" begin="0s" repeatCount="indefinite"></animate>
  </rect>
</g>
<!-- [ldio] generated by https://loading.io/ --></svg>