<svg version="1.1" id="Layer_1" xmlns="http://www.w3.org/2000/svg" x="0" y="0" viewBox="0 0 500 500" xml:space="preserve">
  <style>
    .st0{fill:#8f9e78}.st1{fill:#8160a8}.st31{fill:#fff}
  </style>
  <path class="st0" d="M270.3 473.7c-4 0-7.3-3.2-7.4-7.3 0-1.8-3.6-181.2 67.2-331.3a7.5 7.5 0 019.9-3.6 7.5 7.5 0 013.6 9.9c-69.2 146.9-65.8 322.9-65.8 324.6a7.5 7.5 0 01-7.3 7.6l-.2.1zM243.1 473.7h-.2a7.5 7.5 0 01-7.3-7.6c.1-2.2 4.4-226.6-83.8-413.8a7.3 7.3 0 013.6-9.9 7.3 7.3 0 019.9 3.6c89.8 190.5 85.3 418.3 85.3 420.5-.2 4-3.5 7.2-7.5 7.2z"/>
  <path class="st1" d="M144.7 43.9c-2.6-7.2 0-14.9 6-17 5.9-2.2 12.9 1.9 15.5 9.2s4.6 25.2-2.1 27.6c-6.6 2.4-16.7-12.6-19.4-19.8zM172.2 127.3l34-13.1-13.4-36.6L176 89.8l-21.9 3.7zM177.6 228.4l34-17.6 39 4-14.1 36.7-15.1-3-11.7 9zM160.5 163.9l34-17.6 39 4-14.1 36.7-15.1-3-11.7 9.1zM355.4 118.4c2.5-7.3-.3-14.9-6.3-16.9s-12.9 2.2-15.4 9.5-4.1 25.3 2.6 27.6c6.8 2.3 16.6-12.9 19.1-20.2zM301.2 169c.5-7.7 6-13.6 12.3-13.2 6 .4 10.6 6.4 10.6 13.6 4.7-5.2 11.8-6.6 16.5-3.1 5.1 3.8 5.4 11.9.8 18l-19.6 14.9-16.2-6.1-4.4-24.1zM277.1 223.1l28.2-1.2 26.1 17.6-1.5 13.5-24.6 12.9-9.8-7.1-12.8 3.8-11.3-25.9z"/>
  <path d="M300 271.1a856 856 0 00-10 50.8l6.8-2.1.8 6.7h15.6l-.2-.6a853 853 0 017.7-40.5 70.2 70.2 0 0021.9-12.3c6.9-5.9 11.6-14 13.1-22.6a33.8 33.8 0 00-15.4-34.8 74.2 74.2 0 0019.9-17.4 38.6 38.6 0 007.9-24.9 35 35 0 00-5.5-17.4l2.2-4.7c1-2 1.7-4.2 2.2-6.3a73 73 0 0010.6-19.1c3-8.6 2.9-17.9-.2-26.1a33.6 33.6 0 00-31.3-22.2 37 37 0 00-34.3 25.7c-2 5.8-3.5 14.5-3.4 23.2l-3.1 6.8a36.9 36.9 0 00-27.2 34.1c-.4 6.4.5 16.7 3.8 26.2l-1.8 5.5a32.3 32.3 0 00-15.7 5 33.5 33.5 0 00-19.7-14.3l.8-1.4a72.5 72.5 0 008.4-21.4c1.8-8.9.4-18.1-3.7-25.9a33.9 33.9 0 00-29.2-18l-1.5-4.4a73.9 73.9 0 003.7-27.3 38.8 38.8 0 00-9.9-23 34.7 34.7 0 00-16.9-10.3L192 48a71.9 71.9 0 00-3.7-20.1A37.3 37.3 0 00154 3a33.2 33.2 0 00-31.5 22.8 39 39 0 00.3 26.1 71.2 71.2 0 0012.7 21l3.5 7.8a34.6 34.6 0 00-5.8 18.5 39.2 39.2 0 008.4 24.8c3 3.8 10.6 11.6 20.2 17a33.7 33.7 0 00-14.8 35.1 39.2 39.2 0 0013.5 22.4c3.1 2.5 7.8 5.6 13.4 8.3-1.3 1.1-2.6 2.2-3.7 3.5a33.6 33.6 0 00-8.3 27.8 39.1 39.1 0 0012.4 23c2.7 2.5 6.7 5.4 11.4 8.1a24.5 24.5 0 00-8.8 23.1c.3 2.2.8 4.7 1.5 7.9 1.1 4.7 3 11 5.4 18.8l2.4 7.6h9.8l2.1-50.8L221 288l-4.5-26.2a7.3 7.3 0 014.7-8.2l.8-.2h.2c4.1-1 8.1 1.7 8.9 5.8l4.8 27.6 19.6-20 12.6 60h6.1c2.9-18.6 6.6-38.4 11.3-58.6a7 7 0 017.3-5.4l1.7.2h.2c3.7.5 6.1 4.3 5.3 8.1zm-85.3-114.9c-.2-1.5.3-3 1.4-4a7.2 7.2 0 014.4-1.7l1.1.1c1.8.4 3.4 1.6 4.5 3.6 1.2 2.2 1.5 5 1 7.7-.6 3.2-2.7 8.8-5.5 13.4-3 4.9-5.4 6.3-6 6.1-.2 0-.5-.3-.8-.7 1.7-10.6.6-20.4-.1-24.5zm-24.1 28.1c-5-1.8-10.2-4.8-12.7-6.8a11.2 11.2 0 01-4.1-6.6c-.4-2.2 0-4.2 1.2-5.6 1.6-1.9 4.3-2.6 7.2-2 1.9.4 3.5 1.8 4.2 3.6 1.7 4.1 4.3 8.7 7.1 12.4a36 36 0 004.9 5.2c.4.3.2.9-.3.9-1.6 0-4.3.1-7.5-1.1zm2.1-22.6c-.8-2.7-.8-5.5.2-7.8a6.7 6.7 0 014.1-4.1c1.8-.6 3.8-.2 5.7 1a12 12 0 014.6 6.3c2.6 8.4 1.7 21.8-.9 22.6-2.8 1-11-9.4-13.7-18zm4.4-36l4.9 15.2c.2.6-.3 1.2-1 1.1-2.1-.4-4.3-.3-6.4.4-2.1.6-3.9 1.7-5.4 3.2-.5.4-1.2.3-1.4-.4l-4.9-15c-1.2-3.6.7-7.1 4.2-8.6l.4-.2.4-.2c3.8-1.2 7.9.7 9.2 4.5zm-9.5-41.3c4.1-.4 7.9 4 8.4 9.4.7 8.8-3.1 21.7-5.8 21.9-2.8.2-8.6-11.7-9.3-20.7-.4-5.4 2.6-10.3 6.7-10.6zM174 116.6a48.8 48.8 0 01-10.9-9.4c-3.4-4.3-3.5-10.1-.2-12.6a6.4 6.4 0 013.8-1.2c1.5 0 3.2.5 4.7 1.3 1.2.7 1.9 1.9 2.1 3.2a56 56 0 004.4 14.3c1.2 2.7 2.5 4.7 3.8 6.3.3.4 0 1-.5 1-2.5 0-7.2-2.9-7.2-2.9zm39 132.7c.3.2.1.7-.2.7-1.2.2-3.8 0-7.8-1.6-4.9-2-10-5.3-12.4-7.5-4-3.7-5.1-9.3-2.3-12.4a6.7 6.7 0 015.4-2c1.7.1 3.5.7 5.1 1.7a52.8 52.8 0 0012.2 21.1zm3.3-58.1l3.6 14.7c.2.8-.6 1.4-1.3 1.2a13.5 13.5 0 00-11.9 1.8c-.6.4-1.4.1-1.5-.6l-3.5-14.2a6 6 0 011-5.3c.8-1 2-2 4-2.4 2.9-.7 5.2.1 6.7 1 1.5.7 2.5 2.2 2.9 3.8zM172.4 61.8c2.4 5.5 4.8 11 7 16.5.3.7.1 1.4-.4 1.9a15.5 15.5 0 00-4.2 5.8c-.4.8-1.3 1.2-2.1.9a14 14 0 00-5.3-1.1c-.6 0-1.2-.4-1.4-1l-6.8-16c-.3-.6.3-1.3 1-1.1.9.2 1.7.4 2.5.4 1.1 0 2-.2 2.9-.5 1.9-.7 4-2.2 5.4-5.5.2-1 1.1-1 1.4-.3zm-24.2-27a6.7 6.7 0 013.9-4.3c1.8-.6 3.8-.4 5.7.8 2.2 1.3 3.9 3.4 4.9 6.1 1.1 3 2.2 8.9 2.2 14.3 0 5.8-1.3 8.1-2 8.4-2.6.9-11.3-9-14.4-17.5a11.1 11.1 0 01-.3-7.8zm75.5 201.8c-.6 5.8-2.1 8-2.8 8.1-.7.2-3.1-1-6.4-5.8-3-4.4-5.4-9.9-6.2-13-.7-2.7-.5-5.5.6-7.8.9-2 2.5-3.4 4.3-3.8l1.4-.2c3.6 0 7.2 3.4 8.4 8 .7 3.2 1.2 9.2.7 14.5zm5.6 9.6c1-2.1 1.7-5 2.1-8.7.6-5.7.2-12.6-1-17.2l-.2-.7c1.7-2.1 3.9-3.4 6.1-3.4l1.3.2c4 1 6.2 6.3 4.9 11.6a47 47 0 01-6.2 13.1c-3.3 4.8-5.7 6-6.3 5.8l-.7-.7zM335.6 159c-.3.9-1.2 1.5-2.1 1.5l-2.7.4-2 .6c-1.1.4-2.3-.1-2.9-1.1-.9-1.7-2-3.2-3.3-4.5-.7-.7-1-1.8-.6-2.7 2.1-4.9 4.2-9.8 6.5-14.7.4-.8 1.5-.9 2-.1a8.4 8.4 0 007.3 4.1c1.2 0 2.5-.3 4-.9a.7.7 0 011 1c-1.6 3.4-4.7 9.8-7.2 16.4zm-13.2 35.1c-1.1.4-2.1-.9-1.5-1.8a58.9 58.9 0 006.6-18.3 6.6 6.6 0 015-5.4h.1c.7-.2 1.3-.2 2-.2 1.4 0 2.7.4 3.7 1.2 1.5 1.1 2.4 3 2.5 5.2.1 2.5-.8 5.1-2.5 7.4-2 2.6-6.3 6.7-10.7 9.6 0-.1-2.8 1.5-5.2 2.3zm-2.2-23.9c-.2 3.2-1.5 9.1-3.7 14-2.3 5.3-4.5 6.9-5.2 6.9-.7 0-2.6-1.9-4.3-7.5a48 48 0 01-1.9-14.3c.2-2.8 1.2-5.4 2.9-7.2a6.7 6.7 0 014.9-2.3h.4c4.1.2 7.2 5 6.9 10.4zm-2.1 35.5l-3.4 10.6a3.8 3.8 0 01-5.3 2.3l-2-.7c-1.2-.3-2.4-.5-3.6-.5a3.7 3.7 0 01-3.5-4.9l3.7-11.4c1.3-3.8 5.3-6 9.1-4.7l.8.3.1.1a7 7 0 014.1 8.9zm-11.8 55.1c-1 0-1.4-1.1-.7-1.8a53 53 0 0011.5-19.3 11 11 0 015.4-1.5c2.1 0 3.9.7 5.1 2.1a6.6 6.6 0 011.3 5.6c-.4 2.5-1.9 4.9-4 6.7a42.7 42.7 0 01-12.6 7.1 24 24 0 01-6 1.1zm-25.2-9.5a47.4 47.4 0 01-5.8-13.2c-1.2-5.3 1.3-10.6 5.3-11.4l1.2-.1c1.5 0 3 .6 4.4 1.7.7.5 1.3 1.2 1.8 1.9l-.2.7a54.8 54.8 0 00-.6 23c.4 1.5-1.4 2.6-2.5 1.6-2-1.7-3.6-4.2-3.6-4.2zm15.4 4.2c-.7-.2-2.1-2.4-2.6-8.2-.4-5.3.3-11.3 1.2-14.4a12 12 0 014.4-6.4 7.2 7.2 0 014.1-1.4l1.6.2c1.8.5 3.3 1.9 4.2 4 1 2.3 1.1 5.1.3 7.8-2.5 8.7-10.6 19.2-13.2 18.4zm55.2-138.4a48.5 48.5 0 01-7.3 12.5c-3.7 4.5-6.2 5.5-6.8 5.3-.6-.2-2-2.5-2.1-8.3a50 50 0 011.9-14.3c1.5-4.4 5.2-7.4 8.6-7.4l1.8.3c1.8.6 3.2 2.1 3.9 4.2.9 2.3.9 5.1 0 7.7z" fill="#3a195b"/>
  <path class="st0" d="M231.5 482.5h49l76.7-124.6-7.1-24.5-45.7 49-7.6-62.6-28.3 8.7-13-62-25.6 26.1-31.8-16.9-2.5 62.1-40.8 4.9z"/>
  <circle class="st31" cx="198.9" cy="156.4" r="3.5"/>
  <circle class="st31" cx="180" cy="168.9" r="3.5"/>
  <circle class="st31" cx="214.3" cy="220.4" r="3.5"/>
  <circle class="st31" cx="345.8" cy="111.2" r="3.5"/>
  <circle class="st31" cx="313.3" cy="166.6" r="3.5"/>
  <circle class="st31" cx="303.6" cy="232.2" r="3.5"/>
  <circle class="st31" cx="282.6" cy="233.7" r="3.5"/>
  <circle class="st31" cx="195.6" cy="233" r="3.5"/>
  <circle class="st31" cx="166.7" cy="99.8" r="3.5"/>
  <circle class="st31" cx="153.9" cy="35.6" r="3.5"/>
  <path d="M357.2 326.8c-3.7-2.3-8-3.5-12.3-3.5-12.7 0-20.1 9.5-25.5 16.4l-2.7 3.6c-.5.7-1.7.2-1.5-.6l.2-1.3a24.5 24.5 0 00-15.3-27.2c-2.7-1-5.4-1.5-8.2-1.5h-.1l-2.3 13.6c-.2 1.4-1 2.6-2.2 3.3-2.9 1.9-5.1 5.8-7.9 11.2l-4.4 9c-.3.7-1.3.4-1.2-.3 1.5-13.7 2.8-28.9 3.6-41.2.5-8.1.8-14.7.7-19.5 0-3.3-.1-5.9-.4-8.1a24.2 24.2 0 00-21.1-22.3l-1.4-.2h-1.4c-3.4 0-14 .9-20.5 11.8 2.2 12.7 4.1 25 5.8 37v2.6c-1.5 8.6-3 18.3-4.3 27.7-.2 1.2-1.8 1.4-2.2.3l-6-14.6-.6-2.1a1182 1182 0 00-7.4-48.5 24 24 0 00-26.5-6.8 24.2 24.2 0 00-15.1 26.7c.3 2.2.8 4.7 1.5 7.9a318.7 318.7 0 009.5 31.4c.2.6-.6 1.1-1.1.7a26.1 26.1 0 00-18.6-8.3c-4.4 0-8.6 1.2-12.3 3.5a24.4 24.4 0 00-9.9 29.6c.8 2.4 1.9 5.3 3.5 8.9 2.5 5.6 6.2 13 11.1 22.1 9 16.8 21 37.9 31.5 55.1a497 497 0 0017.5 27c2.1 2.9 4 6 5.6 9.3a30.8 30.8 0 0026.8 17.6h1c3.2 0 6.3-.5 9.3-1.4 2.8-.9 5.9-.9 8.7 0 3 .9 6.1 1.4 9.3 1.4h1a30.6 30.6 0 0027.3-18.9c1.4-3.4 3.3-6.6 5.4-9.6 4.7-6.7 10.2-15.3 16.8-26 10.5-17.2 22.6-38.3 31.5-55.1 4.8-9.1 8.6-16.5 11.1-22.1 1.6-3.6 2.8-6.5 3.5-8.9 6-19-7.1-28.1-9.8-29.7zm-103.5-45.2c2.6.3-.5 42.6-4.2 73.3-.8 6.6-1.5 12-2.3 16.6-.2 1.2-1.9 1.3-2.3.2a303 303 0 00-4.5-13.1c-.3-.9-.5-2-.4-3l.2-1.8c3.8-30.6 10.9-72.2 13.5-72.2zm-20.2 118.3c0-.9.9-1.5 1.7-1.1 1.3.6 2.7 1 4.2 1a9.4 9.4 0 006.8-3.1c.7-.8 2-.4 2 .7l.8 14.1-3.1 8.3c-2.2 6-4.2 11.4-5.8 16.2-.3.9-1.6 1.1-2.1.2l-2.2-3.8c-.5-.9-.8-1.9-.9-2.9l-1.4-29.6zm-33.2-112.5c2.8 0 19.5 38.3 30.3 66.9 10.9 28.9 11.7 36.8 9.3 37.7l-.4.1c-2.5 0-7.2-7.3-17.6-34.5-10.9-28.9-24-69.3-21.6-70.2zm42.8 182.9c-.3.2-.5.2-.9.2-3.4 0-11.2-8.6-30.1-39.6-20.7-34-46.9-82-44.1-83.7h.2c3.8 0 33.7 44.2 54.1 77.5 20.7 34 23.6 43.9 20.8 45.6zm8.4-11.9c-.4.9-1.7.9-2.1-.1l-.7-1.7-3-6.4a6.2 6.2 0 01-.4-4.8c2-6.2 4.6-13.7 8-22.9 13.7-36.9 34.9-86.4 38.3-86.4h.1c3.1 1.1-13.4 53.3-27.3 90.6a361 361 0 01-12.9 31.7zm11.6.3c-.2 0-.3-.2-.3-.4l.1-5.9.2-.9c2.6-6.1 5.5-13.5 8.7-22.2a1336 1336 0 007.1-19.7c.2-.5.9-.3.9.2l-1.1 18.9a3 3 0 01-.5 1.6c-6.5 11.1-11 19.6-13.6 25.7l-1 2.3c-.2.2-.2.4-.5.4zm37.9-28.3c-18.9 30.9-26.7 39.6-30.1 39.6l-.9-.2c-2.8-1.7.1-11.6 20.8-45.5 20.3-33.4 50.3-77.5 54.1-77.5h.2c2.8 1.6-23.4 49.6-44.1 83.6z" fill="#546633"/>
</svg>