<svg version="1.1" id="Layer_1" xmlns="http://www.w3.org/2000/svg" x="0" y="0" viewBox="0 0 64 64" xml:space="preserve">
  <style>
    .st11{fill:#fff}.st12{fill:#406d2a}
  </style>
  <path d="M34.2 61.4l4.3-11.3c1.1-2.9 3.6-5 6.5-5.4a17.1 17.1 0 0014.5-11.5c2-5 2.7-10.9 1.9-16.1-.8-5.6-3.4-9.6-7.1-11.1a8.6 8.6 0 00-3.6-.7C44 5.3 35.9 12 32 20.6 28 12 20 5.3 13.2 5.3c-1.2 0-2.4.3-3.5.7C6 7.5 3.4 11.5 2.5 17.1c-.8 5.2-.1 11 1.9 16.1a17.3 17.3 0 0014.5 11.5c2.9.5 5.4 2.6 6.5 5.4l4.3 11.3h4.5z" fill="#6fad4c"/>
  <path class="st12" d="M35.1 58.9L45.3 32h.1l.3-.1s1.9-1.6 4.4-1.7c3.1-.2 5-1.9 5.1-2 .2-.2.2-.5 0-.7a.5.5 0 00-.7 0s-1.7 1.6-4.4 1.7c-1.9.1-3.4.9-4.3 1.4l4.3-11.5.1-.4c0-.5-.4-1-1-1h-.1l-.4.2-.3.3-.1.1-14.6 32L34 52l15.2-33.4-14.9 39.6.8.7zM30.5 50.6L15.7 18.3c-.2-.4-.5-.6-.9-.6l-.4.1c-.4.2-.7.7-.5 1.2l1.7 4.6c-1-.7-2.6-1.5-4.8-1.7-3.1-.3-5.3-2.3-5.3-2.3a.5.5 0 00-.7 0c-.2.2-.2.5 0 .7.1.1 2.4 2.2 5.9 2.6 3.3.3 5.3 2.3 5.3 2.3l.2.1 2.9 7.7c-1.3-.8-3.3-1.8-5.8-2-4-.4-6.7-2.9-6.8-2.9a.5.5 0 00-.7 0c-.2.2-.2.5 0 .7.1.1 3 2.8 7.3 3.2 3.6.3 6 2.2 6.6 2.8l8.8 23.5.9-.4-8.7-23.2-.1-.4-5.8-15.5 15.4 33.8.3-2z"/>
  <path d="M34 62l-.4-12.1c.1-3.1 2.4-7.8 5-9.8 4.7-3.6 7.6-7.3 7.6-15.3 0-10.6-6.4-22.2-14.2-22.2S17.8 14.3 17.8 24.9c0 7.9 2.9 11.6 7.6 15.2 2.8 2.2 4.9 6.4 4.9 9.8L30 62h4z" fill="#82c64e"/>
  <path d="M62 11.8c-1.5-3.6-4-6.2-7-7.4-1.3-.5-2.8-.8-4.3-.8-2.3 0-4.7.6-7.1 1.8-.5.2-1.2.1-1.6-.4-2.9-3.2-6.4-5-10-5-3.6 0-7 1.7-9.8 4.8-.5.5-1.3.7-1.9.4a16.3 16.3 0 00-6.9-1.7c-1.5 0-3 .3-4.3.8a12.8 12.8 0 00-7 7.4 30 30 0 00.4 22.2c3.9 9.6 11 11.8 16 12.6 2.2.4 4.1 1.9 5 4.1l4.3 11.2c.3.7.8 1.3 1.4 1.6.3.1 1.4.6 2.8.6a5 5 0 002.7-.7c.6-.3 1.1-.9 1.4-1.6l4.3-11.2a6.2 6.2 0 015-4.1c10.4-1.7 14.1-8 16-12.6 3-7.1 3.3-15.8.6-22zM28.9 56.1l-2.6-6.7a9.5 9.5 0 00-7.3-6A16.1 16.1 0 015.3 32.8c-4-9.7-2.5-22.7 4.8-25.6 1-.4 2.1-.6 3.2-.6 2.4 0 5 .9 7.5 2.5.4.3.6.9.3 1.3A31 31 0 0017.2 25c0 8 2.9 11.8 7.8 15.6l1.6 1.5 3.2 7.1-.2 6.8c0 .4-.5.5-.7.1zm3.4 4.9h-.6c-.7 0-1.2-.4-1.2-1.1L31.9 18l.1-1.6V18l1.4 42c0 .9-1.1 1-1.1 1zm11.5-38.9c-.2-.1-.5 0-.7.2 0 0-1.6 3.4-5.2 5.2a14.8 14.8 0 00-4.5 3.7l-.3-8.1s1.2-2.6 4.1-4.1c3.1-1.6 4.5-4.5 4.6-4.6.1-.2 0-.5-.2-.7-.2-.1-.5 0-.7.2 0 0-1.3 2.7-4.1 4.1a10 10 0 00-3.7 3.2l-.2-5.9c0-.5-.5-1-1-1a1 1 0 00-1 1l-.4 11.2a8.8 8.8 0 00-3.3-2.4c-2.5-1-3.7-3-3.7-3-.1-.2-.4-.3-.7-.2-.2.1-.3.4-.2.7.1.1 1.3 2.3 4.2 3.5 2.2.9 3.4 2.7 3.6 3l-.4 17c-1.1-2.1-2.7-4-4.3-5.3-4.7-3.7-7.4-7.3-7.4-14.8 0-10 6-21.7 13.7-21.7S45.6 15 45.6 25c0 7.7-2.7 11.2-7.4 14.8a15.4 15.4 0 00-4.2 5.5L33.5 33c.6-1.1 2.1-3.2 4.9-4.6 3.9-2 5.6-5.5 5.7-5.7.1-.2 0-.5-.3-.6zm14.9 10.7A16 16 0 0145 43.5a9.5 9.5 0 00-7.3 6L35 56.4c-.1.4-.7.3-.7-.1l-.2-6.9 3.5-7.6 1.2-1.1c4.8-3.7 7.8-7.6 7.8-15.6 0-5-1.4-10.3-3.8-14.5-.3-.5-.1-1 .3-1.3 2.5-1.6 5.2-2.6 7.7-2.6 1.1 0 2.2.2 3.2.6 7.2 2.8 8.7 15.7 4.7 25.5z" fill="#184c28"/>
  <path class="st11" d="M38.5 24.6l-.4-.2c-.2-.2-.1-.5.1-.7 1-.7 2-1.6 2.7-2.6.2-.2.5-.3.7-.1.2.2.3.5.1.7a11.5 11.5 0 01-3.2 2.9zM23.2 14.4H23c-.3-.1-.4-.4-.2-.7a19 19 0 014.7-6.6c.2-.2.5-.1.6.1s.1.5-.1.7a19.1 19.1 0 00-4.5 6.2c0 .2-.1.3-.3.3z"/>
  <circle class="st11" cx="6.2" cy="17.5" r=".5"/>
  <circle class="st11" cx="30" cy="6.2" r=".5"/>
  <circle class="st11" cx="36.8" cy="25.7" r=".5"/>
  <path class="st11" d="M10.9 20.4h-.1a12 12 0 01-3.3-1.3c-.2-.1-.3-.5-.2-.7.2-.3.5-.4.7-.2.9.6 2 1 3 1.2.3.1.4.3.4.6 0 .2-.2.4-.5.4z"/>
</svg>