<svg xmlns="http://www.w3.org/2000/svg" viewBox="0 0 200 200">
  <style>
    .st0{fill:#7c9800}.st27{fill:#fff}.st153{fill:#f9a361}.st155{fill:#0c4c0c}
  </style>
  <g id="Layer_1">
    <path class="st0" d="M146.6 38.8c4.5-6.4 8-13.6 10.2-21.5 0 0-14 8.4-33.6 14.6 8.4.5 16.2 2.9 23.4 6.9zM106.6 33.7L93.5 5.8l-7.1 27zM48.3 48.9a56 56 0 0119.5-12.4A157.1 157.1 0 0133 27.6a53.8 53.8 0 0015.3 21.3z"/>
    <path class="st155" d="M42.8 50.3a57.5 57.5 0 01-14.2-21c-.5-1.5-.4-3.1.5-4.4a4.7 4.7 0 015.8-1.7c.2.1 17.1 7.1 39.7 9.3a58.4 58.4 0 00-18.4 6.8c-3.8-.8-7.2-1.6-10.3-2.5-1-.3-1.8.9-1.1 1.7 1.5 1.8 3.1 3.6 4.8 5.2l-6.8 6.6zM135 32.8c3.7-1.4 7-2.8 10-4.2 1-.4 2 .6 1.4 1.6l-3.1 4.9c3 1.1 5.9 2.5 8.7 4.1a73.5 73.5 0 009.4-20.7 5 5 0 00-1.7-5.1 4.7 4.7 0 00-5.3-.3c-.2.1-19.4 11.5-43.9 17.3L97.8 3.7A4.6 4.6 0 0093.1 1c-2 .2-3.7 1.6-4.2 3.5l-7.2 27.1 9.7.5 2.3-8.7c.3-1.3 2.1-1.4 2.7-.2l5.4 11.5 33.2-1.9z"/>
    <path d="M10 114.8c0-27.9 10-47.9 34.4-61.6 9.4-16.6 24.3-21 43.1-18.6 3.5.5 7 1 10.3 1.7l2.1-.4c63.4-10.6 90 23.9 90 78.8 0 66.3-35.2 83.1-90 78.8a257 257 0 01-12.9-1.2c-14.7 4-26 1.2-34.4-6.9-25.5-8.8-42.6-27.6-42.6-70.6z" fill="#f04d02"/>
    <path class="st153" d="M63.6 37.7c-7.2 25.2-13.8 48.3-10 74.7.6 4 6.7 2.3 6.1-1.7-3.6-25 3.2-47.5 10-71.3 1.1-4-5-5.6-6.1-1.7zM142.7 35.1c-3.9-1.3-5.6 4.8-1.7 6.1 27.2 9.1 26.1 46.8 25.5 69.7-.1 4.1 6.2 4.1 6.4 0 .6-26.2.2-65.7-30.2-75.8zM151.5 155.2a94.2 94.2 0 01-9.6 17.3c-3.9 5.5-9.3 13-15.8 15.3-3.8 1.4-2.2 7.5 1.7 6.1 13.8-4.9 23.8-22.8 29.3-35.5 1.5-3.7-4-6.9-5.6-3.2z"/>
    <path class="st153" d="M156.7 85.1c-4.1 0-4.1 6.4 0 6.4s4.1-6.4 0-6.4zM137.2 61.7c-1.2-3.9-7.3-2.2-6.1 1.7 4.6 15.6 7.4 31.4 8.2 47.6.2 4.1 6.6 4.1 6.4 0-.9-16.8-3.7-33.2-8.5-49.3zM115.8 62.5c-.4-4-6.8-4.1-6.4 0 3 28.1 2.5 56.1-1.6 84.1-.6 4 5.5 5.7 6.1 1.7 4.2-28.6 4.9-57 1.9-85.8zM24.9 148.7a113.8 113.8 0 01-.7-58.5c1-4-5.1-5.7-6.1-1.7-5.1 20.7-4.9 41.3.7 61.9 1 4 7.1 2.3 6.1-1.7zM76.6 123.8c-6.5-13.2-3.9-31-3.1-45.2.2-4.1-6.1-4.1-6.4 0-1 15.8-3.3 33.8 3.9 48.4 1.9 3.6 7.4.4 5.6-3.2zM93.4 35c-1.2-3.9-7.3-2.2-6.1 1.7 4.7 15.9 6.9 32 6.6 48.6-.1 4.1 6.3 4.1 6.4 0 .2-17.2-2.1-33.9-6.9-50.3zM77.5 188.7c-11.4-5.7-17-22.8-18.2-34.5-.4-4-6.7-4.1-6.4 0 1.3 13.9 7.8 33.2 21.3 40 3.7 1.8 6.9-3.7 3.3-5.5zM53.2 134.6c-4.1 0-4.1 6.4 0 6.4 4.1-.1 4.1-6.4 0-6.4zM126.3 49.6c-4.1 0-4.1 6.4 0 6.4s4.1-6.4 0-6.4z"/>
    <path class="st153" d="M74.2 172.5a19.3 19.3 0 01-4.2-10.7c-.3-4.1-6.6-4.1-6.4 0 .4 5.7 2.4 10.7 6 15.2 2.7 3.2 7.2-1.3 4.6-4.5zM25.6 99.4c-1.4 5.2-2 10.5-1.9 15.9.1 4.1 6.4 4.1 6.4 0-.1-4.8.5-9.5 1.7-14.2 1-4-5.1-5.7-6.2-1.7zM27.4 123.9c-4.1 0-4.1 6.4 0 6.4s4.1-6.4 0-6.4zM186 95.1c-.3-4-6.7-4.1-6.4 0 1.1 13.8.7 27.5-1.4 41.1-.6 4 5.5 5.7 6.1 1.7 2.2-14.2 2.8-28.4 1.7-42.8zM179.1 144.3c-4.1 0-4.1 6.4 0 6.4s4.1-6.4 0-6.4zM88.4 60c-1.4-6.3-2.5-12.7-3.2-19.2-.4-4-6.8-4.1-6.4 0 .8 7 1.9 14 3.4 20.9 1 4 7.1 2.3 6.2-1.7z"/>
    <path class="st27" d="M157.8 58.9c-.4 0-.7-.1-1-.4a46 46 0 00-25.4-10c-.9-.1-1.5-.9-1.4-1.8.1-.9.9-1.5 1.8-1.4A49.2 49.2 0 01158.9 56c.7.6.8 1.6.2 2.2-.4.5-.8.7-1.3.7z"/>
    <path class="st153" d="M104.2 160.2c-1 7.8-4.4 14.8-9.7 20.5-2.8 3 1.7 7.5 4.5 4.5 6.6-7 10.4-15.5 11.6-25 .5-4-5.9-4-6.4 0z"/>
    <path d="M103.2 30.4c-3.5.6-7.1.6-10.7.1l-4.4-.6C68.3 27.3 53.7 32.4 44 45.3a37.5 37.5 0 01-8.5 7.9C14.9 67.1 5.2 86.9 5.2 114.8c0 38 12.9 61.4 40.4 73.1a35 35 0 017.3 4.1 37.5 37.5 0 0030.4 6.2 33 33 0 019.4-.4l6.9.6c5.5.4 10.7.6 15.6.6 25.7 0 44.1-5.8 57.3-18 15-13.9 22.3-35.5 22.3-66.2 0-32.1-8.5-55.9-25.7-70.1-22.5-18.8-53.7-16.2-65.9-14.3zm-88.4 84.4c0-23 7-39.2 22.4-51.1 1.8-1.4 4.2.4 3.5 2.5-.8 2.3-1.4 4.8-2.1 7.3-.2.9.3 1.8 1.1 2.1.9.2 1.8-.3 2-1.2 6.4-27.2 20.7-37.9 46.2-34.6 27.5 3.6 50.3 11.6 50.3 73.7 0 42.4-14.6 63.7-50.5 73.8-10.6 3-19.7 2.2-27-2.3-9.5-5.9-16.2-18.2-19.7-36.4-.2-.9-1-1.4-1.9-1.3-.9.2-1.4 1-1.3 1.9a84.4 84.4 0 007.9 23.7c1.1 2-1.1 4.1-3.1 3-19.2-11.2-27.8-30.5-27.8-61.1zm89 74.5c-2.3-.1-2.9-3.2-.8-4.2 26.7-12.1 38.3-34.3 38.3-71.7 0-43.5-10.8-61.5-26.7-69.9-2.2-1.2-1.5-4.5 1-4.6 19.9-1.1 35.8 3.2 47.3 13 14.8 12.5 22.3 33.7 22.3 62.9 0 27.9-5.7 47.9-19.2 59.2-18.4 15.5-47.5 16.1-62.2 15.3z" fill="#992216"/>
    <path class="st27" d="M52.7 71.1l-.5-.1a1.6 1.6 0 01-.9-2c6.9-18.7 18.8-21.1 28.3-21.1.9 0 1.6.7 1.6 1.6s-.7 1.6-1.6 1.6c-9.1 0-19.1 2.3-25.3 19-.4.6-1 1-1.6 1z"/>
    <circle class="st27" cx="50.3" cy="77.9" r="1.6"/>
  </g>
</svg>