<svg version="1.1" id="Layer_1" xmlns="http://www.w3.org/2000/svg" x="0" y="0" viewBox="0 0 1000 1000" xml:space="preserve">
  <style>
    .st12{fill:#73953b}.st43{fill:#fff}
  </style>
  <path class="st12" d="M466 261l-91-145M534 261l91-145"/>
  <path d="M500 945c48-62 108-113 176-152 96-56 181-135 181-246 0-224-243-344-476-284a314 314 0 00-225 204c-50 153 53 261 171 329 67 38 126 89 173 149z" fill="#efe8d7"/>
  <path d="M500 968c-7 0-14-3-18-9a563 563 0 00-166-143c-71-41-124-88-157-140-41-67-50-139-25-216 17-54 49-103 92-141 42-37 94-64 150-78 69-18 141-21 209-9 67 12 128 38 177 76a297 297 0 01118 239c0 102-65 192-193 266-68 39-125 88-169 146-4 6-11 9-18 9zm1-697c-38 0-77 4-114 14-49 12-94 36-130 68-37 33-65 75-79 121a205 205 0 0020 178c28 46 76 88 140 124 62 36 116 80 162 133 45-53 100-99 164-136 52-30 93-62 121-97 33-40 49-83 49-129a251 251 0 00-100-203c-43-33-97-56-157-67-25-4-50-6-76-6z" fill="#dabb95"/>
  <path opacity=".6" fill="#bf71b0" d="M306 271h388v45H306z"/>
  <path opacity=".5" fill="#bf71b0" d="M233 316h534v46H233z"/>
  <path opacity=".4" fill="#bf71b0" d="M193 362h614v45H193z"/>
  <path opacity=".3" fill="#bf71b0" d="M164 407h672v46H164z"/>
  <path opacity=".2" fill="#bf71b0" d="M151 453h698v46H151z"/>
  <path class="st43" d="M277 441l-6-2c-5-3-6-10-3-15 23-38 60-68 103-85 5-2 11 1 13 6 3 6 0 12-6 14-38 15-71 42-92 76-2 4-6 6-9 6z"/>
  <circle class="st43" cx="256.1" cy="477.6" r="10.5"/>
  <path d="M500 968c-7 0-14-3-18-9a563 563 0 00-166-143c-71-41-124-88-157-140-41-67-50-139-25-216 17-54 49-103 92-141 42-37 94-64 150-78 69-18 141-21 209-9 67 12 128 38 177 76a297 297 0 01118 239c0 102-65 192-193 266-68 39-125 88-169 146-4 6-11 9-18 9zm1-697c-38 0-77 4-114 14-49 12-94 36-130 68-37 33-65 75-79 121a205 205 0 0020 178c28 46 76 88 140 124 62 36 116 80 162 133 45-53 100-99 164-136 52-30 93-62 121-97 33-40 49-83 49-129a251 251 0 00-100-203c-43-33-97-56-157-67-25-4-50-6-76-6z" fill="#8c7662"/>
  <path d="M669 89l-39-24a45 45 0 00-62 13V56c0-26-20-46-45-46h-46c-25 0-46 20-46 46v21a46 46 0 00-61-12l-39 24a45 45 0 00-14 63l56 89h3l28-7 29 47 7 6c1 0 26 13 61 13 20 0 40-5 59-13 3-1 5-3 6-6l30-47 31 8 56-90c13-22 7-50-14-63zM554 273c-19 9-37 11-53 11-32 1-55-11-55-11l-26-42 50-5 7 10v-11h46v11l6-10c17 1 34 2 51 5l-26 42z" fill="#3d710c"/>
  <path class="st12" d="M603 108l-71 114c-3 4-9 2-9-3V61c0-3-3-5-5-5h-36c-3 0-5 2-5 5v158c0 5-7 7-9 3l-71-114c-2-3-5-4-7-2l-30 19c-3 1-3 4-2 7l87 140 3 2a136 136 0 00104 0l2-2 88-140c1-3 0-6-2-7l-30-19c-2-1-5-1-7 2z"/>
</svg>