<?xml version="1.0" encoding="UTF-8"?>
<svg version="1.1" xmlns="http://www.w3.org/2000/svg" width="32" height="32">
<path d="M0 0 C4.23301121 2.82200747 7.17159664 5.95228992 8.8125 10.875 C9.18076224 16.49099916 9.02806007 20.05165989 5.8125 24.875 C1.88016191 28.85031446 -1.33209849 30.75333433 -7 31.125 C-11.71892223 31.03857285 -15.20192669 29.83910765 -18.6328125 26.4453125 C-22.45774286 22.05210677 -23.50490764 18.74295689 -23.3984375 12.9296875 C-22.91258058 8.19708116 -20.67007414 5.09459191 -17.1875 2.0625 C-11.77431523 -1.8846139 -6.19254468 -2.18560401 0 0 Z " fill="#F8F9F0" transform="translate(23.1875,1.125)"/>
<path d="M0 0 C-0.375 2.4375 -0.375 2.4375 -1 5 C-1.99 5.495 -1.99 5.495 -3 6 C-3.58179863 13.59570439 -2.26889853 19.14115041 1 26 C-2.63028129 26.33770059 -4.52706859 26.28595853 -7.6875 24.375 C-11.27274892 20.69285246 -12.79902693 17.60778453 -13.4375 12.5 C-12.80882217 7.47057732 -10.65152393 4.59824896 -7.0625 1.125 C-4.55059261 -0.2451313 -2.81972723 -0.23497727 0 0 Z " fill="#FBFCF6" transform="translate(15,3)"/>
<path d="M0 0 C4.23301121 2.82200747 7.17159664 5.95228992 8.8125 10.875 C9.18076224 16.49099916 9.02806007 20.05165989 5.8125 24.875 C1.88016191 28.85031446 -1.33209849 30.75333433 -7 31.125 C-11.71892223 31.03857285 -15.20192669 29.83910765 -18.6328125 26.4453125 C-22.45774286 22.05210677 -23.50490764 18.74295689 -23.3984375 12.9296875 C-22.91258058 8.19708116 -20.67007414 5.09459191 -17.1875 2.0625 C-11.77431523 -1.8846139 -6.19254468 -2.18560401 0 0 Z M-19.5625 7.6875 C-21.52398313 11.53502461 -21.78693353 13.60403613 -21.1875 17.875 C-19.43772104 22.80337151 -16.7402762 25.90735389 -12.04296875 28.2109375 C-8.82259612 29.36349191 -6.56095958 29.41716315 -3.1875 28.875 C0.77515407 26.95098408 3.29227298 24.64694977 5.75 21 C7.0092276 17.29638942 7.29867998 14.76443984 6.8125 10.875 C4.07364877 5.78856199 1.3023792 2.70495973 -4.1875 0.875 C-11.37229796 0.19718887 -14.96365083 2.2414944 -19.5625 7.6875 Z " fill="#94BB30" transform="translate(23.1875,1.125)"/>
<path d="M0 0 C0.66 0 1.32 0 2 0 C2.33 0.99 2.66 1.98 3 3 C3.99 3.66 4.98 4.32 6 5 C7.46481119 11.98094702 5.28862461 17.92191702 2 24 C1.34 24 0.68 24 0 24 C-3.28862461 17.92191702 -5.46481119 11.98094702 -4 5 C-3.01 4.34 -2.02 3.68 -1 3 C-0.67 2.01 -0.34 1.02 0 0 Z " fill="#D6955D" transform="translate(15,4)"/>
<path d="M0 0 C0.66 0 1.32 0 2 0 C2 1.98 2 3.96 2 6 C3.32 6 4.64 6 6 6 C5.52269162 7.4589426 5.04308958 8.91713496 4.5625 10.375 C4.29566406 11.18710937 4.02882813 11.99921875 3.75390625 12.8359375 C3 15 3 15 2 17 C1.34 17 0.68 17 0 17 C-0.67119549 15.5437455 -1.33681807 14.08492133 -2 12.625 C-2.37125 11.81289063 -2.7425 11.00078125 -3.125 10.1640625 C-4 8 -4 8 -4 6 C-2.68 6 -1.36 6 0 6 C0 4.02 0 2.04 0 0 Z " fill="#ED8F3D" transform="translate(15,11)"/>
<path d="M0 0 C0.66 0.33 1.32 0.66 2 1 C1.84518205 3.70931419 1.51827919 5.46584039 -0.40234375 7.4453125 C-1.89771708 8.67679642 -3.4462924 9.8429837 -5 11 C-5.99 10.34 -6.98 9.68 -8 9 C-7.236875 8.62875 -6.47375 8.2575 -5.6875 7.875 C-2.47956885 5.6369085 -1.5022184 3.55788567 0 0 Z " fill="#9ABE3B" transform="translate(29,19)"/>
<path d="M0 0 C0.66 0 1.32 0 2 0 C2 1.98 2 3.96 2 6 C3.32 6 4.64 6 6 6 C5.67 6.66 5.34 7.32 5 8 C2.03 8 -0.94 8 -4 8 C-4 7.34 -4 6.68 -4 6 C-2.68 6 -1.36 6 0 6 C0 4.02 0 2.04 0 0 Z " fill="#F3B47E" transform="translate(15,11)"/>
<path d="M0 0 C0.99 0 1.98 0 3 0 C3 1.98 3 3.96 3 6 C1.68 6 0.36 6 -1 6 C-1.042721 4.33388095 -1.04063832 2.66617115 -1 1 C-0.67 0.67 -0.34 0.34 0 0 Z " fill="#E97B1B" transform="translate(18,11)"/>
<path d="M0 0 C1.32 0.33 2.64 0.66 4 1 C4 2.65 4 4.3 4 6 C2.68 6 1.36 6 0 6 C0 4.02 0 2.04 0 0 Z " fill="#EA7E21" transform="translate(11,11)"/>
<path d="M0 0 C0.4125 0.556875 0.825 1.11375 1.25 1.6875 C3.12256399 4.16195956 5.05339344 6.5835229 7 9 C2.25 8.25 2.25 8.25 0 6 C-0.125 2.875 -0.125 2.875 0 0 Z " fill="#9ABE3A" transform="translate(2,19)"/>
</svg>
