<?xml version="1.0" encoding="UTF-8"?>
<svg version="1.1" xmlns="http://www.w3.org/2000/svg" width="96" height="96">
<path d="M0 0 C10.83801748 7.29243747 17.37243325 17.50830274 21.171875 29.90234375 C23.3576856 45.20301793 20.67656458 58.16276374 11.734375 70.83984375 C3.9162631 80.47461236 -6.28912949 85.73896182 -18.203125 88.52734375 C-31.8460531 89.91947927 -44.73720168 87.20089332 -55.86328125 78.90234375 C-66.61318436 69.82248592 -73.1123407 58.43341394 -74.64453125 44.359375 C-75.10732623 30.90846278 -70.96275988 18.60553819 -62.16015625 8.3984375 C-45.18772909 -9.33351308 -21.1309264 -12.20698997 0 0 Z " fill="#FDFCFA" transform="translate(74.265625,7.16015625)"/>
<path d="M0 0 C10.83801748 7.29243747 17.37243325 17.50830274 21.171875 29.90234375 C23.3576856 45.20301793 20.67656458 58.16276374 11.734375 70.83984375 C3.9162631 80.47461236 -6.28912949 85.73896182 -18.203125 88.52734375 C-31.8460531 89.91947927 -44.73720168 87.20089332 -55.86328125 78.90234375 C-66.61318436 69.82248592 -73.1123407 58.43341394 -74.64453125 44.359375 C-75.10732623 30.90846278 -70.96275988 18.60553819 -62.16015625 8.3984375 C-45.18772909 -9.33351308 -21.1309264 -12.20698997 0 0 Z M-60.66015625 15.55859375 C-68.08403812 26.10736993 -69.79331067 37.97295649 -67.83984375 50.58984375 C-64.89919062 61.84731339 -57.75777733 71.3588914 -47.81640625 77.3046875 C-37.67902313 82.66057904 -26.73896244 84.95077793 -15.43359375 81.6640625 C-3.22044191 77.02086423 5.075193 71.18574118 11.734375 59.83984375 C16.33710358 49.24519941 17.56096517 37.3075572 13.7734375 26.28125 C8.31716065 13.46105064 0.56233467 6.12483224 -12.265625 0.83984375 C-30.87997843 -5.41492173 -48.2665505 0.81105373 -60.66015625 15.55859375 Z " fill="#96BC34" transform="translate(74.265625,7.16015625)"/>
<path d="M0 0 C1.65 0 3.3 0 5 0 C4.67 2.97 4.34 5.94 4 9 C5.03125 9 6.0625 9 7.125 9 C9.87754609 9.35317801 10.83284919 9.8284982 12.80078125 11.84765625 C14.28476725 13.85581869 15.68159254 15.87992354 17 18 C15.60550891 18.483059 14.20933293 18.96125517 12.8125 19.4375 C12.03519531 19.70433594 11.25789063 19.97117187 10.45703125 20.24609375 C8.01585787 20.99513423 5.50391792 21.49921642 3 22 C2.67 28.93 2.34 35.86 2 43 C-2.95 42.01 -7.9 41.02 -13 40 C-13 33.4 -13 26.8 -13 20 C-12.34 19.67 -11.68 19.34 -11 19 C-11 17.68 -11 16.36 -11 15 C-8.875 12.25 -8.875 12.25 -6 10 C-2.6875 9.6875 -2.6875 9.6875 0 10 C0 6.7 0 3.4 0 0 Z " fill="#F9DBC1" transform="translate(46,11)"/>
<path d="M0 0 C0 6.27 0 12.54 0 19 C-3.98225343 20.59290137 -6.23539461 21.29883157 -10.3125 21.625 C-11.859375 21.74875 -13.40625 21.8725 -15 22 C-15 15.73 -15 9.46 -15 3 C-2.25 0 -2.25 0 0 0 Z " fill="#EA7E21" transform="translate(64,31)"/>
<path d="M0 0 C11.75 1.875 11.75 1.875 14 3 C14 9.27 14 15.54 14 22 C9.31478714 21.47942079 4.62250164 20.92450033 0 20 C0 13.4 0 6.8 0 0 Z " fill="#EA7D1E" transform="translate(33,31)"/>
<path d="M0 0 C-2.07047694 7.69521929 -4.94551708 14.85481861 -8.1875 22.125 C-8.65091797 23.176875 -9.11433594 24.22875 -9.59179688 25.3125 C-10.72266478 27.87735504 -11.85879519 30.43973181 -13 33 C-13.33 33 -13.66 33 -14 33 C-14 23.1 -14 13.2 -14 3 C-2 0 -2 0 0 0 Z " fill="#EA8023" transform="translate(63,52)"/>
<path d="M0 0 C4.62 0.99 9.24 1.98 14 3 C14 12.57 14 22.14 14 32 C10.94697568 27.42046352 8.94719472 22.37142109 6.72216797 17.34790039 C5.87555285 15.4387467 5.02204236 13.53277984 4.16796875 11.62695312 C3.63558594 10.42876953 3.10320313 9.23058594 2.5546875 7.99609375 C1.81968018 6.34371704 1.81968018 6.34371704 1.06982422 4.65795898 C0 2 0 2 0 0 Z " fill="#EA7D1E" transform="translate(33,52)"/>
<path d="M0 0 C2.4375 2.5 2.4375 2.5 4 5 C-5.41002278 8.44419134 -5.41002278 8.44419134 -10 8 C-10 5.69 -10 3.38 -10 1 C-6.37671381 -0.20776206 -3.80388473 -0.40040892 0 0 Z " fill="#EA8024" transform="translate(59,24)"/>
<path d="M0 0 C1.69141656 0.08963062 3.37959602 0.24577676 5.0625 0.4375 C6.44115234 0.59025391 6.44115234 0.59025391 7.84765625 0.74609375 C8.55792969 0.82988281 9.26820312 0.91367187 10 1 C10 3.31 10 5.62 10 8 C5.428721 7.45144652 1.32564205 6.58255197 -3 5 C-1.125 1.125 -1.125 1.125 0 0 Z " fill="#EA7E20" transform="translate(37,24)"/>
<path d="M0 0 C1.65 0 3.3 0 5 0 C4.67 2.97 4.34 5.94 4 9 C5.65 9.33 7.3 9.66 9 10 C8.67 10.66 8.34 11.32 8 12 C6.37536158 12.05395478 4.75021459 12.09277195 3.125 12.125 C2.22007813 12.14820313 1.31515625 12.17140625 0.3828125 12.1953125 C-2 12 -2 12 -4 10 C-2.68 10 -1.36 10 0 10 C0 6.7 0 3.4 0 0 Z " fill="#221E1F" transform="translate(46,11)"/>
<path d="M0 0 C0 6.27 0 12.54 0 19 C-0.66 19 -1.32 19 -2 19 C-2 13.39 -2 7.78 -2 2 C-2.66 1.67 -3.32 1.34 -4 1 C-2 0 -2 0 0 0 Z " fill="#EC8D3A" transform="translate(64,31)"/>
<path d="M0 0 C0.33 0 0.66 0 1 0 C1 1.65 1 3.3 1 5 C1.99 5 2.98 5 4 5 C4 4.34 4 3.68 4 3 C5.65 3.33 7.3 3.66 9 4 C8.67 4.66 8.34 5.32 8 6 C6.37536158 6.05395478 4.75021459 6.09277195 3.125 6.125 C2.22007813 6.14820313 1.31515625 6.17140625 0.3828125 6.1953125 C-2 6 -2 6 -4 4 C-2.68 4 -1.36 4 0 4 C0 2.68 0 1.36 0 0 Z " fill="#D37C30" transform="translate(46,17)"/>
<path d="M0 0 C1.65 0 3.3 0 5 0 C5 1.98 5 3.96 5 6 C4.01 6.495 4.01 6.495 3 7 C3 5.35 3 3.7 3 2 C2.01 2 1.02 2 0 2 C0 1.34 0 0.68 0 0 Z " fill="#403D3D" transform="translate(46,11)"/>
</svg>
