<svg version="1.1" xmlns="http://www.w3.org/2000/svg" viewBox="0 0 1024 1024"><path d="M456.704 581.559v0 0c3.072 0 6.144 0 9.216 0 50.176 8.192 100.352 25.6 150.528 23.552 80.896-3.072 147.456 15.36 195.584 82.944 2.048 4.096 9.216 5.12 6.144 11.264-3.072 5.12-8.192 1.024-12.288 0-31.744-10.24-64.512-14.336-98.304-15.36-51.2-1.024-97.28-14.336-133.12-54.272-8.192-8.192-14.336-21.504-27.648-23.552-47.104-7.168-95.232-15.36-143.36-21.504-69.632-9.216-140.288 0-208.896-14.336-3.072-1.024-6.144 0-9.216 1.024 3.072 2.048 5.12 6.144 8.192 7.168 23.552 8.192 47.104 14.336 69.632 23.552 80.896 30.72 178.176 31.744 231.424 116.736 3.072 4.096 10.24 5.12 8.192 12.288-1.024 2.048-7.168 5.12-9.216 4.096-76.8-22.528-161.792-20.48-220.16-92.16-44.032-54.272-115.712-64.512-176.128-93.184-26.624-13.312-53.248-23.552-79.872-35.84-4.096-2.048-10.24-6.144-6.144-12.288 1.024-1.024 8.192-1.024 10.24 1.024 40.96 32.768 91.136 29.696 138.24 31.744 34.816 2.048 75.776-7.168 94.208-35.84 52.224-80.896 141.312-99.328 218.112-137.216 4.096-2.048 9.216-1.024 14.336-1.024 3.072 0 6.144 1.024 9.216 2.048-1.024 3.072-2.048 8.192-4.096 10.24-23.552 19.456-38.912 45.056-59.392 67.584-40.96 46.080-84.992 89.088-154.624 84.992-12.288-1.024-25.6-7.168-37.888 0-36.864 21.504-77.824 23.552-118.784 19.456-1.024 0-1.024 0-2.048 0 1.024 0 1.024 0 2.048 0 41.984 16.384 87.040 21.504 131.072 24.576 68.608 5.12 137.216 9.216 199.68-29.696 19.456-12.288 43.008-22.528 50.176-45.056 12.288-35.84 37.888-56.32 66.56-76.8 51.2-36.864 113.664-56.32 162.816-96.256 4.096-3.072 11.264-9.216 16.384-2.048 5.12 6.144-1.024 13.312-5.12 18.432-30.72 37.888-60.416 76.8-94.208 112.64-36.864 38.912-80.896 68.608-139.264 64.512-4.096 0-9.216 2.048-12.288 5.12-20.48 21.504-47.104 34.816-74.752 45.056-3.072 1.024-6.144 4.096-9.216 6.144 4.096 1.024 7.168 2.048 11.264 2.048 62.464 0 122.88-10.24 184.32-16.384 60.416-7.168 96.256-39.936 123.904-90.112 20.48-37.888 48.128-69.632 89.088-89.088 38.912-18.432 76.8-40.96 114.688-61.44 3.072-2.048 7.168-1.024 11.264-2.048-1.024 4.096-1.024 9.216-3.072 13.312-23.552 33.792-46.080 69.632-70.656 101.376-30.72 39.936-68.608 70.656-121.856 73.728-19.456 1.024-35.84 3.072-45.056 22.528-3.072 5.12-8.192 10.24-12.288 15.36 7.168 0 15.36 1.024 21.504-1.024 110.592-45.056 201.728 1.024 291.84 57.344 3.072 2.048 7.168 5.12 4.096 9.216-1.024 2.048-6.144 1.024-9.216 0-50.176-17.408-101.376-23.552-154.624-18.432-40.96 3.072-79.872-4.096-112.64-30.72-4.096-3.072-11.264-4.096-17.408-3.072-83.968 14.336-168.96 27.648-253.952 34.816-1.024-7.168-4.096-7.168-7.168-7.168z"></path></svg>