# fencePanel.obj
#
# Copyright 2019 Sean Bradley
#
# Created by Sean Bradley for HomeIdea3D http://homeidea3d.seanwasere.com
#
# This file is distributed under Attribution 4.0 International (CC BY 4.0)  license, see https://creativecommons.org/licenses/by/4.0/
#
mtllib fencePanel.mtl
o Cube.001
v -149.985809 -90.000000 -1.039025
v -149.985809 90.000000 -1.039025
v -149.985809 -90.000000 -11.039024
v -149.985809 90.000000 -11.039024
v -139.985809 -90.000000 -1.039025
v -139.985809 90.000000 -1.039025
v -139.985809 -90.000000 -11.039024
v -139.985809 90.000000 -11.039024
vt 0.014286 -0.000277
vt 0.014696 0.999047
vt 0.014696 0.999047
vt 0.014286 -0.000277
vt 0.985643 0.999047
vt 0.986053 -0.000277
vt 0.985643 0.999047
vt 0.986053 -0.000277
vn -1.0000 0.0000 0.0000
vn 0.0000 0.0000 -1.0000
vn 1.0000 0.0000 0.0000
vn 0.0000 0.0000 1.0000
vn 0.0000 -1.0000 0.0000
vn 0.0000 1.0000 0.0000
usemtl Material.001
s off
f 1/1/1 2/2/1 4/3/1 3/4/1
f 3/4/2 4/3/2 8/5/2 7/6/2
f 7/6/3 8/5/3 6/7/3 5/8/3
f 5/8/4 6/7/4 2/2/4 1/1/4
f 3/4/5 7/6/5 5/8/5 1/1/5
f 8/5/6 4/3/6 2/2/6 6/7/6
o Cube
v 149.999924 -90.000000 -0.999999
v 149.999924 -90.000000 1.000000
v -149.999939 -90.000000 0.999999
v -149.999863 -90.000000 -1.000000
v 150.000000 90.000000 -0.999999
v 149.999832 90.000000 1.000000
v -149.999985 90.000000 0.999999
v -149.999908 90.000000 -1.000000
vt 0.993970 0.000542
vt 0.995454 -0.000348
vt 0.001446 0.002753
vt 0.002930 0.003643
vt 0.995520 0.996357
vt 0.001380 0.996357
vt -0.000104 0.997248
vt 0.997004 0.997248
vn 0.0000 -1.0000 -0.0000
vn 0.0000 1.0000 0.0000
vn 1.0000 0.0000 0.0000
vn -0.0000 -0.0000 1.0000
vn -1.0000 -0.0000 -0.0000
vn 0.0000 0.0000 -1.0000
usemtl Material
s off
f 9/9/7 10/10/7 11/11/7 12/12/7
f 13/13/8 16/14/8 15/15/8 14/16/8
f 9/9/9 13/13/9 14/16/9 10/10/9
f 10/10/10 14/16/10 15/15/10 11/11/10
f 11/11/11 15/15/11 16/14/11 12/12/11
f 13/13/12 9/9/12 12/12/12 16/14/12
o Cube.002
v 149.736282 10.074849 -5.605618
v -140.736282 10.074806 -5.605524
v 149.736298 15.000011 -0.994476
v -140.736298 14.999989 -0.994381
v 149.736282 9.925194 -5.605618
v -140.736282 9.925151 -5.605524
v 149.736298 5.000011 -0.994476
v -140.736298 4.999989 -0.994381
vt 0.014286 -0.000277
vt 0.014696 0.999047
vt 0.014696 0.999047
vt 0.014286 -0.000277
vt 0.985643 0.999047
vt 0.986053 -0.000277
vt 0.985643 0.999047
vt 0.986053 -0.000277
vn -0.0000 0.6835 -0.7300
vn 0.0000 0.0000 1.0000
vn -0.0000 -0.6835 -0.7300
vn -0.0000 0.0000 -1.0000
vn 1.0000 0.0000 -0.0000
vn -1.0000 0.0000 -0.0000
usemtl Material.002
s off
f 17/17/13 18/18/13 20/19/13 19/20/13
f 19/20/14 20/19/14 24/21/14 23/22/14
f 23/22/15 24/21/15 22/23/15 21/24/15
f 21/24/16 22/23/16 18/18/16 17/17/16
f 19/20/17 23/22/17 21/24/17 17/17/17
f 24/21/18 20/19/18 18/18/18 22/23/18
o Cube.003
v 149.736282 65.074852 -5.605618
v -140.736282 65.074806 -5.605524
v 149.736298 70.000008 -0.994476
v -140.736298 69.999992 -0.994381
v 149.736282 64.925194 -5.605618
v -140.736282 64.925148 -5.605524
v 149.736298 60.000011 -0.994476
v -140.736298 59.999989 -0.994381
vt 0.014286 -0.000277
vt 0.014696 0.999047
vt 0.014696 0.999047
vt 0.014286 -0.000277
vt 0.985643 0.999047
vt 0.986053 -0.000277
vt 0.985643 0.999047
vt 0.986053 -0.000277
vn -0.0000 0.6835 -0.7300
vn 0.0000 0.0000 1.0000
vn -0.0000 -0.6835 -0.7300
vn -0.0000 0.0000 -1.0000
vn 1.0000 0.0000 -0.0000
vn -1.0000 0.0000 -0.0000
usemtl Material.003
s off
f 25/25/19 26/26/19 28/27/19 27/28/19
f 27/28/20 28/27/20 32/29/20 31/30/20
f 31/30/21 32/29/21 30/31/21 29/32/21
f 29/32/22 30/31/22 26/26/22 25/25/22
f 27/28/23 31/30/23 29/32/23 25/25/23
f 32/29/24 28/27/24 26/26/24 30/31/24
o Cube.004
v 149.736282 -44.925152 -5.605618
v -140.736282 -44.925194 -5.605524
v 149.736298 -39.999989 -0.994476
v -140.736298 -40.000011 -0.994381
v 149.736282 -45.074806 -5.605618
v -140.736282 -45.074848 -5.605524
v 149.736298 -49.999989 -0.994476
v -140.736298 -50.000011 -0.994381
vt 0.014286 -0.000277
vt 0.014696 0.999047
vt 0.014696 0.999047
vt 0.014286 -0.000277
vt 0.985643 0.999047
vt 0.986053 -0.000277
vt 0.985643 0.999047
vt 0.986053 -0.000277
vn -0.0000 0.6835 -0.7300
vn 0.0000 0.0000 1.0000
vn -0.0000 -0.6835 -0.7300
vn -0.0000 0.0000 -1.0000
vn 1.0000 0.0000 -0.0000
vn -1.0000 0.0000 -0.0000
usemtl Material.004
s off
f 33/33/25 34/34/25 36/35/25 35/36/25
f 35/36/26 36/35/26 40/37/26 39/38/26
f 39/38/27 40/37/27 38/39/27 37/40/27
f 37/40/28 38/39/28 34/34/28 33/33/28
f 35/36/29 39/38/29 37/40/29 33/33/29
f 40/37/30 36/35/30 34/34/30 38/39/30
