# This file uses meters as units for non-parametric coordinates.

v 9.796150 0.159693 -0.203851
v 7.195908 0.159693 -6.945917
v 6.846596 0.127396 -7.104668
v 5.798666 0.127396 -7.580921
v 5.449356 0.159693 -7.739673
v 3.702806 0.159693 -8.533428
v 3.353496 0.127396 -8.692179
v 2.305565 0.127396 -9.168432
v 1.956256 0.159693 -9.327184
v 4.937718 0.159693 -3.931319
v 4.687170 0.127396 -4.221913
v 3.935524 0.127396 -5.093694
v 3.684975 0.159693 -5.384288
v 2.432231 0.159693 -6.837257
v 2.181682 0.127396 -7.127851
v 1.430036 0.127396 -7.999632
v 1.179487 0.159693 -8.290226
v 1.519258 0.159693 -2.122310
v 1.413654 0.127396 -2.506002
v 1.096839 0.127396 -3.657078
v 0.991234 0.159693 -4.040769
v 0.463209 0.159693 -5.959229
v 0.357605 0.127396 -6.342920
v 0.000000 0.127396 -7.493997
v 0.000000 0.159693 -7.877688
v 0.000000 0.000000 -10.000000
v 0.000000 -0.000000 0.000000
v 10.000000 0.000000 0.000000
v 0.000000 0.159693 -9.796147
v 0.000000 0.159693 -0.203852
v 0.203852 0.159693 -9.796147
v 0.000000 0.159693 -2.122311
v 0.000000 0.159693 -4.040770
v 0.000000 0.159693 -5.959229
v 0.000000 0.127396 -3.657078
v 0.000000 0.127396 -2.506002
v 0.000000 0.127396 -6.342921
v 10.000000 0.000000 -10.000000
v 9.796148 0.159693 -10.000000
v 0.203853 0.159693 -10.000000
v 7.877689 0.159693 -10.000000
v 5.959230 0.159693 -10.000000
v 4.040771 0.159693 -10.000000
v 2.122312 0.159693 -10.000000
v 6.342922 0.127396 -10.000000
v 7.493998 0.127396 -10.000000
v 2.506003 0.127396 -10.000000
v 3.657080 0.127396 -10.000000
vt 0.266881 0.398177
vt 0.240279 0.405900
vt 0.266881 0.398177
vt 0.240279 0.405900
vt 0.350979 0.399893
vt 0.350979 0.399893
vt 0.240279 0.405900
vt 0.266881 0.398177
vt 0.240279 0.405900
vt 0.240279 0.405900
vt 0.266881 0.398177
vt 0.240279 0.405900
vt 0.350979 0.399893
vt 0.350979 0.399893
vt 0.240279 0.405900
vt 0.240279 0.405900
vt 0.240279 0.405900
vt 0.266881 0.398177
vt 0.240279 0.405900
vt 0.350979 0.399893
vt 0.350979 0.399893
vt 0.240279 0.405900
vt 0.266881 0.398177
vt 0.240279 0.405900
vt 0.240279 0.405900
vt 0.266881 0.398177
vt 0.240279 0.405900
vt 0.350979 0.399893
vt 0.350979 0.399893
vt 0.240279 0.405900
vt 0.240279 0.405900
vt 0.240279 0.405900
vt 0.266881 0.398177
vt 0.240279 0.405900
vt 0.350979 0.399893
vt 0.350979 0.399893
vt 0.240279 0.405900
vt 0.266881 0.398177
vt 0.240279 0.405900
vt 0.240279 0.405900
vt 0.266881 0.398177
vt 0.240279 0.405900
vt 0.350979 0.399893
vt 0.350979 0.399893
vt 0.240279 0.405900
vt 0.240279 0.405900
vt 0.266881 0.398177
vt 0.266023 0.398177
vt 0.266881 0.398177
vt 0.235988 0.399035
vt 0.235988 0.399035
vt 0.235988 0.399035
vt 0.235988 0.399035
vt 0.235988 0.399035
vt 0.235988 0.399035
vt 0.235988 0.399035
vt 0.266881 0.398177
vt 0.266881 0.398177
vt 0.240279 0.405900
vt 0.240279 0.405900
vt 0.266881 0.398177
vt 0.266881 0.398177
vt 0.240279 0.405900
vt 0.240279 0.405900
vt 0.240279 0.405900
vt 0.240279 0.405900
vt 0.350979 0.399893
vt 0.350979 0.399893
vt 0.350979 0.399893
vt 0.266881 0.398177
vt 0.266881 0.398177
vt 0.235988 0.399035
vt 0.235988 0.399035
vt 0.235988 0.399035
vt 0.235988 0.399035
vt 0.235988 0.399035
vt 0.235988 0.399035
vt 0.235988 0.399035
vt 0.266881 0.398177
vt 0.266881 0.398177
vt 0.266881 0.398177
vt 0.240279 0.405900
vt 0.240279 0.405900
vt 0.266881 0.398177
vt 0.266881 0.398177
vt 0.240279 0.405900
vt 0.240279 0.405900
vt 0.240279 0.405900
vt 0.240279 0.405900
vt 0.350979 0.399893
vt 0.350979 0.399893
vt 0.240279 0.405900
vt 0.240279 0.405900
vt 0.350979 0.399893
vt 0.350979 0.399893
vt 0.265165 0.398177
vt 0.265165 0.398177
vt 0.265165 0.398177
vn 0.000000 1.000000 -0.000000
vn 0.000000 1.000000 0.000000
vn 0.000000 1.000000 0.000000
vn 0.000000 1.000000 0.000000
vn -0.028598 0.996605 -0.077203
vn -0.028061 0.996611 -0.077329
vn 0.000000 0.996476 -0.083878
vn 0.000000 0.996476 -0.083878
vn 0.000000 1.000000 0.000000
vn 0.000000 1.000000 0.000000
vn 0.000000 1.000000 0.000000
vn 0.000000 1.000000 0.000000
vn -0.028715 0.996501 -0.078499
vn -0.027964 0.996511 -0.078641
vn 0.000000 0.996476 -0.083878
vn 0.000000 0.996476 -0.083878
vn 0.028667 0.996580 0.077503
vn 0.028006 0.996587 0.077651
vn -0.000000 0.996476 0.083878
vn -0.000000 0.996476 0.083878
vn 0.000000 1.000000 0.000000
vn 0.000000 1.000000 0.000000
vn 0.000000 1.000000 0.000000
vn 0.000000 1.000000 0.000000
vn 0.000000 1.000000 0.000000
vn 0.000000 1.000000 0.000000
vn 0.000000 1.000000 0.000000
vn 0.000000 1.000000 -0.000000
vn 0.000000 1.000000 -0.000000
vn 0.000000 1.000000 -0.000000
vn 0.000000 1.000000 -0.000000
vn 0.000000 1.000000 0.000000
vn 0.000000 1.000000 -0.000000
vn 0.000000 1.000000 -0.000000
vn -0.075519 0.996469 -0.036688
vn -0.053670 0.996545 -0.063381
vn -0.053766 0.996545 -0.063305
vn -0.075565 0.996469 -0.036587
vn 0.000000 1.000000 0.000000
vn 0.000000 1.000000 0.000000
vn 0.000000 1.000000 0.000000
vn 0.000000 1.000000 -0.000000
vn 0.075342 0.996467 0.037107
vn 0.052878 0.996560 0.063815
vn 0.053169 0.996559 0.063589
vn 0.075396 0.996467 0.036990
vn 0.000000 1.000000 0.000000
vn 0.000000 1.000000 0.000000
vn 0.000000 1.000000 0.000000
vn 0.000000 1.000000 0.000000
vn -0.074825 0.996460 -0.038333
vn -0.050674 0.996596 -0.065024
vn -0.051591 0.996594 -0.064337
vn -0.074904 0.996460 -0.038163
vn 0.000000 1.000000 0.000000
vn 0.000000 1.000000 0.000000
vn 0.000000 1.000000 0.000000
vn 0.000000 1.000000 0.000000
vn 0.073953 0.996443 0.040400
vn 0.048757 0.996470 0.068344
vn 0.050765 0.996484 0.066651
vn 0.074078 0.996445 0.040135
vn 0.000000 1.000000 0.000000
vn 0.000000 1.000000 -0.000000
vn 0.000000 1.000000 0.000000
vn -0.053670 0.996545 -0.063381
vn -0.028061 0.996611 -0.077329
vn -0.028598 0.996605 -0.077203
vn -0.053766 0.996545 -0.063305
vn 0.000000 1.000000 0.000000
vn 0.000000 1.000000 0.000000
vn 0.000000 1.000000 0.000000
vn 0.000000 1.000000 0.000000
vn 0.052878 0.996560 0.063815
vn 0.028006 0.996587 0.077651
vn 0.028667 0.996580 0.077503
vn 0.053169 0.996559 0.063589
vn 0.000000 1.000000 0.000000
vn 0.000000 1.000000 0.000000
vn 0.000000 1.000000 0.000000
vn 0.000000 1.000000 0.000000
vn -0.050674 0.996596 -0.065024
vn -0.027964 0.996511 -0.078641
vn -0.028715 0.996501 -0.078499
vn -0.051591 0.996594 -0.064337
vn 0.000000 1.000000 0.000000
vn 0.000000 1.000000 0.000000
vn 0.000000 1.000000 0.000000
vn 0.000000 1.000000 0.000000
vn 0.048757 0.996470 0.068344
vn 0.029690 0.995991 0.084381
vn 0.029690 0.995991 0.084381
vn 0.050765 0.996484 0.066651
vn -0.000000 0.787210 0.616685
vn -0.000000 0.787210 0.616685
vn -0.000000 0.787210 0.616685
vn -0.000000 0.787210 0.616685
vn 0.000000 0.787212 -0.616682
vn 0.000000 0.787212 -0.616682
vn 0.000000 0.787212 -0.616682
vn 0.616686 0.787209 -0.000000
vn 0.616686 0.787209 -0.000000
vn 0.616686 0.787209 -0.000000
vn 0.616686 0.787209 -0.000000
vn -0.616683 0.787212 -0.000003
vn -0.616683 0.787212 -0.000003
vn -0.616683 0.787212 -0.000003
vn -0.075565 0.996469 -0.036587
vn -0.083746 0.996311 -0.018710
vn -0.083746 0.996312 -0.018710
vn -0.075519 0.996469 -0.036688
vn 0.000000 1.000000 0.000000
vn 0.000000 1.000000 0.000000
vn 0.000000 1.000000 0.000000
vn 0.000000 1.000000 0.000000
vn -0.074904 0.996460 -0.038163
vn -0.083611 0.996311 -0.019334
vn -0.083611 0.996311 -0.019334
vn -0.074825 0.996460 -0.038333
vn 0.075396 0.996467 0.036990
vn 0.083714 0.996311 0.018858
vn 0.083714 0.996311 0.018858
vn 0.075342 0.996467 0.037107
vn 0.000000 1.000000 -0.000000
vn 0.000000 1.000000 -0.000000
vn 0.000000 1.000000 -0.000000
vn 0.000000 1.000000 0.000000
vn 0.074078 0.996445 0.040135
vn 0.083398 0.996309 0.020317
vn 0.083398 0.996309 0.020317
vn 0.073953 0.996443 0.040400
vn 0.000000 1.000000 0.000000
vn 0.000000 1.000000 0.000000
vn 0.000000 1.000000 0.000000
vn 0.000000 1.000000 0.000000
vn 0.000000 1.000000 0.000000
vn 0.000000 1.000000 0.000000
vn 0.000000 1.000000 0.000000
vn 0.000000 1.000000 0.000000
vn 0.000000 1.000000 0.000000
vn 0.000000 1.000000 0.000000
vn 0.000000 1.000000 0.000000
vn 0.000000 1.000000 0.000000
vn 0.000000 1.000000 0.000000
vn 0.000000 1.000000 -0.000000
vn 0.000000 1.000000 -0.000000
vn 0.000000 1.000000 -0.000000
vn 0.000000 1.000000 -0.000000
s off
f 1/1/1 18/33/2 32/57/3 30/58/4
f 18/32/5 19/34/6 36/59/7 32/60/8
f 21/38/9 22/41/10 34/61/11 33/62/12
f 22/40/13 23/42/14 37/63/15 34/64/16
f 20/37/17 21/39/18 33/65/19 35/66/20
f 19/35/21 20/36/22 35/67/23 36/68/24
f 23/43/25 24/44/26 37/69/27
f 2/3/28 1/79/29 39/80/30 41/81/31
f 10/18/32 1/1/33 2/3/34
f 3/4/35 11/19/36 10/17/37 2/2/38
f 4/6/39 12/21/40 11/20/41 3/5/42
f 5/9/43 13/24/44 12/22/45 4/7/46
f 14/26/47 13/23/48 5/8/49 6/11/50
f 7/12/51 15/27/52 14/25/53 6/10/54
f 8/14/55 16/29/56 15/28/57 7/13/58
f 9/16/59 17/31/60 16/30/61 8/15/62
f 18/33/63 1/1/64 10/18/65
f 11/19/66 19/34/67 18/32/68 10/17/69
f 12/21/70 20/36/71 19/35/72 11/20/73
f 13/24/74 21/39/75 20/37/76 12/22/77
f 22/41/78 21/38/79 13/23/80 14/26/81
f 15/27/82 23/42/83 22/40/84 14/25/85
f 16/29/86 24/44/87 23/43/88 15/28/89
f 17/31/90 25/46/91 24/45/92 16/30/93
f 30/50/94 27/51/95 28/52/96 1/53/97
f 26/54/98 29/55/99 31/56/100
f 1/72/101 28/73/102 38/74/103 39/75/104
f 26/76/105 31/77/106 40/78/107
f 2/2/108 41/83/109 46/82/110 3/4/111
f 5/8/112 42/84/113 43/85/114 6/11/115
f 6/10/116 43/87/117 48/86/118 7/12/119
f 4/7/120 45/89/121 42/88/122 5/9/123
f 3/5/124 46/91/125 45/90/126 4/6/127
f 8/15/128 47/93/129 44/92/130 9/16/131
f 7/13/132 48/95/133 47/94/134 8/14/135
f 25/48/136 31/49/137 29/47/138
f 25/48/139 17/97/140 31/96/141
f 17/97/142 9/98/143 31/96/144
f 31/96/145 9/98/146 44/70/147 40/71/148
