# This file uses meters as units for non-parametric coordinates.

v 0.000000 0.000000 0.000000
v 10.000000 0.000000 0.000000
v 0.000000 0.000000 -20.000000
v 10.000000 0.000000 -20.000000
v 0.203853 0.159693 0.000000
v 9.796148 0.159693 0.000000
v 9.796148 0.159693 -20.000000
v 0.203853 0.159693 -20.000000
v 8.000000 0.000000 0.000000
v 7.877689 0.159693 0.000000
v 7.877689 0.159693 -20.000000
v 8.000000 0.000000 -20.000000
v 6.000000 0.000000 0.000000
v 5.959230 0.159693 0.000000
v 5.959230 0.159693 -20.000000
v 6.000000 0.000000 -20.000000
v 4.000000 0.000000 0.000000
v 4.040771 0.159693 0.000000
v 4.040771 0.159693 -20.000000
v 4.000000 0.000000 -20.000000
v 2.000000 0.000000 0.000000
v 2.122312 0.159693 0.000000
v 2.122312 0.159693 -20.000000
v 2.000000 0.000000 -20.000000
v 10.000000 0.000000 -13.440371
v 9.796148 0.159693 -13.440371
v 8.061419 0.159693 -13.440371
v 6.142960 0.159693 -13.440371
v 4.224501 0.159693 -13.440371
v 2.306041 0.159693 -13.440371
v 0.203853 0.159693 -13.440371
v 0.000000 0.000000 -13.440371
v 10.000000 0.000000 -6.720185
v 9.796148 0.159693 -6.720185
v 7.693575 0.159693 -6.720185
v 5.775116 0.159693 -6.720185
v 3.856656 0.159693 -6.720185
v 1.938197 0.159693 -6.720185
v 0.203853 0.159693 -6.720185
v 0.000000 0.000000 -6.720185
v 6.400000 0.000000 -20.000000
v 6.342922 0.127396 -20.000000
v 6.526652 0.127396 -13.440371
v 6.158808 0.127396 -6.720185
v 6.342922 0.127396 0.000000
v 6.400000 0.000000 0.000000
v 7.600000 0.000000 -20.000000
v 7.493998 0.127396 -20.000000
v 7.677728 0.127396 -13.440371
v 7.309883 0.127396 -6.720185
v 7.493998 0.127396 0.000000
v 7.600000 0.000000 0.000000
v 2.400000 0.000000 -20.000000
v 2.506004 0.127396 -20.000000
v 2.689733 0.127396 -13.440371
v 2.321889 0.127396 -6.720185
v 2.506004 0.127396 0.000000
v 2.400000 0.000000 0.000000
v 3.600000 0.000000 -20.000000
v 3.657079 0.127396 -20.000000
v 3.840809 0.127396 -13.440371
v 3.472964 0.127396 -6.720185
v 3.657079 0.127396 0.000000
v 3.600000 0.000000 0.000000
vt 0.235988 0.399035
vt 0.266881 0.398177
vt 0.266881 0.398177
vt 0.235988 0.399035
vt 0.266881 0.398177
vt 0.235988 0.399035
vt 0.266881 0.398177
vt 0.235988 0.399035
vt 0.266881 0.398177
vt 0.235988 0.399035
vt 0.266881 0.398177
vt 0.266881 0.398177
vt 0.235988 0.399035
vt 0.266881 0.398177
vt 0.235988 0.399035
vt 0.266881 0.398177
vt 0.266881 0.398177
vt 0.266881 0.398177
vt 0.235988 0.399035
vt 0.266881 0.398177
vt 0.266881 0.398177
vt 0.240279 0.405900
vt 0.266881 0.398177
vt 0.266881 0.398177
vt 0.266881 0.398177
vt 0.266881 0.398177
vt 0.266881 0.398177
vt 0.266881 0.398177
vt 0.266881 0.398177
vt 0.266881 0.398177
vt 0.240279 0.405900
vt 0.266881 0.398177
vt 0.266881 0.398177
vt 0.240279 0.405900
vt 0.266881 0.398177
vt 0.266881 0.398177
vt 0.266881 0.398177
vt 0.266881 0.398177
vt 0.266881 0.398177
vt 0.240279 0.405900
vt 0.266881 0.398177
vt 0.266881 0.398177
vt 0.240279 0.405900
vt 0.266881 0.398177
vt 0.266881 0.398177
vt 0.266881 0.398177
vt 0.240279 0.405900
vt 0.266881 0.398177
vt 0.240279 0.405900
vt 0.266881 0.398177
vt 0.240279 0.405900
vt 0.266881 0.398177
vt 0.235988 0.399035
vt 0.266881 0.398177
vt 0.235988 0.399035
vt 0.240279 0.405900
vt 0.266881 0.398177
vt 0.266881 0.398177
vt 0.240279 0.405900
vt 0.240279 0.405900
vt 0.266881 0.398177
vt 0.266881 0.398177
vt 0.240279 0.405900
vt 0.235988 0.399035
vt 0.266881 0.398177
vt 0.235988 0.399035
vt 0.235988 0.399035
vt 0.266881 0.398177
vt 0.235988 0.399035
vt 0.240279 0.405900
vt 0.266881 0.398177
vt 0.266881 0.398177
vt 0.240279 0.405900
vt 0.240279 0.405900
vt 0.266881 0.398177
vt 0.266881 0.398177
vt 0.240279 0.405900
vt 0.235988 0.399035
vt 0.266881 0.398177
vt 0.235988 0.399035
vt 0.266881 0.398177
vt 0.266881 0.398177
vt 0.240279 0.405900
vt 0.350979 0.399893
vt 0.350979 0.399893
vt 0.240279 0.405900
vt 0.266881 0.398177
vt 0.266881 0.398177
vt 0.266881 0.398177
vt 0.266881 0.398177
vt 0.350979 0.399893
vt 0.350979 0.399893
vt 0.350979 0.399893
vt 0.350979 0.399893
vt 0.266881 0.398177
vt 0.266881 0.398177
vt 0.266881 0.398177
vt 0.266881 0.398177
vt 0.240279 0.405900
vt 0.350979 0.399893
vt 0.350979 0.399893
vt 0.240279 0.405900
vt 0.266881 0.398177
vt 0.266881 0.398177
vt 0.266881 0.398177
vt 0.266881 0.398177
vt 0.350979 0.399893
vt 0.350979 0.399893
vt 0.350979 0.399893
vt 0.350979 0.399893
vt 0.266881 0.398177
vt 0.266881 0.398177
vt 0.240279 0.405900
vt 0.240279 0.405900
vt 0.240279 0.405900
vt 0.240279 0.405900
vt 0.240279 0.405900
vt 0.240279 0.405900
vt 0.240279 0.405900
vt 0.240279 0.405900
vt 0.350979 0.399893
vt 0.240279 0.405900
vt 0.240279 0.405900
vt 0.240279 0.405900
vt 0.350979 0.399893
vt 0.240279 0.405900
vt 0.240279 0.405900
vt 0.240279 0.405900
vt 0.240279 0.405900
vt 0.240279 0.405900
vt 0.240279 0.405900
vt 0.240279 0.405900
vt 0.240279 0.405900
vt 0.240279 0.405900
vt 0.350979 0.399893
vt 0.240279 0.405900
vt 0.240279 0.405900
vt 0.240279 0.405900
vt 0.350979 0.399893
vt 0.240279 0.405900
vt 0.240279 0.405900
vt 0.240279 0.405900
vt 0.240279 0.405900
vt 0.240279 0.405900
vt 0.235988 0.399035
vt 0.235988 0.399035
vt 0.235988 0.399035
vt 0.235988 0.399035
vt 0.235988 0.399035
vt 0.235988 0.399035
vt 0.235988 0.399035
vt 0.235988 0.399035
vn 0.000000 1.000000 0.000000
vn 0.000000 1.000000 0.000000
vn 0.000000 1.000000 0.000000
vn 0.000000 1.000000 0.000000
vn 0.000000 0.000000 1.000000
vn 0.000000 0.000000 1.000000
vn 0.000000 0.000000 1.000000
vn 0.000000 0.000000 1.000000
vn 0.616685 0.787210 0.000000
vn 0.616685 0.787210 0.000000
vn 0.616685 0.787210 0.000000
vn 0.616685 0.787210 0.000000
vn 0.000000 0.000000 -1.000000
vn 0.000000 0.000000 -1.000000
vn 0.000000 0.000000 -1.000000
vn 0.000000 0.000000 -1.000000
vn -0.616683 0.787212 0.000000
vn -0.616683 0.787212 0.000000
vn -0.616683 0.787212 0.000000
vn -0.616683 0.787212 0.000000
vn 0.000000 0.000000 1.000000
vn 0.000000 0.000000 1.000000
vn 0.000000 0.000000 1.000000
vn 0.000000 0.000000 1.000000
vn 0.000000 1.000000 0.000000
vn 0.000000 1.000000 0.000000
vn 0.000000 1.000000 0.000000
vn 0.000000 1.000000 0.000000
vn 0.000000 0.000000 -1.000000
vn 0.000000 0.000000 -1.000000
vn 0.000000 0.000000 -1.000000
vn 0.000000 0.000000 -1.000000
vn 0.000000 0.000000 1.000000
vn 0.000000 0.000000 1.000000
vn 0.000000 0.000000 1.000000
vn 0.000000 0.000000 1.000000
vn -0.083878 0.996473 0.002298
vn -0.083878 0.996473 0.002298
vn -0.083878 0.996473 0.002298
vn -0.083878 0.996473 0.002298
vn 0.000004 0.000000 -1.000000
vn 0.000004 0.000000 -1.000000
vn 0.000004 0.000000 -1.000000
vn 0.000004 0.000000 -1.000000
vn 0.000000 0.000000 1.000000
vn 0.000000 0.000000 1.000000
vn 0.000000 0.000000 1.000000
vn 0.000000 0.000000 1.000000
vn 0.000000 1.000000 -0.000000
vn 0.000000 1.000000 -0.000000
vn 0.000000 1.000000 -0.000000
vn 0.000000 1.000000 -0.000000
vn 0.000000 0.000000 -1.000000
vn 0.000000 0.000000 -1.000000
vn 0.000000 0.000000 -1.000000
vn 0.000000 0.000000 -1.000000
vn 0.000000 0.000000 1.000000
vn 0.000000 0.000000 1.000000
vn 0.000000 0.000000 1.000000
vn 0.000000 0.000000 1.000000
vn -0.083878 0.996473 0.002298
vn -0.083878 0.996473 0.002298
vn -0.083878 0.996473 0.002298
vn -0.083878 0.996473 0.002298
vn 0.000004 0.000000 -1.000000
vn 0.000004 0.000000 -1.000000
vn 0.000004 0.000000 -1.000000
vn 0.000004 0.000000 -1.000000
vn 0.616683 0.787212 0.000000
vn 0.616683 0.787212 0.000000
vn 0.616683 0.787212 0.000000
vn 0.616683 0.787212 0.000000
vn 0.000000 1.000000 0.000000
vn 0.000000 1.000000 0.000000
vn 0.000000 1.000000 0.000000
vn 0.000000 1.000000 0.000000
vn -0.083878 0.996473 0.002349
vn -0.083878 0.996473 0.002349
vn -0.083878 0.996473 0.002349
vn -0.083878 0.996473 0.002349
vn 0.000000 1.000000 0.000000
vn 0.000000 1.000000 0.000000
vn 0.000000 1.000000 0.000000
vn 0.000000 1.000000 0.000000
vn -0.083878 0.996473 0.002349
vn -0.083878 0.996473 0.002349
vn -0.083878 0.996473 0.002349
vn -0.083878 0.996473 0.002349
vn 0.000000 1.000000 -0.000000
vn 0.000000 1.000000 -0.000000
vn 0.000000 1.000000 -0.000000
vn 0.000000 1.000000 -0.000000
vn -0.616683 0.787212 0.000000
vn -0.616683 0.787212 0.000000
vn -0.616683 0.787212 0.000000
vn -0.616683 0.787212 0.000000
vn 0.616685 0.787210 0.000000
vn 0.616685 0.787210 0.000000
vn 0.616685 0.787210 0.000000
vn 0.616685 0.787210 0.000000
vn 0.000000 1.000000 -0.000000
vn 0.000000 1.000000 -0.000000
vn 0.000000 1.000000 -0.000000
vn 0.000000 1.000000 -0.000000
vn -0.083877 0.996466 -0.004591
vn -0.083877 0.996466 -0.004591
vn -0.083877 0.996466 -0.004591
vn -0.083877 0.996466 -0.004591
vn 0.000000 1.000000 0.000000
vn 0.000000 1.000000 0.000000
vn 0.000000 1.000000 0.000000
vn 0.000000 1.000000 0.000000
vn -0.083877 0.996466 -0.004591
vn -0.083877 0.996466 -0.004591
vn -0.083877 0.996466 -0.004591
vn -0.083877 0.996466 -0.004591
vn 0.000000 1.000000 0.000000
vn 0.000000 1.000000 0.000000
vn 0.000000 1.000000 0.000000
vn 0.000000 1.000000 0.000000
vn -0.616683 0.787212 0.000000
vn -0.616683 0.787212 0.000000
vn -0.616683 0.787212 0.000000
vn -0.616683 0.787212 0.000000
vn -0.000004 0.000000 -1.000000
vn -0.000004 0.000000 -1.000000
vn -0.000004 0.000000 -1.000000
vn -0.000004 0.000000 -1.000000
vn 0.083878 0.996473 -0.002349
vn 0.083878 0.996473 -0.002349
vn 0.083878 0.996473 -0.002349
vn 0.083878 0.996473 -0.002349
vn 0.083877 0.996466 0.004591
vn 0.083877 0.996466 0.004591
vn 0.083877 0.996466 0.004591
vn 0.083877 0.996466 0.004591
vn 0.083878 0.996473 -0.002298
vn 0.083878 0.996473 -0.002298
vn 0.083878 0.996473 -0.002298
vn 0.083878 0.996473 -0.002298
vn 0.000000 0.000000 1.000000
vn 0.000000 0.000000 1.000000
vn 0.000000 0.000000 1.000000
vn 0.000000 0.000000 1.000000
vn 0.000000 0.000000 -1.000000
vn 0.000000 0.000000 -1.000000
vn 0.000000 0.000000 -1.000000
vn 0.000000 0.000000 -1.000000
vn 0.000000 1.000000 0.000000
vn 0.000000 1.000000 0.000000
vn 0.000000 1.000000 0.000000
vn 0.000000 1.000000 0.000000
vn 0.000000 1.000000 -0.000000
vn 0.000000 1.000000 -0.000000
vn 0.000000 1.000000 -0.000000
vn 0.000000 1.000000 -0.000000
vn 0.000000 1.000000 0.000000
vn 0.000000 1.000000 0.000000
vn 0.000000 1.000000 0.000000
vn 0.000000 1.000000 0.000000
vn 0.000000 0.000000 1.000000
vn 0.000000 0.000000 1.000000
vn 0.000000 0.000000 1.000000
vn 0.000000 0.000000 1.000000
vn -0.000004 0.000000 -1.000000
vn -0.000004 0.000000 -1.000000
vn -0.000004 0.000000 -1.000000
vn -0.000004 0.000000 -1.000000
vn 0.083878 0.996473 -0.002349
vn 0.083878 0.996473 -0.002349
vn 0.083878 0.996473 -0.002349
vn 0.083878 0.996473 -0.002349
vn 0.083877 0.996466 0.004591
vn 0.083877 0.996466 0.004591
vn 0.083877 0.996466 0.004591
vn 0.083877 0.996466 0.004591
vn 0.083878 0.996473 -0.002298
vn 0.083878 0.996473 -0.002298
vn 0.083878 0.996473 -0.002298
vn 0.083878 0.996473 -0.002298
vn 0.000000 0.000000 1.000000
vn 0.000000 0.000000 1.000000
vn 0.000000 0.000000 1.000000
vn 0.000000 0.000000 1.000000
vn 0.000000 0.000000 -1.000000
vn 0.000000 0.000000 -1.000000
vn 0.000000 0.000000 -1.000000
vn 0.000000 0.000000 -1.000000
vn 0.000000 1.000000 0.000000
vn 0.000000 1.000000 0.000000
vn 0.000000 1.000000 0.000000
vn 0.000000 1.000000 0.000000
vn 0.000000 1.000000 -0.000000
vn 0.000000 1.000000 -0.000000
vn 0.000000 1.000000 -0.000000
vn 0.000000 1.000000 -0.000000
vn 0.000000 1.000000 0.000000
vn 0.000000 1.000000 0.000000
vn 0.000000 1.000000 0.000000
vn 0.000000 1.000000 0.000000
vn 0.000000 0.000000 1.000000
vn 0.000000 0.000000 1.000000
vn 0.000000 0.000000 1.000000
vn 0.000000 0.000000 1.000000
s off
f 5/5/1 22/45/2 38/76/3 39/79/4
f 1/20/5 21/39/6 22/41/7 5/9/8
f 2/19/9 33/67/10 34/150/11 6/6/12
f 24/44/13 3/3/14 8/11/15 23/42/16
f 40/146/17 1/1/18 5/10/19 39/145/20
f 9/21/21 2/2/22 6/16/23 10/23/24
f 35/71/25 10/52/26 6/17/27 34/68/28
f 4/18/29 12/26/30 11/24/31 7/7/32
f 52/96/33 9/21/34 10/23/35 51/95/36
f 50/128/37 51/129/38 10/22/39 35/143/40
f 12/26/41 47/89/42 48/90/43 11/24/44
f 17/33/45 13/27/46 14/29/47 18/35/48
f 37/75/49 18/48/50 14/28/51 36/72/52
f 16/32/53 20/38/54 19/36/55 15/30/56
f 64/112/57 17/33/58 18/35/59 63/111/60
f 62/114/61 63/115/62 18/34/63 37/141/64
f 20/38/65 59/105/66 60/106/67 19/36/68
f 25/152/69 4/4/70 7/13/71 26/55/72
f 11/25/73 27/57/74 26/54/75 7/14/76
f 48/132/77 49/130/78 27/144/79 11/51/80
f 19/37/81 29/61/82 28/58/83 15/50/84
f 60/118/85 61/116/86 29/142/87 19/47/88
f 31/65/89 30/62/90 23/46/91 8/12/92
f 3/15/93 32/66/94 31/148/95 8/8/96
f 33/149/97 25/53/98 26/151/99 34/69/100
f 27/57/101 35/71/102 34/68/103 26/54/104
f 49/131/105 50/127/106 35/70/107 27/56/108
f 29/61/109 37/75/110 36/72/111 28/58/112
f 61/117/113 62/113/114 37/74/115 29/60/116
f 39/79/117 38/76/118 30/62/119 31/65/120
f 32/147/121 40/80/122 39/78/123 31/64/124
f 41/81/125 16/32/126 15/30/127 42/82/128
f 15/31/129 28/140/130 43/137/131 42/83/132
f 28/59/133 36/138/134 44/134/135 43/136/136
f 36/73/137 14/49/138 45/86/139 44/133/140
f 13/27/141 46/88/142 45/87/143 14/29/144
f 48/90/145 47/89/146 41/81/147 42/82/148
f 43/84/149 49/92/150 48/91/151 42/139/152
f 44/85/153 50/93/154 49/92/155 43/84/156
f 51/94/157 50/93/158 44/85/159 45/135/160
f 46/88/161 52/96/162 51/95/163 45/87/164
f 53/97/165 24/44/166 23/42/167 54/98/168
f 23/43/169 30/126/170 55/123/171 54/99/172
f 30/63/173 38/124/174 56/120/175 55/122/176
f 38/77/177 22/40/178 57/102/179 56/119/180
f 21/39/181 58/104/182 57/103/183 22/41/184
f 60/106/185 59/105/186 53/97/187 54/98/188
f 55/100/189 61/108/190 60/107/191 54/125/192
f 56/101/193 62/109/194 61/108/195 55/100/196
f 63/110/197 62/109/198 56/101/199 57/121/200
f 58/104/201 64/112/202 63/111/203 57/103/204
