# This file uses meters as units for non-parametric coordinates.

v 4.999986 -0.000000 9.999991
v -0.000004 -0.000000 9.999991
v 0.000000 -0.574808 19.393286
v 0.000000 -0.000000 16.378378
v 0.000000 -0.574808 17.549171
v 0.000000 -0.000000 17.130856
v 0.000000 0.000000 19.999983
v 0.000000 -0.143702 17.235434
v 0.000000 0.000000 19.811602
v 0.000000 -0.143702 19.707024
v 4.769583 0.000000 19.811602
v 4.769583 -0.143702 19.707024
v 4.769583 -0.574808 19.393286
v 4.769583 -0.574808 17.549171
v 4.769583 -0.143702 17.235434
v 4.769583 -0.000000 17.130856
v 4.769583 -0.000000 19.999983
v 4.769583 -0.000000 16.378378
v 4.999986 -0.000000 16.378378
v 4.999986 -0.000000 19.999983
v 4.999986 0.194796 19.999983
v 4.769583 0.194796 19.999983
v 4.999986 0.194796 16.378378
v 4.769583 0.194796 16.378378
v 2.499989 -0.000000 9.999991
v 3.637179 -0.000000 14.368889
v 3.458642 -0.000000 12.282907
v 4.681314 -0.000000 15.385926
v 3.979318 -0.000000 15.426580
v 0.000000 -0.574808 0.606697
v 0.000000 -0.000000 3.621605
v 0.000000 -0.574808 2.450811
v 0.000000 -0.000000 2.869127
v 0.000000 0.000000 0.000000
v 0.000000 -0.143702 2.764549
v 0.000000 0.000000 0.188381
v 0.000000 -0.143702 0.292959
v 4.769583 0.000000 0.188381
v 4.769583 -0.143702 0.292959
v 4.769583 -0.574808 0.606697
v 4.769583 -0.574808 2.450811
v 4.769583 -0.143702 2.764549
v 4.769583 -0.000000 2.869127
v 4.769583 -0.000000 0.000000
v 4.769583 -0.000000 3.621605
v 4.999986 -0.000000 3.621605
v 4.999986 -0.000000 0.000000
v 4.999986 0.194796 0.000000
v 4.769583 0.194796 0.000000
v 4.999986 0.194796 3.621605
v 4.769583 0.194796 3.621605
v 3.634787 -0.000000 7.765516
v 2.845943 -0.000000 8.405401
v 3.223904 -0.000000 5.216204
v 3.160156 -0.000000 5.592953
v 3.490069 -0.000000 9.622940
v 3.215343 -0.000000 9.843911
v 3.319275 -0.000000 9.996340
v 3.513960 -0.000000 9.782434
vt 0.232868 0.397550
vt 0.516908 0.009282
vt 0.141364 0.046407
vt 0.296293 0.419809
vt 0.141364 0.046407
vt 0.141364 0.046407
vt 0.232868 0.397550
vt 0.203479 0.420523
vt 0.203479 0.420523
vt 0.171350 0.047835
vt 0.171350 0.047835
vt 0.293438 0.420523
vt 0.264879 0.264165
vt 0.296293 0.419809
vt 0.264879 0.264165
vt 0.235607 0.267021
vt 0.293438 0.420523
vt 0.141364 0.046407
vt 0.207762 0.421236
vt 0.207762 0.421236
vt 0.293438 0.420523
vt 0.207762 0.421236
vt 0.141364 0.046407
vt 0.207762 0.421236
vt 0.171350 0.047835
vt 0.141364 0.046407
vt 0.171350 0.047835
vt 0.141364 0.046407
vt 0.141364 0.046407
vt 0.203479 0.420523
vt 0.203479 0.420523
vt 0.296293 0.419809
vt 0.264879 0.264165
vt 0.264879 0.264165
vt 0.264879 0.264165
vt 0.264879 0.264165
vt 0.293438 0.420523
vt 0.232868 0.397550
vt 0.296293 0.419809
vt 0.264879 0.264165
vt 0.264879 0.264165
vt 0.516907 0.009282
vt 0.299150 0.264165
vt 0.235607 0.267021
vt 0.238462 0.266307
vt 0.238462 0.266307
vt 0.389109 0.267021
vt 0.389109 0.267021
vt 0.389109 0.267021
vt 0.389109 0.267021
vt 0.264879 0.264165
vt 0.264879 0.264165
vt 0.235607 0.267021
vt 0.235607 0.267021
vt 0.299150 0.264165
vt 0.299150 0.264165
vt 0.299150 0.264165
vt 0.238462 0.266307
vt 0.238462 0.266307
vt 0.232868 0.397550
vt 0.232868 0.397550
vt 0.232868 0.397550
vt 0.232868 0.397550
vt 0.232868 0.397550
vt 0.516907 0.009282
vt 0.516908 0.009282
vt 0.516907 0.009282
vt 0.516907 0.009282
vt 0.516908 0.009282
vt 0.516908 0.009282
vt 0.207762 0.421236
vt 0.207762 0.421236
vt 0.207762 0.421236
vt 0.207762 0.421236
vt 0.141364 0.046407
vt 0.141364 0.046407
vt 0.141364 0.046407
vt 0.141364 0.046407
vt 0.171350 0.047835
vt 0.171350 0.047835
vt 0.171350 0.047835
vt 0.171350 0.047835
vt 0.141364 0.046407
vt 0.141364 0.046407
vt 0.141364 0.046407
vt 0.141364 0.046407
vt 0.203479 0.420523
vt 0.203479 0.420523
vt 0.203479 0.420523
vt 0.203479 0.420523
vt 0.264879 0.264165
vt 0.264879 0.264165
vt 0.264879 0.264165
vt 0.264879 0.264165
vt 0.264879 0.264165
vt 0.264879 0.264165
vt 0.293438 0.420523
vt 0.293438 0.420523
vt 0.293438 0.420523
vt 0.293438 0.420523
vt 0.296293 0.419809
vt 0.296293 0.419809
vt 0.296293 0.419809
vt 0.296293 0.419809
vt 0.516908 0.009282
vt 0.516907 0.009282
vt 0.516907 0.009282
vt 0.516908 0.009282
vt 0.516907 0.009282
vt 0.516907 0.009282
vt 0.516908 0.009282
vt 0.516908 0.009282
vt 0.389109 0.267021
vt 0.389109 0.267021
vt 0.389109 0.267021
vt 0.389109 0.267021
vt 0.235607 0.267021
vt 0.235607 0.267021
vt 0.235607 0.267021
vt 0.235607 0.267021
vt 0.264879 0.264165
vt 0.264879 0.264165
vt 0.299150 0.264165
vt 0.299150 0.264165
vt 0.299150 0.264165
vt 0.299150 0.264165
vt 0.264879 0.264165
vt 0.264879 0.264165
vt 0.238462 0.266307
vt 0.238462 0.266307
vt 0.238462 0.266307
vt 0.238462 0.266307
vt 0.232868 0.397550
vt 0.232868 0.397550
vt 0.232868 0.397550
vt 0.232868 0.397550
vt 0.232868 0.397550
vt 0.232868 0.397550
vt 0.232868 0.397550
vt 0.232868 0.397550
vt 0.516907 0.009282
vt 0.516907 0.009282
vt 0.516907 0.009282
vt 0.516907 0.009282
vt 0.516907 0.009282
vt 0.516907 0.009282
vt 0.234179 0.397676
vt 0.234179 0.397676
vt 0.234179 0.397676
vt 0.234179 0.397676
vn -0.000000 0.588420 -0.808555
vn -0.000000 0.588420 -0.808555
vn -0.000000 0.588420 -0.808555
vn -0.000000 0.588420 -0.808555
vn -0.000000 0.588425 -0.808552
vn 0.000000 0.000000 1.000000
vn -0.000000 0.588425 -0.808552
vn -0.000000 0.588425 -0.808552
vn -0.000000 1.000000 0.000000
vn 0.000000 1.000000 0.000000
vn 0.000000 1.000000 0.000000
vn -0.000000 1.000000 0.000000
vn -0.000000 0.000000 -1.000000
vn 0.000000 0.588425 0.808552
vn 0.000000 0.588425 0.808552
vn 0.000000 0.588425 0.808552
vn 0.000000 0.588420 0.808555
vn -0.000000 0.000000 -1.000000
vn 0.000000 0.588420 0.808555
vn 0.000000 0.588420 0.808555
vn -1.000000 -0.000001 0.000000
vn -1.000000 -0.000001 0.000000
vn -1.000000 -0.000001 0.000000
vn -1.000000 -0.000001 0.000000
vn -1.000000 0.000000 0.000000
vn -1.000000 0.000000 0.000000
vn -1.000000 0.000000 0.000000
vn -1.000000 0.000000 0.000000
vn 0.000000 1.000000 0.000000
vn 0.000000 1.000000 0.000000
vn 0.000000 1.000000 0.000000
vn 0.000000 1.000000 0.000000
vn 0.000000 1.000000 0.000000
vn 0.000000 1.000000 0.000000
vn 0.000000 1.000000 0.000000
vn 0.000000 1.000000 0.000000
vn 0.000000 1.000000 0.000000
vn 0.000000 1.000000 0.000000
vn 0.000000 1.000000 0.000000
vn 0.000000 1.000000 0.000000
vn 0.000000 1.000000 0.000000
vn 0.000000 1.000000 0.000000
vn 0.000000 1.000000 0.000000
vn 0.000000 1.000000 0.000000
vn 0.000000 1.000000 0.000000
vn 0.000000 1.000000 0.000000
vn 0.000000 1.000000 0.000000
vn 0.000000 1.000000 0.000000
vn 0.000000 1.000000 0.000000
vn 0.000001 0.000000 1.000000
vn 0.000001 0.000000 1.000000
vn 0.000001 0.000000 1.000000
vn 0.000001 0.000000 1.000000
vn -1.000000 0.000000 0.000000
vn -1.000000 0.000000 0.000000
vn -1.000000 0.000000 0.000000
vn 1.000000 0.000000 0.000000
vn 1.000000 0.000000 0.000000
vn 1.000000 0.000000 0.000000
vn 1.000000 0.000000 0.000000
vn -1.000000 -0.000002 0.000000
vn -1.000000 -0.000002 0.000000
vn -1.000000 -0.000002 0.000000
vn -1.000000 -0.000002 0.000000
vn -1.000000 0.000000 0.000000
vn -1.000000 0.000000 0.000000
vn -1.000000 0.000000 0.000000
vn 0.000000 0.000000 -1.000000
vn 0.000000 0.000000 -1.000000
vn 0.000000 0.000000 -1.000000
vn 0.000000 0.000000 -1.000000
vn 0.000000 1.000000 0.000000
vn 0.000000 1.000000 0.000000
vn 0.000000 1.000000 0.000000
vn 0.000000 1.000000 0.000000
vn 0.000000 1.000000 0.000000
vn 0.000000 1.000000 0.000000
vn 0.000000 1.000000 0.000000
vn 0.000000 1.000000 0.000000
vn 0.000000 0.588420 0.808555
vn 0.000000 0.588420 0.808555
vn 0.000000 0.588420 0.808555
vn 0.000000 0.588420 0.808555
vn -0.000000 0.588425 0.808552
vn -0.000000 0.588425 0.808552
vn -0.000000 0.588425 0.808552
vn 0.000000 0.000000 -1.000000
vn -0.000000 1.000000 0.000000
vn -0.000000 1.000000 0.000000
vn 0.000000 1.000000 0.000000
vn 0.000000 1.000000 0.000000
vn -0.000000 0.000000 1.000000
vn -0.000000 0.588425 -0.808552
vn -0.000000 0.588425 -0.808552
vn -0.000000 0.588425 -0.808552
vn 0.000000 0.588420 -0.808555
vn 0.000000 0.588420 -0.808555
vn 0.000000 0.588420 -0.808555
vn -0.000000 0.000000 1.000000
vn -1.000000 -0.000001 0.000000
vn -1.000000 -0.000001 0.000000
vn -1.000000 -0.000001 0.000000
vn -1.000000 -0.000001 0.000000
vn -1.000000 0.000000 0.000000
vn -1.000000 0.000000 0.000000
vn -1.000000 0.000000 0.000000
vn -1.000000 0.000000 0.000000
vn 0.000000 1.000000 -0.000000
vn 0.000000 1.000000 -0.000000
vn 0.000000 1.000000 -0.000000
vn 0.000000 1.000000 -0.000000
vn 0.000000 1.000000 0.000000
vn 0.000000 1.000000 0.000000
vn 0.000000 1.000000 -0.000000
vn 0.000000 1.000000 -0.000000
vn 0.000000 1.000000 0.000000
vn 0.000000 1.000000 0.000000
vn 0.000000 1.000000 0.000000
vn 0.000000 1.000000 0.000000
vn 0.000000 1.000000 0.000000
vn 0.000000 1.000000 0.000000
vn 0.000000 1.000000 0.000000
vn 0.000000 1.000000 0.000000
vn 0.000000 0.000000 -1.000000
vn 0.000000 0.000000 -1.000000
vn 0.000000 0.000000 -1.000000
vn 0.000000 0.000000 -1.000000
vn -1.000000 0.000000 0.000000
vn -1.000000 0.000000 0.000000
vn -1.000000 0.000000 0.000000
vn 1.000000 0.000000 0.000000
vn 1.000000 0.000000 0.000000
vn 1.000000 0.000000 0.000000
vn 1.000000 0.000000 0.000000
vn -1.000000 -0.000002 0.000000
vn -1.000000 -0.000002 0.000000
vn -1.000000 -0.000002 0.000000
vn -1.000000 -0.000002 0.000000
vn -1.000000 0.000000 0.000000
vn -1.000000 0.000000 0.000000
vn -1.000000 0.000000 0.000000
vn 0.000000 0.000000 1.000000
vn 0.000000 0.000000 1.000000
vn 0.000000 0.000000 1.000000
vn 0.000000 0.000000 1.000000
vn 0.000000 1.000000 -0.000000
vn 0.000000 1.000000 -0.000000
vn 0.000000 1.000000 0.000000
vn 0.000000 1.000000 0.000000
vn 0.000000 1.000000 0.000000
vn 0.000000 1.000000 0.000000
vn 0.000000 1.000000 0.000000
vn 0.000000 1.000000 0.000000
vn 0.000000 1.000000 0.000000
vn 0.000000 1.000000 0.000000
vn 0.000000 1.000000 0.000000
vn 0.000000 1.000000 0.000000
vn 0.000000 1.000000 0.000000
vn 0.000000 1.000000 0.000000
vn 0.000000 1.000000 0.000000
vn 0.000000 1.000000 0.000000
vn 0.000000 1.000000 0.000000
vn 0.000000 1.000000 0.000000
vn 0.000000 1.000000 0.000000
vn 0.000000 1.000000 0.000000
vn 0.000000 1.000000 0.000000
vn 0.000000 1.000000 0.000000
vn 0.000000 1.000000 0.000000
vn 0.000000 1.000000 0.000000
vn 0.000000 1.000000 0.000000
vn 0.000000 1.000000 0.000000
vn 0.000000 1.000000 0.000000
vn 0.000000 1.000000 -0.000000
vn 0.000000 1.000000 0.000000
s off
f 10/19/1 9/20/2 11/22/3 12/24/4
f 13/26/5 3/6/6 10/18/7 12/23/8
f 14/27/9 5/11/10 3/10/11 13/25/12
f 5/3/13 14/28/14 15/29/15 8/5/16
f 16/31/17 6/9/18 8/8/19 15/30/20
f 15/13/21 14/34/22 13/33/23 12/15/24
f 16/35/25 15/13/26 12/15/27 11/36/28
f 9/12/29 7/17/30 17/37/31 11/21/32
f 18/39/33 4/14/34 6/4/35 16/32/36
f 18/2/37 19/70/38 1/69/39 56/142/40 59/146/41 27/67/42 26/66/43 29/65/44 28/42/45
f 23/47/46 24/50/47 22/49/48 21/48/49
f 20/16/50 21/54/51 22/53/52 17/44/53
f 17/40/54 22/41/55 11/36/56
f 19/43/57 23/57/58 21/56/59 20/55/60
f 11/36/61 22/41/62 24/51/63 16/35/64
f 16/35/65 24/51/66 18/52/67
f 18/45/68 24/59/69 23/58/70 19/46/71
f 4/7/72 18/38/73 28/63/74 29/64/75 26/61/76 27/62/77 25/60/78 2/1/79
f 37/71/80 39/72/81 38/73/82 36/74/83
f 40/75/84 39/76/85 37/77/86 30/78/87
f 41/79/88 40/80/89 30/81/90 32/82/91
f 32/83/92 35/84/93 42/85/94 41/86/95
f 43/87/96 42/88/97 35/89/98 33/90/99
f 42/91/100 39/92/101 40/93/102 41/94/103
f 43/95/104 38/96/105 39/92/106 42/91/107
f 36/97/108 38/98/109 44/99/110 34/100/111
f 45/101/112 43/102/113 33/103/114 31/104/115
f 56/141/116 53/109/117 25/110/118 57/143/119
f 50/113/120 48/114/121 49/115/122 51/116/123
f 47/117/124 44/118/125 49/119/126 48/120/127
f 44/121/128 38/96/129 49/122/130
f 46/123/131 47/124/132 48/125/133 50/126/134
f 38/96/135 43/95/136 51/127/137 49/122/138
f 43/95/139 45/128/140 51/127/141
f 45/129/142 46/130/143 50/131/144 51/132/145
f 31/133/146 2/134/147 25/135/148 53/136/149 52/137/150 55/138/151 54/139/152 45/140/153
f 27/67/154 58/145/155 57/144/156 25/68/157
f 58/147/158 59/148/159 56/149/160 57/150/161
f 27/67/162 59/146/163 58/145/164
f 56/141/165 52/108/166 53/109/167
f 45/105/168 54/106/169 55/107/170 52/108/171 56/141/172 1/111/173 46/112/174
