# This file uses meters as units for non-parametric coordinates.

v -0.142222 1.148990 11.619259
v 0.142222 1.148990 11.619259
v -0.142222 1.675253 11.619259
v 0.142222 1.675253 11.619259
v -0.142222 1.675253 2.021280
v 0.142222 1.675253 2.021280
v -0.142222 1.148990 2.021280
v 0.142222 1.148990 2.021280
v -0.142222 1.574862 11.825405
v 0.142222 1.574862 11.825405
v -0.142222 1.249382 11.825405
v 0.142222 1.249382 11.825405
v -0.390448 1.083192 1.747438
v -0.093324 1.083192 0.691968
v -0.233253 1.083192 1.553946
v 0.390461 1.083192 1.747438
v -0.390448 1.684768 1.740902
v -0.114762 1.085914 0.231320
v 0.233265 1.083192 1.553946
v 0.093335 1.083192 0.691968
v 0.390460 1.684768 1.740902
v -0.114817 1.258133 0.254512
v -0.106798 1.257181 0.068288
v 0.114581 1.085914 0.231320
v -0.233253 1.631106 1.553946
v -0.093324 1.383695 0.691968
v -0.106798 1.192305 0.070445
v 0.106808 1.257181 0.068288
v 0.115019 1.258133 0.254512
v 0.093335 1.383695 0.691968
v 0.233265 1.631106 1.553946
v -0.106798 1.267874 -0.133814
v -0.106798 1.192305 -0.138731
v 0.106808 1.192305 0.070445
v 0.106808 1.192305 -0.138731
v 0.106808 1.267874 -0.133814
v -0.213963 1.083192 2.032029
v 0.213975 1.083192 2.032029
v -0.213963 1.700467 2.025493
v 0.213975 1.700467 2.025493
v -0.027043 1.081354 11.740915
v 0.043070 1.081354 11.740915
v -0.027043 1.837241 11.740915
v 0.043070 1.837241 11.740915
v -0.027043 1.837241 11.670803
v 0.043070 1.837241 11.670803
v -0.027043 1.081354 11.670803
v 0.043070 1.081354 11.670803
vt 0.204596 0.354422
vt 0.204596 0.354422
vt 0.204596 0.354422
vt 0.204596 0.354422
vt 0.204596 0.354422
vt 0.204596 0.354422
vt 0.204596 0.354422
vt 0.204596 0.354422
vt 0.204596 0.354422
vt 0.204596 0.354422
vt 0.204596 0.354422
vt 0.204596 0.354422
vt 0.264581 0.354422
vt 0.264581 0.354422
vt 0.264581 0.354422
vt 0.264581 0.354422
vt 0.143011 0.354422
vt 0.143011 0.354422
vt 0.143011 0.354422
vt 0.143011 0.354422
vt 0.110039 0.354422
vt 0.110039 0.354422
vt 0.110039 0.354422
vt 0.110039 0.354422
vt 0.204596 0.354422
vt 0.204596 0.354422
vt 0.204596 0.354422
vt 0.204596 0.354422
vt 0.204596 0.354422
vt 0.204596 0.354422
vt 0.204596 0.354422
vt 0.204596 0.354422
vt 0.264581 0.354422
vt 0.264581 0.354422
vt 0.264581 0.354422
vt 0.264581 0.354422
vt 0.204596 0.354422
vt 0.204596 0.354422
vt 0.110039 0.354422
vt 0.110039 0.354422
vt 0.264581 0.354422
vt 0.264581 0.354422
vt 0.264581 0.354422
vt 0.264581 0.354422
vt 0.204596 0.354422
vt 0.204596 0.354422
vt 0.110039 0.354422
vt 0.110039 0.354422
vt 0.204596 0.354422
vt 0.204596 0.354422
vt 0.264581 0.354422
vt 0.264581 0.354422
vt 0.264581 0.354422
vt 0.264581 0.354422
vt 0.204596 0.354422
vt 0.204596 0.354422
vt 0.264581 0.354422
vt 0.264581 0.354422
vt 0.264581 0.354422
vt 0.264581 0.354422
vt 0.110039 0.354422
vt 0.110039 0.354422
vt 0.110039 0.354422
vt 0.110039 0.354422
vt 0.173105 0.354422
vt 0.173105 0.354422
vt 0.173105 0.354422
vt 0.173105 0.354422
vt 0.143011 0.354422
vt 0.143011 0.354422
vt 0.143011 0.354422
vt 0.143011 0.354422
vt 0.173105 0.354422
vt 0.173105 0.354422
vt 0.173105 0.354422
vt 0.173105 0.354422
vt 0.143011 0.354422
vt 0.143011 0.354422
vt 0.143011 0.354422
vt 0.143011 0.354422
vt 0.110039 0.354422
vt 0.110039 0.354422
vt 0.110039 0.354422
vt 0.110039 0.354422
vt 0.204596 0.354422
vt 0.204596 0.354422
vt 0.204596 0.354422
vt 0.204596 0.354422
vt 0.204596 0.354422
vt 0.204596 0.354422
vt 0.204596 0.354422
vt 0.204596 0.354422
vt 0.234492 0.354422
vt 0.234492 0.354422
vt 0.234492 0.354422
vt 0.234492 0.354422
vt 0.204596 0.354422
vt 0.143011 0.354422
vt 0.143011 0.354422
vt 0.143011 0.354422
vt 0.143011 0.354422
vt 0.143011 0.354422
vt 0.143011 0.354422
vt 0.143011 0.354422
vt 0.143011 0.354422
vt 0.204596 0.354422
vt 0.204596 0.354422
vt 0.204596 0.354422
vt 0.204596 0.354422
vt 0.143011 0.354422
vt 0.143011 0.354422
vt 0.143011 0.354422
vt 0.143011 0.354422
vt 0.173105 0.477299
vt 0.173105 0.477299
vt 0.173105 0.477299
vt 0.173105 0.477299
vt 0.204596 0.477299
vt 0.204596 0.477299
vt 0.204596 0.477299
vt 0.204596 0.477299
vt 0.173105 0.477299
vt 0.173105 0.477299
vt 0.173105 0.477299
vt 0.173105 0.477299
vt 0.143011 0.477299
vt 0.143011 0.477299
vt 0.143011 0.477299
vt 0.143011 0.477299
vt 0.143011 0.477299
vt 0.143011 0.477299
vt 0.143011 0.477299
vt 0.143011 0.477299
vn 0.000000 0.000000 1.000000
vn 0.000000 0.000000 1.000000
vn 0.000000 0.000000 1.000000
vn 0.000000 0.000000 1.000000
vn 0.000000 -1.000000 0.000000
vn 0.000000 -1.000000 0.000000
vn 0.000000 -1.000000 0.000000
vn 0.000000 -1.000000 0.000000
vn 1.000000 0.000000 0.000000
vn 1.000000 0.000000 0.000000
vn 1.000000 0.000000 0.000000
vn 1.000000 0.000000 0.000000
vn -1.000000 0.000000 0.000000
vn -1.000000 0.000000 0.000000
vn -1.000000 0.000000 0.000000
vn -1.000000 0.000000 0.000000
vn 0.000000 1.000000 0.000000
vn 0.000000 1.000000 0.000000
vn 0.000000 1.000000 0.000000
vn 0.000000 1.000000 0.000000
vn 0.000000 0.899056 0.437833
vn 0.000000 0.899056 0.437833
vn 0.000000 0.899056 0.437833
vn 0.000000 0.899056 0.437833
vn -1.000000 0.000000 0.000000
vn -1.000000 0.000000 0.000000
vn -1.000000 0.000000 0.000000
vn -1.000000 0.000000 0.000000
vn 0.000000 -0.899056 0.437834
vn 0.000000 -0.899056 0.437834
vn 0.000000 -0.899056 0.437834
vn 0.000000 -0.899056 0.437834
vn 1.000000 0.000000 0.000000
vn 1.000000 0.000000 0.000000
vn 1.000000 0.000000 0.000000
vn 1.000000 0.000000 0.000000
vn 0.000000 -0.999983 -0.005909
vn 0.000000 -0.999983 -0.005909
vn 0.000000 -0.999983 -0.005909
vn 0.000000 -0.999983 -0.005909
vn -0.983453 0.003829 -0.181121
vn -0.983453 0.003829 -0.181121
vn -0.983453 0.003829 -0.181121
vn -0.983453 0.003829 -0.181121
vn 0.983467 0.003341 -0.181056
vn 0.983467 0.003341 -0.181056
vn 0.983467 0.003341 -0.181056
vn 0.983467 0.003341 -0.181056
vn 0.000000 0.961189 -0.275889
vn 0.000000 0.961189 -0.275889
vn 0.000000 0.961190 -0.275889
vn 0.000000 0.961190 -0.275889
vn -0.998720 -0.001681 -0.050555
vn -0.998720 -0.001681 -0.050555
vn -0.998720 -0.001681 -0.050555
vn 0.000000 -0.834101 -0.551612
vn 0.000000 -0.834101 -0.551612
vn 0.000000 -0.834101 -0.551612
vn 0.000000 -0.834101 -0.551612
vn 0.000000 0.999987 -0.005109
vn 0.000000 0.999987 -0.005109
vn 0.000000 0.999987 -0.005109
vn 0.000000 0.999987 -0.005109
vn -1.000000 0.000000 0.000000
vn -1.000000 0.000000 0.000000
vn -1.000000 0.000000 0.000000
vn -1.000000 0.000000 0.000000
vn 0.000000 -1.000000 0.000000
vn 0.000000 -1.000000 0.000000
vn 0.000000 -1.000000 0.000000
vn 0.000000 -1.000000 0.000000
vn 0.998781 -0.001641 -0.049342
vn 0.998781 -0.001641 -0.049342
vn 0.998781 -0.001641 -0.049342
vn 0.000000 0.998603 0.052833
vn 0.000000 0.998603 0.052833
vn 0.000000 0.998603 0.052833
vn 0.000000 0.998603 0.052833
vn 0.000000 0.064936 -0.997889
vn 0.000000 0.064936 -0.997889
vn 0.000000 0.064936 -0.997889
vn 0.000000 0.064936 -0.997889
vn 1.000000 0.000000 0.000000
vn 1.000000 0.000000 0.000000
vn 1.000000 0.000000 0.000000
vn 1.000000 0.000000 0.000000
vn 0.000000 0.961190 -0.275889
vn 0.000000 0.961190 -0.275889
vn 0.000000 0.961190 -0.275889
vn 0.000000 0.961190 -0.275889
vn 0.000000 0.961190 -0.275888
vn 0.000000 0.961190 -0.275888
vn 0.000000 0.961190 -0.275888
vn 0.000000 0.961190 -0.275888
vn 0.000000 0.961190 -0.275888
vn 0.000000 0.961190 -0.275888
vn 0.000000 0.961190 -0.275888
vn 0.000000 0.961190 -0.275888
vn 0.000000 -1.000000 -0.000000
vn 0.000000 -1.000000 -0.000000
vn 0.000000 -1.000000 -0.000000
vn 0.000000 -1.000000 -0.000000
vn 0.987078 0.000000 0.160238
vn 0.987078 0.000000 0.160238
vn 0.987079 0.000000 0.160238
vn 0.987079 0.000000 0.160238
vn 0.000000 0.000000 -1.000000
vn 0.000000 0.000000 -1.000000
vn 0.000000 0.000000 -1.000000
vn 0.000000 0.000000 -1.000000
vn -0.987078 0.000000 0.160239
vn -0.987078 0.000000 0.160239
vn -0.987078 0.000000 0.160239
vn -0.987078 0.000000 0.160239
vn 0.000000 0.000000 1.000000
vn 0.000000 0.000000 1.000000
vn 0.000000 0.000000 1.000000
vn 0.000000 0.000000 1.000000
vn -0.000000 -1.000000 0.000000
vn -0.000000 -1.000000 0.000000
vn -0.000000 -1.000000 0.000000
vn -0.000000 -1.000000 0.000000
vn -0.849907 0.005651 0.526902
vn -0.849907 0.005651 0.526902
vn -0.849907 0.005651 0.526902
vn -0.849907 0.005651 0.526902
vn 0.849907 0.005651 0.526903
vn 0.849907 0.005651 0.526903
vn 0.849907 0.005651 0.526903
vn 0.849907 0.005651 0.526903
vn -0.000000 0.998482 -0.055080
vn -0.000000 0.998482 -0.055080
vn -0.000000 0.998482 -0.055080
vn -0.000000 0.998482 -0.055080
vn -0.999058 0.005480 -0.043049
vn -0.999058 0.005480 -0.043049
vn -0.999058 0.005480 -0.043049
vn 0.999023 0.003393 -0.044066
vn 0.999023 0.003393 -0.044066
vn 0.999023 0.003393 -0.044066
vn -0.010723 -0.999938 -0.003018
vn -0.010723 -0.999938 -0.003018
vn -0.010723 -0.999938 -0.003018
vn -0.010723 -0.999938 -0.003018
vn 0.010731 -0.999938 -0.003020
vn 0.010731 -0.999938 -0.003020
vn 0.010731 -0.999938 -0.003020
vn 0.010731 -0.999938 -0.003020
vn -0.102098 0.005686 0.994758
vn -0.102098 0.005686 0.994758
vn -0.102098 0.005686 0.994758
vn -0.102098 0.005686 0.994758
vn 0.102117 0.005686 0.994756
vn 0.102117 0.005686 0.994756
vn 0.102117 0.005686 0.994756
vn 0.102117 0.005686 0.994756
vn 0.000000 -0.164781 0.986330
vn 0.000000 -0.164781 0.986330
vn 0.000000 -0.164781 0.986330
vn 0.000000 -0.164781 0.986330
vn 0.000000 0.161217 0.986919
vn 0.000000 0.161217 0.986919
vn 0.000000 0.161217 0.986919
vn 0.000000 0.161216 0.986919
vn 0.000000 0.000000 1.000000
vn 0.000000 0.000000 1.000000
vn 0.000000 0.000000 1.000000
vn 0.000000 0.000000 1.000000
vn 0.000000 1.000000 0.000000
vn 0.000000 1.000000 0.000000
vn 0.000000 1.000000 0.000000
vn 0.000000 1.000000 0.000000
vn 0.000000 0.000000 -1.000000
vn 0.000000 0.000000 -1.000000
vn 0.000000 0.000000 -1.000000
vn 0.000000 0.000000 -1.000000
vn 0.000000 -1.000000 0.000000
vn 0.000000 -1.000000 0.000000
vn 0.000000 -1.000000 0.000000
vn 0.000000 -1.000000 0.000000
vn 1.000000 0.000000 0.000000
vn 1.000000 0.000000 0.000000
vn 1.000000 0.000000 0.000000
vn 1.000000 0.000000 0.000000
vn -1.000000 0.000000 0.000000
vn -1.000000 0.000000 0.000000
vn -1.000000 0.000000 0.000000
vn -1.000000 0.000000 0.000000
s off
f 10/110/1 9/111/2 11/112/3 12/113/4
f 8/17/5 2/18/6 1/19/7 7/20/8
f 4/11/9 2/9/10 8/8/11 6/7/12
f 5/6/13 7/5/14 1/10/15 3/12/16
f 4/13/17 6/14/18 5/15/19 3/16/20
f 4/106/21 3/107/22 9/108/23 10/109/24
f 3/12/25 1/10/26 11/3/27 9/2/28
f 1/10/29 2/9/30 12/4/31 11/3/32
f 2/9/33 4/11/34 10/1/35 12/4/36
f 14/21/37 18/22/38 24/23/39 20/24/40
f 13/25/41 17/26/42 22/27/43 18/28/44
f 29/29/45 21/30/46 16/31/47 24/32/48
f 31/33/49 25/34/50 17/35/51 21/36/52
f 18/28/53 23/37/54 27/38/55
f 24/23/56 18/22/57 27/39/58 34/40/59
f 23/41/60 22/42/61 29/43/62 28/44/63
f 27/38/64 23/37/65 32/45/66 33/46/67
f 34/40/68 27/39/69 33/47/70 35/48/71
f 24/32/72 34/49/73 28/50/74
f 32/51/75 23/52/76 28/53/77 36/54/78
f 33/46/79 32/45/80 36/55/81 35/56/82
f 34/49/83 35/56/84 36/55/85 28/50/86
f 22/57/87 26/58/88 30/59/89 29/60/90
f 17/35/91 25/34/92 26/58/93 22/57/94
f 21/36/95 29/60/96 30/59/97 31/33/98
f 13/61/99 15/62/100 19/63/101 16/64/102
f 26/65/103 25/66/104 15/67/105 14/68/106
f 25/69/107 31/70/108 19/71/109 15/72/110
f 20/73/111 19/74/112 31/75/113 30/76/114
f 14/77/115 20/78/116 30/79/117 26/80/118
f 13/81/119 16/82/120 38/83/121 37/84/122
f 17/85/123 13/86/124 37/87/125 39/88/126
f 16/89/127 21/90/128 40/91/129 38/92/130
f 21/93/131 17/94/132 39/95/133 40/96/134
f 23/37/135 18/28/136 22/27/137
f 29/97/138 24/32/139 28/50/140
f 13/61/141 18/22/142 14/21/143 15/62/144
f 20/24/145 24/23/146 16/64/147 19/63/148
f 6/98/149 8/99/150 38/100/151 40/101/152
f 7/102/153 5/103/154 39/104/155 37/105/156
f 6/98/157 40/101/158 39/104/159 5/103/160
f 8/99/161 7/102/162 37/105/163 38/100/164
f 41/114/165 42/115/166 44/116/167 43/117/168
f 43/118/169 44/119/170 46/120/171 45/121/172
f 45/122/173 46/123/174 48/124/175 47/125/176
f 47/125/177 48/124/178 42/115/179 41/114/180
f 42/126/181 48/127/182 46/128/183 44/129/184
f 47/130/185 41/131/186 43/132/187 45/133/188
