<?xml version="1.0" standalone="no"?>
<!DOCTYPE svg PUBLIC "-//W3C//DTD SVG 20010904//EN"
 "http://www.w3.org/TR/2001/REC-SVG-20010904/DTD/svg10.dtd">
<svg version="1.0" xmlns="http://www.w3.org/2000/svg"
 width="32.000000pt" height="32.000000pt" viewBox="0 0 32 32"
 preserveAspectRatio="xMidYMid meet">
<metadata>
Created by potrace 1.11, written by Peter Selinger 2001-2013
</metadata>
<g fill="#000000" stroke="none">
<path d="m26 28c-2.194 0-4-1.806-4-4s1.806-4 4-4 4 1.806 4 4c-.002 2.193-1.807 3.998-4 4zm0-6c-1.097 0-2 .903-2 2s.903 2 2 2 2-.903 2-2c-.001-1.097-.903-1.999-2-2z"/>
<path d="m24 8h-6v2h6c.549 0 1 .451 1 1s-.451 1-1 1h-3c-.548 0-.999.452-.999 1 0 .066.006.132.019.196l.924 4.621-2.51 4.183h-2.69l-2.572-8.575c-.25-.846-1.034-1.429-1.916-1.425h-5.256v2h5.256l.6 2h-4.856c-2.742.003-4.997 2.258-5 5v2c0 .549.451 1 1 1h1c0 2.194 1.806 4 4 4s4-1.806 4-4h7c.351 0 .677-.185.857-.485l3-5c.128-.214.172-.467.124-.711l-.761-3.804h1.78c1.646 0 3-1.354 3-3s-1.354-3-3-3zm-16 18c-1.097-.001-1.999-.903-2-2h4c-.001 1.097-.903 1.999-2 2zm-4-4v-1c.002-1.645 1.355-2.998 3-3h5.456l1.2 4z"/>
</g>
</svg>